<svg xmlns="http://www.w3.org/2000/svg" xmlns:xlink="http://www.w3.org/1999/xlink" width="247.123" height="222.813" viewBox="0 0 247.123 222.813"><defs><clipPath id="a"><rect width="247.123" height="222.814" fill="none"/></clipPath><clipPath id="c"><rect width="34.221" height="20.407" fill="none"/></clipPath><clipPath id="d"><rect width="26.774" height="25.68" fill="none"/></clipPath><clipPath id="e"><rect width="29.704" height="22.288" fill="none"/></clipPath><clipPath id="f"><rect width="42.951" height="37.9" fill="none"/></clipPath></defs><g clip-path="url(#a)"><g clip-path="url(#a)"><path d="M232.464,111.407A111.407,111.407,0,1,1,121.057,0,111.407,111.407,0,0,1,232.464,111.407" transform="translate(2.504)" fill="#ff6176"/><path d="M80.3,70.648,107,58.228l16.766,1.882s-5.734,10.164,1.222,16.331l45.639,43.936-29.146,30.172-19.033,3.46S89.735,140.073,79.289,134.5c-3.675-1.961-41.976-20.841-41.976-20.841L55.922,63.617Z" transform="translate(9.682 15.11)" fill="#ffb5a1"/><path d="M93.418,109.41c4.106,2.788,8.238,5.543,12.28,8.412l19.972-21.235-26.911-36.3L74.037,72.179l-8.706,19.86A288.613,288.613,0,0,1,93.418,109.41" transform="translate(16.953 15.644)" fill="#ffcabb"/><path d="M132.284,88.811,87.151,136.325c11.308,5.038,22.36,9.747,22.36,9.747l19.033-3.46L157.69,112.44Z" transform="translate(22.615 23.045)" fill="#ff8b6b"/><g transform="translate(120.162 145.368)" opacity="0.5"><g clip-path="url(#c)"><path d="M95.406,126.336l26.607,9.489,7.614-8.767-23.9-11.639Z" transform="translate(-95.406 -115.418)" fill="#ffb5a1"/></g></g><path d="M69.728,66.488,55.922,62.507,37.313,112.548l13.82,6.823Z" transform="translate(9.682 16.22)" fill="#ff8b6b"/><g transform="translate(147.54 116.784)" opacity="0.5"><g clip-path="url(#d)"><path d="M117.143,103.272,136.456,118.4l7.461-7.986-16.8-17.695-9.976,10.549" transform="translate(-117.143 -92.724)" fill="#ffb5a1"/></g></g><g transform="translate(134.44 131.17)" opacity="0.5"><g clip-path="url(#e)"><path d="M106.742,114.163l22.765,12.27L136.446,119l-20.231-14.858q-4.768,5.04-9.473,10.017" transform="translate(-106.742 -104.145)" fill="#ffb5a1"/></g></g><path d="M69.852,63.214l-18,63.006L20.89,116.105l22.328-63.68Z" transform="translate(5.421 13.604)" fill="#ccc"/><path d="M61.247,82.084l5.389-18.871L40,52.426,33.281,71.6c9.085,4.056,18.547,7.212,27.966,10.485" transform="translate(8.636 13.604)" fill="#e6e6e6"/><path d="M29.356,83.814,20.89,107.96l30.966,10.115L58.075,96.3c-2.7-1.013-21.739-9.614-28.719-12.484" transform="translate(5.421 21.749)" fill="#b3b3b3"/><path d="M57.087,72.512l3.38-9.15L40.427,54.82l-3.057,9.287Z" transform="translate(9.697 14.225)" fill="#f2f2f2"/><path d="M53.21,86.7l4.567-13.066L37.738,65.089l-4.244,13.2Z" transform="translate(8.691 16.89)" fill="#f2f2f2"/><path d="M39.635,101.5a3.565,3.565,0,1,1-3.47-3.656,3.565,3.565,0,0,1,3.47,3.656" transform="translate(8.435 25.389)" fill="#2b2b2b"/><path d="M39.652,100.866a3.565,3.565,0,1,1-3.47-3.656,3.564,3.564,0,0,1,3.47,3.656" transform="translate(8.439 25.224)" fill="#6a6a6a"/><g transform="translate(98.574 77.426)" opacity="0.5" style="mix-blend-mode:multiply;isolation:isolate"><g clip-path="url(#f)"><path d="M114.357,75.6c-4.8-4.251-3.559-10.4-2.329-13.813l-4-.311L86.817,73.755,78.644,91.872A4.291,4.291,0,0,0,80.2,97.22,13.081,13.081,0,0,0,98.171,93.7L103.5,85.94l17.716-2.179Z" transform="translate(-78.265 -61.474)" fill="#ffb5a1"/></g></g><path d="M167.41,57.954,142.924,62.37l-37.659-2.927L84.054,71.723,75.881,89.839a4.291,4.291,0,0,0,1.552,5.348,13.083,13.083,0,0,0,17.975-3.522l5.328-7.758,17.716-2.179,40.911,37.358,12.809-10.864,17.035-3.737Z" transform="translate(19.592 15.038)" fill="#ffb5a1"/><path d="M82.135,73.907,77.225,84.789c-.088.139.637,4.31,5.478,3.4,2.3-.435,4.1-4.1,5.321-7.388a68.557,68.557,0,0,1-5.889-6.891" transform="translate(20.037 19.178)" fill="#ffcabb"/><path d="M185.644,100.006,168.093,62.539,120.736,74.051,96.611,79.3,83.293,96.119a13.05,13.05,0,0,0,10.094-5.644l5.328-7.758,17.716-2.179L157.341,117.9,170.15,107.03,184.9,103.8Z" transform="translate(21.614 16.228)" fill="#ff8b6b"/><path d="M151.569,111.606l3.99-3.384,17.035-3.737L150.8,57.954l-11.272,2.033Z" transform="translate(36.205 15.038)" fill="#ff754f"/><path d="M156.342,109.244,109.6,76.831l40.909,37.356Z" transform="translate(28.441 19.937)" fill="#ff754f"/><path d="M100.077,146.5l-8.454-5.544a2.978,2.978,0,0,1-.856-4.122l7.7-11.742a2.976,2.976,0,0,1,4.122-.856l8.454,5.544a2.978,2.978,0,0,1,.856,4.122l-7.7,11.742a2.978,2.978,0,0,1-4.122.856" transform="translate(23.426 32.111)" fill="#ffcabb"/><path d="M100.5,148.593l-8.454-5.544a2.978,2.978,0,0,1-.856-4.122l7.7-11.742a2.977,2.977,0,0,1,4.122-.858l8.454,5.544a2.978,2.978,0,0,1,.856,4.122l-7.7,11.743a2.978,2.978,0,0,1-4.122.856" transform="translate(23.537 32.654)" fill="#ffb5a1"/><path d="M92.574,143.308c3.772-5.465,7.683-10.869,11.669-16.207l-.354-.233a4.132,4.132,0,0,0-5.719,1.189l-6.436,9.814a4.117,4.117,0,0,0,.84,5.437" transform="translate(23.63 32.745)" fill="#ff8b6b"/><path d="M101.531,139.384l-3.868-2.718a2.56,2.56,0,0,1-.622-3.567l2.9-4.132a1.716,1.716,0,0,1,2.389-.417l5.25,3.69A1.713,1.713,0,0,1,108,134.63l-2.9,4.132a2.56,2.56,0,0,1-3.567.622" transform="translate(25.06 33.276)" fill="#ffcabb"/><path d="M86.4,144.973l-9.252-7.349a2.977,2.977,0,0,1-.48-4.183L92.03,114.1a2.977,2.977,0,0,1,4.183-.479l9.252,7.349a2.977,2.977,0,0,1,.48,4.183L90.584,144.493a2.977,2.977,0,0,1-4.183.48" transform="translate(19.727 29.316)" fill="#ffcabb"/><path d="M86.4,147.1l-9.252-7.349a2.977,2.977,0,0,1-.48-4.183L92.03,116.232a2.977,2.977,0,0,1,4.183-.479l9.252,7.349a2.977,2.977,0,0,1,.48,4.183L90.584,146.622a2.976,2.976,0,0,1-4.183.48" transform="translate(19.727 29.869)" fill="#ffb5a1"/><path d="M92.092,129.2l-3.781-2.836a2.561,2.561,0,0,1-.513-3.585l3.032-4.04a1.717,1.717,0,0,1,2.4-.343l5.132,3.85a1.716,1.716,0,0,1,.343,2.4l-3.03,4.039a2.56,2.56,0,0,1-3.585.511" transform="translate(22.65 30.634)" fill="#ffcabb"/><path d="M74.328,137.22l-9.252-7.349a2.977,2.977,0,0,1-.48-4.183l12.367-15.57a2.977,2.977,0,0,1,4.183-.479l9.252,7.349a2.977,2.977,0,0,1,.48,4.183L78.511,136.741a2.976,2.976,0,0,1-4.183.48" transform="translate(16.594 28.283)" fill="#ffcabb"/><path d="M73.941,139.156l-9.252-7.349a2.977,2.977,0,0,1-.48-4.183l12.367-15.57a2.977,2.977,0,0,1,4.183-.479l9.252,7.349a2.977,2.977,0,0,1,.48,4.183L78.124,138.677a2.976,2.976,0,0,1-4.183.48" transform="translate(16.494 28.785)" fill="#ffb5a1"/><path d="M77.213,125.027l-3.854-2.737a2.561,2.561,0,0,1-.6-3.571l2.923-4.117a1.716,1.716,0,0,1,2.393-.4l5.231,3.714a1.715,1.715,0,0,1,.406,2.393l-2.925,4.117a2.56,2.56,0,0,1-3.569.6" transform="translate(18.756 29.551)" fill="#ffcabb"/><path d="M64.483,129.146l-10.115-6.109a2.977,2.977,0,0,1-1.009-4.087l8.358-13.841a2.978,2.978,0,0,1,4.088-1.009l10.114,6.109a2.976,2.976,0,0,1,1.01,4.087L68.57,128.138a2.976,2.976,0,0,1-4.087,1.009" transform="translate(13.735 26.902)" fill="#ffcabb"/><path d="M64.191,131l-10.115-6.109a2.978,2.978,0,0,1-1.009-4.088l8.358-13.839a2.978,2.978,0,0,1,4.088-1.009l10.114,6.109a2.976,2.976,0,0,1,1.01,4.087l-8.359,13.841A2.977,2.977,0,0,1,64.191,131" transform="translate(13.659 27.384)" fill="#ffb5a1"/><path d="M64.65,119.325,60.6,116.882a2.561,2.561,0,0,1-.867-3.515l2.61-4.323a1.716,1.716,0,0,1,2.355-.582l5.493,3.316a1.717,1.717,0,0,1,.582,2.357l-2.611,4.323a2.559,2.559,0,0,1-3.514.868" transform="translate(15.405 28.08)" fill="#ffcabb"/><path d="M141.571,58.572l18,63.006,30.966-10.115L168.2,47.784Z" transform="translate(36.736 12.399)" fill="#e6e6e6"/><path d="M167.288,62.841c-7.268,2.981-14.936,4.915-22.245,7.762l13.623,47.7,30.967-10.115L172.885,60.422c-1.853.835-3.715,1.647-5.6,2.419" transform="translate(37.637 15.679)" fill="#ccc"/><path d="M151.125,92.169l5.962,20.876,30.966-10.115-7.805-22.26c-9.645,4-19.282,8.017-29.123,11.5" transform="translate(39.215 20.933)" fill="#b3b3b3"/><path d="M163.153,96.224a3.565,3.565,0,1,0,3.47-3.656,3.564,3.564,0,0,0-3.47,3.656" transform="translate(42.336 24.02)" fill="#6a6a6a"/><path d="M144.755,59.06,165.539,50.7l5.874,14.233L149.272,74.2Z" transform="translate(37.562 13.156)" fill="#f2f2f2"/><path d="M149.6,73.668l21.377-8.742,5.281,14.616-22.7,8.978Z" transform="translate(38.819 16.847)" fill="#f2f2f2"/><path d="M29.238,38.693,0,128.272l22.065,7.976,29.01-88.88Z" transform="translate(0 10.04)" fill="#333"/><path d="M38.59,72.3l8.138-24.932L24.89,38.693,16.753,63.625Z" transform="translate(4.347 10.04)" fill="#4d4d4d"/><path d="M177.494,38.693l29.238,89.579-22.065,7.976-29.01-88.88Z" transform="translate(40.391 10.04)" fill="#333"/><path d="M163.795,72.3l-8.138-24.932,21.837-8.675,8.138,24.932Z" transform="translate(40.391 10.04)" fill="#4d4d4d"/></g></g></svg>