<svg xmlns="http://www.w3.org/2000/svg" width="525" height="168" viewBox="0 0 525 168"><g transform="translate(-810 -939)"><rect width="486" height="168" rx="25" transform="translate(849 939)" fill="#e9f4fd"/><g transform="translate(525 145)"><circle cx="39" cy="39" r="39" transform="translate(285 839)" fill="#b52426"/><path d="M27,31H12.117V27.777l6.855-7.207q2.534-2.886,2.534-4.585a3.189,3.189,0,0,0-.6-2.095,2.144,2.144,0,0,0-1.743-.718,2.171,2.171,0,0,0-1.831.959,3.943,3.943,0,0,0-.7,2.4H11.678a7,7,0,0,1,.981-3.625,6.882,6.882,0,0,1,2.725-2.6,8.094,8.094,0,0,1,3.9-.937,7.962,7.962,0,0,1,5.325,1.6,5.7,5.7,0,0,1,1.868,4.585A6.658,6.658,0,0,1,26,18a10.76,10.76,0,0,1-1.458,2.5,36.715,36.715,0,0,1-3.186,3.508l-2.754,3.179H27Z" transform="translate(305 860)" fill="#fff"/></g></g></svg>