<svg xmlns="http://www.w3.org/2000/svg" xmlns:xlink="http://www.w3.org/1999/xlink" width="234.677" height="229.791" viewBox="0 0 234.677 229.791"><defs><clipPath id="a"><rect width="210.647" height="210.647" fill="none"/></clipPath><clipPath id="b"><rect width="223.033" height="229.791" fill="none"/></clipPath><clipPath id="c"><rect width="223.034" height="229.79" fill="none"/></clipPath><clipPath id="d"><rect width="4.354" height="2.589" fill="none"/></clipPath><clipPath id="e"><rect width="9.689" height="4.174" fill="none"/></clipPath><clipPath id="f"><rect width="10.559" height="4.058" fill="none"/></clipPath><clipPath id="g"><rect width="11.086" height="6.419" fill="none"/></clipPath><clipPath id="h"><rect width="1.841" height="2.059" fill="none"/></clipPath></defs><g transform="translate(-959.101 -8590.741)"><g transform="translate(983.131 8600.574)"><g clip-path="url(#a)"><path d="M210.647,105.323A105.323,105.323,0,1,1,105.323,0,105.323,105.323,0,0,1,210.647,105.323" fill="#ff6176"/></g></g><g transform="translate(959.101 8590.741)"><g clip-path="url(#b)"><g transform="translate(0 0)"><g clip-path="url(#c)"><path d="M84.21,56.154c-4.425-3-9.115-5.709-13.563-8.523-2.586-1.637-5.348-4.067-8.252-5.054-1.175-.4-2.586-.387-3.3.82-.851,1.44.147,2.257,1.3,2.921,3.172,1.815,6.387,3.55,9.554,5.371,4.748,2.733,9.424,5.582,14.071,8.48Z" transform="translate(110.873 79.871)" fill="#ccbcbc"/><path d="M76.923,44.563c-.635-1.25-2.044-1.348-3.241-1.025-2.958.8-5.868,3.054-8.552,4.526-5.83,3.192-12.053,6.177-17.653,9.854l-.064,3.738q8.979-4.931,18.152-9.5c3.273-1.622,6.6-3.149,9.874-4.762,1.2-.589,2.243-1.342,1.484-2.831" transform="translate(89.436 81.829)" fill="#ccbcbc"/><path d="M61.762,73.233c0-4.944,1-25.63,1.746-30.907.7-4.962,1.637-9.811,2.5-14.688.528-2.973,4.3-18.288-.433-15.935-1.81.9-2.915,3.917-3.631,6.725a107.722,107.722,0,0,0-2.312,13.245c-1.2,9.779-2.055,30.826-1.16,40.743-.029.883,3.288.875,3.288.817" transform="translate(109.599 21.613)" fill="#eddcda"/><path d="M87.158,54.828c.508-3.744,1.4-7.418,2.147-11.115a65.666,65.666,0,0,1,3.634-12.636c.245-.592.531-1.181.825-1.772-1.611-1.117-14.469-9.025-20.057-11.92-7.276-3.77-8.985-4.644-9.594-3.455C60.774,20.455,58.9,31.371,58.78,38.676c-.014.771,0,1.977,4.107,4.009C71.1,46.743,85.5,56.1,86.962,56.69c.052-.375.15-1.515.2-1.862" transform="translate(110.874 25.339)" fill="#f7eceb"/><path d="M93.5,30.75c-.266-2.367-27.922-17.537-30.142-17.159C59.7,14.214,55.663,32.175,59.323,36c3.429,3.582,23.717,15.332,28.961,17.275a.772.772,0,0,0,.947-.537c1.01-3.974,1.922-7.969,2.7-11.993.589-3.019,1.911-6.907,1.564-9.992" transform="translate(109.183 25.623)" fill="#c7b299"/><path d="M73.647,18.986c-2.618-2.531-5.143,6.7-5.432,7.978-.973,4.292-3.389,13.514,1.579,16.5a1.469,1.469,0,0,0,2.326-.476c.814-1.279.719-3.487.958-4.959q.485-3,.97-6.012c.531-3.282,1.691-6.994,1.6-10.327a2.506,2.506,0,0,0-2.006-2.7" transform="translate(125.941 34.988)" fill="#998675"/><path d="M67.677,78.986h3.267c.049-.052.416-1.6.416-1.654.04-4.355,1.873-24.089,2.624-29.365.7-4.959,1.637-9.811,2.5-14.688.528-2.97,4.3-18.288-.433-15.935-1.81.9-2.915,3.917-3.631,6.725A107.811,107.811,0,0,0,70.11,37.313c-1.2,9.779-3.273,28.292-2.378,38.212-.029.883-.072,2.834-.055,3.461" transform="translate(127.351 32.252)" fill="#eddcda"/><path d="M73.954,66.369Q73.43,51.883,71.7,37.694c-.049-.4-.326-.54-.548-.378q-1.126.814-2.254,1.628a.508.508,0,0,0-.179.286c-.1-.361-.47-.346-.505.133-.69,10.056-.831,20.224-1.172,30.3-.153,4.595-1.917,12.079,4.1,12.019,4.5-.043,2.976-10.879,2.814-15.312" transform="translate(125.787 70.265)" fill="#eddcda"/><path d="M46.466,67.428q.524-14.486,2.254-28.675c.049-.4.326-.54.548-.378q1.126.814,2.254,1.628a.508.508,0,0,1,.179.286c.1-.361.47-.346.505.136.69,10.053.831,20.221,1.172,30.3.153,4.595,1.917,12.079-4.1,12.019-4.5-.043-2.976-10.879-2.814-15.312" transform="translate(86.936 72.263)" fill="#eddcda"/><path d="M87.206,49.58c-.635-1.25-2.044-1.348-3.241-1.025-2.958.8-5.868,3.054-8.552,4.523-5.83,3.2-12.053,6.182-17.653,9.857L57.7,66.672c5.986-3.288,12.03-6.471,18.152-9.5,3.273-1.622,6.6-3.149,9.874-4.762,1.2-.589,2.243-1.342,1.484-2.831" transform="translate(108.832 91.292)" fill="#ccbcbc"/><path d="M72.95,62.286c-4.425-3-9.115-5.706-13.563-8.523-2.586-1.637-5.348-4.067-8.252-5.051-1.175-.4-2.586-.39-3.3.817-.851,1.44.147,2.257,1.3,2.921,3.169,1.815,6.387,3.55,9.554,5.374,4.748,2.73,9.424,5.579,14.071,8.477Z" transform="translate(89.633 91.439)" fill="#ccbcbc"/><path d="M61.76,46.341l-3.827-3.2c-.687,10.036-1.654,23.74-1.992,33.8-.156,4.6-1.919,12.076,4.1,12.019,4.506-.043,2.976-10.878,2.814-15.312-.329-9.072-.043-18.415-1.091-27.307" transform="translate(104.844 81.381)" fill="#eddcda"/><path d="M110.912,45.755h-3.3L86.67,33.664c-2.794-1.611-7.721-1.409-10.948.456L51.313,48.133l-4.607.439.035,3.879a2.435,2.435,0,0,0,0,.459l.006.4.012,0a3.459,3.459,0,0,0,1.83,2.254L70.948,68.47c2.8,1.616,7.721,1.411,10.948-.453l26.343-15.124c1.885-1.085,2.756-2.505,2.629-3.819l.043-.009s-.1-2.9,0-3.311" transform="translate(88.102 61.451)" fill="#ccbcbc"/><path d="M70.949,66.935,48.591,54.028c-2.794-1.613-2.442-4.456.785-6.321L75.722,32.689c3.224-1.862,8.151-2.067,10.945-.453l22.357,12.908c2.794,1.613,2.442,4.456-.785,6.321L81.9,66.482c-3.227,1.862-8.154,2.067-10.948.453" transform="translate(88.101 58.754)" fill="#f7eceb"/><path d="M60.921,56.548c5.19,2.805,11.107,7.363,17.272,5.383C83.582,60.2,88.731,56.378,93.5,53.419a37.855,37.855,0,0,0,8.95-6.982c-1.657-2.352-4.7-4.373-6.529-5.674C90.8,37.109,77.267,30.358,75.445,30.514a14.826,14.826,0,0,0-2.479.439c-3.337.86-6.817,2.7-9.744,4.018a51.968,51.968,0,0,0-12,7.245,15.311,15.311,0,0,0-3.461,3.406c.216,5.588,9.011,8.682,13.164,10.928" transform="translate(90.084 57.553)" fill="#ea4242"/><path d="M48.53,43.392c3.25,2.387,9.135,4.852,12.085,6.639,3.111,1.885,9.32,6.275,12.726,7.066,2.145.5,6.021-.508,8.616-1.839,3.894-1.994,7.637-4.341,11.427-6.52,3.085-1.778,7.513-3.374,9.8-6.223,1.657-2.067,1.212-4.11-.084-5.952a37.9,37.9,0,0,1-8.948,6.982c-4.771,2.958-9.92,6.783-15.309,8.512-6.168,1.98-12.082-2.577-17.275-5.383-4.151-2.246-12.948-5.34-13.164-10.928a4.317,4.317,0,0,0-.254.468c-.785,1.717-1.3,5.94.381,7.178" transform="translate(89.436 67.428)" fill="#db3131"/><path d="M71.119,44.887c-.774-3.074.479-5.516.88-8.457,1.215-8.907-14.616-1.085-16.282.245-1.859,1.484-6.272,4.4-6.131,7.227.147,2.984,5.239,5.224,7.418,6.359,3.3,1.717,8.087,4.332,11.863,4.292a4.506,4.506,0,0,0,4.2-4.754c-.046-1.784-1.524-3.218-1.951-4.912" transform="translate(93.53 60.795)" fill="#f95555"/><path d="M68.608,17.462C65.7,15.744,61.239,13.17,59.7,14.2c-1.264.849,1.423,2.046,2.658,2.878a77.746,77.746,0,0,0,7.366,4.332A109.314,109.314,0,0,0,82.837,27.5c1.469.554,2.476-.551,1.146-1.377-3.57-2.211-10.74-5.926-15.375-8.665" transform="translate(111.991 26.341)" fill="#c7b299"/><path d="M52.256,51.195c-1.677,1.847-3.556,3.92-5.279,5.738C44.651,59.392,41.909,62,39.389,64.25c-3.088,2.756-3.325,6.093,1.738,5.81,8.186-.459,10.1-3.894,13.883-6.794.528-.4,1.4.569,3.475-.266,2.629-1.062,2.95-1.481,2.95-4.093A21.608,21.608,0,0,0,60.4,52.09l.078-.081c.4-.456-5.992-3.279-8.226-.814" transform="translate(70.123 94.687)" fill="#f95555"/><path d="M57.725,57.321c-1.677,1.847-3.556,3.92-5.279,5.738-2.326,2.459-5.068,5.065-7.588,7.317-3.088,2.756-3.325,6.093,1.738,5.81,8.186-.459,10.1-3.894,13.883-6.794.528-.4,1.4.569,3.475-.266,2.629-1.062,2.95-1.481,2.95-4.093a21.608,21.608,0,0,0-1.03-6.817c.026-.029.052-.052.078-.084.4-.453-5.992-3.276-8.226-.811" transform="translate(80.44 106.243)" fill="#f95555"/><path d="M97.794,33.506c-.678-1.432-16.383-6.662-15.964-6.471C69.263,31.775,54,37.028,43.442,46.117c-1.94.323-3.914.97-3.816,4.549.072,2.782,1.7,7.582,2.162,10.394,1.6,9.762,3.637,25.581,4.4,35.438,1.657,2.956,6.558,2.956,9.681.733.95-7.066,1.3-16.565,2.511-22.219,1.6-7.476-1.019-11.107-3.313-15.107,6.182.24,19.566-6.7,25.564-8.385C87.9,49.488,89.9,49.43,95.295,43.9c3.7-3.8,5.011-5.091,2.5-10.391" transform="translate(74.741 50.987)" fill="#3f180d"/><path d="M81.7,31.339c-3.885.092-8.2.372-12.01-.774a14.044,14.044,0,0,0-1.079,1.723c-1.388,2.826-2.676,4.959-1.6,8.177C65.118,43.138,56.6,53.6,55.08,56.8c-1.966,1.954-3.019,3.065-2.774,7.545.28,5.089-.069,7.424-.644,13.081C50.554,88.3,48.617,97.5,47.832,108.406c2.531,3.9,5.928,4.061,9.285.993C60.382,99.274,66.763,92.208,67.43,83.35c.439-5.865.534-10.287-2.072-14.01,10.763-5.911,24.551-9.228,30.468-20.467,3.833-7.285,1.98-12.691-1.96-20.161-3.593,2.2-7.756,2.523-12.166,2.627" transform="translate(90.226 54.159)" fill="#4c2011"/><path d="M60.953,9.14c5.083-2.127,11.132.621,10.91.372-.153-.17,7.057,4,7.066,4.026,5.146,1.919,10.425,3.311,13.453,10.226,1.472,3.365-3.833,10.573-6.047,20.334-.993,4.39-1.1,10.653.525,13.569,1.137,2.041,3.64,5.094-3.706,7.4C81.018,65.744,71.1,69.58,65.308,68.5c-2.676-.5-15.549-7.626-11.623-10.353a2.72,2.72,0,0,0,1.146-3.475c-.626-1.105-1.758-3.123-1.279-5.314,1.175-5.386.219-7.5-.574-11.718-3.726-3.9-.433-9.776,1.85-16.059,1.547-4.26.909-10.261,6.125-12.443" transform="translate(96.755 15.708)" fill="#eddcda"/><path d="M55.194,10.392c0-.072-.006-.156-.009-.234,3.016.462,7-1.27,9.606-3.091a42.955,42.955,0,0,0,3.868,8.188c-1.137.055-3.38,3.181-5.242,6.462-.788,1.394-4.2,5-6.347,4.168-3.308-1.282-1.651-3.931-1.749-7.657-.069-2.609-.121-5.224-.127-7.836" transform="translate(103.732 13.33)" fill="#ffb9a4"/><path d="M55.612,25.895A57.128,57.128,0,0,1,57.641,18.3v0a23.764,23.764,0,0,0-1.007-3.865l3.259-1.287,1.9,2.289s-1.082,2.54-2.338,3.21c.069,3.325.188,9.415.26,14.937.115,8.821,0,15.162,0,15.162a19.825,19.825,0,0,1-4.182,4.321A21.706,21.706,0,0,1,53.5,47.109s1.163-16.163,2.11-21.214" transform="translate(100.921 24.797)" fill="#f95555"/><path d="M73.058,9.926s-5.441,2.347-7.721,4.234c-3.054,2.526-4.508,3.207-6.029,4.667-.144-.364-.557-7.227-.557-7.227s-2.546.317-2.523.364A9.049,9.049,0,0,0,54.193,16.1a14.063,14.063,0,0,0,.45,6.032l4.231-2.583,2.9,5.169A107.842,107.842,0,0,0,70,16.925a14.512,14.512,0,0,0,3.054-7" transform="translate(101.89 18.723)" fill="#fff"/><path d="M66.044,8.6a7.8,7.8,0,0,0-7.265,5.042,52.684,52.684,0,0,0-4.191,20.628c-.055,6.05,1.27,13.955.248,18.259-.88,3.706-5.79,17.341-5.79,17.341s.375,5.6,2.188,7.807c2.338,2.855,4.881,2.609,4.881,2.609s3.042-16.908,3.351-19.572S60.774,43.97,60.5,39.794s2.119-18.1,3.065-21.194S70.2,9.173,70.2,9.173Z" transform="translate(92.518 16.223)" fill="#602a1c"/><path d="M61.14,12.363a25.431,25.431,0,0,0-3.013,5.374c-1.345,3.233-1.775,10.333-2.156,14.481a81.509,81.509,0,0,1-1.276,8.31,41.2,41.2,0,0,1-1.853-7.571c-.289-3.065-.681-5.423-.681-5.423L54.3,25.86l-1.98-4.788S57.55,9.679,59.758,9.018s1.383,3.345,1.383,3.345" transform="translate(98.392 16.872)" fill="#7a3629"/><path d="M65.728,9.436a48.311,48.311,0,0,0-8.064,19.529c-1.833,11.337-.675,23.013,0,31.109.851,10.218,1.611,24.75,1.611,24.75s10.151,1.677,15.846.47c6.081-1.29,8.223-7.245,8.223-7.245a93.97,93.97,0,0,0-5.169-27.495c-1.7-4.95-.618-15.693,1.391-21.875C80.76,25,79.022,17.665,75.934,14.32c-2.107-2.28-7.253-3.264-10.206-4.884" transform="translate(106.911 17.799)" fill="#602a1c"/><path d="M63.814,8.867s3.559.222,4.91,2.93c-.632,1.4-2.124,3.264-2.8,6.754a34.579,34.579,0,0,0-.436,7.395l-4.012,1.8,2.344,4.139-6.959,9.005s-1.042-11.863,1.7-20.435S63.814,8.867,63.814,8.867" transform="translate(106.897 16.726)" fill="#7a3629"/><path d="M54.5,5.89c2.771-3.406,8.835-4.182,12.665-1.862a6.363,6.363,0,0,1,2.453,1.293c2.5,2.22,2.222,6.194,1.478,9.129C69.97,18.872,63.675,29.044,57.859,25.24c-3.094-2.02-5.106-7.045-5.605-10.558A11.245,11.245,0,0,1,54.5,5.89" transform="translate(98.319 5.089)" fill="#ffc9b6"/><path d="M52.255,4.459c1.937-2.609,6.9-5.735,10.151-3.917a3.376,3.376,0,0,1,1.686,3.065c3.152-.577,8.835,1.472,10.244,4.179,2.4,4.607.73,12.489-1.371,14.856-2.2-1.914-5.591-5.98-6.486-9.883-3.619,1.74-8.569,1.925-12.128-.121-2.984-1.717-4.237-5.3-2.1-8.18" transform="translate(96.546 0)" fill="#3f180d"/><path d="M56.84,7.042s1.766-2.93,3.394-.788c2.468,3.247-1.149,4.837-1.149,4.837Z" transform="translate(107.218 10.319)" fill="#ffc9b6"/><path d="M131.776,153.285c18,9.173,32.584,9.669,46.129-2.367,12.821-11.4,11.684-27.619,11-43.165-10.29,8.125-22.207,16.539-36.01,13.2-6.641-1.6-12.968-5.031-19-8.131-6.589-3.389-13.026-7.069-19.376-10.887-13.349-8.027-26.433-16.51-39.6-24.834C63.431,69.845,19.652,41.08,4.337,30.787V82.019C15.542,89.03,31,96.7,43.374,104.079c13.609,8.111,73.252,41.485,88.4,49.206" transform="translate(8.181 58.073)" fill="#c7b299"/><path d="M4.361,89.877c.072,3.267,2.456,6.7,7.086,9.369l130,75.1c8.587,4.959,21.7,5.5,29.134,1.206l33.992-19.494c3.394-1.957,5.022-4.6,5-7.366h.02V86.032L4.338,27.218v10.3C19.653,47.812,63.429,76.577,74.917,83.836c13.167,8.321,26.248,16.8,39.6,24.831,6.35,3.819,12.783,7.5,19.373,10.89,6.032,3.1,12.359,6.526,19,8.131,13.8,3.337,25.72-5.08,36.012-13.2.687,15.546,1.824,31.772-11,43.165-13.545,12.039-28.124,11.542-46.129,2.37-15.15-7.721-74.79-41.1-88.4-49.206C31,103.437,15.543,95.762,4.338,88.748v1.129Z" transform="translate(8.183 51.341)" fill="#998675"/><path d="M215.008,110.226c.043-.069.092-.127.133-.2,6.035-10.27.7-23.486.7-23.486l-8.549,8.78L76.993,20.092c-9.438-5.449-23.852-6.047-32.026-1.328L14.057,36.611,4.57,26.861s-4.3,12.827,0,22.767c.014.04.038.072.055.11.944,2.817,3.4,5.605,7.36,7.888L143.263,133.42c9.438,5.449,23.852,6.047,32.026,1.328l35.282-20.372a12.243,12.243,0,0,0,4.107-3.668c.032-.04.061-.089.092-.13.075-.118.167-.234.237-.352" transform="translate(5.015 29.39)" fill="#ccbcbc"/><path d="M207.286,89.666,76.008,13.871c-9.441-5.449-23.852-6.047-32.029-1.328L8.7,32.915C.522,37.634,1.555,45.955,11,51.4L142.274,127.2c9.441,5.449,23.852,6.047,32.029,1.328l35.282-20.372c8.174-4.719,7.141-13.04-2.3-18.49" transform="translate(6.001 17.656)" fill="#eddcda"/><path d="M53.485,57.02a22.323,22.323,0,0,0-6.133-.889.453.453,0,0,0-.118.886,22.116,22.116,0,0,0,6.151.739.376.376,0,0,0,.1-.736" transform="translate(88.493 105.845)" fill="#736357"/><path d="M62.756,65.476a2.531,2.531,0,0,0-4.95.055c-.961,7.063-.107,17.91.776,24.969.165,1.331,2.641.805,2.774-.113.6-4.139,2.274-21.858,1.4-24.912" transform="translate(108.24 119.782)" fill="#736357"/><path d="M9.309,39.025c-.084-1.954-.179-4.165-2.364-4.765a.839.839,0,0,0-1.054.8A163.17,163.17,0,0,0,6.275,51.91c.144,1.611,1.6,1.377,1.83.8,1.4-3.524,1.362-9.938,1.2-13.684" transform="translate(11.014 64.567)" fill="#736357"/><path d="M75.6,68.268c-.537,1.354-1.1,2.7-1.706,4.026a13.1,13.1,0,0,0-1.308,3.342.385.385,0,0,0,.638.369c1.893-1.746,2.676-5.08,3.233-7.5a.445.445,0,0,0-.857-.237" transform="translate(136.91 128.197)" fill="#736357"/><path d="M74.2,73.183c-.522-1.264-1.928-2.179-3.033-2.907-.341-.225-.618.248-.4.522.8,1.013,1.815,2.323,3.094,2.725.185.058.421-.141.341-.341" transform="translate(133.344 132.452)" fill="#736357"/><path d="M73.482,62.829c.863-1.062,1-2.73,1.117-4.047.038-.41-.511-.43-.652-.107-.511,1.181-1.181,2.7-.927,4.015a.278.278,0,0,0,.462.139" transform="translate(137.634 110.257)" fill="#736357"/><path d="M78.232,51.973a35.336,35.336,0,0,1-3.989,2.8,33.423,33.423,0,0,0-3.5,2.078c-.393.309.04.892.459.788,2.831-.69,5.542-3.114,7.666-5.025.439-.4-.2-1-.638-.638" transform="translate(133.156 97.829)" fill="#736357"/><path d="M69.5,54.669a.5.5,0,0,0-.505.863c.906.618,1.515,1.515,2.37,2.188a.37.37,0,0,0,.612-.358A4.264,4.264,0,0,0,69.5,54.669" transform="translate(129.713 102.995)" fill="#736357"/><path d="M61.525,80.153a12.7,12.7,0,0,0-2.448-1.426,28.251,28.251,0,0,1-2.586-1.674c-.254-.173-.606.173-.427.427,1.1,1.562,3.241,3.322,5.265,3.146.216-.017.4-.3.2-.473" transform="translate(105.662 145.258)" fill="#736357"/><path d="M42.712,53.3a12.7,12.7,0,0,0-2.448-1.426A28.657,28.657,0,0,1,37.678,50.2c-.251-.173-.606.173-.427.427,1.1,1.561,3.241,3.322,5.265,3.146.216-.017.4-.3.2-.473" transform="translate(70.175 94.613)" fill="#736357"/><path d="M59.89,76.35a.3.3,0,0,0-.468-.061,3.393,3.393,0,0,0-.638,1.966,2.806,2.806,0,0,0,.15,1.983.386.386,0,0,0,.6.075,2.759,2.759,0,0,0,.569-1.879,3.5,3.5,0,0,0-.214-2.084" transform="translate(110.685 143.743)" fill="#736357"/><path d="M74.466,62.708A.3.3,0,0,0,74,62.647a3.393,3.393,0,0,0-.638,1.966,2.8,2.8,0,0,0,.15,1.98.385.385,0,0,0,.6.078,2.763,2.763,0,0,0,.569-1.879,3.5,3.5,0,0,0-.214-2.084" transform="translate(138.18 118.01)" fill="#736357"/><path d="M65.577,76.335a12.043,12.043,0,0,0-2,.257c-.805.107-1.616.173-2.43.216-.343.017-.468.574-.087.638a8.412,8.412,0,0,0,4.751-.245c.439-.211.2-.851-.234-.866" transform="translate(114.736 143.988)" fill="#736357"/><path d="M76.268,62.75a12.105,12.105,0,0,0-1.821-.866c-.736-.346-1.452-.73-2.159-1.134-.3-.173-.707.231-.419.491A8.419,8.419,0,0,0,76,63.6c.482.064.623-.609.271-.854" transform="translate(135.382 114.513)" fill="#736357"/><path d="M66.08,58.559a31.528,31.528,0,0,1-4.641,1.957c-1.466.367-3.109.173-4.474.805a.368.368,0,0,0,0,.635c2.6,1.4,7.649-.808,9.438-2.84.193-.222.009-.7-.323-.557" transform="translate(107.11 110.411)" fill="#736357"/><path d="M57.561,61.4c-.358-.684-1.2-.895-1.8-1.333-.733-.531-1.192-1.284-1.867-1.853-.2-.17-.609-.081-.58.24.13,1.515,2.476,4.145,4.116,3.44a.366.366,0,0,0,.13-.494" transform="translate(100.566 109.654)" fill="#736357"/><path d="M7.5,52.515c-.551-1.345-.823-2.771-1.322-4.13a.4.4,0,0,0-.776.1,10.435,10.435,0,0,0,.889,4.448,5.658,5.658,0,0,0,2.061,3.135.3.3,0,0,0,.447-.257,11.836,11.836,0,0,0-1.3-3.3" transform="translate(10.164 90.744)" fill="#736357"/><path d="M9.4,49.985a7.479,7.479,0,0,0-1.108,1.547,4.855,4.855,0,0,0-.814,1.746.517.517,0,0,0,.857.5,4.815,4.815,0,0,0,1.039-1.613,7.446,7.446,0,0,0,.722-1.775.419.419,0,0,0-.7-.4" transform="translate(14.095 94.059)" fill="#736357"/><path d="M55.853,73.5c-1.077.47-2.075,1.082-3.178,1.5a11.5,11.5,0,0,0-2.713,1.152c-.188.133-.2.494.072.546,2.09.387,4.849-1.172,6.223-2.679a.334.334,0,0,0-.4-.522" transform="translate(93.981 138.59)" fill="#736357"/><path d="M40.5,71.437c-.661-.97-1.446-1.841-2.064-2.846a11.551,11.551,0,0,0-1.634-2.456c-.165-.159-.522-.107-.522.17.006,2.13,2.046,4.552,3.781,5.625a.334.334,0,0,0,.439-.494" transform="translate(68.445 124.583)" fill="#736357"/><path d="M52.822,76.218c-1.206-.638-2.526-1-3.732-1.648s-2.3-1.443-3.461-2.168c-.234-.147-.548.153-.387.39,1.51,2.225,4.624,4.217,7.369,4.2a.42.42,0,0,0,.211-.776" transform="translate(85.259 136.499)" fill="#736357"/><path d="M36.8,67.187c-1.206-.638-2.526-1-3.732-1.648S30.759,64.1,29.6,63.371c-.234-.147-.548.153-.387.39,1.51,2.225,4.627,4.217,7.369,4.2a.42.42,0,0,0,.211-.776" transform="translate(55.03 119.464)" fill="#736357"/><path d="M64.954,67.885,49.171,49.211,92.4,34.84l15.782,18.674Z" transform="translate(92.752 65.718)" fill="#fcf5f5"/><path d="M64.547,70.94,48.765,52.265,92,37.894l15.779,18.674Z" transform="translate(91.985 71.48)" fill="#fff"/><path d="M56.073,19.767a70.676,70.676,0,0,0-7.75-.277A24.13,24.13,0,0,0,43,20.1c-1.01.26-1.333,1.521.072,1.752,2.251.367,2.728.1,3.559.857.534.485-1.648,1.333-4.1,2.093s-5.5,1.085-6.382,1.657.724,3.853,5.458,4.032,8.694-1.062,10.567-2.283a49.6,49.6,0,0,1,7.092-3.331Z" transform="translate(67.749 36.706)" fill="#ffc9b6"/><path d="M41.682,41.507c3.432-3.77,13.035-8.246,15.687-8.9.006,0,3.212-4.927,4.624-7.81,1.077-2.205,2.341-8.145,4.546-11.762a11.592,11.592,0,0,1,6.027-5.23,22.8,22.8,0,0,0,2.609,5.429c-1.025.635-3.2,4.921-5.083,11.381C68.53,29.979,68.6,36.432,68.605,39.971c-.442.886-1.729,1.986-5.34,3.3-1.385.505-13.113,6.055-19.208,6.794-.214-1.189-1.963-5.755-2.375-8.561" transform="translate(78.625 14.724)" fill="#4c2011"/><path d="M3.7,69.826c4.428-3,9.115-5.706,13.56-8.523,2.586-1.637,5.351-4.067,8.252-5.051,1.178-.4,2.589-.39,3.3.817.851,1.44-.15,2.257-1.307,2.921-3.172,1.815-6.387,3.55-9.551,5.374-4.751,2.73-9.427,5.579-14.074,8.477Z" transform="translate(6.979 105.661)" fill="#ccbcbc"/><path d="M13.82,58.235c.635-1.25,2.043-1.348,3.241-1.025,2.958.8,5.868,3.054,8.552,4.526,5.83,3.2,12.053,6.18,17.653,9.854l.063,3.738c-5.986-3.287-12.03-6.471-18.152-9.5-3.273-1.619-6.6-3.149-9.874-4.762-1.2-.589-2.243-1.342-1.484-2.831" transform="translate(25.583 107.618)" fill="#ccbcbc"/><path d="M15.952,86.905c0-4.944-1-25.633-1.746-30.909-.7-4.959-1.637-9.808-2.5-14.688-.525-2.97-4.3-18.285.433-15.932,1.81.9,2.915,3.917,3.631,6.725a107.713,107.713,0,0,1,2.312,13.245c1.2,9.779,2.058,30.826,1.16,40.743.032.883-3.288.875-3.288.817" transform="translate(18.447 47.403)" fill="#ccbcbc"/><path d="M7,68.5c-.508-3.744-1.4-7.418-2.147-11.115A65.668,65.668,0,0,0,1.216,44.748c-.245-.592-.531-1.183-.828-1.772C2,41.859,14.857,33.951,20.448,31.056c7.276-3.77,8.985-4.644,9.594-3.455,3.339,6.526,5.213,17.442,5.334,24.747.012.771,0,1.977-4.107,4.006C23.054,60.415,8.657,69.773,7.194,70.362c-.052-.375-.15-1.515-.2-1.862" transform="translate(0.732 51.129)" fill="#f7eceb"/><path d="M1.1,44.422c.266-2.37,27.922-17.537,30.142-17.159,3.654.623,7.695,18.585,4.035,22.406C31.851,53.251,11.563,65,6.319,66.946a.779.779,0,0,1-.947-.54c-1.01-3.974-1.922-7.969-2.7-11.993C2.079,51.395.757,47.507,1.1,44.422" transform="translate(1.974 51.412)" fill="#c7b299"/><path d="M3.453,32.657c2.615-2.531,5.143,6.7,5.432,7.978.973,4.292,3.389,13.514-1.579,16.5a1.471,1.471,0,0,1-2.326-.476c-.814-1.279-.719-3.487-.958-4.959q-.485-3-.973-6.012c-.528-3.282-1.688-6.994-1.6-10.327a2.506,2.506,0,0,1,2.006-2.7" transform="translate(2.721 60.776)" fill="#998675"/><path d="M10.734,92.657H7.467c-.049-.052-.416-1.6-.419-1.654-.038-4.355-1.87-24.089-2.621-29.365-.707-4.959-1.637-9.811-2.5-14.688-.528-2.973-4.3-18.288.433-15.935,1.81.9,2.915,3.917,3.631,6.725A108.406,108.406,0,0,1,8.3,50.987c1.2,9.776,3.273,28.292,2.378,38.209.029.883.072,2.834.055,3.461" transform="translate(0 58.04)" fill="#eddcda"/><path d="M2.333,80.041q.524-14.486,2.254-28.675c.049-.4.326-.54.548-.378q1.126.814,2.254,1.628a.524.524,0,0,1,.179.286c.1-.361.47-.346.505.133.69,10.056.831,20.224,1.172,30.3.153,4.6,1.917,12.079-4.1,12.019-4.5-.043-2.976-10.879-2.814-15.312" transform="translate(3.688 96.055)" fill="#eddcda"/><path d="M29.821,81.1Q29.3,66.614,27.567,52.425c-.049-.4-.326-.54-.548-.378q-1.126.814-2.251,1.631a.482.482,0,0,0-.182.283c-.1-.361-.47-.346-.505.136-.69,10.053-.831,20.221-1.172,30.3-.153,4.6-1.917,12.079,4.1,12.019,4.5-.043,2.973-10.879,2.814-15.312" transform="translate(42.539 98.053)" fill="#eddcda"/><path d="M3.537,63.252C4.172,62,5.581,61.9,6.778,62.227c2.958.8,5.868,3.054,8.552,4.523,5.83,3.2,12.053,6.182,17.653,9.857l.063,3.741c-5.986-3.29-12.03-6.474-18.149-9.5-3.276-1.622-6.6-3.149-9.874-4.762-1.2-.589-2.246-1.342-1.486-2.831" transform="translate(6.187 117.082)" fill="#ccbcbc"/><path d="M14.96,75.958c4.428-3,9.115-5.706,13.563-8.523,2.589-1.637,5.348-4.067,8.252-5.051,1.175-.4,2.586-.39,3.3.817.851,1.44-.147,2.257-1.3,2.921-3.169,1.815-6.387,3.55-9.554,5.374-4.748,2.73-9.424,5.579-14.071,8.477Z" transform="translate(28.219 117.228)" fill="#ccbcbc"/><path d="M14.528,60.013l3.827-3.2c.687,10.036,1.654,23.74,1.992,33.8.156,4.595,1.919,12.076-4.1,12.019-4.506-.043-2.976-10.879-2.814-15.312.329-9.072.043-18.415,1.091-27.307" transform="translate(24.631 107.17)" fill="#eddcda"/><path d="M2.338,59.428h3.3L26.58,47.337c2.794-1.613,7.721-1.409,10.948.456l24.41,14.013,4.607.439-.035,3.879a2.436,2.436,0,0,1,0,.459l0,.4-.014,0a3.456,3.456,0,0,1-1.833,2.254L42.3,82.143c-2.8,1.613-7.721,1.411-10.948-.453L5.008,66.566C3.126,65.48,2.254,64.06,2.381,62.744l-.043-.009s.1-2.895,0-3.308" transform="translate(4.41 87.24)" fill="#ccbcbc"/><path d="M42.3,80.607,64.659,67.7c2.794-1.613,2.439-4.456-.785-6.321L37.527,46.361C34.3,44.5,29.377,44.295,26.58,45.908L4.222,58.816c-2.794,1.613-2.439,4.456.788,6.321L31.354,80.154c3.227,1.862,8.154,2.067,10.948.453" transform="translate(4.411 84.544)" fill="#f7eceb"/><path d="M46.113,70.22c-5.19,2.805-11.107,7.363-17.272,5.383C23.453,73.874,18.3,70.05,13.532,67.091a37.854,37.854,0,0,1-8.95-6.982c1.657-2.355,4.7-4.373,6.529-5.674,5.123-3.654,18.657-10.405,20.478-10.249a14.826,14.826,0,0,1,2.479.439c3.337.86,6.817,2.7,9.744,4.015a52.081,52.081,0,0,1,12,7.248,15.311,15.311,0,0,1,3.461,3.406c-.216,5.588-9.011,8.682-13.164,10.928" transform="translate(8.643 83.343)" fill="#c7b299"/><path d="M59.908,57.064c-3.25,2.387-9.135,4.852-12.085,6.639-3.111,1.885-9.32,6.272-12.726,7.066-2.145.5-6.021-.511-8.616-1.839-3.894-1.994-7.637-4.341-11.427-6.52-3.088-1.778-7.513-3.374-9.8-6.223-1.657-2.067-1.212-4.11.084-5.952a37.9,37.9,0,0,0,8.948,6.982C19.058,60.175,24.208,64,29.6,65.729c6.168,1.98,12.082-2.577,17.272-5.383,4.153-2.246,12.951-5.34,13.167-10.928a4.316,4.316,0,0,1,.254.468c.785,1.717,1.3,5.94-.381,7.178" transform="translate(7.888 93.217)" fill="#998675"/><path d="M15.52,58.559c.774-3.074-.479-5.516-.88-8.457-1.215-8.907,14.616-1.085,16.282.245,1.862,1.484,6.272,4.4,6.131,7.227-.147,2.984-5.239,5.224-7.418,6.359-3.3,1.717-8.087,4.332-11.863,4.289a4.5,4.5,0,0,1-4.2-4.751c.046-1.784,1.524-3.218,1.951-4.913" transform="translate(25.592 86.585)" fill="#f95555"/><path d="M19.172,31.134c2.907-1.717,7.369-4.292,8.907-3.262,1.264.849-1.423,2.046-2.658,2.878a78.115,78.115,0,0,1-7.366,4.332A109.143,109.143,0,0,1,4.94,41.175c-1.466.554-2.474-.551-1.143-1.377,3.57-2.211,10.74-5.926,15.375-8.665" transform="translate(5.991 52.13)" fill="#c7b299"/><path d="M21.446,66.786c-.459.673-1.293,7.481-1.31,9.291s-.346,3.383.84,5.853,2.439,1.859,2.439,1.859,1.417,4.673,3.735,7.259,7.5,2.947,9.961,2.6c4.22-.6,3.3-3.391.294-7.406-3.184-4.254-5.472-7.513-5.845-11.011s-1.082-7.447-1.082-7.447Z" transform="translate(37.879 125.979)" fill="#3f180d"/><path d="M73.979,66.89c1.319-4.327.774-7.129-4.739-8.359-1.637-1.336-9.574-6.312-12.873-7.568C45.44,46.792,40.207,42.44,28.939,39.236a.852.852,0,0,0-1-.289c-.133-.038-.268-.081-.4-.118a.571.571,0,0,0-.687.632c-4.087,1.917-8.079,4.055-12.01,6.263-1.475.828-3.767,1.608-4.384,3.423-1.518,4.442,22.8,15.459,31.5,19.292,3.989,1.758,11.089,2.191,15.2,1.622C52.71,77.1,55.291,86.724,55.2,95.031c-.058,4.982-1.29,10.922-1.423,16.654,2.592,6.4,10.246,4.552,11.081,1.96,1.876-5.833,3.319-14.971,4.742-20.931,2.427-10.18,1.307-15.751,4.381-25.824" transform="translate(19.603 73.206)" fill="#3f180d"/><path d="M45.347,125.992c4.881,4.529,9.972,2.046,12.151.43,0-9.851-.609-24.845-1.5-34.745-.387-4.278,4.133-9.851-.606-12.968-.563-2.055-3.579-8.76-5.161-10.549-3.934-4.445-7.712-9.343-11.222-11.355,1.458-4.627,1.131-9.49-4.2-14.244-5.732-5.651-12.867-2.523-20.845-.41C9.58,43.314,6.1,49.889,6.656,50c-.817,7.519.612,16.72,6.116,22.077,3.836,3.738,8.757,5.568,13.693,7.386,4.422,1.628,10.425,3.189,14.853,4.8-1.688,9.308-2.159,19.307.124,28.364.623,2.468,3.544,12.027,3.905,13.364" transform="translate(12.154 74.245)" fill="#4c2011"/><path d="M28.2,63.587A18.678,18.678,0,0,0,25.6,68.026c-1.189,2.794,2.058,4.794,2.058,4.794s.072,4.162,1.862,6.745,7.161,6.413,9.458,6.272,7.6.586,5.446-3.576-5.484-8.416-6.46-10.985c-.675-1.775-1.732-5.894-1.732-5.894Z" transform="translate(47.803 119.944)" fill="#3f180d"/><path d="M50.435,61.746C49.1,55.6,47,47.266,43.294,43.161c-3.071-2.456-10.166-8.1-14.867-12.434-3.8-3.5-6.6-8.578-12.157-7.614-2.866.5,2.24,18.562,4.8,20.129,3.279,4.24,11.095,8.272,16.221,10.451.02.009,3.074,8.385,5.513,11.239,1.945,2.277,8.8,2.246,7.631-3.186" transform="translate(29.089 43.373)" fill="#619bf7"/><path d="M39,25.742c-1.564-1.766-1.639-2.918-2.243-2.805C30.975,24,22.134,26,21.7,26.216c-3.161,1.585-7.617,3.363-10.746,5.27-4.058,2.476-6.044,4.91-6,9.508.052,5.1,2.407,12.238,3.25,17.3a112.927,112.927,0,0,1,1.3,15.375c-.254,1.458-.851,4.278-1.192,5.744-1.048.693-2.127,2.852-.1,3.761.626.28-1.215,1.818.6,3.654C13.556,91.62,24.157,91.6,30.686,90.2c7.144-1.524,11.831-6.081,16.928-14.512,1.87-3.1-2.921-6.714-4.136-7.574-.162-3.7,0-10.125,0-15.537,4.84-3.328,3.709-17.6-4.474-26.837" transform="translate(9.356 43.252)" fill="#7db2ff"/><path d="M9.119,28.433a78.046,78.046,0,0,1,8.307,5.181c2.687,2.124,9.883,7.21,9.883,7.21s1.989-6.347,1.155-11.551a15.423,15.423,0,0,0-2.641-6.344s-10.7,2.45-16.7,5.5" transform="translate(17.201 43.251)" fill="#619bf7"/><path d="M23.969,33.724c.219,3.016.9,6.944-.216,9.715C20.11,40.2,12.917,35.072,10.207,34.406c1.986-5.649,1.853-7.949,1.166-13.522-.421-3.412,11.2,1.593,11.944,1.582.641,4.445.289,6.263.652,11.259" transform="translate(19.254 37.146)" fill="#ffb9a4"/><path d="M32.405,21.7c-.1-3.542-2.658-8.09-15.052-5.672-1.977.387-4.69,4.087-5.761,5.625-2.205,3.166-2.026,6.933-.26,10.244,1.694,3.172,7.349,8.1,12.169,8.725,9.886,1.284,9.072-12.662,8.9-18.923" transform="translate(18.812 28.95)" fill="#ffc9b6"/><path d="M32.884,19.424c-2.912-4.015-6.676-7.706-10.036-7.706a6.12,6.12,0,0,1-.658,5.207A3.952,3.952,0,0,0,19.8,14.489c.1,1.726.537,3.282-2.2,5.695-2.029.938-4.179,1.8-5.628,3.236-2.655,2.635-3.189,6.009-2.681,9.559.456,3.184,2.292,4.344,4.208,6.751,2.572-1.235,5.415-6.038,5.556-8.766,3.816,1.449,8.344,2.667,13.554.788a10.515,10.515,0,0,0,2.28-1.613c2.234-2.886.473-7.3-2.006-10.714" transform="translate(17.202 22.103)" fill="#3f180d"/><path d="M15.346,22.585a1.977,1.977,0,0,0,.006-2.254c-.768-1.079-2.1-2.234-3.666-.462-2.459,2.794.546,6.035,1.054,5.98.346-.038,1.743-2,2.606-3.264" transform="translate(20.242 35.747)" fill="#ffc9b6"/><path d="M34.846,40.811c-3,.935-5.934-.081-8.875-.834a9.644,9.644,0,0,0,2.655-2.5.853.853,0,0,0-.952-1.244c-4.364,1.642-9.1,1.709-13.046,4.205.54,1.033.355,4.67.219,5.527,2.471.147,5.573.71,7.9.774,5.184.141,9.1.245,12.249-3.784,1.651-2.113.54-2.358-.153-2.142" transform="translate(27.591 68.262)" fill="#ffb9a4"/><path d="M26.726,56.436c-5.268-.069-8.968-1.258-12.662.779,2.142-2.733,4.508-6.627,4.988-11.011.644-5.905,2.482-16.016-6.237-20.028-4.67,1.882-6.82,8.165-8.445,14.57-.7,2.768.473,9.086-.444,14.221-.756,4.214.2,5.891.667,9.077.387,2.615,3.244,2.323,5.449,3.516,2.54,1.371,7.577,1.7,10.345,1.637,5.351-.113,17.7-3.7,18.094-3.9,2.872-1.437,1.409-8.03-1.434-8.171-4.731-.24-5.672-.629-10.319-.69" transform="translate(6.87 49.376)" fill="#619bf7"/><path d="M30.711,36.523c-1.27-1.007-3.186-1.2-4.555,1.443-.211,1.4-.825,2.956-1.062,4.477a14.846,14.846,0,0,0,.306,6.015c.476,2.436,1.209,2.023,1.51.869.453-1.761-.214-3.608,1.143-3.842s.193,4.116.231,6.05.453,4.8,2.274,5.1,4.39-5.966,3.79-11.257a18.013,18.013,0,0,0-3.637-8.858" transform="translate(46.985 67.594)" fill="#ffb9a4"/><path d="M41.948,25.941a.7.7,0,0,0-1.082-.242c-.693.5-2.765,2.081-3.094,2.234s-.7,0-.912.2-.087.5.173.823,4.915-3.01,4.915-3.01" transform="translate(69.322 48.15)" fill="#baa4a4"/><path d="M47,27.113a1.479,1.479,0,0,0-.618-1.18.392.392,0,0,0-.4-.032L34,32.811l.84,1.691,11.874-6.864c.167-.049.277-.24.277-.525" transform="translate(64.142 48.776)" fill="#4c2011"/><path d="M40.448,25.482a.34.34,0,0,0-.346-.029l-1.723,1L39.1,27.9l1.645-.95c.144-.043.24-.208.24-.453a1.279,1.279,0,0,0-.534-1.019" transform="translate(72.395 47.946)" fill="#4c2011"/><path d="M42.61,27a1.743,1.743,0,0,0-.7-1.345c-.274-.176-1.025.012-1.919.574-.69.433-3.01,2.124-3.01,2.124a1.5,1.5,0,0,1,.791.834,1.193,1.193,0,0,1-.052.958s2.97-1.434,3.426-1.726c1.14-.733,1.469-.993,1.469-1.42" transform="translate(69.748 48.264)" fill="#ccbcbc"/><path d="M35.928,27.52a.463.463,0,0,0-.41-.043.5.5,0,0,0-.2.139.432.432,0,0,1,.4.023,1.488,1.488,0,0,1,.618,1.183.653.653,0,0,1-.156.468s.087-.02.115-.032c.167-.078.242-.271.242-.557a1.479,1.479,0,0,0-.618-1.181" transform="translate(66.628 51.775)" fill="#fff"/><path d="M37.5,26.61a.463.463,0,0,0-.41-.043.5.5,0,0,0-.2.139.424.424,0,0,1,.4.023,1.487,1.487,0,0,1,.618,1.18.656.656,0,0,1-.156.47s.087-.02.115-.032c.167-.078.242-.271.242-.557a1.479,1.479,0,0,0-.618-1.18" transform="translate(69.59 50.058)" fill="#fff"/><path d="M34.62,28.277a.463.463,0,0,0-.41-.043.5.5,0,0,0-.2.139.425.425,0,0,1,.4.026,1.479,1.479,0,0,1,.618,1.181.653.653,0,0,1-.156.468s.087-.02.115-.032c.167-.078.242-.271.242-.557a1.479,1.479,0,0,0-.618-1.18" transform="translate(64.161 53.203)" fill="#fff"/><path d="M36.018,29.5a1.479,1.479,0,0,0-.618-1.18.382.382,0,0,0-.436-.012,3.425,3.425,0,0,0-1.388,1.048c-.28.381.228,1.319.569,1.282A5.654,5.654,0,0,0,35.8,30a.537.537,0,0,0,.216-.5" transform="translate(63.182 53.279)" fill="#ccbcbc"/><path d="M34.4,29.548c0,.341-.208.5-.462.349a1.1,1.1,0,0,1-.462-.883c0-.341.2-.5.462-.349a1.11,1.11,0,0,1,.462.883" transform="translate(63.154 53.967)" fill="#baa4a4"/><path d="M35.883,29.3a.721.721,0,0,0-.3-.574.225.225,0,0,0-.214-.006,6.673,6.673,0,0,0-.681.222,7.056,7.056,0,0,0-1.331.684,4.316,4.316,0,0,0-.805.73c.629-.049,1.437,0,1.688,0a2.244,2.244,0,0,0,.814-.156c.029-.014.254-.141.294-.176a2.441,2.441,0,0,0,.355-.384.605.605,0,0,0,.179-.341" transform="translate(61.403 54.134)" fill="#fff"/><path d="M34.061,28.972c-.075-.075-.266.02-.309.118a3.686,3.686,0,0,0-1.175.765c-.04.04-.017.049,0,.04.084-.032.306-.2.546-.346s.511-.28.675-.384c.159.02.372-.084.26-.193" transform="translate(61.409 54.598)" fill="#4c2011"/><path d="M40.926,25.682a6.506,6.506,0,0,0-1.963.95,11.243,11.243,0,0,0-1.749,1.333.024.024,0,0,0,.029.038c.621-.375,1.169-.877,1.781-1.27a13.664,13.664,0,0,1,1.925-1c.029-.014.006-.061-.023-.052" transform="translate(70.186 48.441)" fill="#fff"/><path d="M38.324,26.84a30.541,30.541,0,0,0-2.7,1.648.02.02,0,0,0,.02.035,18.738,18.738,0,0,0,2.716-1.628c.032-.023,0-.075-.032-.055" transform="translate(67.173 50.62)" fill="#fff"/><path d="M36.818,27.655a10.852,10.852,0,0,0-1.258.716c-.41.251-.828.5-1.218.782-.014.012,0,.035.014.026.427-.225.834-.491,1.247-.736s.851-.465,1.238-.75a.022.022,0,0,0-.023-.038" transform="translate(64.766 52.16)" fill="#fff"/><path d="M34.8,28.291a2.77,2.77,0,0,0-1.111.768c-.012.012.009.026.02.02.208-.1.964-.609,1.123-.733.029-.023,0-.061-.032-.055" transform="translate(63.546 53.365)" fill="#fff"/><path d="M38.921,26.018c-.009-.023-.049-.02-.046.006a.669.669,0,0,1-.038.26.944.944,0,0,0-.061.214.046.046,0,0,0,.078.032.563.563,0,0,0,.066-.511" transform="translate(73.145 49.049)" fill="#baa4a4"/><path d="M38.76,26.141c-.014-.035-.066-.014-.066.017a2.268,2.268,0,0,1-.029.419.072.072,0,0,0,.032.075.056.056,0,0,0,.052.006.063.063,0,0,0,.046-.046.771.771,0,0,0-.035-.47" transform="translate(72.931 49.275)" fill="#baa4a4"/><path d="M37.5,26.823a.033.033,0,0,0-.032.009c-.049.052-.012.15-.026.216s-.069.15-.063.222l.009.009c.144-.012.254-.4.113-.456" transform="translate(70.508 50.594)" fill="#baa4a4"/><path d="M34.389,28.624l-.012,0a1.816,1.816,0,0,0-.04.28,2.871,2.871,0,0,1-.1.277.05.05,0,0,0,.084.049c.121-.121.2-.473.069-.609" transform="translate(64.574 53.993)" fill="#baa4a4"/><path d="M34.164,28.746c-.014-.02-.049-.014-.046.012,0,.063.012.124.009.188s-.014.127-.02.193.1.081.121.014a.518.518,0,0,0-.063-.407" transform="translate(64.334 54.2)" fill="#baa4a4"/><path d="M33.886,29.026c-.1.063-.165.153-.263.214s-.219.075-.315.141a.035.035,0,0,0,.009.063.6.6,0,0,0,.6-.4c0-.014-.014-.035-.032-.023" transform="translate(62.8 54.746)" fill="#ccbcbc"/><path d="M49.932,24.933,27.375,37.956,19.014,26.59,41.573,13.567Z" transform="translate(35.866 25.59)" fill="#7a3629"/><path d="M49.192,24.585,27.184,37.331l-8.015-10.89L41.177,13.7Z" transform="translate(36.159 25.838)" fill="#3f180d"/><path d="M56.579,25.24,34.022,38.263l-12.128-7L44.451,18.238Z" transform="translate(41.299 34.402)" fill="#4c2011"/><path d="M56.579,24.507,34.022,37.53l-12.128-7L44.451,17.5Z" transform="translate(41.299 33.019)" fill="#7a3629"/><path d="M54.892,24.327l.286-.165L43.9,17.648,22.167,30.2l.286.165L43.9,17.98Z" transform="translate(41.813 33.289)" fill="#4c2011"/><path d="M54.7,24.11,43.711,17.763,22.266,30.148,33.26,36.5Z" transform="translate(42 33.506)" fill="#f95555"/><path d="M21.894,22.017v2.119l12.128,7V29.019Z" transform="translate(41.299 41.53)" fill="#4c2011"/><path d="M48.653,19.931v2.119L26.1,35.069V32.954Z" transform="translate(49.225 37.595)" fill="#3f180d"/><g transform="translate(80.167 62.62)" opacity="0.5"><g clip-path="url(#d)"><path d="M31.883,21.864a1.337,1.337,0,0,0-1.429.092c-1.019,1.048-2.93,1.4-2.653,2,.162.343.776.349,1.088.315a5.385,5.385,0,0,0,1.03-.277c.352-.113.716-.185,1.065-.312.658-.237,1.593-1.094.9-1.818" transform="translate(-27.775 -21.695)" fill="#ff6e6e"/></g></g><g transform="translate(69.578 63.935)" opacity="0.5"><g clip-path="url(#e)"><path d="M33.525,24.069c-.866-.756-1.862-.335-2.243-.369a6.434,6.434,0,0,1-1.778-.476A13.241,13.241,0,0,0,26.561,22.2c-.707-.1-1.844-.092-2.277.612-.228.375-.5,1.189,1.033,2.078A9.4,9.4,0,0,0,28,26.254,5.428,5.428,0,0,0,30.628,26c.745-.222,1.888-.364,2.658-.641a.768.768,0,0,0,.24-1.293" transform="translate(-24.105 -22.15)" fill="#ff6e6e"/></g></g><g transform="translate(79.702 52.599)" opacity="0.5"><g clip-path="url(#f)"><path d="M37.515,19.913a8.249,8.249,0,0,0-3.458-1.671,5.112,5.112,0,0,0-2.606.664,19.7,19.7,0,0,0-2.667,1.478c-.352.234-1.357.684-1.14,1.264.228.612,1.224.7,1.749.6a6.975,6.975,0,0,1,1.4-.263,4.075,4.075,0,0,0,1.388-.113,3.3,3.3,0,0,1,1.541-.3,6.809,6.809,0,0,0,1.55.115c.424-.046.846-.136,1.264-.214a5.45,5.45,0,0,0,1.362-.341c.621-.312.064-.88-.381-1.218" transform="translate(-27.614 -18.224)" fill="#ff6e6e"/></g></g><path d="M33.252,19.883l-.009-.014c-.075-.04-.162.058-.2.113A.41.41,0,0,0,33,20.3a.072.072,0,0,0,.139-.038.312.312,0,0,1,.032-.242c.026-.046.081-.081.087-.136" transform="translate(62.216 37.459)" fill="#ef4141"/><path d="M33.138,20.343a.559.559,0,0,0-.127-.17,1.065,1.065,0,0,0-.15-.19c-.014-.012-.046-.012-.049.014a.452.452,0,0,0,.251.421.061.061,0,0,0,.075-.075" transform="translate(61.888 37.678)" fill="#ef4141"/><path d="M32.964,19.735a.7.7,0,0,0-.427.326c-.02.055.052.1.1.075a.882.882,0,0,0,.167-.176c.061-.061.13-.11.2-.165.029-.023,0-.069-.035-.061" transform="translate(61.369 37.223)" fill="#ef4141"/><path d="M32.421,19.82c-.032-.006-.061.032-.035.058.055.052.113.092.167.141a1.122,1.122,0,0,0,.153.133c.035.02.089-.017.075-.058a.489.489,0,0,0-.361-.274" transform="translate(61.072 37.386)" fill="#ef4141"/><path d="M32.448,20.408a.721.721,0,0,0-.277-.075c-.046,0-.052.055-.023.078a1.976,1.976,0,0,0,.242.133.264.264,0,0,0,.191.046.037.037,0,0,0,.026-.046c-.026-.078-.087-.1-.159-.136" transform="translate(60.607 38.354)" fill="#ef4141"/><path d="M31.4,20.9c-.127.026-.329.263-.242.393a.044.044,0,0,0,.064.017c.061-.038.063-.1.092-.162s.1-.121.133-.19A.041.041,0,0,0,31.4,20.9" transform="translate(58.732 39.421)" fill="#ef4141"/><path d="M30.822,21a.033.033,0,0,0-.017.061,1.308,1.308,0,0,1,.19.118.566.566,0,0,0,.17.1c.026.009.043-.017.04-.04-.026-.165-.237-.237-.384-.24" transform="translate(58.077 39.606)" fill="#ef4141"/><path d="M29.621,21.07a.038.038,0,0,0-.009.075.53.53,0,0,1,.182.107c.04.038.058.075.113.092a.047.047,0,0,0,.058-.046c.012-.153-.222-.231-.343-.228" transform="translate(55.807 39.744)" fill="#ef4141"/><path d="M29.95,21.022c-.081.066-.182.188-.15.3a.055.055,0,0,0,.092.026c.072-.055.1-.176.144-.257a.055.055,0,0,0-.087-.066" transform="translate(56.201 39.628)" fill="#ef4141"/><path d="M29.768,21.267c-.1.084-.28.251-.225.4a.044.044,0,0,0,.058.023c.058-.035.072-.087.1-.141a1.013,1.013,0,0,1,.141-.2.054.054,0,0,0-.075-.078" transform="translate(55.707 40.09)" fill="#ef4141"/><path d="M30.566,21.521a.51.51,0,0,0-.47-.11c-.023.006-.023.043,0,.046a1.408,1.408,0,0,1,.216.058,1.834,1.834,0,0,0,.2.089.051.051,0,0,0,.049-.084" transform="translate(56.736 40.364)" fill="#ef4141"/><path d="M31.992,19.7c-.133.026-.323.26-.266.4.009.026.043.052.072.032.061-.046.069-.11.1-.173s.1-.124.136-.2a.041.041,0,0,0-.046-.058" transform="translate(59.827 37.161)" fill="#ef4141"/><path d="M31.69,20.324a.752.752,0,0,0-.424-.087c-.038.006-.038.058-.009.075a1.7,1.7,0,0,0,.369.165.084.084,0,0,0,.081-.02.071.071,0,0,0,.023-.061.077.077,0,0,0-.04-.072" transform="translate(58.922 38.163)" fill="#ef4141"/><path d="M31.43,20.064c-.026-.006-.058.02-.046.046a1.154,1.154,0,0,0,.107.182.7.7,0,0,0,.127.176.046.046,0,0,0,.078-.032.381.381,0,0,0-.266-.372" transform="translate(59.195 37.844)" fill="#ef4141"/><path d="M30.648,20.117a.487.487,0,0,0-.193.381c-.009.1.147.1.153,0a1.239,1.239,0,0,1,.107-.332.045.045,0,0,0-.066-.049" transform="translate(57.445 37.935)" fill="#ef4141"/><path d="M30.658,20.571a.671.671,0,0,0-.346-.326c-.032-.014-.075.017-.052.052a1.457,1.457,0,0,0,.153.173.635.635,0,0,0,.173.156c.035.017.087-.012.072-.055" transform="translate(57.066 38.182)" fill="#ef4141"/><path d="M31.047,19.21a.574.574,0,0,0-.488-.136.035.035,0,0,0-.009.063,2.122,2.122,0,0,0,.222.092A.989.989,0,0,0,31,19.32c.064.006.075-.072.049-.11" transform="translate(57.597 35.964)" fill="#ef4141"/><path d="M31.09,19.027a.492.492,0,0,0-.266.355.058.058,0,0,0,.1.04.8.8,0,0,0,.11-.162c.035-.061.081-.113.113-.176a.042.042,0,0,0-.055-.058" transform="translate(58.143 35.882)" fill="#ef4141"/><path d="M31.653,19.387a.434.434,0,0,0-.4-.188c-.017,0-.02.029-.009.04a1.161,1.161,0,0,0,.17.113.747.747,0,0,0,.182.115c.046.014.081-.04.061-.081" transform="translate(58.916 36.209)" fill="#ef4141"/><path d="M31.24,19.492a.608.608,0,0,0-.447.323.051.051,0,0,0,.075.058,2.241,2.241,0,0,0,.176-.159,1.344,1.344,0,0,1,.225-.153c.04-.02.012-.078-.029-.069" transform="translate(58.08 36.765)" fill="#ef4141"/><path d="M30.346,19.717a.9.9,0,0,0-.488-.208c-.043,0-.052.058-.02.081.133.087.28.162.416.245a.083.083,0,0,0,.078,0,.094.094,0,0,0,.035-.046.074.074,0,0,0-.02-.072" transform="translate(56.249 36.8)" fill="#ef4141"/><path d="M30.219,19.493a.54.54,0,0,0-.289-.185.025.025,0,0,0-.026.038.541.541,0,0,0,.251.231c.043.02.092-.046.063-.084" transform="translate(56.402 36.42)" fill="#ef4141"/><path d="M29.111,20.183a.044.044,0,0,0-.023.081c.075.046.156.087.228.136a.414.414,0,0,0,.2.1c.032,0,.049-.032.046-.061-.032-.162-.3-.248-.447-.257" transform="translate(54.831 38.071)" fill="#ef4141"/><path d="M29.625,20.139a.649.649,0,0,0-.219.419.048.048,0,0,0,.089.023,1.525,1.525,0,0,0,.092-.2c.029-.066.069-.13.1-.2.02-.04-.032-.084-.063-.049" transform="translate(55.469 37.965)" fill="#ef4141"/><path d="M29.3,20.948c-.061-.072-.156-.066-.242-.072a2.549,2.549,0,0,0-.332-.009.027.027,0,0,0-.009.052,3.17,3.17,0,0,0,.32.1c.087.02.173.055.254.006a.051.051,0,0,0,.009-.078" transform="translate(54.132 39.358)" fill="#ef4141"/><path d="M29.057,20.742c-.026-.035-.075,0-.078.032a1.5,1.5,0,0,0,.017.2.519.519,0,0,0,.023.176.054.054,0,0,0,.1.012.424.424,0,0,0-.058-.416" transform="translate(54.663 39.097)" fill="#ef4141"/><path d="M29.327,19.925a.5.5,0,0,0-.522-.167.035.035,0,0,0-.009.063,1.423,1.423,0,0,0,.237.1.759.759,0,0,0,.242.1.063.063,0,0,0,.052-.092" transform="translate(54.287 37.235)" fill="#ef4141"/><path d="M29.009,19.615a.044.044,0,0,0-.043.072c.078.072.118.173.2.242a.046.046,0,0,0,.075-.02c.038-.15-.1-.257-.228-.294" transform="translate(54.616 36.997)" fill="#ef4141"/><path d="M30.457,18.418a.484.484,0,0,0-.26.384.043.043,0,0,0,.072.032c.089-.115.133-.257.222-.369.02-.023-.006-.066-.035-.046" transform="translate(56.961 34.733)" fill="#ef4141"/><path d="M30.062,18.389a.037.037,0,0,0-.055.023.531.531,0,0,0,.006.19.386.386,0,0,0,.032.173.051.051,0,0,0,.087,0,.33.33,0,0,0-.069-.387" transform="translate(56.588 34.676)" fill="#ef4141"/><path d="M29.678,18.4a.872.872,0,0,0-.508.014.031.031,0,0,0,0,.061.872.872,0,0,0,.508.014.047.047,0,0,0,0-.089" transform="translate(54.978 34.652)" fill="#ef4141"/><path d="M29.463,18.224c-.04-.035-.113.012-.081.061a1.984,1.984,0,0,0,.159.263.056.056,0,0,0,.1-.04.414.414,0,0,0-.173-.283" transform="translate(55.409 34.353)" fill="#ef4141"/><path d="M29.378,18.7a.362.362,0,0,0-.274.283.049.049,0,0,0,.084.035.775.775,0,0,0,.089-.127c.04-.052.084-.1.127-.144a.028.028,0,0,0-.026-.046" transform="translate(54.899 35.264)" fill="#ef4141"/><path d="M29.405,18.89a1.517,1.517,0,0,0-.664-.046.037.037,0,0,0-.012.072,1.543,1.543,0,0,0,.675.084c.061-.009.046-.092,0-.11" transform="translate(54.142 35.516)" fill="#ef4141"/><path d="M28.627,19.085a.432.432,0,0,0-.144.491.053.053,0,0,0,.089,0,.688.688,0,0,0,.063-.228.639.639,0,0,0,.052-.228.041.041,0,0,0-.061-.035" transform="translate(53.673 35.991)" fill="#ef4141"/><path d="M28.265,19.23a.042.042,0,0,0-.046.061,1.629,1.629,0,0,0,.176.219.038.038,0,0,0,.064-.029.289.289,0,0,0-.193-.251" transform="translate(53.218 36.27)" fill="#ef4141"/><path d="M27.76,20.276c-.11-.176-.424-.208-.612-.2a.044.044,0,0,0-.012.087c.1.029.2.061.3.1a.811.811,0,0,0,.274.092.052.052,0,0,0,.046-.078" transform="translate(51.129 37.868)" fill="#ef4141"/><path d="M27.406,20a.053.053,0,0,0-.072.072,1.575,1.575,0,0,0,.147.254.049.049,0,0,0,.081-.023.291.291,0,0,0-.156-.3" transform="translate(51.549 37.714)" fill="#ef4141"/><path d="M27.792,19.5a.5.5,0,0,0-.45-.009.035.035,0,0,0,.006.063.912.912,0,0,0,.216.032.666.666,0,0,0,.214.012c.049-.009.049-.075.014-.1" transform="translate(51.541 36.672)" fill="#ef4141"/><path d="M27.854,19.45c-.115.081-.248.228-.211.381a.058.058,0,0,0,.1.014c.066-.11.069-.231.156-.332.026-.035-.009-.092-.049-.064" transform="translate(52.131 36.674)" fill="#ef4141"/><path d="M28.416,20.138a.544.544,0,0,0-.479-.13.031.031,0,0,0-.006.055,2.3,2.3,0,0,0,.219.087.933.933,0,0,0,.231.072c.046.006.061-.055.035-.084" transform="translate(52.661 37.72)" fill="#ef4141"/><path d="M28.3,19.86a.033.033,0,0,0-.055.014.789.789,0,0,0-.014.4.036.036,0,0,0,.061.014.332.332,0,0,0,.009-.43" transform="translate(53.209 37.442)" fill="#ef4141"/><path d="M28.1,20.657a.036.036,0,0,0-.061-.017.758.758,0,0,0-.1.17.72.72,0,0,0-.087.185c-.012.043.04.1.084.066a.46.46,0,0,0,.159-.4" transform="translate(52.546 38.913)" fill="#ef4141"/><path d="M26.865,20.246a.636.636,0,0,0-.254-.188.058.058,0,0,0-.058.1.618.618,0,0,0,.274.153.045.045,0,0,0,.038-.066" transform="translate(50.038 37.821)" fill="#ef4141"/><path d="M29.6,21.893l-.009-.014c-.075-.04-.162.058-.2.115a.4.4,0,0,0-.049.315.072.072,0,0,0,.139-.038.3.3,0,0,1,.032-.24c.026-.049.081-.084.087-.139" transform="translate(55.336 41.251)" fill="#ef4141"/><path d="M29.491,22.353a.516.516,0,0,0-.127-.17,1.064,1.064,0,0,0-.15-.19c-.014-.012-.046-.012-.049.014a.452.452,0,0,0,.251.421.062.062,0,0,0,.075-.075" transform="translate(55.009 41.469)" fill="#ef4141"/><path d="M29.317,21.745a.691.691,0,0,0-.427.326c-.02.055.052.1.1.075a.883.883,0,0,0,.167-.176c.061-.061.13-.11.2-.165.029-.023,0-.072-.035-.061" transform="translate(54.489 41.014)" fill="#ef4141"/><path d="M28.774,21.83c-.032-.006-.061.032-.035.058.055.049.113.092.167.141a1.122,1.122,0,0,0,.153.133c.035.02.089-.017.072-.058a.48.48,0,0,0-.358-.274" transform="translate(54.193 41.177)" fill="#ef4141"/><path d="M28.8,22.42a.781.781,0,0,0-.277-.078c-.046,0-.052.055-.023.081a1.785,1.785,0,0,0,.242.133.264.264,0,0,0,.19.046.037.037,0,0,0,.026-.046c-.026-.078-.087-.1-.159-.136" transform="translate(53.727 42.144)" fill="#ef4141"/><path d="M27.753,22.908c-.127.026-.329.263-.245.393a.048.048,0,0,0,.066.017c.061-.038.063-.1.092-.162s.1-.121.133-.19a.041.041,0,0,0-.046-.058" transform="translate(51.851 43.211)" fill="#ef4141"/><path d="M27.174,23.007a.033.033,0,0,0-.017.061,1.168,1.168,0,0,1,.19.118.566.566,0,0,0,.17.1c.026.009.043-.017.04-.04-.026-.165-.237-.237-.384-.24" transform="translate(51.197 43.398)" fill="#ef4141"/><path d="M25.976,23.08a.039.039,0,0,0-.012.075.516.516,0,0,1,.185.107c.04.038.058.075.11.089a.046.046,0,0,0,.061-.043c.012-.153-.222-.231-.343-.228" transform="translate(48.927 43.536)" fill="#ef4141"/><path d="M26.3,23.032c-.081.066-.182.188-.15.3a.055.055,0,0,0,.092.026c.072-.055.1-.176.144-.257a.055.055,0,0,0-.087-.066" transform="translate(49.321 43.419)" fill="#ef4141"/><path d="M26.261,23.949a.435.435,0,0,0-.459-.121.028.028,0,0,0-.006.052,1.456,1.456,0,0,0,.211.084c.072.029.124.078.2.075a.061.061,0,0,0,.052-.089" transform="translate(48.633 44.907)" fill="#ef4141"/><path d="M26.119,23.277c-.1.084-.277.251-.222.4a.041.041,0,0,0,.055.023.3.3,0,0,0,.1-.141.907.907,0,0,1,.141-.2.055.055,0,0,0-.078-.078" transform="translate(48.83 43.881)" fill="#ef4141"/><path d="M26.918,23.53a.506.506,0,0,0-.468-.11.023.023,0,0,0,0,.046,1.374,1.374,0,0,1,.214.058,1.406,1.406,0,0,0,.2.087.049.049,0,0,0,.049-.081" transform="translate(49.857 44.154)" fill="#ef4141"/><path d="M28.345,21.711c-.133.026-.323.26-.266.4.009.026.043.052.072.032.061-.046.069-.11.1-.173s.1-.124.136-.2a.041.041,0,0,0-.046-.058" transform="translate(52.947 40.953)" fill="#ef4141"/><path d="M28.044,22.333a.752.752,0,0,0-.424-.087c-.038.006-.038.058-.012.075a1.72,1.72,0,0,0,.372.165.084.084,0,0,0,.081-.02.071.071,0,0,0,.023-.061.077.077,0,0,0-.04-.072" transform="translate(52.043 41.953)" fill="#ef4141"/><path d="M27.783,22.074c-.026-.006-.058.017-.046.046a1.153,1.153,0,0,0,.107.182.7.7,0,0,0,.127.176.046.046,0,0,0,.078-.032.381.381,0,0,0-.266-.372" transform="translate(52.315 41.636)" fill="#ef4141"/><path d="M27,22.126a.487.487,0,0,0-.193.381c-.009.1.144.1.153,0a1.344,1.344,0,0,1,.1-.332c.014-.035-.032-.069-.064-.049" transform="translate(50.566 41.725)" fill="#ef4141"/><path d="M27.013,22.581a.688.688,0,0,0-.349-.326c-.029-.014-.075.017-.052.052a1.458,1.458,0,0,0,.153.173.607.607,0,0,0,.176.156c.032.017.087-.012.072-.055" transform="translate(50.187 41.973)" fill="#ef4141"/><path d="M27.4,21.22a.565.565,0,0,0-.485-.136.036.036,0,0,0-.009.063,2.123,2.123,0,0,0,.222.092.96.96,0,0,0,.228.089c.061.006.072-.072.043-.11" transform="translate(50.72 39.756)" fill="#ef4141"/><path d="M27.441,21.037a.5.5,0,0,0-.263.358.057.057,0,0,0,.1.038.683.683,0,0,0,.107-.162c.035-.061.084-.113.115-.176a.043.043,0,0,0-.058-.058" transform="translate(51.266 39.673)" fill="#ef4141"/><path d="M28.006,21.4a.434.434,0,0,0-.4-.188.022.022,0,0,0-.009.038.982.982,0,0,0,.17.115.66.66,0,0,0,.182.113c.046.017.081-.038.061-.078" transform="translate(52.037 40.001)" fill="#ef4141"/><path d="M27.593,21.5a.608.608,0,0,0-.447.323c-.014.04.04.084.075.058a1.821,1.821,0,0,0,.176-.159,1.236,1.236,0,0,1,.225-.153c.04-.02.012-.078-.029-.069" transform="translate(51.2 40.557)" fill="#ef4141"/><path d="M28.847,21.172a.608.608,0,0,0-.447.323.051.051,0,0,0,.075.058,1.8,1.8,0,0,0,.173-.156,1.226,1.226,0,0,1,.228-.156c.04-.02.012-.078-.029-.069" transform="translate(53.566 39.934)" fill="#ef4141"/><path d="M26.7,21.727a.882.882,0,0,0-.488-.208c-.043,0-.052.058-.02.081.133.087.28.162.416.245a.083.083,0,0,0,.078,0,.094.094,0,0,0,.035-.046.068.068,0,0,0-.02-.072" transform="translate(49.369 40.591)" fill="#ef4141"/><path d="M26.576,21.5a.57.57,0,0,0-.292-.185c-.02-.006-.038.02-.029.038a.57.57,0,0,0,.251.231c.046.02.1-.043.069-.084" transform="translate(49.522 40.21)" fill="#ef4141"/><path d="M25.463,22.193c-.043,0-.055.058-.023.081.075.046.156.087.231.136a.4.4,0,0,0,.193.1c.032,0,.049-.032.046-.061-.032-.162-.3-.251-.447-.257" transform="translate(47.953 41.862)" fill="#ef4141"/><path d="M25.977,22.149a.666.666,0,0,0-.216.419.046.046,0,0,0,.087.023,1.525,1.525,0,0,0,.092-.2c.032-.066.069-.13.1-.2a.04.04,0,0,0-.064-.049" transform="translate(48.591 41.756)" fill="#ef4141"/><path d="M25.652,22.957c-.061-.072-.156-.066-.242-.072a2.549,2.549,0,0,0-.332-.009.027.027,0,0,0-.009.052,3.171,3.171,0,0,0,.32.1c.087.02.173.055.254.006a.051.051,0,0,0,.009-.078" transform="translate(47.253 43.148)" fill="#ef4141"/><path d="M25.41,22.752c-.026-.035-.075,0-.078.032a1.5,1.5,0,0,0,.017.2.571.571,0,0,0,.023.173.053.053,0,0,0,.1.014.424.424,0,0,0-.058-.416" transform="translate(47.784 42.888)" fill="#ef4141"/><path d="M25.68,21.935a.5.5,0,0,0-.522-.167.035.035,0,0,0-.009.063,1.729,1.729,0,0,0,.237.1.825.825,0,0,0,.242.092.062.062,0,0,0,.052-.092" transform="translate(47.407 41.027)" fill="#ef4141"/><path d="M25.362,21.624a.044.044,0,0,0-.043.072c.078.072.118.173.2.242a.046.046,0,0,0,.075-.02c.038-.15-.1-.257-.228-.294" transform="translate(47.736 40.786)" fill="#ef4141"/><path d="M26.81,20.428a.484.484,0,0,0-.26.384.042.042,0,0,0,.072.029c.089-.113.133-.254.222-.367.02-.023-.006-.066-.035-.046" transform="translate(50.081 38.524)" fill="#ef4141"/><path d="M26.415,20.4a.038.038,0,0,0-.055.023.531.531,0,0,0,.006.19.386.386,0,0,0,.032.173.051.051,0,0,0,.087,0,.33.33,0,0,0-.069-.387" transform="translate(49.709 38.467)" fill="#ef4141"/><path d="M26.031,20.413a.872.872,0,0,0-.508.014.031.031,0,0,0,0,.061.9.9,0,0,0,.508.014.047.047,0,0,0,0-.089" transform="translate(48.098 38.444)" fill="#ef4141"/><path d="M25.817,20.234c-.04-.035-.115.009-.081.061a1.717,1.717,0,0,0,.159.263.056.056,0,0,0,.1-.04.408.408,0,0,0-.173-.283" transform="translate(48.529 38.144)" fill="#ef4141"/><path d="M25.732,20.705a.362.362,0,0,0-.274.283.049.049,0,0,0,.084.035.775.775,0,0,0,.089-.127c.04-.052.084-.1.127-.144a.028.028,0,0,0-.026-.046" transform="translate(48.022 39.055)" fill="#ef4141"/><path d="M25.758,20.9a1.517,1.517,0,0,0-.664-.046.038.038,0,0,0-.012.075,1.633,1.633,0,0,0,.675.084c.061-.012.046-.1,0-.113" transform="translate(47.262 39.308)" fill="#ef4141"/><path d="M24.98,21.1a.432.432,0,0,0-.144.491.053.053,0,0,0,.089,0,.688.688,0,0,0,.064-.228.639.639,0,0,0,.052-.228.041.041,0,0,0-.061-.035" transform="translate(46.794 39.782)" fill="#ef4141"/><path d="M24.618,21.241c-.032-.014-.066.032-.046.061a1.45,1.45,0,0,0,.179.219.039.039,0,0,0,.064-.029.3.3,0,0,0-.2-.251" transform="translate(46.339 40.061)" fill="#ef4141"/><path d="M24.114,22.286c-.11-.176-.424-.208-.612-.2a.044.044,0,0,0-.012.087c.1.029.2.061.3.1a.811.811,0,0,0,.274.092.052.052,0,0,0,.046-.078" transform="translate(44.248 41.66)" fill="#ef4141"/><path d="M23.759,22.011a.052.052,0,0,0-.072.069,1.6,1.6,0,0,0,.147.257.046.046,0,0,0,.078-.023.281.281,0,0,0-.153-.3" transform="translate(44.67 41.505)" fill="#ef4141"/><path d="M24.145,21.509a.5.5,0,0,0-.45-.009.035.035,0,0,0,.006.063.891.891,0,0,0,.216.032.684.684,0,0,0,.216.012c.046-.009.046-.075.012-.1" transform="translate(44.662 40.463)" fill="#ef4141"/><path d="M24.207,21.46c-.115.081-.248.228-.211.381a.058.058,0,0,0,.1.014c.066-.107.069-.231.156-.332.026-.032-.009-.092-.049-.063" transform="translate(45.252 40.465)" fill="#ef4141"/><path d="M24.769,22.147a.539.539,0,0,0-.476-.127.028.028,0,0,0-.009.052,2.038,2.038,0,0,0,.219.087.933.933,0,0,0,.231.072c.046.006.061-.055.035-.084" transform="translate(45.781 41.514)" fill="#ef4141"/><path d="M24.651,21.87a.032.032,0,0,0-.055.014.823.823,0,0,0-.017.4.039.039,0,0,0,.063.014.332.332,0,0,0,.009-.43" transform="translate(46.329 41.233)" fill="#ef4141"/><path d="M24.456,22.667a.04.04,0,0,0-.063-.017.757.757,0,0,0-.1.17.721.721,0,0,0-.087.185c-.012.043.04.1.087.066a.475.475,0,0,0,.159-.4" transform="translate(45.666 42.705)" fill="#ef4141"/><path d="M23.218,22.256a.636.636,0,0,0-.254-.188.058.058,0,0,0-.058.1.617.617,0,0,0,.274.153.045.045,0,0,0,.038-.066" transform="translate(43.158 41.612)" fill="#ef4141"/><path d="M19.214,18.079l-.306,1.7,7.239,9.629,1.429.038Z" transform="translate(35.667 34.102)" fill="#3f180d"/><path d="M26.951,13.7l-.24,1.322,7.242,9.629,1.013-.063Z" transform="translate(50.386 25.838)" fill="#2d1c1c"/><path d="M19.169,26.443l.6.82L40.938,15.022l.24-1.325Z" transform="translate(36.159 25.837)" fill="#4c2011"/><path d="M43.124,17.533l-21.275,12.3.28.381L44.137,17.47Z" transform="translate(41.214 32.953)" fill="#4c2011"/><g transform="translate(76.717 54.921)" opacity="0.5"><g clip-path="url(#g)"><path d="M37.666,22.229l-5.573,3.218-5.513-3.2,5.573-3.218Z" transform="translate(-26.58 -19.028)" fill="#ef4141"/></g></g><path d="M36.8,21.718l-5.051,2.915-4.993-2.9L31.8,18.818Z" transform="translate(50.468 35.495)" fill="#f4ebea"/><path d="M34.611,21.107l-3.723,2.15L27.2,21.118l3.723-2.15Z" transform="translate(51.312 35.779)" fill="#eddcda"/><path d="M28.485,22.738v.869l5.051-2.915v-.869Z" transform="translate(53.732 37.391)" fill="#bfaaaa"/><path d="M26.755,19.828V20.7l5,2.9v-.869Z" transform="translate(50.467 37.401)" fill="#eddcda"/><path d="M29.711,19.293c-1.022,0-1.853.442-1.853.987s.831.984,1.853.984,1.853-.442,1.853-.984-.828-.987-1.853-.987" transform="translate(52.549 36.392)" fill="#fff"/><path d="M29.56,19.214c-.9,0-1.631.387-1.631.866s.73.869,1.631.869,1.631-.39,1.631-.869-.73-.866-1.631-.866" transform="translate(52.683 36.243)" fill="#eddcda"/><path d="M29.711,19c-1.022,0-1.853.442-1.853.987s.831.984,1.853.984,1.853-.442,1.853-.984S30.736,19,29.711,19" transform="translate(52.549 35.832)" fill="#fff"/><path d="M30.979,19.492a3.168,3.168,0,0,1,.534-1.316l-1,.211-.823.049-.825-.049-1.016-.211a3.084,3.084,0,0,1,.554,1.316c.038.473-.332,1.2-.332,1.634v0l0,.052c0,.479.727.869,1.628.869s1.631-.39,1.631-.869a.463.463,0,0,0-.032-.165,9.954,9.954,0,0,1-.32-1.524" transform="translate(52.539 34.285)" fill="#f4ebea"/><path d="M32.253,19.19a2.279,2.279,0,1,1-2.28-2.28,2.281,2.281,0,0,1,2.28,2.28" transform="translate(52.243 31.897)" fill="#f4ebea"/><path d="M29.991,18.881a1.138,1.138,0,1,1-1.922-1.108,1.138,1.138,0,1,1,1.922,1.108" transform="translate(52.52 32.07)" fill="#ffefd4"/><path d="M28.911,17.985a.5.5,0,1,1,.052-.805.581.581,0,0,1-.052.805" transform="translate(52.8 32.245)" fill="#fff"/><path d="M29.21,17.987a.047.047,0,0,0-.092-.012c-.029.089-.043.185-.069.277s-.066.182-.092.274a.073.073,0,0,0,.133.058,1.132,1.132,0,0,0,.121-.6" transform="translate(54.614 33.842)" fill="#bfaaaa"/><path d="M28.865,18.14a.031.031,0,0,0-.046.026c0,.089.038.176.043.268a1.5,1.5,0,0,0-.017.254.056.056,0,0,0,.092.026.484.484,0,0,0-.072-.574" transform="translate(54.361 34.208)" fill="#bfaaaa"/><path d="M29.06,19.065a.038.038,0,0,0-.072,0,1.053,1.053,0,0,1-.17.47.057.057,0,0,0,0,.063.054.054,0,0,0,.038.029.062.062,0,0,0,.072-.029.652.652,0,0,0,.133-.534" transform="translate(54.34 35.911)" fill="#bfaaaa"/><path d="M29.158,19.218a2.184,2.184,0,0,1-.141.182.908.908,0,0,0-.156.141.05.05,0,0,0,.04.075.436.436,0,0,0,.317-.372.036.036,0,0,0-.061-.026" transform="translate(54.427 36.231)" fill="#bfaaaa"/><path d="M28.615,20.862c-.118-.012-.237-.006-.358-.017-.04,0-.049.055-.02.072a.4.4,0,0,0,.4.029c.04-.023.017-.078-.023-.084" transform="translate(53.232 39.32)" fill="#bfaaaa"/><path d="M28.261,20.967c-.049-.052-.11-.1-.156-.15s-.063-.113-.107-.162c-.014-.017-.055-.012-.058.014a.358.358,0,0,0,.292.364c.038.006.049-.043.029-.066" transform="translate(52.7 38.944)" fill="#bfaaaa"/><path d="M29.92,19.7a.043.043,0,0,0-.066.052c.058.1.017.214.069.317a.039.039,0,0,0,.049.012c.147-.092.043-.289-.052-.381" transform="translate(56.3 37.139)" fill="#bfaaaa"/><path d="M30.189,19.966a.628.628,0,0,0-.219-.04c-.089-.012-.179-.029-.268-.04-.035,0-.046.049-.017.066a.7.7,0,0,0,.494.1.044.044,0,0,0,.012-.081" transform="translate(55.962 37.509)" fill="#bfaaaa"/><path d="M27.305,20.472c-.069-.069-.165-.113-.234-.185a.936.936,0,0,1-.173-.266.026.026,0,0,0-.049.012c.017.211.188.5.424.52.04,0,.058-.055.032-.081" transform="translate(50.645 37.739)" fill="#bfaaaa"/><path d="M35.058,19.658c-.4-.369-1.152-.121-2.015-.121s-1.613-.248-2.015.121h-.312v1.117c0,.684,1.042,1.238,2.326,1.238s2.326-.554,2.326-1.238V19.658Z" transform="translate(57.942 36.697)" fill="#ccbcbc"/><path d="M33.043,19.134c-1.284,0-2.326.554-2.326,1.238s1.042,1.235,2.326,1.235,2.326-.554,2.326-1.235-1.042-1.238-2.326-1.238" transform="translate(57.942 36.092)" fill="#fff"/><path d="M32.632,19.212c-.938,0-1.7.4-1.7.9s.759.9,1.7.9,1.7-.4,1.7-.9-.759-.9-1.7-.9" transform="translate(58.353 36.239)" fill="#ddcfce"/><path d="M31.113,18.957v1.4c0,.346.528.629,1.183.629s1.183-.283,1.183-.629v-1.4Z" transform="translate(58.689 35.758)" fill="#c1b1b0"/><path d="M33.9,18.739l-.543.046-.063.136a2,2,0,0,0-1.665,0l-.063-.136-.543-.046a.413.413,0,0,0,.118.306.558.558,0,0,1,.139.323c0,.346.528.629,1.183.629s1.18-.283,1.18-.629v-.012a.585.585,0,0,1,.136-.312.426.426,0,0,0,.121-.306" transform="translate(58.52 35.347)" fill="#4c2011"/><path d="M32.464,18.473c-.8,0-1.44.343-1.44.765s.644.768,1.44.768,1.44-.343,1.44-.768-.644-.765-1.44-.765" transform="translate(58.521 34.845)" fill="#602a1c"/><path d="M32.346,18.4c-.7,0-1.267.3-1.267.673s.569.675,1.267.675,1.267-.3,1.267-.675-.569-.673-1.267-.673" transform="translate(58.625 34.712)" fill="#4c2011"/><path d="M32.464,18.23c-.8,0-1.44.343-1.44.765s.644.768,1.44.768,1.44-.343,1.44-.768-.644-.765-1.44-.765" transform="translate(58.521 34.387)" fill="#602a1c"/><path d="M32.346,18.149c-.7,0-1.267.3-1.267.673s.569.675,1.267.675,1.267-.3,1.267-.675-.569-.673-1.267-.673" transform="translate(58.625 34.234)" fill="#4c2011"/><path d="M34.453,19.059a1.772,1.772,0,1,1-1.772-1.772,1.774,1.774,0,0,1,1.772,1.772" transform="translate(58.304 32.608)" fill="#602a1c"/><path d="M32.346,17.109c-.7,0-1.267.3-1.267.673s.569.675,1.267.675,1.267-.3,1.267-.675-.569-.673-1.267-.673" transform="translate(58.625 32.273)" fill="#4c2011"/><path d="M32.464,16.937c-.8,0-1.44.343-1.44.765s.644.768,1.44.768,1.44-.343,1.44-.768-.644-.765-1.44-.765" transform="translate(58.521 31.948)" fill="#602a1c"/><path d="M32.346,16.876c-.7,0-1.267.3-1.267.673s.569.675,1.267.675,1.267-.3,1.267-.675-.569-.673-1.267-.673" transform="translate(58.625 31.833)" fill="#4c2011"/><path d="M33.034,14.51a2.312,2.312,0,0,0-2.309,2.231l0,.038v.049a3.791,3.791,0,0,0,.54,1.917,9.508,9.508,0,0,1,.546,1.51A7.087,7.087,0,0,1,32,21.717a.457.457,0,0,0,.012.1c.069.266.494.468,1.007.468.537,0,.976-.222,1.016-.5,0-.014,0-.107,0-.15a6.067,6.067,0,0,1,.182-1.38,9.506,9.506,0,0,1,.546-1.51,5.936,5.936,0,0,0,.473-1.227,2.313,2.313,0,0,0-2.205-3.008" transform="translate(57.951 27.37)" fill="#602a1c"/><g transform="translate(89.228 42.39)" opacity="0.5"><g clip-path="url(#h)"><path d="M32.58,16.146a.883.883,0,1,1-.2-1.365.991.991,0,0,1,.2,1.365" transform="translate(-30.915 -14.687)" fill="#664646"/></g></g><path d="M31.744,15.451a.389.389,0,1,1,.04-.626.454.454,0,0,1-.04.626" transform="translate(58.531 27.838)" fill="#fff"/><path d="M28.924,47.581l22.5,12.991L87.9,39.465,65.4,26.471Z" transform="translate(54.56 49.932)" fill="#fff"/><path d="M41.055,27.909,59.891,38.785l1.2-.7L42.258,27.213Z" transform="translate(77.442 51.332)" fill="#4c2011"/><path d="M40.208,28.188,59.047,39.064l.647-.375L40.858,27.813Z" transform="translate(75.845 52.463)" fill="#4c2011"/><path d="M39.675,28.5,58.514,39.372,59.16,39,40.324,28.121Z" transform="translate(74.839 53.045)" fill="#4c2011"/><path d="M39.141,28.8,57.977,39.68l.649-.375L39.791,28.429Z" transform="translate(73.832 53.626)" fill="#4c2011"/><path d="M41.306,29.921l12.922,7.461-.647.372L40.656,30.3Z" transform="translate(76.69 56.439)" fill="#4c2011"/><path d="M37.458,29.776,56.3,40.652l.647-.372L38.107,29.4Z" transform="translate(70.657 55.459)" fill="#4c2011"/><path d="M36.924,30.084,55.76,40.96l.649-.375L37.574,29.709Z" transform="translate(69.651 56.04)" fill="#4c2011"/><path d="M38.4,30.8l14.916,8.613-.649.372-14.916-8.61Z" transform="translate(71.206 58.101)" fill="#4c2011"/><path d="M35.249,31.051,54.088,41.927l.647-.375L35.9,30.676Z" transform="translate(66.491 57.864)" fill="#4c2011"/><path d="M34.716,31.359,53.555,42.235l.647-.372L35.365,30.984Z" transform="translate(65.484 58.445)" fill="#4c2011"/><path d="M36.229,34.318l9.256,5.345-.647.372L35.58,34.693Z" transform="translate(67.114 64.734)" fill="#4c2011"/><path d="M35.7,34.626l9.259,5.345-.649.372L35.046,35Z" transform="translate(66.107 65.315)" fill="#4c2011"/><path d="M36.19,32.077,51.106,40.69l-.649.372L35.54,32.452Z" transform="translate(67.04 60.507)" fill="#4c2011"/><path d="M35.9,37.808c2.445,0,4.361-1.051,4.361-2.393s-1.917-2.4-4.361-2.4-4.358,1.053-4.358,2.4,1.914,2.393,4.358,2.393m0-4.468c2.228,0,4.041.929,4.041,2.075s-1.813,2.075-4.041,2.075-4.041-.932-4.041-2.075S33.675,33.34,35.9,33.34" transform="translate(59.504 62.286)" fill="#f95555"/><path d="M34.723,33.38c1.409,0,2.551.606,2.551,1.357S36.131,36.1,34.723,36.1s-2.551-.609-2.551-1.359,1.143-1.357,2.551-1.357" transform="translate(60.684 62.965)" fill="#f95555"/><path d="M37.77,52.957,60.361,66,96.98,44.809,74.389,31.766Z" transform="translate(71.246 59.92)" fill="#fff"/><path d="M49.948,33.209,68.859,44.128l1.206-.7L51.155,32.511Z" transform="translate(94.217 61.325)" fill="#4c2011"/><path d="M49.1,33.489,68.009,44.408l.649-.375L49.748,33.114Z" transform="translate(92.615 62.462)" fill="#4c2011"/><path d="M48.563,33.8,67.474,44.717l.649-.375L49.212,33.423Z" transform="translate(91.604 63.045)" fill="#4c2011"/><path d="M48.027,34.107,66.938,45.026l.649-.375L48.677,33.732Z" transform="translate(90.594 63.629)" fill="#4c2011"/><path d="M50.2,35.229l12.974,7.49-.652.375L49.549,35.6Z" transform="translate(93.465 66.452)" fill="#4c2011"/><path d="M46.337,35.083,65.248,46l.649-.375L46.987,34.708Z" transform="translate(87.407 65.469)" fill="#4c2011"/><path d="M45.8,35.392,64.713,46.311l.649-.375L46.451,35.017Z" transform="translate(86.396 66.052)" fill="#4c2011"/><path d="M47.28,36.114l14.974,8.644-.652.375L46.631,36.489Z" transform="translate(87.959 68.121)" fill="#4c2011"/><path d="M44.12,36.363,63.031,47.282l.649-.375L44.769,35.988Z" transform="translate(83.224 67.884)" fill="#4c2011"/><path d="M43.584,36.672,62.5,47.591l.649-.375L44.234,36.3Z" transform="translate(82.213 68.467)" fill="#4c2011"/><path d="M44.566,39.953l9.294,5.366-.649.375-9.294-5.366Z" transform="translate(82.84 75.363)" fill="#4c2011"/><path d="M45.062,37.394l14.974,8.645-.649.375L44.413,37.769Z" transform="translate(83.777 70.536)" fill="#4c2011"/><path d="M64.025,39.607l-8.5-5.083s-1.273,3.559,1.547,5.083a7.984,7.984,0,0,0,6.95,0" transform="translate(104.201 65.123)" fill="#ccbcbc"/><path d="M75.881,50.081s-3.435,1.094-6.185-.318a4.665,4.665,0,0,1-1.079-1.137c-1.232-2.052.739-5.063,5.62-3.628a15.75,15.75,0,0,0,11.433-1.466,15.909,15.909,0,0,0,3.81-3.146L69.537,28.971A50.18,50.18,0,0,1,53.68,32.03c-2.572-.009-5.048,2.956-4.69,4.964.378,2.15,1.53,3.27,3.365,4.387,3.51,2.139,11.525,7.132,17.39,9.424,3.071,1.2,6.136-.724,6.136-.724" transform="translate(92.344 54.648)" fill="#fcf5f5"/><path d="M69.454,10.8c4.788.765,7.7,1.625,11.075,9.334,3.16,7.227.748,10.33,2.28,15.205s.895,6.055,1.331,9.992-.629,4.491-2.1,5.669c-1.209.967.462,2.153-9,6.494C66.986,60.272,62.9,59.464,62.9,59.464L59.657,51.74s-1.209.04,3.057-3.9c4.826-4.456,8.414-5.074,8.414-5.074a99.078,99.078,0,0,0-4.171-11.031c-2.407-5.218-.886-19.471,2.5-20.937" transform="translate(112.234 20.368)" fill="#4c2011"/><path d="M69.792,25.035s2.448-.759,3.764,2.419a5.076,5.076,0,0,1-.528,5.3,8.457,8.457,0,0,0-4.563,1.4c-2.99,2.173-6.54,6.364-9.17,7.643-3.8,1.847-4.811-.6-5.132-2.857s1.585-4.015,3.288-5.343c1.844-1.443,2.97-2.621,2.321-3.019-.433-.266-2.566.658-4.035,0-1.518-.687-.877-1.784,1.639-1.968,1.279-.092,1.865-.97,4.289-1.282,1.9-.245,2.459.7,3.057.393a50.087,50.087,0,0,0,5.071-2.69" transform="translate(102.1 47.073)" fill="#ffc9b6"/></g></g></g></g></g></svg>