<svg xmlns="http://www.w3.org/2000/svg" xmlns:xlink="http://www.w3.org/1999/xlink" width="450" height="399.343" viewBox="0 0 450 399.343"><defs><clipPath id="a"><rect width="450" height="399.343" fill="none"/></clipPath><clipPath id="c"><rect width="37.757" height="35.648" fill="none"/></clipPath><clipPath id="d"><rect width="47.281" height="40.141" fill="none"/></clipPath><clipPath id="e"><rect width="1.551" height="1.614" fill="none"/></clipPath><clipPath id="f"><rect width="1.645" height="1.732" fill="none"/></clipPath><clipPath id="h"><rect width="1.982" height="1.84" fill="none"/></clipPath><clipPath id="j"><rect width="1.55" height="1.614" fill="none"/></clipPath><clipPath id="l"><rect width="1.74" height="1.851" fill="none"/></clipPath><clipPath id="m"><rect width="37.619" height="34.887" fill="none"/></clipPath><clipPath id="n"><rect width="36.895" height="105.517" fill="none"/></clipPath><clipPath id="q"><rect width="1.653" height="2.056" fill="none"/></clipPath><clipPath id="v"><rect width="1.962" height="2.43" fill="none"/></clipPath><clipPath id="x"><rect width="1.944" height="1.702" fill="none"/></clipPath><clipPath id="z"><rect width="1.834" height="1.97" fill="none"/></clipPath><clipPath id="ac"><rect width="3.003" height="2.001" fill="none"/></clipPath><clipPath id="ai"><rect width="59.734" height="39.752" fill="none"/></clipPath></defs><g clip-path="url(#a)"><g clip-path="url(#a)"><path d="M266.85,393.507C144.778,419.863,27.082,354.446,3.968,247.394S61.076,32.191,183.148,5.835,422.917,44.9,446.032,151.949s-57.109,215.2-179.182,241.559" transform="translate(0 0)" fill="#f9e6d2"/><path d="M182.806,246.743c-23.087,13.329-60.638,13.262-83.869-.151s-23.35-35.093-.263-48.423,60.638-13.262,83.869.151,23.35,35.093.263,48.423" transform="translate(36.975 85.458)" fill="#8c3923"/><rect width="118.606" height="8.428" transform="translate(118.41 299.486)" fill="#8c3923"/><path d="M182.868,240.947C159.781,254.276,122.23,254.209,99,240.8s-23.35-35.093-.263-48.423,60.638-13.262,83.869.151,23.35,35.093.263,48.423" transform="translate(37.003 82.826)" fill="#a24c32"/><path d="M104.989,101.036c17.771-9.972,46.179-9.685,63.453.641s16.87,26.781-.9,36.752-46.179,9.684-63.451-.641-16.87-26.781.9-36.752" transform="translate(41.496 42.562)" fill="#9bc2e0"/><path d="M105.948,194.052c16.784-9.418,43.614-9.147,59.927.6s15.933,25.293-.851,34.711-43.614,9.146-59.927-.606-15.933-25.292.851-34.709" transform="translate(42.274 84.979)" fill="#9bc2e0"/><path d="M176.759,223.617c.019-6.542-4.2-13.1-12.7-18.18-17.274-10.327-45.682-10.613-63.453-.641.052-18.372,6.258-32.019,16.883-38.548,8.256-4.634,21.456-4.5,29.481.3.1.058.195.118.291.177.96.614,2.225,1.454,3.148,2.123.871.631,2.008,1.506,2.825,2.2,1.255,1.073,2.873,2.566,4.055,3.719.784.762,1.759,1.845,2.491,2.658.715.8,1.639,1.887,2.284,2.739,1.082,1.426,2.465,3.372,3.472,4.851a66.108,66.108,0,0,1,3.349,5.761,67.89,67.89,0,0,1,2.959,6.527c.657,1.774,1.471,4.16,2.037,5.964.324,1.034.673,2.438.925,3.491s.573,2.47.749,3.542c.314,1.909.664,4.467.887,6.389.126,1.092.2,2.561.249,3.66.044.979.045,2.284.064,3.264" transform="translate(45.682 73.944)" fill="#9bc2e0"/><path d="M104.857,193.978c17.771-9.972,46.179-9.685,63.453.641s16.87,26.781-.9,36.752-46.179,9.684-63.452-.641-16.87-26.781.9-36.752" transform="translate(41.436 84.762)" fill="#9bc2e0"/><path d="M121.072,165.581q.325-.2.667-.391c-10.623,6.527-16.829,20.176-16.881,38.547-9.033,5.069-13.578,11.811-13.6,18.571a67.86,67.86,0,0,1,.4-7.344c.238-1.919.622-4.47.96-6.373.189-1.075.534-2.489.794-3.549a70.579,70.579,0,0,1,5.908-15.532,64.811,64.811,0,0,1,3.756-6.3c1.022-1.46,2.433-3.373,3.533-4.775.691-.878,1.682-1.991,2.433-2.816.785-.862,1.863-1.985,2.715-2.78,1.192-1.115,2.84-2.537,4.093-3.583.909-.758,2.207-1.662,3.176-2.341.6-.422,1.429-.936,2.049-1.328" transform="translate(41.436 75.003)" fill="#9bc2e0"/><path d="M141.994,170.963c-.1-.06-.192-.118-.291-.177-8.025-4.8-21.225-4.931-29.482-.3,4.218-2.594,6.575-8.015,6.6-15.106,4.54-2.547,11.8-2.473,16.213.164.054.032.106.064.158.1-.019,7.091,2.412,12.588,6.806,15.32" transform="translate(50.953 69.704)" fill="#9bc2e0"/><path d="M118.659,155.015c.118-.073.24-.145.366-.215-.02,7.091-2.377,12.511-6.6,15.106q-.342.192-.667.391c4.41-2.707,6.875-8.191,6.9-15.282" transform="translate(50.745 70.286)" fill="#9bc2e0"/><path d="M167.792,130.351c-17.77,9.972-46.179,9.685-63.452-.641-8.495-5.078-12.714-11.638-12.7-18.18A68.606,68.606,0,0,0,92,118.876c.228,1.921.6,4.473.925,6.379.183,1.075.518,2.491.772,3.552a70.588,70.588,0,0,0,5.819,15.561,65.012,65.012,0,0,0,3.718,6.322c1.013,1.467,2.415,3.389,3.509,4.8.683.88,1.668,2,2.414,2.828.779.867,1.851,1.995,2.7,2.795,1.187,1.123,2.828,2.556,4.077,3.61.907.765,2.2,1.679,3.173,2.367.51.362,1.185.785,1.755,1.153a9.078,9.078,0,0,1,1.56,1.921,14.876,14.876,0,0,1,1.268,2.543,17.3,17.3,0,0,1,.878,3.136,18.072,18.072,0,0,1,.3,3.349c0,.355-.016.71-.033,1.061a18.231,18.231,0,0,1-.493,3.261c-.215.88-.464,1.562-.465,1.569a14.8,14.8,0,0,1-.582,1.437,14.15,14.15,0,0,1-.662,1.268,10.274,10.274,0,0,1-1.832,2.335c-.92.587-2.036,1.323-2.878,1.925-.875.627-2.018,1.495-2.838,2.188-1.259,1.066-2.885,2.547-4.071,3.692-.788.759-1.771,1.838-2.507,2.646-.721.792-1.649,1.879-2.3,2.728-1.089,1.419-2.481,3.356-3.5,4.827a66.1,66.1,0,0,0-3.382,5.743,68.171,68.171,0,0,0-3,6.516c-.666,1.768-1.495,4.151-2.071,5.951-.33,1.034-.686,2.436-.945,3.488s-.586,2.468-.768,3.538c-.326,1.908-.691,4.462-.923,6.383-.132,1.092-.214,2.559-.269,3.658-.049.979-.058,2.286-.083,3.264-.019,6.543,4.2,13.1,12.7,18.181,17.274,10.325,45.682,10.612,63.453.641,9.031-5.069,13.576-11.811,13.6-18.573a68.107,68.107,0,0,0-.353-7.346c-.227-1.921-.6-4.473-.923-6.379-.183-1.075-.519-2.491-.772-3.552a70.642,70.642,0,0,0-5.819-15.561,65.1,65.1,0,0,0-3.718-6.322c-1.013-1.467-2.415-3.389-3.509-4.8-.685-.881-1.669-2-2.415-2.83-.778-.867-1.851-1.995-2.7-2.795-1.186-1.123-2.828-2.556-4.077-3.61-.906-.763-2.2-1.675-3.164-2.361-.513-.365-1.192-.79-1.764-1.159a8.991,8.991,0,0,1-1.56-1.921,14.935,14.935,0,0,1-1.268-2.543,17.332,17.332,0,0,1-.88-3.139,16.78,16.78,0,0,1-.272-2.443c-.01-.3-.025-.6-.023-.909a17.81,17.81,0,0,1,.2-2.654,15.919,15.919,0,0,1,.329-1.665c.215-.88.462-1.562.465-1.567a14.491,14.491,0,0,1,.582-1.437c.329-.717.657-1.262.66-1.268a10.322,10.322,0,0,1,1.834-2.337c.922-.587,2.036-1.322,2.878-1.924.874-.627,2.017-1.495,2.838-2.188,1.259-1.064,2.885-2.548,4.071-3.692.788-.759,1.771-1.836,2.507-2.646.72-.792,1.649-1.879,2.3-2.728,1.088-1.419,2.481-3.356,3.5-4.827a66.258,66.258,0,0,0,3.382-5.743,67.993,67.993,0,0,0,3-6.514c.667-1.77,1.5-4.153,2.071-5.953.33-1.032.686-2.436.945-3.488s.586-2.468.769-3.538c.326-1.908.691-4.462.923-6.383.132-1.092.212-2.559.269-3.658.049-.979.058-2.286.083-3.264-.019,6.761-4.566,13.5-13.6,18.571m-46.819,37.967.173.112-.173-.112m.1,21.627c-.067.041-.143.09-.211.134.038-.025.095-.061.211-.134m34.981,4.512a9.655,9.655,0,0,0-.7-1.054,9.655,9.655,0,0,1,.7,1.054m-2.081-2.569a14.6,14.6,0,0,0-1.143-.955,14.6,14.6,0,0,1,1.143.955m-1.78-1.415c-.127-.087-.262-.172-.394-.257.132.086.268.17.394.257m-.525-.343-.15-.1c.065.042.112.071.15.1m-.153-.1c.071.045.138.092.209.138-.071-.047-.14-.095-.214-.14h0m.054-21.517.227-.144c-.039.026-.1.061-.227.144" transform="translate(41.436 50.639)" fill="#bc4023"/><path d="M91.261,222.186c.025-.979.033-2.286.083-3.264.055-1.1.137-2.566.269-3.658.233-1.921.6-4.476.923-6.383.182-1.07.509-2.483.768-3.538s.615-2.456.945-3.488c.576-1.8,1.4-4.183,2.071-5.953a68.434,68.434,0,0,1,3-6.514,66.1,66.1,0,0,1,3.382-5.743c1.016-1.471,2.408-3.408,3.5-4.827.653-.849,1.581-1.935,2.3-2.728.736-.81,1.719-1.887,2.507-2.646,1.186-1.144,2.812-2.626,4.071-3.692.82-.694,1.963-1.562,2.838-2.188.925-.662,2.194-1.495,3.157-2.1-3.753,2.3-5.642,5.267-5.65,8.236-.009,3.04,1.953,6.088,5.9,8.448,8.026,4.8,21.225,4.931,29.482.3,4.2-2.356,6.308-5.488,6.316-8.63.009-2.963-1.855-5.935-5.608-8.269.614.4,1.447.916,2.046,1.341.965.686,2.258,1.6,3.164,2.361,1.249,1.054,2.891,2.488,4.077,3.61.846.8,1.919,1.928,2.7,2.795.746.83,1.73,1.948,2.415,2.83,1.093,1.408,2.5,3.33,3.509,4.8a64.879,64.879,0,0,1,3.718,6.322,70.642,70.642,0,0,1,5.819,15.561c.253,1.061.589,2.478.772,3.552.326,1.906.7,4.458.923,6.379a68.107,68.107,0,0,1,.353,7.346c-.019,6.761-4.564,13.5-13.6,18.571-17.771,9.972-46.179,9.685-63.453-.641-8.495-5.078-12.714-11.638-12.7-18.18" transform="translate(41.436 75.125)" fill="#9bc2e0"/><path d="M134.822,170.3c-4.394-2.732-6.825-8.228-6.806-15.32,2.063,1.282,3.088,2.918,3.084,4.547a17.805,17.805,0,0,0,.185,2.659,16.4,16.4,0,0,0,.317,1.666c.211.881.455,1.565.458,1.572a14.633,14.633,0,0,0,.573,1.441,13.793,13.793,0,0,0,.654,1.271,10.193,10.193,0,0,0,1.842,2.369c-.093-.07-.188-.129-.307-.205" transform="translate(58.125 70.368)" fill="#9bc2e0"/><path d="M130.137,158.108a18.227,18.227,0,0,0,.3,3.352,17.247,17.247,0,0,0,.88,3.139,14.755,14.755,0,0,0,1.266,2.542,9.008,9.008,0,0,0,1.585,1.946c-.063-.047-.113-.083-.305-.205,3.751,2.334,5.616,5.3,5.608,8.269-6.015-5.124-9.351-11.951-9.331-19.042" transform="translate(59.088 71.788)" fill="#9bc2e0"/><path d="M113.527,168.817c-.23.145-.23.145-.3.2a10.185,10.185,0,0,0,1.855-2.357,13.714,13.714,0,0,0,.662-1.268,14.8,14.8,0,0,0,.582-1.437c0-.006.25-.689.465-1.569a16.008,16.008,0,0,0,.327-1.665,17.515,17.515,0,0,0,.2-2.657c-.02,7.091-3.394,13.9-9.437,18.99.007-2.971,1.9-5.932,5.649-8.237" transform="translate(48.981 71.768)" fill="#9bc2e0"/><path d="M115.645,159.478c0-1.633,1.043-3.263,3.107-4.529-.02,7.091-2.485,12.575-6.9,15.282-.19.119-.247.16-.3.2a9.006,9.006,0,0,0,1.6-1.937,14.774,14.774,0,0,0,1.28-2.534,17.135,17.135,0,0,0,.9-3.132,18.139,18.139,0,0,0,.316-3.35" transform="translate(50.651 70.353)" fill="#9bc2e0"/><path d="M107.877,177.054c6.044-5.091,9.418-11.9,9.438-18.99,0,1.631,1.022,3.267,3.088,4.551l.156.095c4.413,2.638,11.672,2.71,16.211.163.125-.07.246-.141.364-.212,2.066-1.268,3.106-2.9,3.11-4.532-.02,7.091,3.315,13.918,9.331,19.042-.009,3.142-2.121,6.274-6.318,8.628-8.256,4.634-21.456,4.5-29.481-.3-3.948-2.358-5.908-5.406-5.9-8.447" transform="translate(48.981 71.768)" fill="#9bc2e0"/><path d="M138.238,167.825c0-1.63-1.021-3.264-3.084-4.548l-.16-.1c-4.413-2.638-11.672-2.71-16.213-.163.02-7.087-2.3-15.3-6.486-22.922,8.258-4.633,21.456-4.5,29.482.3,3.946,2.358,5.908,5.408,5.9,8.447-6.044,5.091-9.418,11.9-9.438,18.985" transform="translate(50.987 62.07)" fill="#9bc2e0"/><path d="M107.951,147.665c.009-3.141,2.121-6.274,6.316-8.628,4.189,7.619,6.507,15.835,6.488,22.922-.127.07-.249.143-.368.215-2.063,1.266-3.1,2.9-3.106,4.529.019-7.087-3.315-13.914-9.331-19.038" transform="translate(49.014 63.129)" fill="#9bc2e0"/><path d="M130.137,164.036c.02-7.087,3.394-13.895,9.438-18.985-.009,2.972-1.9,5.937-5.659,8.243.195-.122.246-.158.311-.205a8.949,8.949,0,0,0-1.6,1.935,14.655,14.655,0,0,0-1.28,2.534,17.089,17.089,0,0,0-.9,3.131,18.123,18.123,0,0,0-.316,3.347" transform="translate(59.088 65.859)" fill="#9bc2e0"/><path d="M134.889,150.783a3.116,3.116,0,0,0,.31-.2,10.266,10.266,0,0,0-1.855,2.357c0,.006-.332.551-.66,1.268a14.49,14.49,0,0,0-.582,1.437c0,.006-.25.688-.465,1.567a15.918,15.918,0,0,0-.329,1.665,17.81,17.81,0,0,0-.2,2.654c-.006,1.636-1.045,3.266-3.112,4.532.02-7.086,2.483-12.569,6.891-15.275" transform="translate(58.117 68.369)" fill="#9bc2e0"/><path d="M115.626,161.491a18.2,18.2,0,0,0-.3-3.349,17.23,17.23,0,0,0-.88-3.138,14.757,14.757,0,0,0-1.266-2.542,9.008,9.008,0,0,0-1.585-1.945,3.651,3.651,0,0,0,.314.211c4.391,2.731,6.822,8.227,6.8,15.314-2.066-1.284-3.093-2.92-3.088-4.551" transform="translate(50.67 68.341)" fill="#9bc2e0"/><path d="M113.568,153.246c-3.759-2.334-5.626-5.309-5.617-8.275,6.015,5.124,9.351,11.951,9.331,19.038a17.768,17.768,0,0,0-.185-2.657,16.268,16.268,0,0,0-.317-1.665c-.211-.881-.455-1.565-.458-1.572a14.635,14.635,0,0,0-.573-1.441c-.326-.718-.651-1.265-.654-1.271a10.253,10.253,0,0,0-1.842-2.369,3.778,3.778,0,0,0,.316.211" transform="translate(49.014 65.823)" fill="#9bc2e0"/><path d="M118.616,165.975c.02-7.087-2.411-12.582-6.8-15.312l.282.172c8.025,4.8,21.225,4.931,29.482.3q.338-.19.659-.387c-4.409,2.706-6.872,8.188-6.891,15.275-.118.073-.238.144-.364.214-4.54,2.547-11.8,2.473-16.211-.164-.052-.032-.1-.063-.156-.095" transform="translate(50.768 68.407)" fill="#9bc2e0"/><path d="M147.2,176.59c3.759-2.3,5.649-5.269,5.658-8.242.009-3.04-1.951-6.088-5.9-8.448-8.026-4.8-21.226-4.931-29.482-.3-10.551-19.186-16.659-40.2-16.607-58.566,17.771-9.972,46.179-9.685,63.452.641,8.495,5.078,12.716,11.638,12.7,18.18a68.4,68.4,0,0,1-.4,7.346c-.238,1.918-.624,4.468-.96,6.372-.19,1.075-.534,2.491-.794,3.551a70.518,70.518,0,0,1-5.908,15.531,64.733,64.733,0,0,1-3.756,6.3c-1.022,1.461-2.433,3.375-3.535,4.775-.689.878-1.681,1.991-2.431,2.816-.785.864-1.864,1.985-2.715,2.782-1.192,1.114-2.84,2.537-4.093,3.581-.912.76-2.213,1.666-3.184,2.348-.6.42-1.434.928-2.049,1.326" transform="translate(45.801 42.562)" fill="#9bc2e0"/><path d="M91.524,117.329c.019-6.761,4.564-13.5,13.6-18.571-.052,18.372,6.056,39.381,16.607,58.567-4.2,2.354-6.309,5.486-6.318,8.628-.009,2.966,1.858,5.941,5.617,8.275-.963-.615-2.232-1.458-3.157-2.129-.871-.631-2.008-1.506-2.825-2.2-1.255-1.073-2.873-2.566-4.057-3.719-.782-.762-1.758-1.845-2.489-2.658-.715-.8-1.639-1.887-2.284-2.739-1.082-1.426-2.465-3.372-3.472-4.849-.016-.023-1.617-2.422-3.349-5.761a68.229,68.229,0,0,1-2.959-6.529c-.657-1.774-1.471-4.16-2.037-5.964-.324-1.034-.673-2.438-.925-3.491s-.573-2.47-.749-3.542c-.314-1.909-.664-4.467-.887-6.389-.126-1.092-.2-2.561-.249-3.66-.044-.979-.045-2.284-.064-3.264" transform="translate(41.556 44.84)" fill="#9bc2e0"/><path d="M121.027,168.43c-.614-.4-1.447-.915-2.044-1.341-.968-.688-2.265-1.6-3.174-2.367-1.249-1.053-2.889-2.488-4.077-3.61-.846-.8-1.918-1.928-2.7-2.795-.746-.829-1.73-1.947-2.415-2.828-1.093-1.409-2.494-3.331-3.507-4.8a64.669,64.669,0,0,1-3.718-6.324,70.409,70.409,0,0,1-5.819-15.561c-.254-1.06-.589-2.478-.774-3.552-.326-1.906-.7-4.458-.923-6.377a68.189,68.189,0,0,1-.353-7.347c-.019,6.542,4.2,13.1,12.7,18.18,17.274,10.327,45.682,10.613,63.453.641,9.031-5.067,13.576-11.81,13.6-18.571-.025.98-.032,2.286-.083,3.264-.055,1.1-.135,2.566-.269,3.658-.233,1.921-.6,4.476-.922,6.383-.183,1.072-.51,2.484-.769,3.539s-.615,2.454-.945,3.487c-.576,1.8-1.4,4.183-2.071,5.953a68.049,68.049,0,0,1-3,6.514c-1.751,3.328-3.368,5.722-3.382,5.743-1.016,1.471-2.409,3.41-3.5,4.827-.651.849-1.581,1.937-2.3,2.729-.736.808-1.72,1.886-2.507,2.645-1.188,1.144-2.814,2.627-4.071,3.692-.822.694-1.964,1.563-2.838,2.188-.928.665-2.2,1.5-3.165,2.108q-.321.2-.66.387c-8.256,4.634-21.456,4.5-29.481-.3-.1-.057-.189-.113-.282-.172" transform="translate(41.556 50.639)" fill="#9bc2e0"/><path d="M136.1,169.353a27.608,27.608,0,0,1-13.741-3.334l-.228-.14c-.2-.129-.42-.27-.647-.416-.441-.282-.915-.583-1.287-.849l-.169-.119c-.92-.653-2.065-1.467-2.843-2.121-1.131-.955-2.77-2.38-3.971-3.516-.7-.665-1.706-1.706-2.556-2.651-1.027-1.141-1.8-2.047-2.3-2.69-1.022-1.316-2.4-3.2-3.427-4.686a62.624,62.624,0,0,1-3.555-6.052,67.968,67.968,0,0,1-5.608-15c-.173-.724-3.58-14.6-3.727-15.281,2.033,2.087,85.45,5.389,87.689,3.116-.145.659-3.052,11.544-3.157,11.968-.365,1.486-.659,2.574-.9,3.324-.564,1.767-1.38,4.109-2.028,5.831a66.328,66.328,0,0,1-2.872,6.235c-1.671,3.179-3.222,5.48-3.238,5.5-1.092,1.582-2.436,3.437-3.413,4.71-.554.721-1.4,1.729-2.168,2.568-.612.675-1.637,1.8-2.392,2.529-1.23,1.185-2.818,2.626-3.951,3.583-.691.583-1.742,1.394-2.68,2.065-.912.653-2.171,1.476-3.046,2.028-.157.1-.349.209-.547.32a27.551,27.551,0,0,1-13.242,3.071" transform="translate(41.789 51.081)" fill="#e8f4f7"/><path d="M177.742,235.736c-.023,7.154-5.828,12.57-11.542,15.952a45.392,45.392,0,0,1-6.286,3.064,62.123,62.123,0,0,1-16.707,3.977,72.579,72.579,0,0,1-25.6-1.829c-7.359-1.919-15.039-5.256-20.227-11.016a16.536,16.536,0,0,1-4.273-8.548,26.659,26.659,0,0,1-.023-5.233c.068-1.852.275-3.657.525-5.486A68.968,68.968,0,0,1,99.1,207.257a64.137,64.137,0,0,1,11.954-17.781,53.243,53.243,0,0,1,9.05-7.61,15.937,15.937,0,0,0,1.714-1.166,13.924,13.924,0,0,0,1.738-2.1c.755-1.143,4.617-7.2,5.075-8.479,2.216-6.126-1.669-9.12-6.126-14.171a19.676,19.676,0,0,0-3.405-2.537c-1.578-1.143-3.062-2.377-4.526-3.657a56.247,56.247,0,0,1-7.725-8.41c-1.028-1.373-2.033-2.744-2.947-4.183a30.577,30.577,0,0,0,11.587,7.542,52.939,52.939,0,0,0,12.96,3.155,57.092,57.092,0,0,0,25.942-2.652c.273-.092.57-.183.845-.3,4.846-1.851,9.668-4.595,12.913-8.753a58.384,58.384,0,0,1-17.53,18.33,7.717,7.717,0,0,0-1.919,1.531,13.926,13.926,0,0,0-1.669,2.331c-.8,1.394-4.457,6.469-4.868,8.023-.936,3.542,4.388,10.879,5.416,12.41a9.523,9.523,0,0,0,1.851,2.171c.55.435,1.189.755,1.738,1.143a55.732,55.732,0,0,1,9.714,8.525,65.5,65.5,0,0,1,12.434,20.525,68.653,68.653,0,0,1,4.365,21.1q.068,1.747.068,3.5" transform="translate(42.21 61.82)" fill="#eaf5fe"/><path d="M159.441,248.75a7.712,7.712,0,0,1-5.723,7.75,67.692,67.692,0,0,1-10.511,1.915,72.612,72.612,0,0,1-25.6-1.829c-7.359-1.919-15.039-5.256-20.227-11.016a16.547,16.547,0,0,1-4.273-8.548,25.961,25.961,0,0,1-.031-5.11c.055-1,.115-2.009.22-3.011a70.139,70.139,0,0,1,5.8-21.957,64.137,64.137,0,0,1,11.954-17.781,53.243,53.243,0,0,1,9.05-7.61,16.154,16.154,0,0,0,1.714-1.166,13.924,13.924,0,0,0,1.738-2.1c.755-1.143,4.617-7.2,5.075-8.48,2.216-6.126-1.669-9.12-6.126-14.171a19.67,19.67,0,0,0-3.405-2.536c-1.578-1.143-3.062-2.377-4.526-3.657a56.186,56.186,0,0,1-7.725-8.412c-1.028-1.371-2.033-2.742-2.947-4.182a30.594,30.594,0,0,0,11.587,7.542,52.87,52.87,0,0,0,12.96,3.154,57.091,57.091,0,0,0,25.942-2.651,27.494,27.494,0,0,1-2.332,3.085c-8.868,10.331-5.9,4.32-8.868,10.331-2.947,6.011-4.887,17.078-3.151,21.443,1.738,4.388,14.8,15.1,18.8,33.66,1.873,8.732.19,24.109.6,35.34" transform="translate(42.21 62.133)" fill="#c2dcef"/><path d="M98.7,133.82c1.172,2.262,2.281,4.076,2.942,5.111a15.426,15.426,0,0,1-3.727-6.694c.243.523.51,1.054.785,1.583" transform="translate(44.458 60.041)" fill="#9bc2e0"/><path d="M146.986,133.326a15.611,15.611,0,0,1-2.325,4.1c.6-.971,1.39-2.331,2.219-3.9.038-.068.068-.131.106-.2" transform="translate(65.682 60.536)" fill="#9bc2e0"/><path d="M158.119,218.743c-4.542-2.718-19.112-12.287-22.641-19.744-3.682-7.779-2.735-29.936.768-34.417s17.211-12.86,21.456-18.126,7.914-10.3,7.914-10.3h-51.97c-.779-.1-12.807.156-12.807.156s6.42,9.329,13.406,15.337,14.889,10.421,15.625,13.232,2.409,27.016-1.092,35.055c-3.161,7.263-15.381,15.862-19.75,18.311-13.748,7.715-14.059,20.442-.7,28.431s35.343,8.214,49.091.5,14.059-20.448.7-28.431" transform="translate(44.727 61.809)" fill="#feb25e"/><path d="M157.392,218.743c-4.542-2.718-19.112-12.287-22.641-19.744-3.682-7.779-2.735-29.936.768-34.417s17.212-12.86,21.456-18.126,7.914-10.3,7.914-10.3h-51.97c-.779-.1-12.807.156-12.807.156s6.42,9.329,13.406,15.337,16.428,11.52,17.162,14.331.747,12.394.3,21.151c-1,19.459,22.575,38.478,13.11,48.91-20.934,23.07-49.845,2.649-36.483,10.638s35.343,8.214,49.091.5,14.059-20.448.7-28.431" transform="translate(45.455 61.809)" fill="#fea749"/><path d="M130.2,172.013s2.518,12.826-.553,18.283-12.6,15.616-15.359,26.155-9.211,12.94-11.89,8.787S99.794,211,108,206.264s14.636-9.611,17.328-13.706c5.671-8.63,4.87-20.546,4.87-20.546" transform="translate(45.781 78.101)" fill="#fdbc73"/><g transform="translate(146.268 272.347)" opacity="0.68"><g clip-path="url(#c)"><path d="M105.509,198.671c-1.134,0-1.137,1.4,0,1.4s1.137-1.4,0-1.4" transform="translate(-98.749 -182.142)" fill="#fecd46"/><path d="M123.011,201.067c-1.134,0-1.139,1.4,0,1.4s1.137-1.4,0-1.4" transform="translate(-90.803 -181.054)" fill="#fecd46"/><path d="M120.038,203.047h-.151c-1.136,0-1.139,1.4,0,1.4h.151c1.134,0,1.137-1.4,0-1.4" transform="translate(-92.222 -180.155)" fill="#fecd46"/><path d="M111.879,207.492c-.051-.1-.1-.2-.151-.3-.4-.791-2.185-.493-1.754.371l.153.3c.4.791,2.184.493,1.752-.371" transform="translate(-96.365 -178.483)" fill="#fecd46"/><path d="M111.191,197.622l-.608.3c-1.06.531.055,1.637.918,1.207l.606-.3c1.061-.531-.055-1.637-.916-1.205" transform="translate(-96.255 -182.663)" fill="#fecd46"/><path d="M111.76,194.5c-1.134,0-1.137,1.4,0,1.4s1.139-1.4,0-1.4" transform="translate(-95.911 -184.034)" fill="#fecd46"/><path d="M116.865,201.484c-1.136,0-1.14,1.4,0,1.4s1.137-1.4,0-1.4" transform="translate(-93.594 -180.865)" fill="#fecd46"/><path d="M114.989,204.088c-1.134,0-1.139,1.4,0,1.4s1.137-1.4,0-1.4" transform="translate(-94.445 -179.683)" fill="#fecd46"/><path d="M107.687,201.588a.967.967,0,0,0-.151.025,1,1,0,0,0-.151-.025c-1.136,0-1.139,1.4,0,1.4a1.221,1.221,0,0,0,.151-.023,1.18,1.18,0,0,0,.151.023c1.134,0,1.139-1.4,0-1.4" transform="translate(-97.898 -180.818)" fill="#fecd46"/><path d="M115.406,198.046c-1.134,0-1.137,1.4,0,1.4s1.137-1.4,0-1.4" transform="translate(-94.255 -182.426)" fill="#fecd46"/><path d="M116.275,194.694l-.606-.3c-.861-.43-1.979.675-.918,1.205l.606.3c.861.43,1.979-.675.917-1.205" transform="translate(-94.363 -184.13)" fill="#fecd46"/><path d="M107.933,188.483c.183-.41-.08-.96-.8-.96s-.981.564-.785.974a.735.735,0,0,0-.092.144c-.049.153-.1.3-.151.455-.311.936,1.471,1.217,1.754.371.049-.151.1-.3.151-.454a.551.551,0,0,0-.081-.531" transform="translate(-98.106 -187.204)" fill="#fecd46"/><path d="M106.939,194.608h-.909c-1.134,0-1.139,1.4,0,1.4h.909c1.134,0,1.139-1.4,0-1.4" transform="translate(-98.513 -183.987)" fill="#fecd46"/><path d="M108.223,193.454a1.088,1.088,0,0,0-1.243.25l-.151.151c-.326.324,0,.8.326.955a1.088,1.088,0,0,0,1.243-.25l.151-.151c.324-.324,0-.8-.326-.955" transform="translate(-97.824 -184.556)" fill="#fecd46"/><path d="M110.117,188.431c-.051.1-.1.2-.154.3-.436.856,1.351,1.162,1.754.372l.153-.3c.436-.856-1.349-1.16-1.752-.371" transform="translate(-96.371 -186.999)" fill="#fecd46"/><path d="M115.877,188.563l-.906-.912a1.093,1.093,0,0,0-1.243-.25c-.321.151-.654.625-.327.955l.907.912a1.093,1.093,0,0,0,1.243.25c.32-.153.654-.625.326-.955" transform="translate(-94.84 -187.304)" fill="#fecd46"/><path d="M118.069,191.81l-.606-.606a1.1,1.1,0,0,0-1.243-.25c-.318.151-.656.627-.326.955l.606.606a1.1,1.1,0,0,0,1.243.25c.318-.151.656-.625.326-.955" transform="translate(-93.709 -185.691)" fill="#fecd46"/><path d="M118.474,194.576v.454c0,.928,1.818.931,1.818,0v-.454c0-.926-1.818-.929-1.818,0" transform="translate(-92.476 -184.317)" fill="#fecd46"/><path d="M120.47,198.264c-.1-.253-.2-.5-.3-.758-.33-.826-2.117-.541-1.754.371q.153.38.3.758c.33.826,2.119.541,1.754-.371" transform="translate(-92.525 -182.893)" fill="#fecd46"/><path d="M109.875,203.463h-.3c-1.136,0-1.139,1.4,0,1.4h.3c1.134,0,1.139-1.4,0-1.4" transform="translate(-96.905 -179.967)" fill="#fecd46"/><path d="M105.24,207.3l-.153.3c-.432.859,1.355,1.163,1.754.371l.153-.3c.432-.859-1.355-1.163-1.754-.371" transform="translate(-98.584 -178.434)" fill="#fecd46"/><path d="M102.432,203.88h-.153c-1.134,0-1.139,1.4,0,1.4h.153c1.133,0,1.136-1.4,0-1.4" transform="translate(-100.216 -179.777)" fill="#fecd46"/><path d="M102.071,201.588c-1.134,0-1.139,1.4,0,1.4s1.137-1.4,0-1.4" transform="translate(-100.31 -180.818)" fill="#fecd46"/><path d="M112.7,200.129c-1.134,0-1.137,1.4,0,1.4s1.139-1.4,0-1.4" transform="translate(-95.485 -181.48)" fill="#fecd46"/><path d="M108.218,196.587c-1.134,0-1.139,1.4,0,1.4s1.137-1.4,0-1.4" transform="translate(-97.519 -183.089)" fill="#fecd46"/><path d="M110.093,192.316c-1.134,0-1.137,1.4,0,1.4s1.139-1.4,0-1.4" transform="translate(-96.668 -185.028)" fill="#fecd46"/><path d="M107.176,190.232c-1.134,0-1.139,1.4,0,1.4s1.137-1.4,0-1.4" transform="translate(-97.992 -185.974)" fill="#fecd46"/><path d="M103.425,191.483c-1.134,0-1.139,1.4,0,1.4s1.137-1.4,0-1.4" transform="translate(-99.696 -185.406)" fill="#fecd46"/><path d="M103.738,195.858c-1.134,0-1.137,1.4,0,1.4s1.139-1.4,0-1.4" transform="translate(-99.553 -183.42)" fill="#fecd46"/><path d="M101.446,198.567c-1.134,0-1.139,1.4,0,1.4s1.137-1.4,0-1.4" transform="translate(-100.594 -182.19)" fill="#fecd46"/><path d="M110.651,210.86H110.2c-1.136,0-1.139,1.4,0,1.4h.454c1.134,0,1.137-1.4,0-1.4" transform="translate(-96.621 -176.608)" fill="#fecd46"/><path d="M122.386,209.714c-1.134,0-1.137,1.4,0,1.4s1.137-1.4,0-1.4" transform="translate(-91.086 -177.128)" fill="#fecd46"/><path d="M115.614,207.839c-1.134,0-1.137,1.4,0,1.4s1.139-1.4,0-1.4" transform="translate(-94.161 -177.98)" fill="#fecd46"/><path d="M116.352,209a2.61,2.61,0,0,1-.861.7c-1.057.537.057,1.643.917,1.205a4.554,4.554,0,0,0,1.512-1.2c.67-.813-1.012-1.381-1.569-.705" transform="translate(-94.026 -177.589)" fill="#fecd46"/><path d="M120.613,205.773l-.455.147c-1.118.364-.525,1.674.483,1.348l.455-.148c1.118-.362.525-1.674-.483-1.346" transform="translate(-91.986 -178.941)" fill="#fecd46"/><path d="M122.49,205.651c-1.134,0-1.137,1.4,0,1.4s1.139-1.4,0-1.4" transform="translate(-91.039 -178.973)" fill="#fecd46"/><path d="M124.261,202.005c-1.134,0-1.137,1.4,0,1.4s1.137-1.4,0-1.4" transform="translate(-90.235 -180.629)" fill="#fecd46"/><path d="M126.241,206.8c-1.134,0-1.137,1.4,0,1.4s1.139-1.4,0-1.4" transform="translate(-89.336 -178.453)" fill="#fecd46"/><path d="M124.46,208.672h-.3c-1.136,0-1.139,1.4,0,1.4h.3c1.134,0,1.139-1.4,0-1.4" transform="translate(-90.282 -177.601)" fill="#fecd46"/></g></g><g transform="translate(163.12 262.015)" opacity="0.68"><g clip-path="url(#d)"><path d="M122.789,195.488c-.237,1.109,1.128,1.4,1.365.291s-1.128-1.4-1.365-.291" transform="translate(-107.382 -173.574)" fill="#fecd46"/><g transform="translate(35.319 36.758)" opacity="0.29"><g clip-path="url(#e)"><path d="M136.7,206.718c.705.888,1.8.023,1.093-.868s-1.8-.023-1.093.868" transform="translate(-136.474 -205.478)" fill="#d5673b"/></g></g><g transform="translate(40.305 38.409)" opacity="0.29"><g clip-path="url(#f)"><path d="M140.132,207.853l.095.119c.705.888,1.8.022,1.093-.87l-.095-.118c-.705-.888-1.8-.023-1.093.868" transform="translate(-139.903 -206.613)" fill="#d5673b"/></g></g><path d="M132.741,191.177l-.327.084c-.856.222-.938,2.034,0,1.793l.329-.086c.855-.221.936-2.034,0-1.791" transform="translate(-103.304 -175.222)" fill="#fecd46"/><path d="M122.9,189.919l.17.656c.3,1.149,1.613.288,1.371-.646l-.17-.656c-.3-1.149-1.613-.288-1.371.646" transform="translate(-107.33 -176.327)" fill="#fecd46"/><path d="M120.016,188.506c-.237,1.109,1.128,1.4,1.365.291s-1.128-1.4-1.365-.291" transform="translate(-108.641 -176.744)" fill="#fecd46"/><path d="M127.907,184.968c-.237,1.109,1.128,1.4,1.365.291s-1.128-1.4-1.365-.291" transform="translate(-105.058 -178.35)" fill="#fecd46"/><path d="M130.063,187.345c-.237,1.109,1.128,1.4,1.365.291s-1.128-1.4-1.365-.291" transform="translate(-104.079 -177.271)" fill="#fecd46"/><path d="M126.1,194.059a.918.918,0,0,0-.007.153.987.987,0,0,0-.055.144c-.237,1.109,1.128,1.4,1.365.291a1.119,1.119,0,0,0,.007-.153.987.987,0,0,0,.055-.144c.237-1.109-1.128-1.4-1.365-.291" transform="translate(-105.909 -174.222)" fill="#fecd46"/><path d="M124.24,185.678c-.237,1.109,1.128,1.4,1.365.291s-1.128-1.4-1.365-.291" transform="translate(-106.723 -178.028)" fill="#fecd46"/><path d="M121.135,184.321c-.141.176-.282.353-.422.529-.6.753.247,2.076.987,1.149l.423-.529c.6-.753-.249-2.076-.989-1.149" transform="translate(-108.404 -178.47)" fill="#fecd46"/><path d="M113.315,191.059c-.362-.265-.955-.121-1.1.577s.346,1.077.79.971a.587.587,0,0,0,.121.119c.138.081.276.161.413.243.851.5,1.5-1.185.728-1.637l-.413-.243a.546.546,0,0,0-.535-.031" transform="translate(-112.184 -175.322)" fill="#fecd46"/><path d="M119.113,193.521l-.189.888c-.237,1.109,1.128,1.4,1.365.291l.189-.888c.237-1.109-1.128-1.4-1.365-.291" transform="translate(-109.136 -174.467)" fill="#fecd46"/><path d="M118.235,191.829a1.09,1.09,0,0,0-.015,1.268c.039.06.079.121.116.18.25.385.785.164,1-.121a1.09,1.09,0,0,0,.015-1.268l-.118-.18c-.249-.384-.785-.163-1,.121" transform="translate(-109.532 -175.064)" fill="#fecd46"/><path d="M113.716,188.958l.263.214c.746.6,1.416-1.079.728-1.637l-.263-.214c-.746-.6-1.416,1.079-.728,1.637" transform="translate(-111.619 -177.022)" fill="#fecd46"/><path d="M115.061,183.5l-1.08.7a1.094,1.094,0,0,0-.5,1.163c.083.345.475.771.867.519l1.08-.7a1.1,1.1,0,0,0,.5-1.165c-.083-.345-.475-.769-.867-.518" transform="translate(-111.61 -178.732)" fill="#fecd46"/><path d="M118.691,181.963l-.718.467a1.1,1.1,0,0,0-.5,1.163c.081.345.475.772.867.519l.718-.467a1.1,1.1,0,0,0,.5-1.165c-.081-.343-.475-.771-.867-.518" transform="translate(-109.797 -179.431)" fill="#fecd46"/><path d="M121.482,181.99l.445.095c.906.193,1.287-1.583.378-1.777l-.443-.1c-.907-.193-1.288,1.585-.38,1.778" transform="translate(-108.198 -180.198)" fill="#fecd46"/><path d="M125.506,180.856l-.8.138c-.877.151-.97,1.959,0,1.791q.4-.068.8-.138c.877-.15.971-1.959,0-1.791" transform="translate(-106.815 -179.903)" fill="#fecd46"/><path d="M128.385,192.31l-.063.3c-.237,1.109,1.128,1.4,1.365.291l.063-.3c.237-1.109-1.128-1.4-1.365-.291" transform="translate(-104.869 -175.017)" fill="#fecd46"/><path d="M131.153,197.659l.265.212c.75.6,1.421-1.083.728-1.637l-.265-.212c-.752-.6-1.421,1.083-.728,1.637" transform="translate(-103.703 -173.071)" fill="#fecd46"/><path d="M127.241,199.631l-.032.148c-.236,1.109,1.13,1.4,1.367.291l.031-.148c.237-1.109-1.128-1.4-1.365-.291" transform="translate(-105.374 -171.693)" fill="#fecd46"/><path d="M124.925,199.459c-.237,1.109,1.128,1.4,1.365.291s-1.128-1.4-1.365-.291" transform="translate(-106.412 -171.771)" fill="#fecd46"/><path d="M125.714,188.762c-.237,1.109,1.128,1.4,1.365.291s-1.128-1.4-1.365-.291" transform="translate(-106.053 -176.628)" fill="#fecd46"/><path d="M121.316,192.405c-.237,1.109,1.127,1.4,1.364.291s-1.128-1.4-1.364-.291" transform="translate(-108.05 -174.973)" fill="#fecd46"/><path d="M117.529,189.681c-.237,1.109,1.128,1.4,1.365.291s-1.128-1.4-1.365-.291" transform="translate(-109.77 -176.21)" fill="#fecd46"/><path d="M114.883,192.1c-.237,1.109,1.128,1.4,1.365.291s-1.128-1.4-1.365-.291" transform="translate(-110.971 -175.112)" fill="#fecd46"/><path d="M115.324,196.028c-.237,1.109,1.128,1.4,1.365.291s-1.128-1.4-1.365-.291" transform="translate(-110.771 -173.329)" fill="#fecd46"/><path d="M119.669,196.634c-.238,1.109,1.127,1.4,1.364.291s-1.128-1.4-1.364-.291" transform="translate(-108.798 -173.053)" fill="#fecd46"/><path d="M121.84,199.44c-.237,1.109,1.128,1.4,1.365.291s-1.128-1.4-1.365-.291" transform="translate(-107.812 -171.779)" fill="#fecd46"/><path d="M135.782,193.138l-.095.445c-.237,1.109,1.128,1.4,1.365.291l.095-.445c.237-1.109-1.128-1.4-1.365-.291" transform="translate(-101.525 -174.641)" fill="#fecd46"/><g transform="translate(45.73 29.651)" opacity="0.29"><g clip-path="url(#e)"><path d="M143.862,201.83c.705.888,1.8.023,1.093-.868s-1.8-.023-1.093.868" transform="translate(-143.634 -200.59)" fill="#d5673b"/></g></g><path d="M133.862,187.516c-.237,1.109,1.128,1.4,1.365.291s-1.128-1.4-1.365-.291" transform="translate(-102.354 -177.193)" fill="#fecd46"/><path d="M135.073,187.44a2.59,2.59,0,0,1,.506.989c.305,1.146,1.618.286,1.371-.647a4.588,4.588,0,0,0-.861-1.73c-.654-.824-1.562.7-1.016,1.389" transform="translate(-101.867 -177.648)" fill="#fecd46"/><g transform="translate(42.701 35.167)" opacity="0.29"><g clip-path="url(#h)"><path d="M141.965,205.779l.4.265c.979.65,1.637-.63.755-1.216l-.4-.265c-.977-.65-1.636.63-.753,1.216" transform="translate(-141.551 -204.384)" fill="#d5673b"/></g></g><g transform="translate(41.008 33.207)" opacity="0.29"><g clip-path="url(#e)"><path d="M140.617,204.276c.705.888,1.8.023,1.093-.868s-1.8-.023-1.093.868" transform="translate(-140.387 -203.035)" fill="#d5673b"/></g></g><g transform="translate(35.256 34.487)" opacity="0.29"><g clip-path="url(#j)"><path d="M136.66,205.156c.705.888,1.8.023,1.093-.868s-1.8-.023-1.093.868" transform="translate(-136.431 -203.916)" fill="#d5673b"/></g></g><g transform="translate(38.922 27.9)" opacity="0.29"><g clip-path="url(#e)"><path d="M139.182,200.626c.705.888,1.8.023,1.093-.868s-1.8-.023-1.093.868" transform="translate(-138.952 -199.385)" fill="#d5673b"/></g></g><g transform="translate(42.753 28.339)" opacity="0.29"><g clip-path="url(#l)"><path d="M141.817,200.928l.188.237c.705.888,1.8.023,1.093-.868l-.188-.237c-.705-.888-1.8-.023-1.093.868" transform="translate(-141.587 -199.687)" fill="#d5673b"/></g></g></g></g><g transform="translate(175.087 277.676)" opacity="0.68"><g clip-path="url(#m)"><path d="M131.018,210.253c-.237,1.109,1.128,1.4,1.365.291s-1.128-1.4-1.365-.291" transform="translate(-115.612 -182.531)" fill="#fecd46"/><path d="M137.01,193.635c-.237,1.109,1.128,1.4,1.365.291s-1.128-1.4-1.365-.291" transform="translate(-112.891 -190.076)" fill="#fecd46"/><path d="M138.326,197l-.032.148c-.236,1.109,1.13,1.4,1.367.291l.031-.148c.237-1.109-1.128-1.4-1.365-.291" transform="translate(-112.308 -188.548)" fill="#fecd46"/><path d="M140.97,205.942l-.327.084c-.856.222-.938,2.034,0,1.793l.327-.086c.856-.221.938-2.034,0-1.791" transform="translate(-111.535 -184.18)" fill="#fecd46"/><path d="M131.134,204.684l.17.656c.3,1.149,1.613.288,1.371-.646l-.17-.656c-.3-1.149-1.613-.288-1.371.646" transform="translate(-115.56 -185.285)" fill="#fecd46"/><path d="M128.246,203.271c-.237,1.109,1.128,1.4,1.365.291s-1.128-1.4-1.365-.291" transform="translate(-116.871 -185.701)" fill="#fecd46"/><path d="M136.136,199.733c-.237,1.109,1.128,1.4,1.365.291s-1.128-1.4-1.365-.291" transform="translate(-113.288 -187.308)" fill="#fecd46"/><path d="M138.293,202.11c-.237,1.109,1.128,1.4,1.365.291s-1.128-1.4-1.365-.291" transform="translate(-112.309 -186.228)" fill="#fecd46"/><path d="M134.325,208.823a.916.916,0,0,0-.007.153.984.984,0,0,0-.055.144c-.237,1.109,1.128,1.4,1.365.291a1.111,1.111,0,0,0,.007-.153.985.985,0,0,0,.055-.144c.237-1.109-1.128-1.4-1.365-.291" transform="translate(-114.139 -183.18)" fill="#fecd46"/><path d="M132.47,200.443c-.237,1.109,1.128,1.4,1.365.291s-1.128-1.4-1.365-.291" transform="translate(-114.953 -186.985)" fill="#fecd46"/><path d="M129.365,199.086c-.141.176-.282.353-.422.529-.6.753.247,2.076.987,1.149l.423-.529c.6-.753-.249-2.076-.989-1.149" transform="translate(-116.634 -187.427)" fill="#fecd46"/><path d="M121.545,205.824c-.362-.265-.955-.121-1.1.577s.346,1.077.79.971a.626.626,0,0,0,.121.119c.138.081.276.161.413.243.851.5,1.5-1.185.728-1.637l-.413-.243a.546.546,0,0,0-.535-.031" transform="translate(-120.414 -184.28)" fill="#fecd46"/><path d="M127.342,208.285l-.189.888c-.237,1.109,1.128,1.4,1.365.291l.189-.888c.237-1.109-1.128-1.4-1.365-.291" transform="translate(-117.367 -183.425)" fill="#fecd46"/><path d="M126.465,206.594a1.09,1.09,0,0,0-.015,1.268l.116.18c.25.385.785.164,1-.119a1.1,1.1,0,0,0,.015-1.269l-.118-.179c-.249-.385-.785-.164-1,.119" transform="translate(-117.762 -184.022)" fill="#fecd46"/><path d="M121.946,203.723l.263.214c.746.6,1.416-1.079.728-1.637l-.263-.214c-.746-.6-1.416,1.079-.728,1.637" transform="translate(-119.849 -185.98)" fill="#fecd46"/><path d="M123.29,198.265l-1.08.7a1.094,1.094,0,0,0-.5,1.163c.083.345.475.771.867.519l1.08-.7a1.1,1.1,0,0,0,.5-1.165c-.083-.345-.475-.769-.867-.518" transform="translate(-119.841 -187.69)" fill="#fecd46"/><path d="M126.921,196.728l-.718.467a1.094,1.094,0,0,0-.5,1.163c.081.345.475.772.867.519l.718-.467a1.1,1.1,0,0,0,.5-1.165c-.081-.343-.475-.771-.867-.518" transform="translate(-118.027 -188.388)" fill="#fecd46"/><path d="M129.712,196.755l.445.095c.906.193,1.287-1.583.378-1.777l-.443-.1c-.907-.193-1.288,1.585-.38,1.778" transform="translate(-116.428 -189.155)" fill="#fecd46"/><path d="M133.736,195.621l-.806.138c-.877.151-.968,1.959,0,1.791q.4-.068.8-.138c.877-.151.971-1.959,0-1.791" transform="translate(-115.046 -188.861)" fill="#fecd46"/><path d="M136.615,207.074l-.063.3c-.237,1.109,1.128,1.4,1.365.291l.063-.3c.237-1.109-1.128-1.4-1.365-.291" transform="translate(-113.099 -183.975)" fill="#fecd46"/><path d="M139.382,212.423c.089.07.176.141.265.212.75.6,1.421-1.083.728-1.637l-.265-.212c-.75-.6-1.421,1.083-.728,1.637" transform="translate(-111.933 -182.029)" fill="#fecd46"/><path d="M135.471,214.4l-.032.148c-.237,1.109,1.128,1.4,1.367.291l.031-.148c.237-1.109-1.128-1.4-1.365-.291" transform="translate(-113.605 -180.65)" fill="#fecd46"/><path d="M133.155,214.224c-.237,1.109,1.128,1.4,1.365.291s-1.128-1.4-1.365-.291" transform="translate(-114.642 -180.728)" fill="#fecd46"/><path d="M133.943,203.527c-.237,1.109,1.128,1.4,1.365.291s-1.128-1.4-1.365-.291" transform="translate(-114.284 -185.585)" fill="#fecd46"/><path d="M129.545,207.17c-.237,1.109,1.128,1.4,1.365.291s-1.128-1.4-1.365-.291" transform="translate(-116.281 -183.931)" fill="#fecd46"/><path d="M125.758,204.445c-.237,1.109,1.128,1.4,1.365.291s-1.128-1.4-1.365-.291" transform="translate(-118 -185.168)" fill="#fecd46"/><path d="M123.113,206.864c-.238,1.109,1.127,1.4,1.364.291s-1.128-1.4-1.364-.291" transform="translate(-119.201 -184.07)" fill="#fecd46"/><path d="M123.554,210.793c-.237,1.109,1.127,1.4,1.364.291s-1.128-1.4-1.364-.291" transform="translate(-119.001 -182.286)" fill="#fecd46"/><path d="M127.9,211.4c-.237,1.109,1.128,1.4,1.365.291s-1.128-1.4-1.365-.291" transform="translate(-117.029 -182.011)" fill="#fecd46"/><path d="M130.07,214.205c-.238,1.109,1.127,1.4,1.364.291s-1.128-1.4-1.364-.291" transform="translate(-116.043 -180.737)" fill="#fecd46"/><path d="M144.011,207.9l-.095.445c-.237,1.109,1.128,1.4,1.365.291l.095-.445c.237-1.109-1.128-1.4-1.365-.291" transform="translate(-109.755 -183.598)" fill="#fecd46"/><path d="M145.337,196.049c-.237,1.109,1.128,1.4,1.365.291s-1.128-1.4-1.365-.291" transform="translate(-109.111 -188.98)" fill="#fecd46"/><path d="M142.091,202.281c-.237,1.109,1.128,1.4,1.365.291s-1.128-1.4-1.365-.291" transform="translate(-110.584 -186.151)" fill="#fecd46"/><path d="M143.3,202.2a2.59,2.59,0,0,1,.506.989c.305,1.146,1.618.286,1.371-.647a4.588,4.588,0,0,0-.861-1.73c-.656-.824-1.562.7-1.016,1.389" transform="translate(-110.097 -186.605)" fill="#fecd46"/><path d="M141.077,197.1l.049.477c.121,1.168,1.527.861,1.418-.192-.016-.158-.033-.318-.049-.477-.121-1.169-1.527-.861-1.418.192" transform="translate(-111.035 -188.613)" fill="#fecd46"/><path d="M141.385,195.1c-.237,1.109,1.128,1.4,1.365.291s-1.128-1.4-1.365-.291" transform="translate(-110.905 -189.411)" fill="#fecd46"/><path d="M138.187,192.607c-.237,1.109,1.128,1.4,1.365.291s-1.128-1.4-1.365-.291" transform="translate(-112.357 -190.543)" fill="#fecd46"/><path d="M143.287,191.671c-.237,1.109,1.128,1.4,1.365.291s-1.128-1.4-1.365-.291" transform="translate(-110.041 -190.968)" fill="#fecd46"/><path d="M144.749,193.9l-.063.3c-.237,1.109,1.128,1.4,1.365.291l.063-.3c.237-1.109-1.128-1.4-1.365-.291" transform="translate(-109.406 -189.958)" fill="#fecd46"/></g></g><g transform="translate(167.176 197.821)" opacity="0.68"><g clip-path="url(#n)"><g transform="translate(12.607 86.58)" opacity="0.29"><g clip-path="url(#e)"><path d="M123.871,196.834c.705.888,1.8.023,1.093-.868s-1.8-.023-1.093.868" transform="translate(-123.643 -195.594)" fill="#d5673b"/></g></g><g transform="translate(17.592 88.231)" opacity="0.29"><g clip-path="url(#f)"><path d="M127.3,197.969l.095.119c.705.888,1.8.022,1.093-.87l-.095-.118c-.705-.888-1.8-.023-1.093.868" transform="translate(-127.072 -196.728)" fill="#d5673b"/></g></g><g transform="translate(30.055 94.998)" opacity="0.29"><g clip-path="url(#q)"><path d="M135.851,201.687c-.048.1-.1.205-.142.307-.374.8.973,2.017,1.38,1.141l.144-.307c.372-.8-.974-2.017-1.381-1.141" transform="translate(-135.643 -201.383)" fill="#d5673b"/></g></g><path d="M125.693,145.77l.17.656c.3,1.149,1.613.288,1.37-.646l-.17-.656c-.3-1.149-1.613-.288-1.37.646" transform="translate(-110.119 -132.179)" fill="#fecd46"/><path d="M122.8,144.358c-.237,1.109,1.128,1.4,1.365.291s-1.128-1.4-1.365-.291" transform="translate(-111.43 -132.595)" fill="#fecd46"/><g transform="translate(18.639 93.203)" opacity="0.29"><g clip-path="url(#j)"><path d="M128.02,201.389c.705.888,1.8.022,1.093-.868s-1.8-.023-1.093.868" transform="translate(-127.792 -200.148)" fill="#d5673b"/></g></g><g transform="translate(23.3 92.983)" opacity="0.29"><g clip-path="url(#e)"><path d="M131.227,201.237c.705.888,1.8.023,1.093-.868s-1.8-.023-1.093.868" transform="translate(-130.997 -199.997)" fill="#d5673b"/></g></g><g transform="translate(27.141 103.666)" opacity="0.29"><g clip-path="url(#l)"><path d="M133.868,208.585a1.054,1.054,0,0,0,.113.1,1.021,1.021,0,0,0,.074.134c.707.888,1.8.023,1.095-.868a1.212,1.212,0,0,0-.113-.1,1.037,1.037,0,0,0-.076-.134c-.705-.888-1.8-.023-1.093.868" transform="translate(-133.639 -207.344)" fill="#d5673b"/></g></g><g transform="translate(16.042 97.972)" opacity="0.29"><g clip-path="url(#e)"><path d="M126.236,204.669c.705.888,1.8.023,1.093-.868s-1.8-.023-1.093.868" transform="translate(-126.006 -203.428)" fill="#d5673b"/></g></g><path d="M123.926,140.173l-.423.529c-.6.753.247,2.076.989,1.149.141-.176.282-.353.422-.529.6-.753-.247-2.076-.987-1.149" transform="translate(-111.193 -134.321)" fill="#fecd46"/><path d="M116.105,146.911c-.362-.265-.957-.121-1.1.577s.345,1.077.788.971a.669.669,0,0,0,.121.119c.14.081.278.161.413.243.851.5,1.5-1.185.728-1.637l-.413-.243a.543.543,0,0,0-.534-.031" transform="translate(-114.973 -131.174)" fill="#fecd46"/><path d="M121.9,149.372l-.189.888c-.237,1.109,1.128,1.4,1.365.291l.189-.888c.237-1.109-1.128-1.4-1.365-.291" transform="translate(-111.925 -130.318)" fill="#fecd46"/><path d="M121.024,147.681a1.09,1.09,0,0,0-.015,1.268c.039.06.079.121.116.18.25.385.785.164,1-.121a1.09,1.09,0,0,0,.015-1.268l-.118-.18c-.249-.384-.785-.163-1,.121" transform="translate(-112.321 -130.916)" fill="#fecd46"/><path d="M116.5,144.809l.263.214c.746.6,1.416-1.079.728-1.637l-.263-.214c-.746-.6-1.416,1.079-.728,1.637" transform="translate(-114.408 -132.874)" fill="#fecd46"/><path d="M117.85,139.352l-1.08.7a1.094,1.094,0,0,0-.5,1.163c.081.345.475.771.867.519l1.08-.7a1.1,1.1,0,0,0,.5-1.165c-.083-.345-.475-.769-.867-.518" transform="translate(-114.399 -134.584)" fill="#fecd46"/><path d="M121.48,137.815l-.718.467a1.1,1.1,0,0,0-.5,1.163c.081.345.475.772.867.519l.718-.467a1.1,1.1,0,0,0,.5-1.165c-.081-.343-.475-.771-.867-.518" transform="translate(-112.586 -135.282)" fill="#fecd46"/><path d="M124.271,137.842l.445.095c.906.193,1.287-1.583.378-1.777l-.443-.1c-.907-.193-1.288,1.585-.38,1.778" transform="translate(-110.987 -136.049)" fill="#fecd46"/><g transform="translate(11.359 93.757)" opacity="0.29"><g clip-path="url(#v)"><path d="M123.277,200.82c-.135.236-.27.473-.4.708-.442.772.893,1.995,1.38,1.141l.406-.708c.441-.772-.894-1.993-1.381-1.141" transform="translate(-122.785 -200.529)" fill="#d5673b"/></g></g><g transform="translate(27.298 99.479)" opacity="0.29"><g clip-path="url(#l)"><path d="M133.977,205.705l.189.237c.705.888,1.8.023,1.093-.868l-.189-.237c-.705-.888-1.8-.023-1.093.868" transform="translate(-133.747 -204.465)" fill="#d5673b"/></g></g><g transform="translate(34.452 100.641)" opacity="0.29"><g clip-path="url(#x)"><path d="M139.873,206.951l.332-.07c.942-.2.068-1.784-.8-1.6l-.332.068c-.941.2-.068,1.786.8,1.6" transform="translate(-138.667 -205.263)" fill="#d5673b"/></g></g><path d="M126.7,183.443l-.032.148c-.236,1.109,1.13,1.4,1.367.291l.031-.148c.237-1.109-1.128-1.4-1.365-.291" transform="translate(-109.674 -114.849)" fill="#fecd46"/><path d="M124.386,183.271c-.237,1.109,1.128,1.4,1.365.291s-1.128-1.4-1.365-.291" transform="translate(-110.712 -114.927)" fill="#fecd46"/><g transform="translate(20.866 99.172)" opacity="0.29"><g clip-path="url(#j)"><path d="M129.551,205.494c.705.888,1.8.023,1.093-.868s-1.8-.023-1.093.868" transform="translate(-129.323 -204.253)" fill="#d5673b"/></g></g><path d="M124.1,148.256c-.237,1.109,1.128,1.4,1.365.291s-1.128-1.4-1.365-.291" transform="translate(-110.839 -130.825)" fill="#fecd46"/><path d="M120.318,145.532c-.237,1.109,1.128,1.4,1.365.291s-1.128-1.4-1.365-.291" transform="translate(-112.559 -132.062)" fill="#fecd46"/><path d="M117.672,147.951c-.237,1.109,1.128,1.4,1.365.291s-1.128-1.4-1.365-.291" transform="translate(-113.76 -130.964)" fill="#fecd46"/><path d="M118.113,151.879c-.237,1.109,1.128,1.4,1.365.291s-1.128-1.4-1.365-.291" transform="translate(-113.56 -129.18)" fill="#fecd46"/><path d="M122.458,152.486c-.237,1.109,1.128,1.4,1.365.291s-1.128-1.4-1.365-.291" transform="translate(-111.587 -128.905)" fill="#fecd46"/><path d="M121.3,183.253c-.237,1.109,1.128,1.4,1.365.291s-1.128-1.4-1.365-.291" transform="translate(-112.112 -114.935)" fill="#fecd46"/><g transform="translate(35.061 91.96)" opacity="0.29"><g clip-path="url(#z)"><path d="M139.315,200.534l.282.356c.707.888,1.8.022,1.093-.868l-.282-.356c-.705-.888-1.8-.023-1.093.868" transform="translate(-139.086 -199.294)" fill="#d5673b"/></g></g><g transform="translate(23.017 79.473)" opacity="0.29"><g clip-path="url(#e)"><path d="M131.031,191.946c.705.888,1.8.023,1.093-.868s-1.8-.023-1.093.868" transform="translate(-130.803 -190.706)" fill="#d5673b"/></g></g><g transform="translate(27.006 88.88)" opacity="0.29"><g clip-path="url(#j)"><path d="M133.774,198.415c.705.888,1.8.023,1.093-.868s-1.8-.023-1.093.868" transform="translate(-133.546 -197.175)" fill="#d5673b"/></g></g><g transform="translate(26.923 86.805)" opacity="0.29"><g clip-path="url(#ac)"><path d="M134.472,197.416a2.608,2.608,0,0,1,1.085.238c1.077.493,1.25-1.067.374-1.469a4.591,4.591,0,0,0-1.883-.438c-1.053-.019-.452,1.652.425,1.668" transform="translate(-133.489 -195.748)" fill="#d5673b"/></g></g><g transform="translate(19.989 84.99)" opacity="0.29"><g clip-path="url(#h)"><path d="M129.134,195.895l.4.265c.98.65,1.637-.63.755-1.216l-.4-.265c-.979-.65-1.637.63-.755,1.216" transform="translate(-128.72 -194.499)" fill="#d5673b"/></g></g><g transform="translate(18.296 83.028)" opacity="0.29"><g clip-path="url(#e)"><path d="M127.785,194.391c.705.888,1.8.023,1.093-.868s-1.8-.023-1.093.868" transform="translate(-127.556 -193.151)" fill="#d5673b"/></g></g><g transform="translate(12.544 84.309)" opacity="0.29"><g clip-path="url(#j)"><path d="M123.828,195.272c.705.888,1.8.022,1.093-.868s-1.8-.023-1.093.868" transform="translate(-123.6 -194.031)" fill="#d5673b"/></g></g><g transform="translate(16.211 77.722)" opacity="0.29"><g clip-path="url(#j)"><path d="M126.35,190.742c.705.888,1.8.022,1.093-.868s-1.8-.023-1.093.868" transform="translate(-126.122 -189.501)" fill="#d5673b"/></g></g><g transform="translate(20.041 78.161)" opacity="0.29"><g clip-path="url(#l)"><path d="M128.985,191.044l.189.237c.705.888,1.8.023,1.093-.868l-.189-.237c-.705-.888-1.8-.023-1.093.868" transform="translate(-128.756 -189.803)" fill="#d5673b"/></g></g></g></g><path d="M115.52,146.064c.794-.811-.2-1.79-1-.977s.2,1.79,1,.977" transform="translate(51.865 65.737)" fill="#fecd46"/><path d="M116.217,142.554l.106-.108c.794-.811-.2-1.79-1-.977l-.1.108c-.794.811.2,1.79,1,.977" transform="translate(52.183 64.095)" fill="#fecd46"/><path d="M126.4,140.075c.07-.215.138-.43.208-.644.362-1.13-1.21-1.107-1.5-.189-.07.215-.138.43-.208.646-.362,1.13,1.208,1.105,1.5.188" transform="translate(56.682 62.915)" fill="#fecd46"/><path d="M128.08,142.612c.794-.811-.2-1.79-1-.977s.2,1.79,1,.977" transform="translate(57.568 64.17)" fill="#fecd46"/><path d="M119.521,141.379c.792-.811-.2-1.79-1-.977s.2,1.79,1,.977" transform="translate(53.682 63.61)" fill="#fecd46"/><path d="M118.969,138.217c.794-.811-.2-1.79-1-.976s.2,1.788,1,.976" transform="translate(53.432 62.175)" fill="#fecd46"/><path d="M123,142.741c.794-.811-.2-1.79-1-.977s.2,1.79,1,.977" transform="translate(55.261 64.228)" fill="#fecd46"/><path d="M124.987,145.7l.638-.221c.91-.314.9-1.887-.22-1.5-.214.074-.427.147-.638.221-.91.314-.9,1.887.22,1.5" transform="translate(56.352 65.347)" fill="#fecd46"/><path d="M135.317,144.315c.166.417.743.614,1.242.1s.284-1.1-.147-1.243a.61.61,0,0,0-.039-.166c-.073-.142-.145-.285-.22-.426-.451-.878-1.9.2-1.49.993l.218.426a.552.552,0,0,0,.436.313" transform="translate(61.11 64.59)" fill="#fecd46"/><path d="M131.574,139.093l.635-.65c.794-.81-.2-1.79-1-.976l-.635.649c-.794.811.2,1.79,1,.977" transform="translate(59.155 62.277)" fill="#fecd46"/><path d="M131.355,140.839a1.09,1.09,0,0,0,.691-1.064c0-.071,0-.143,0-.214,0-.46-.574-.558-.91-.435a1.088,1.088,0,0,0-.691,1.063l0,.215c0,.458.574.558.91.435" transform="translate(59.226 63.147)" fill="#fecd46"/><path d="M133.642,145.734c-.036-.108-.073-.214-.108-.321-.307-.91-1.774.154-1.492.993l.109.321c.307.91,1.774-.153,1.49-.993" transform="translate(59.937 65.865)" fill="#fecd46"/><path d="M129.863,149.7l1.285-.01a1.1,1.1,0,0,0,1.048-.714c.115-.334.012-.9-.455-.9l-1.285.009a1.1,1.1,0,0,0-1.048.714c-.115.336-.01.906.455.9" transform="translate(58.737 67.232)" fill="#fecd46"/><path d="M125.877,149l.856-.009a1.094,1.094,0,0,0,1.048-.714c.116-.334.012-.906-.454-.9l-.856.01a1.094,1.094,0,0,0-1.05.712c-.115.334-.01.907.455.9" transform="translate(56.928 66.913)" fill="#fecd46"/><path d="M123.456,147.456l-.324-.318c-.663-.647-1.935.65-1.272,1.3l.326.318c.662.647,1.935-.65,1.271-1.3" transform="translate(55.245 66.727)" fill="#fecd46"/><path d="M119.558,146.289l.753.314c.822.34,1.867-1.136.961-1.514l-.753-.313c-.822-.342-1.868,1.136-.961,1.512" transform="translate(54.125 65.712)" fill="#fecd46"/><path d="M123.4,139.348c.794-.811-.2-1.79-1-.977s.2,1.79,1,.977" transform="translate(55.445 62.688)" fill="#fecd46"/><path d="M129.067,138.623c.794-.811-.2-1.79-1-.977s.2,1.79,1,.977" transform="translate(58.017 62.359)" fill="#fecd46"/><path d="M130.808,142.95c.794-.811-.2-1.79-1-.977s.2,1.79,1,.977" transform="translate(58.807 64.323)" fill="#fecd46"/><path d="M134.339,142.323c.794-.811-.2-1.79-1-.977s.2,1.79,1,.977" transform="translate(60.41 64.039)" fill="#fecd46"/><path d="M136.068,138.767c.794-.811-.2-1.79-1-.977s.2,1.79,1,.977" transform="translate(61.195 62.424)" fill="#fecd46"/><path d="M109.775,139.57c.794-.811-.2-1.79-1-.977s.2,1.79,1,.977" transform="translate(49.258 62.789)" fill="#fecd46"/><path d="M113.93,141.1l.214-.429c.522-1.053-.83-1.544-1.3-.6-.071.143-.141.286-.212.429-.523,1.051.829,1.544,1.3.6" transform="translate(51.085 63.371)" fill="#fecd46"/><path d="M112.606,142.486c.794-.811-.2-1.79-1-.977s.2,1.79,1,.977" transform="translate(50.543 64.113)" fill="#fecd46"/><path d="M113.974,146.3c.794-.811-.2-1.79-1-.977s.2,1.79,1,.977" transform="translate(51.164 65.845)" fill="#fecd46"/><path d="M109.164,144.365c.794-.811-.2-1.79-1-.977s.2,1.79,1,.977" transform="translate(48.98 64.966)" fill="#fecd46"/><path d="M109.137,141.781l.212-.217c.792-.811-.2-1.79-1-.976l-.212.215c-.792.811.2,1.79,1,.977" transform="translate(48.967 63.694)" fill="#fecd46"/><path d="M168.322,141.178c-.038.068-.068.131-.106.2-.829,1.57-1.62,2.93-2.219,3.9a25.233,25.233,0,0,1-7.7,6.338c-14.148,7.941-36.77,7.709-50.525-.51a26.014,26.014,0,0,1-6.02-4.817c-.662-1.035-1.771-2.848-2.942-5.111-.275-.529-.542-1.06-.785-1.583a12.751,12.751,0,0,1,1.781-10,23.739,23.739,0,0,1,8.682-7.753c14.154-7.939,36.777-7.709,50.531.512A23.056,23.056,0,0,1,167.1,129.9a12.6,12.6,0,0,1,1.221,11.275" transform="translate(44.347 52.683)" fill="#fcd19c"/><path d="M161.194,141.36c-.032.058-.058.111-.089.169-.708,1.317-1.365,2.467-1.87,3.286a21.271,21.271,0,0,1-6.485,5.341c-11.919,6.689-30.978,6.5-42.567-.432a21.937,21.937,0,0,1-5.073-4.058c-.555-.871-1.49-2.4-2.478-4.305-.23-.446-.457-.893-.662-1.333a10.741,10.741,0,0,1,1.5-8.428,19.979,19.979,0,0,1,7.314-6.532c11.925-6.69,30.984-6.5,42.573.43a19.438,19.438,0,0,1,6.8,6.363,10.623,10.623,0,0,1,1.029,9.5" transform="translate(46.162 54.564)" fill="#fdc787"/><path d="M154.067,141.541c-.026.047-.047.09-.073.137-.574,1.072-1.109,2.007-1.519,2.673a17.3,17.3,0,0,1-5.272,4.342c-9.691,5.44-25.188,5.281-34.611-.35a17.826,17.826,0,0,1-4.125-3.3c-.452-.71-1.213-1.951-2.014-3.5-.189-.362-.372-.726-.538-1.085a8.735,8.735,0,0,1,1.22-6.851,16.263,16.263,0,0,1,5.947-5.312c9.7-5.438,25.193-5.281,34.615.35a15.8,15.8,0,0,1,5.534,5.175,8.633,8.633,0,0,1,.836,7.722" transform="translate(47.978 56.444)" fill="#fdbc73"/><path d="M146.939,141.722c-.5.931-.91,1.65-1.226,2.164a13.3,13.3,0,0,1-4.061,3.343c-7.462,4.189-19.4,4.067-26.654-.269a13.7,13.7,0,0,1-3.176-2.542c-.349-.545-.934-1.5-1.551-2.7-.145-.279-.286-.558-.414-.835a6.731,6.731,0,0,1,.941-5.277,12.515,12.515,0,0,1,4.579-4.09c7.466-4.189,19.4-4.067,26.657.269a12.185,12.185,0,0,1,4.262,3.986,6.648,6.648,0,0,1,.644,5.947" transform="translate(49.794 58.325)" fill="#feb25e"/><path d="M139.813,141.9c-.346.656-.638,1.157-.861,1.518a9.341,9.341,0,0,1-2.847,2.345c-5.236,2.937-13.607,2.853-18.7-.189a9.661,9.661,0,0,1-2.228-1.783c-.244-.384-.656-1.054-1.089-1.892-.1-.2-.2-.393-.291-.586a4.722,4.722,0,0,1,.66-3.7,8.8,8.8,0,0,1,3.212-2.869c5.237-2.937,13.61-2.853,18.7.189a8.529,8.529,0,0,1,2.99,2.8,4.663,4.663,0,0,1,.452,4.172" transform="translate(51.61 60.206)" fill="#fea749"/><rect width="118.606" height="8.428" transform="translate(118.41 147.616)" fill="#bc4023"/><path d="M182.811,142.292c-15.907,9.188-38.672,12-58.9,8.48a75.926,75.926,0,0,1-24.982-8.64c-1.325-.776-2.582-1.554-3.77-2.377C84.28,132.19,79.869,122.568,81.948,113.38c1.578-7.2,7.177-14.148,16.73-19.656,23.084-13.325,60.636-13.257,83.858.137,9.919,5.714,15.611,12.937,17.1,20.387,2.034,10.011-3.589,20.41-16.822,28.044" transform="translate(36.981 38.037)" fill="#8c3923"/><path d="M182.868,136.5c-23.087,13.329-60.638,13.262-83.869-.151s-23.35-35.093-.263-48.423,60.638-13.261,83.869.151,23.35,35.093.263,48.423" transform="translate(37.003 35.403)" fill="#a24c32"/><g transform="translate(132.14 149.055)" style="mix-blend-mode:multiply;isolation:isolate"><g clip-path="url(#ai)"><path d="M148.429,117.031C142.441,121.6,122.351,132.458,121,133.6a.923.923,0,0,0-.275.411c-.87,1.646-1.051,6.536-1.1,8.25a75.9,75.9,0,0,1-24.98-8.638c-1.326-.778-2.582-1.554-3.772-2.377,1.143-3.2,2.241-5.851,2.652-6.766.09-.228.137-.342.137-.342l8.25-8.228,15.907-6.263,28.5.5s.411-7.909,1.073-7.634c1.989.868,5.533,11.061,1.029,14.513" transform="translate(-90.878 -102.511)" fill="#c2dcef"/></g></g><path d="M120.775,96.818s-10.408.409-16.8,4.42S88.216,115.446,87.2,117.26s-4.625,9.575,4.444,9.467,9.938-4.244,16.12-5.509,18.072-5.283,18.711-12.545-5.694-11.855-5.694-11.855" transform="translate(38.879 43.959)" fill="#4c3d52"/><path d="M92.955,139.517s-3.074,4.547-4.439,5.107-5.278,2.1-7.544,4.755c-1.852,2.172-2.18,5.517,1.439,6.076s5.944-.249,8.653-3,5.306-3.824,7.355-4.057,5.408-1.749,6.091-3.778-2.379-7.413-2.379-7.413Z" transform="translate(36.15 62.299)" fill="#dbebfd"/><path d="M92.967,138.6s-4.576,6.225-5.943,6.785a10.464,10.464,0,0,0-5.328,3.5c-1.852,2.174-3.621,5.527,0,6.087s6.671-.1,9.38-2.847,5.306-5.014,7.355-5.246,5.054-1.351,5.738-3.379-2.869-7.2-2.869-7.2Z" transform="translate(36.139 61.884)" fill="#ec4b75"/><path d="M106.6,144.3s-9.645,11.881-11.42,12.86-2.241,1.842-1.9,3.311,3.142,3.708,8.538,3.357,9.972-7.344,9.972-7.344,5.943-2.308,6.148-4.756a17.416,17.416,0,0,0,.009-3.708Z" transform="translate(42.306 65.517)" fill="#dbebfd"/><path d="M87.955,111.795c-.957,0-2.721,2.79-2.721,2.79s2.037,6.023,2.037,8.121,1.768,19.816,2.041,23.731,0,4.617,0,4.617,4.572,2.223,7.714.685a15.689,15.689,0,0,0,4.669-3.3s-3.913-10.254-3.229-14.87,4.926-7.783,3.833-12.4-4.918-9.373-4.918-9.373Z" transform="translate(38.7 50.76)" fill="#4c3d52"/><path d="M106.574,143.9s-6.489,10.015-8.265,10.994-5.4,3.708-5.054,5.176,3.142,3.708,8.538,3.357,9.972-7.344,9.972-7.344,5.943-3.778,6.148-6.225-3.142-7.135-3.142-7.135Z" transform="translate(42.332 64.8)" fill="#ec4b75"/><path d="M98.468,115.1s-2.851.393-2.674,7.548,6.907,24.441,7.142,27.188-1.4,12.487-1.4,12.487a9.482,9.482,0,0,0,7.469,1.253,8.958,8.958,0,0,0,6.155-4.961s-.989-14.632-.851-17.076.3-4.045-.179-5.825-2.638-9.837-2.638-9.837-6.661-13.063-13.028-10.777" transform="translate(43.491 52.14)" fill="#534752"/><path d="M135.472,71.214c0-.42,0-10.632-4.236-9.653s-8.467,7.416-9.288,12.451S116.347,88,115.8,88.421s-4.169.993-6.593,3.994-13.216,7.616-14.036,7.756-1.229,1.445-2.914,2.005a68.157,68.157,0,0,0-7.15,2.472,27.755,27.755,0,0,0-3.552,2.658A6.99,6.99,0,0,1,79.6,110.2c-1.139.7-.55,2.033,0,1.866a2.614,2.614,0,0,1,1.229.015s-.446.832.547.871a10.524,10.524,0,0,0,3.006-.792l2.869-1.726,2.869-.14,2.277.467a8.547,8.547,0,0,0-.638,1.538c0,.281-1.229.746-1.457,1.586s-.819,2.331.592,1.771a11.365,11.365,0,0,0,2.687-1.631,26.2,26.2,0,0,1,2.049-2.658c.5-.42,2.588-2.191,2.729-3.964s.368-3.078.368-3.078,5.009-.979,9.517-2.005,8.106.327,11.657-3.45a95.194,95.194,0,0,0,7.378-9.326Z" transform="translate(35.846 27.921)" fill="#f0baae"/><path d="M119.727,82.852s-1.418,1.12-5.988,1.349a19.489,19.489,0,0,1-2.354.068c-6.446-.092-4.5-4.846-4.207-5.623.32-.755,1.9-7.429,4.207-13.325s9.027-5.051,9.027-4.755a8.741,8.741,0,0,1,3.612,3.612,11.781,11.781,0,0,1,.755,1.623c1.485,3.93-5.051,17.05-5.051,17.05" transform="translate(48.435 27.401)" fill="#02b6d7"/><path d="M118.963,81.656s-5.71,2.088-10.606,1.114c.068-.891,1.248-6.462,5.214-8.937.3-.778,1.78-.176,4.089-6.1a7.53,7.53,0,0,1,5.6-4.753,11.78,11.78,0,0,1,.755,1.623c1.485,3.93-5.051,17.05-5.051,17.05" transform="translate(49.199 28.597)" fill="#048fb5"/><path d="M132.2,101.555c-.731.186-19.7,11.4-24.251,15.448s-9.745,5.983-10.946,7.75-4.348,12.3,5.732,12.2,10.854-3.346,13.726-4.3,24.259-9.572,28.127-14.857,5.111-12.279,3.6-16.149a21.3,21.3,0,0,0-2.875-5.493Z" transform="translate(43.398 43.658)" fill="#534752"/><path d="M147.3,80.347c-1.166,7.589-7.587,25.187-7.359,29.415a70.288,70.288,0,0,0,1.165,9.325s-1.714,1.006-1.714,2.126c0,.778-3.7,2.331-9.118,2.88a38.518,38.518,0,0,1-8.092-.07c-6.423-.73-10.833-5.69-13-8.822a3.636,3.636,0,0,1,.138-4.343,6.469,6.469,0,0,0,1.668-3.634c0-2.514,0-15.656-.548-21.255s0-10.079,4.365-16.5c4.388-6.446,4.113-6.719,4.113-6.719,2.516-1.486,5.258-1.966,6.651-.64.983.96,11.794,7.131,12.114,7.336.571.366,1.944,1.211,3.5,2.262.71.48,1.463,1.029,2.194,1.6.618.433,1.213.936,1.761,1.394a9,9,0,0,1,2.126,2.513,6.423,6.423,0,0,1,.045,3.132" transform="translate(49.273 27.848)" fill="#02b6d7"/><path d="M133.434,105.773c.272,5.028,2.735,3.818,3,5.322,1.383,7.831-7.254,8.46-12.669,9.009.5-1.463,3.109-3.567,3.4-4.548.413-1.418-2.581-1.714-.595-3.8,2.014-2.079,0-1.646-2.673-2.834-2.652-1.211,1.828-5.28,1.713-8.433-.092-3.154-3.669-3.245-2.555-3.956,5.387-3.429,7.481-21.139,8.417-26.259.252-1.326,9.313,6.079,9.313,6.079-1.165,7.589-7.587,25.187-7.357,29.415" transform="translate(55.777 31.837)" fill="#048fb5"/><path d="M129.267,67.787a3.226,3.226,0,0,1-1.471,4.768c-.519.2-1.051.4-1.591.609-1.426.548-4.26,3.008-5.937,4.619a1.026,1.026,0,0,1-1.72-.539c-.426-2.162-1.086-5.621-1.394-7.9-.433-3.267,3.405-4.433,3.932-4.57A10.576,10.576,0,0,1,122.64,66.7l.979-5.508a1.033,1.033,0,0,1,.772-.822l3.657-.888a1.026,1.026,0,0,1,1.269,1.118c-.106.864-.275,2.1-.537,3.673a5.086,5.086,0,0,0,.487,3.519" transform="translate(53.177 26.991)" fill="#e8a798"/><path d="M137.524,115.073h-1.772l-31.3-18.1a1.927,1.927,0,0,0-1.733.071l-18.873,10.9H82.183v1.165a.509.509,0,0,0,.3.548l32.776,18.948a3.614,3.614,0,0,0,2.4.291L137.1,116.925c.34-.2.477-.458.4-.688.02,0,.02-1.165.02-1.165" transform="translate(37.31 43.953)" fill="#e3f1fb"/><path d="M115.257,127.714,82.48,108.766c-.443-.256-.388-.7.125-1l20.108-11.609a1.922,1.922,0,0,1,1.733-.071l32.776,18.946c.445.257.388.705-.124,1L117.66,128a3.613,3.613,0,0,1-2.4-.291" transform="translate(37.313 43.548)" fill="#9bc2e0"/><path d="M114.854,124.879l-30.2-17.457c-.381-.22-.333-.6.106-.856L97.9,99.022a1.645,1.645,0,0,1,1.483-.063l30.2,17.459c.381.22.333.6-.106.855l-13.133,7.545a1.649,1.649,0,0,1-1.483.061" transform="translate(38.322 44.864)" fill="#b5d3ea"/><path d="M107.847,106.45l-5.118-2.956,4.061-2.344,5.12,2.955Z" transform="translate(46.643 45.927)" fill="#eaf5fe"/><path d="M102.841,103.56l-1.434-.829c-.422-.243-.369-.667.116-.947l2.3-1.33a1.825,1.825,0,0,1,1.642-.068l1.435.829Z" transform="translate(45.914 45.505)" fill="#eaf5fe"/><path d="M106.674,105.773l1.434.829a1.825,1.825,0,0,0,1.642-.068l2.3-1.329c.486-.281.538-.705.118-.948l-1.434-.829Z" transform="translate(48.435 46.961)" fill="#eaf5fe"/><path d="M108.27,116.453l-1.226.708a1.3,1.3,0,0,1-1.171.048l-1.409-.813c-.3-.174-.263-.477.084-.676l1.226-.708a1.3,1.3,0,0,1,1.171-.048l1.409.813c.3.173.262.477-.084.676" transform="translate(47.34 52.145)" fill="#9bc2e0"/><path d="M106.337,115.337l-1.226.708a1.3,1.3,0,0,1-1.17.048l-1.409-.814c-.3-.173-.262-.475.084-.675l1.226-.708a1.3,1.3,0,0,1,1.171-.048l1.409.813c.3.173.262.475-.084.676" transform="translate(46.462 51.638)" fill="#9bc2e0"/><path d="M104.4,114.221l-1.226.708a1.3,1.3,0,0,1-1.171.048l-1.409-.814c-.3-.173-.262-.475.084-.676l1.226-.707a1.3,1.3,0,0,1,1.171-.048l1.409.813c.3.173.262.475-.084.676" transform="translate(45.585 51.132)" fill="#9bc2e0"/><path d="M102.471,113.1l-1.226.708a1.3,1.3,0,0,1-1.171.048l-1.409-.814c-.3-.173-.262-.475.084-.675l1.226-.708a1.3,1.3,0,0,1,1.171-.048l1.409.813c.3.173.262.475-.084.676" transform="translate(44.707 50.625)" fill="#9bc2e0"/><path d="M100.538,111.989l-1.226.708a1.3,1.3,0,0,1-1.171.048l-1.409-.814c-.3-.173-.263-.475.084-.676l1.226-.707a1.3,1.3,0,0,1,1.171-.048l1.409.813c.3.173.262.475-.084.676" transform="translate(43.829 50.118)" fill="#9bc2e0"/><path d="M98.605,110.873l-1.226.707a1.3,1.3,0,0,1-1.171.049l-1.409-.814c-.3-.173-.262-.475.084-.676l1.226-.707a1.3,1.3,0,0,1,1.171-.048l1.409.813c.3.173.262.475-.084.676" transform="translate(42.952 49.611)" fill="#9bc2e0"/><path d="M96.673,109.757l-1.227.707a1.3,1.3,0,0,1-1.171.049l-1.409-.814c-.3-.173-.262-.475.084-.676l1.226-.707a1.3,1.3,0,0,1,1.171-.048l1.41.813c.3.173.262.475-.084.676" transform="translate(42.073 49.105)" fill="#9bc2e0"/><path d="M94.74,108.64l-1.226.708a1.3,1.3,0,0,1-1.171.048l-1.409-.813c-.3-.174-.263-.477.084-.676l1.226-.708a1.3,1.3,0,0,1,1.171-.048l1.409.813c.3.173.262.477-.084.676" transform="translate(41.196 48.598)" fill="#9bc2e0"/><path d="M92.805,107.524l-1.226.708a1.3,1.3,0,0,1-1.171.048L89,107.468c-.3-.174-.263-.477.084-.676l1.226-.708a1.3,1.3,0,0,1,1.171-.048l1.409.813c.3.173.262.477-.084.676" transform="translate(40.318 48.092)" fill="#9bc2e0"/><path d="M90.872,106.408l-1.226.708a1.3,1.3,0,0,1-1.171.048l-1.409-.813c-.3-.174-.262-.477.084-.676l1.226-.708a1.3,1.3,0,0,1,1.171-.048l1.409.813c.3.173.262.477-.084.676" transform="translate(39.44 47.585)" fill="#9bc2e0"/><path d="M88.939,105.292,87.714,106a1.3,1.3,0,0,1-1.171.048l-1.409-.813c-.3-.174-.262-.477.084-.676l1.226-.708a1.3,1.3,0,0,1,1.171-.048l1.409.813c.3.173.262.477-.084.676" transform="translate(38.563 47.078)" fill="#9bc2e0"/><path d="M110.5,115.469l-1.226.708a1.3,1.3,0,0,1-1.171.048l-2.246-1.3c-.3-.173-.262-.475.084-.676l1.226-.707a1.3,1.3,0,0,1,1.171-.049l2.246,1.3c.3.173.262.475-.084.676" transform="translate(47.971 51.479)" fill="#9bc2e0"/><path d="M107.894,113.965l-1.226.708a1.3,1.3,0,0,1-1.171.048l-1.409-.814c-.3-.173-.262-.475.084-.675l1.226-.708a1.3,1.3,0,0,1,1.171-.048l1.409.813c.3.173.262.475-.084.676" transform="translate(47.169 51.015)" fill="#9bc2e0"/><path d="M106.185,112.979l-1.226.708a1.3,1.3,0,0,1-1.171.048l-1.409-.814c-.3-.173-.262-.475.084-.675l1.226-.708a1.3,1.3,0,0,1,1.171-.048l1.409.813c.3.173.262.475-.084.676" transform="translate(46.393 50.568)" fill="#9bc2e0"/><path d="M104.476,111.992l-1.226.708a1.3,1.3,0,0,1-1.171.048l-1.409-.814c-.3-.173-.262-.475.084-.676l1.226-.707a1.3,1.3,0,0,1,1.171-.048l1.409.813c.3.173.262.475-.084.676" transform="translate(45.617 50.119)" fill="#9bc2e0"/><path d="M102.769,111l-1.226.707a1.3,1.3,0,0,1-1.172.049l-1.409-.814c-.3-.173-.263-.475.084-.676l1.226-.707a1.3,1.3,0,0,1,1.171-.048l1.41.813c.3.173.262.475-.084.676" transform="translate(44.841 49.671)" fill="#9bc2e0"/><path d="M101.059,110.019l-1.226.707a1.3,1.3,0,0,1-1.171.049l-1.409-.814c-.3-.173-.263-.475.084-.676l1.226-.707a1.3,1.3,0,0,1,1.171-.048l1.409.813c.3.173.262.475-.084.676" transform="translate(44.066 49.224)" fill="#9bc2e0"/><path d="M99.35,109.032l-1.226.707a1.3,1.3,0,0,1-1.171.049l-1.409-.814c-.3-.173-.263-.475.084-.676l1.226-.707a1.3,1.3,0,0,1,1.171-.048l1.409.813c.3.173.262.475-.084.676" transform="translate(43.29 48.775)" fill="#9bc2e0"/><path d="M97.641,108.045l-1.226.707a1.3,1.3,0,0,1-1.171.049l-1.409-.814c-.3-.173-.263-.475.084-.676l1.226-.707a1.3,1.3,0,0,1,1.17-.048l1.409.813c.3.173.262.475-.084.676" transform="translate(42.514 48.327)" fill="#9bc2e0"/><path d="M95.932,107.059l-1.226.707a1.3,1.3,0,0,1-1.171.049L92.127,107c-.3-.173-.262-.475.084-.676l1.226-.707a1.3,1.3,0,0,1,1.171-.048l1.409.813c.3.173.262.475-.084.676" transform="translate(41.738 47.88)" fill="#9bc2e0"/><path d="M94.223,106.071,93,106.78a1.3,1.3,0,0,1-1.171.048l-1.409-.813c-.3-.174-.262-.477.084-.676l1.226-.708a1.3,1.3,0,0,1,1.171-.048l1.409.813c.3.173.262.477-.084.676" transform="translate(40.962 47.432)" fill="#9bc2e0"/><path d="M92.514,105.084l-1.226.708a1.3,1.3,0,0,1-1.171.048l-1.409-.813c-.3-.174-.262-.477.084-.676l1.226-.708a1.3,1.3,0,0,1,1.171-.048l1.409.813c.3.173.262.477-.084.676" transform="translate(40.186 46.984)" fill="#9bc2e0"/><path d="M109.475,112.607l-1.226.708a1.3,1.3,0,0,1-1.171.048l-1.409-.814c-.3-.173-.262-.475.084-.675l1.226-.708a1.3,1.3,0,0,1,1.171-.048l1.409.813c.3.173.262.475-.084.676" transform="translate(47.887 50.399)" fill="#9bc2e0"/><path d="M107.78,111.628l-1.226.708a1.3,1.3,0,0,1-1.171.048l-1.409-.814c-.3-.173-.262-.475.084-.675l1.226-.708a1.3,1.3,0,0,1,1.17-.048l1.409.813c.3.173.262.475-.084.676" transform="translate(47.117 49.954)" fill="#9bc2e0"/><path d="M106.084,110.649l-1.226.708a1.3,1.3,0,0,1-1.171.048l-1.409-.813c-.3-.174-.263-.477.084-.676l1.226-.708a1.3,1.3,0,0,1,1.171-.048l1.409.813c.3.173.262.475-.084.676" transform="translate(46.347 49.51)" fill="#9bc2e0"/><path d="M104.389,109.67l-1.226.708a1.3,1.3,0,0,1-1.171.048l-1.409-.814c-.3-.173-.263-.475.084-.675l1.226-.708a1.3,1.3,0,0,1,1.171-.048l1.409.813c.3.173.262.475-.084.676" transform="translate(45.577 49.065)" fill="#9bc2e0"/><path d="M102.692,108.691l-1.226.708a1.3,1.3,0,0,1-1.171.048l-1.409-.813c-.3-.174-.262-.477.084-.676l1.226-.708a1.3,1.3,0,0,1,1.171-.048l1.409.813c.3.173.262.475-.084.676" transform="translate(44.807 48.621)" fill="#9bc2e0"/><path d="M101,107.712l-1.226.708a1.3,1.3,0,0,1-1.171.048l-1.409-.813c-.3-.174-.262-.477.084-.676l1.226-.708a1.3,1.3,0,0,1,1.171-.048l1.409.813c.3.173.262.475-.084.676" transform="translate(44.037 48.176)" fill="#9bc2e0"/><path d="M99.3,106.731l-1.226.71a1.3,1.3,0,0,1-1.171.048l-1.409-.813c-.3-.174-.262-.477.084-.676l1.226-.708a1.3,1.3,0,0,1,1.171-.048l1.409.813c.3.173.262.475-.084.675" transform="translate(43.268 47.732)" fill="#9bc2e0"/><path d="M97.605,105.753l-1.226.708a1.3,1.3,0,0,1-1.171.048L93.8,105.7c-.3-.174-.263-.477.084-.676l1.226-.708a1.3,1.3,0,0,1,1.171-.048l1.409.813c.3.173.262.475-.084.676" transform="translate(42.497 47.287)" fill="#9bc2e0"/><path d="M110.594,110.982l-1.226.708a1.3,1.3,0,0,1-1.171.048l-1.409-.813c-.3-.174-.262-.477.084-.676l1.226-.708a1.3,1.3,0,0,1,1.171-.048l1.409.813c.3.173.262.475-.084.676" transform="translate(48.395 49.661)" fill="#9bc2e0"/><path d="M108.9,110l-1.226.708a1.3,1.3,0,0,1-1.171.048l-1.409-.813c-.3-.174-.262-.477.084-.676l1.226-.708a1.3,1.3,0,0,1,1.171-.048l1.409.813c.3.173.262.475-.084.676" transform="translate(47.625 49.216)" fill="#9bc2e0"/><path d="M107.2,109.024l-1.226.708a1.3,1.3,0,0,1-1.171.048l-1.409-.813c-.3-.174-.262-.477.084-.676l1.226-.708a1.3,1.3,0,0,1,1.171-.048l1.409.813c.3.173.262.477-.084.676" transform="translate(46.855 48.772)" fill="#9bc2e0"/><path d="M116.169,111.929l-1.226.708a1.3,1.3,0,0,1-1.171.048l-1.409-.813c-.3-.174-.263-.477.084-.676l1.226-.708a1.3,1.3,0,0,1,1.171-.048l1.409.813c.3.173.262.475-.084.676" transform="translate(50.926 50.091)" fill="#9bc2e0"/><path d="M114.475,110.95l-1.226.708a1.3,1.3,0,0,1-1.171.048l-1.41-.813c-.3-.174-.263-.477.084-.676l1.227-.708a1.3,1.3,0,0,1,1.171-.048l1.409.813c.3.173.262.477-.084.676" transform="translate(50.156 49.646)" fill="#9bc2e0"/><path d="M112.777,109.971l-1.226.708a1.3,1.3,0,0,1-1.171.048l-1.409-.813c-.3-.174-.262-.477.084-.676l1.226-.708a1.3,1.3,0,0,1,1.171-.048l1.409.813c.3.173.262.475-.084.676" transform="translate(49.386 49.202)" fill="#9bc2e0"/><path d="M100.2,102.709l-1.226.708a1.3,1.3,0,0,1-1.17.048l-1.409-.814c-.3-.173-.263-.475.084-.675l1.226-.708a1.3,1.3,0,0,1,1.171-.048l1.409.813c.3.173.262.475-.084.676" transform="translate(43.675 45.905)" fill="#9bc2e0"/><path d="M98.5,101.73l-1.226.708a1.3,1.3,0,0,1-1.171.048l-1.409-.814c-.3-.173-.263-.475.084-.675l1.226-.708a1.3,1.3,0,0,1,1.171-.048l1.409.813c.3.173.262.475-.084.676" transform="translate(42.905 45.46)" fill="#9bc2e0"/><path d="M96.807,100.751l-1.226.708a1.3,1.3,0,0,1-1.171.048L93,100.693c-.3-.173-.262-.475.084-.675l1.226-.708a1.3,1.3,0,0,1,1.171-.048l1.409.813c.3.173.262.475-.084.676" transform="translate(42.135 45.016)" fill="#9bc2e0"/><path d="M105.507,108.045l-1.226.708a1.3,1.3,0,0,1-1.171.048l-1.409-.813c-.3-.174-.263-.477.084-.676l1.226-.708a1.3,1.3,0,0,1,1.171-.048l1.409.813c.3.173.262.477-.084.676" transform="translate(46.085 48.328)" fill="#9bc2e0"/><path d="M103.811,107.066l-1.226.708a1.3,1.3,0,0,1-1.171.048l-1.409-.813c-.3-.174-.262-.477.084-.676l1.226-.708a1.3,1.3,0,0,1,1.171-.048l1.409.813c.3.173.262.477-.084.676" transform="translate(45.315 47.883)" fill="#9bc2e0"/><path d="M102.115,106.087l-1.226.708a1.3,1.3,0,0,1-1.171.048l-1.409-.813c-.3-.174-.262-.477.084-.676l1.226-.708a1.3,1.3,0,0,1,1.171-.048l1.409.813c.3.173.262.477-.084.676" transform="translate(44.545 47.439)" fill="#9bc2e0"/><path d="M100.421,105.106l-1.226.708a1.3,1.3,0,0,1-1.171.048l-1.41-.813c-.3-.174-.262-.477.084-.676l1.226-.708a1.3,1.3,0,0,1,1.171-.048l1.41.813c.3.173.262.475-.084.676" transform="translate(43.775 46.994)" fill="#9bc2e0"/><path d="M98.724,104.127l-1.226.708a1.3,1.3,0,0,1-1.171.048l-1.409-.813c-.3-.174-.262-.477.084-.676l1.226-.708a1.3,1.3,0,0,1,1.171-.048l1.409.813c.3.173.262.477-.084.676" transform="translate(43.006 46.549)" fill="#9bc2e0"/><path d="M95.91,104.774l-1.226.708a1.3,1.3,0,0,1-1.171.048l-1.409-.813c-.3-.174-.263-.477.084-.676l1.226-.708a1.3,1.3,0,0,1,1.171-.048l1.409.813c.3.173.262.475-.084.676" transform="translate(41.727 46.842)" fill="#9bc2e0"/><path d="M90.906,104.157l-1.226.708a1.3,1.3,0,0,1-1.171.048L87.1,104.1c-.3-.173-.263-.475.084-.675l1.226-.708a1.3,1.3,0,0,1,1.171-.048l1.409.813c.3.173.262.475-.084.676" transform="translate(39.456 46.562)" fill="#9bc2e0"/><path d="M112.66,114.444l-1.226.708a1.3,1.3,0,0,1-1.171.048l-2.866-1.655c-.3-.173-.263-.477.083-.676l1.226-.708a1.3,1.3,0,0,1,1.171-.048l2.867,1.655c.3.173.262.477-.084.676" transform="translate(48.671 50.851)" fill="#9bc2e0"/><path d="M97.868,103.633l-1.226.708a1.3,1.3,0,0,1-1.171.048l-4.436-2.561c-.3-.174-.262-.477.084-.676l1.226-.708a1.3,1.3,0,0,1,1.171-.048l4.436,2.561c.3.173.262.477-.084.676" transform="translate(41.242 45.531)" fill="#9bc2e0"/><path d="M115.013,111.261l-1.226.707a1.3,1.3,0,0,1-1.171.049l-14.373-8.3c-.3-.173-.262-.475.084-.676l1.226-.708a1.3,1.3,0,0,1,1.171-.048l14.373,8.3c.3.173.262.475-.084.676" transform="translate(44.515 46.389)" fill="#9bc2e0"/><path d="M114.91,113.474l-1.226.708a1.3,1.3,0,0,1-1.171.048l-3.776-2.181c-.3-.173-.263-.475.083-.676l1.226-.707a1.3,1.3,0,0,1,1.171-.048l3.778,2.18c.3.173.262.475-.084.676" transform="translate(49.279 50.172)" fill="#9bc2e0"/><path d="M94.806,104.137l-1.226.707a1.3,1.3,0,0,1-1.171.049l-3.341-1.93c-.3-.173-.262-.475.084-.676l1.226-.707a1.3,1.3,0,0,1,1.171-.049l3.341,1.93c.3.173.262.475-.084.676" transform="translate(40.349 46.047)" fill="#9bc2e0"/><path d="M106.82,114.891l1.387.8c.221.128.193.352-.063.5l-1.249.721a.96.96,0,0,1-.865.036l-1.387-.8c-.221-.128-.193-.352.063-.5l1.249-.721a.96.96,0,0,1,.865-.036" transform="translate(47.445 52.126)" fill="#eaf5fe"/><path d="M104.887,113.775l1.387.8c.221.128.193.352-.063.5l-1.249.721a.961.961,0,0,1-.865.036l-1.387-.8c-.221-.128-.193-.352.063-.5l1.249-.721a.96.96,0,0,1,.865-.036" transform="translate(46.567 51.619)" fill="#eaf5fe"/><path d="M102.954,112.659l1.387.8c.221.128.193.352-.063.5l-1.249.721a.961.961,0,0,1-.865.036l-1.387-.8c-.221-.128-.193-.352.063-.5l1.249-.721a.96.96,0,0,1,.865-.036" transform="translate(45.69 51.113)" fill="#eaf5fe"/><path d="M101.021,111.543l1.387.8c.221.128.193.352-.063.5l-1.249.721a.96.96,0,0,1-.865.036l-1.387-.8c-.221-.128-.193-.352.063-.5l1.249-.721a.961.961,0,0,1,.865-.036" transform="translate(44.812 50.606)" fill="#eaf5fe"/><path d="M99.088,110.427l1.387.8c.221.128.193.352-.063.5l-1.249.721a.961.961,0,0,1-.865.036l-1.387-.8c-.221-.128-.193-.352.063-.5l1.249-.721a.96.96,0,0,1,.865-.036" transform="translate(43.934 50.099)" fill="#eaf5fe"/><path d="M97.155,109.31l1.387.8c.221.128.193.352-.063.5l-1.249.721a.96.96,0,0,1-.865.036l-1.387-.8c-.221-.128-.193-.352.063-.5l1.249-.721a.96.96,0,0,1,.865-.036" transform="translate(43.057 49.592)" fill="#eaf5fe"/><path d="M95.222,108.194l1.387.8c.221.128.193.352-.063.5l-1.249.721a.96.96,0,0,1-.865.036l-1.387-.8c-.221-.128-.193-.352.063-.5l1.249-.721a.96.96,0,0,1,.865-.036" transform="translate(42.179 49.085)" fill="#eaf5fe"/><path d="M93.289,107.078l1.387.8c.221.128.193.352-.063.5l-1.249.721a.961.961,0,0,1-.865.036l-1.387-.8c-.221-.128-.193-.352.063-.5l1.249-.721a.96.96,0,0,1,.865-.036" transform="translate(41.301 48.579)" fill="#eaf5fe"/><path d="M91.356,105.962l1.387.8c.221.128.193.352-.063.5l-1.249.721a.96.96,0,0,1-.865.036l-1.387-.8c-.221-.128-.193-.352.063-.5l1.249-.72a.96.96,0,0,1,.865-.036" transform="translate(40.424 48.072)" fill="#eaf5fe"/><path d="M89.423,104.846l1.387.8c.221.128.193.352-.063.5l-1.249.721a.961.961,0,0,1-.865.036l-1.387-.8c-.221-.128-.193-.352.063-.5l1.249-.721a.96.96,0,0,1,.865-.036" transform="translate(39.546 47.565)" fill="#eaf5fe"/><path d="M87.49,103.73l1.387.8c.221.128.193.352-.063.5l-1.249.721a.96.96,0,0,1-.865.036l-1.387-.8c-.221-.128-.193-.352.063-.5l1.249-.721a.961.961,0,0,1,.865-.036" transform="translate(38.668 47.059)" fill="#eaf5fe"/><path d="M108.211,113.423l2.225,1.284c.221.128.193.352-.063.5l-1.249.72a.96.96,0,0,1-.865.036l-2.225-1.284c-.221-.128-.193-.352.063-.5l1.249-.72a.96.96,0,0,1,.865-.036" transform="translate(48.076 51.46)" fill="#eaf5fe"/><path d="M106.445,112.4l1.387.8c.221.128.193.352-.063.5l-1.249.721a.961.961,0,0,1-.865.036l-1.387-.8c-.221-.128-.193-.352.063-.5l1.249-.721a.961.961,0,0,1,.865-.036" transform="translate(47.275 50.997)" fill="#eaf5fe"/><path d="M104.736,111.416l1.387.8c.221.128.193.352-.063.5l-1.249.721a.961.961,0,0,1-.865.036l-1.387-.8c-.221-.128-.193-.352.063-.5l1.249-.721a.961.961,0,0,1,.865-.036" transform="translate(46.499 50.548)" fill="#eaf5fe"/><path d="M103.027,110.429l1.387.8c.221.128.193.352-.063.5l-1.249.721a.96.96,0,0,1-.865.036l-1.387-.8c-.221-.128-.193-.352.063-.5l1.249-.721a.96.96,0,0,1,.865-.036" transform="translate(45.723 50.1)" fill="#eaf5fe"/><path d="M101.318,109.443l1.387.8c.221.128.193.352-.063.5l-1.249.721a.96.96,0,0,1-.865.036l-1.387-.8c-.221-.128-.193-.352.063-.5l1.249-.721a.96.96,0,0,1,.865-.036" transform="translate(44.947 49.653)" fill="#eaf5fe"/><path d="M99.609,108.456l1.387.8c.221.128.193.352-.063.5l-1.249.721a.961.961,0,0,1-.865.036l-1.387-.8c-.221-.128-.193-.352.063-.5l1.249-.721a.96.96,0,0,1,.865-.036" transform="translate(44.171 49.204)" fill="#eaf5fe"/><path d="M97.9,107.469l1.387.8c.221.128.193.352-.063.5l-1.249.721a.961.961,0,0,1-.865.036l-1.387-.8c-.221-.128-.193-.352.063-.5l1.249-.721a.96.96,0,0,1,.865-.036" transform="translate(43.395 48.756)" fill="#eaf5fe"/><path d="M96.191,106.483l1.387.8c.221.128.193.352-.063.5l-1.249.721a.96.96,0,0,1-.865.036l-1.387-.8c-.221-.128-.193-.352.063-.5l1.249-.721a.96.96,0,0,1,.865-.036" transform="translate(42.619 48.309)" fill="#eaf5fe"/><path d="M94.482,105.5l1.387.8c.221.128.193.352-.063.5l-1.249.721a.961.961,0,0,1-.865.036l-1.387-.8c-.221-.128-.193-.352.063-.5l1.249-.72a.96.96,0,0,1,.865-.036" transform="translate(41.843 47.86)" fill="#eaf5fe"/><path d="M92.773,104.509l1.387.8c.221.128.193.352-.063.5l-1.249.721a.961.961,0,0,1-.865.036l-1.387-.8c-.221-.128-.193-.352.063-.5l1.249-.721a.96.96,0,0,1,.865-.036" transform="translate(41.067 47.412)" fill="#eaf5fe"/><path d="M91.064,103.523l1.387.8c.221.128.193.352-.063.5l-1.249.721a.961.961,0,0,1-.865.036l-1.387-.8c-.221-.128-.193-.352.063-.5l1.249-.721a.96.96,0,0,1,.865-.036" transform="translate(40.291 46.965)" fill="#eaf5fe"/><path d="M108.026,111.044l1.387.8c.221.128.193.352-.063.5l-1.249.721a.96.96,0,0,1-.865.036l-1.387-.8c-.221-.128-.193-.352.063-.5l1.249-.721a.96.96,0,0,1,.865-.036" transform="translate(47.992 50.379)" fill="#eaf5fe"/><path d="M106.33,110.065l1.387.8c.221.128.193.352-.063.5l-1.249.721a.961.961,0,0,1-.865.036l-1.387-.8c-.221-.128-.193-.352.063-.5l1.249-.721a.96.96,0,0,1,.865-.036" transform="translate(47.222 49.935)" fill="#eaf5fe"/><path d="M104.634,109.086l1.387.8c.221.128.193.352-.063.5l-1.249.721a.961.961,0,0,1-.865.036l-1.387-.8c-.221-.128-.193-.352.063-.5l1.249-.721a.96.96,0,0,1,.865-.036" transform="translate(46.452 49.49)" fill="#eaf5fe"/><path d="M102.939,108.107l1.387.8c.221.128.193.352-.063.5l-1.249.721a.961.961,0,0,1-.865.036l-1.387-.8c-.221-.128-.193-.352.063-.5l1.249-.721a.96.96,0,0,1,.865-.036" transform="translate(45.683 49.046)" fill="#eaf5fe"/><path d="M101.243,107.128l1.387.8c.221.128.193.352-.063.5l-1.249.721a.961.961,0,0,1-.865.036l-1.387-.8c-.221-.128-.193-.352.063-.5l1.249-.721a.96.96,0,0,1,.865-.036" transform="translate(44.913 48.601)" fill="#eaf5fe"/><path d="M99.547,106.149l1.387.8c.221.128.193.352-.063.5l-1.249.721a.961.961,0,0,1-.865.036l-1.387-.8c-.221-.128-.193-.352.063-.5l1.249-.721a.96.96,0,0,1,.865-.036" transform="translate(44.143 48.157)" fill="#eaf5fe"/><path d="M97.851,105.17l1.387.8c.221.128.193.352-.063.5l-1.249.721a.96.96,0,0,1-.865.036l-1.387-.8c-.221-.128-.193-.352.063-.5l1.249-.721a.96.96,0,0,1,.865-.036" transform="translate(43.373 47.712)" fill="#eaf5fe"/><path d="M96.155,104.191l1.387.8c.221.128.193.352-.063.5l-1.249.721a.961.961,0,0,1-.865.036l-1.387-.8c-.221-.128-.193-.352.063-.5l1.249-.721a.96.96,0,0,1,.865-.036" transform="translate(42.603 47.268)" fill="#eaf5fe"/><path d="M109.145,109.419l1.387.8c.221.128.193.352-.063.5l-1.249.721a.96.96,0,0,1-.865.036l-1.387-.8c-.221-.128-.193-.352.063-.5l1.249-.721a.961.961,0,0,1,.865-.036" transform="translate(48.501 49.642)" fill="#eaf5fe"/><path d="M107.449,108.44l1.387.8c.221.128.193.352-.063.5l-1.249.721a.961.961,0,0,1-.865.036l-1.387-.8c-.221-.128-.193-.352.063-.5l1.249-.721a.96.96,0,0,1,.865-.036" transform="translate(47.731 49.197)" fill="#eaf5fe"/><path d="M105.753,107.461l1.387.8c.221.128.193.352-.063.5l-1.249.721a.96.96,0,0,1-.865.036l-1.387-.8c-.221-.128-.193-.352.063-.5l1.249-.721a.96.96,0,0,1,.865-.036" transform="translate(46.96 48.753)" fill="#eaf5fe"/><path d="M114.72,110.367l1.387.8c.221.128.193.352-.063.5l-1.249.721a.96.96,0,0,1-.865.036l-1.387-.8c-.221-.128-.193-.352.063-.5l1.249-.721a.96.96,0,0,1,.865-.036" transform="translate(51.032 50.072)" fill="#eaf5fe"/><path d="M113.024,109.388l1.387.8c.221.128.193.352-.063.5l-1.249.721a.961.961,0,0,1-.865.036l-1.387-.8c-.221-.128-.193-.352.063-.5l1.249-.721a.96.96,0,0,1,.865-.036" transform="translate(50.262 49.628)" fill="#eaf5fe"/><path d="M111.328,108.409l1.387.8c.221.128.193.352-.063.5l-1.249.721a.96.96,0,0,1-.865.036l-1.387-.8c-.221-.128-.193-.352.063-.5l1.249-.721a.96.96,0,0,1,.865-.036" transform="translate(49.492 49.183)" fill="#eaf5fe"/><path d="M98.749,101.146l1.387.8c.221.128.193.352-.063.5l-1.249.721a.96.96,0,0,1-.865.036l-1.387-.8c-.221-.128-.193-.352.063-.5l1.249-.721a.96.96,0,0,1,.865-.036" transform="translate(43.78 45.885)" fill="#eaf5fe"/><path d="M97.053,100.167l1.387.8c.221.128.193.352-.063.5l-1.249.721a.961.961,0,0,1-.865.036l-1.387-.8c-.221-.128-.193-.352.063-.5l1.249-.721a.96.96,0,0,1,.865-.036" transform="translate(43.01 45.441)" fill="#eaf5fe"/><path d="M95.357,99.188l1.387.8c.221.128.193.352-.063.5l-1.249.721a.96.96,0,0,1-.865.036l-1.387-.8c-.221-.128-.193-.352.063-.5l1.249-.721a.961.961,0,0,1,.865-.036" transform="translate(42.24 44.996)" fill="#eaf5fe"/><path d="M104.057,106.482l1.387.8c.221.128.193.352-.063.5l-1.249.721a.961.961,0,0,1-.865.036l-1.387-.8c-.221-.128-.193-.352.063-.5l1.249-.721a.96.96,0,0,1,.865-.036" transform="translate(46.19 48.308)" fill="#eaf5fe"/><path d="M102.362,105.5l1.387.8c.221.128.193.352-.063.5l-1.249.721a.96.96,0,0,1-.865.036l-1.387-.8c-.221-.128-.193-.352.063-.5l1.249-.721a.96.96,0,0,1,.865-.036" transform="translate(45.421 47.864)" fill="#eaf5fe"/><path d="M100.666,104.524l1.387.8c.221.128.193.352-.063.5l-1.249.721a.961.961,0,0,1-.865.036l-1.387-.8c-.221-.128-.193-.352.063-.5l1.249-.721a.96.96,0,0,1,.865-.036" transform="translate(44.651 47.419)" fill="#eaf5fe"/><path d="M98.97,103.545l1.387.8c.221.128.193.352-.063.5l-1.249.721a.96.96,0,0,1-.865.036l-1.387-.8c-.221-.128-.193-.352.063-.5l1.249-.721a.961.961,0,0,1,.865-.036" transform="translate(43.881 46.975)" fill="#eaf5fe"/><path d="M97.274,102.566l1.387.8c.221.128.193.352-.063.5l-1.249.721a.961.961,0,0,1-.865.036l-1.387-.8c-.221-.128-.193-.352.063-.5l1.249-.721a.96.96,0,0,1,.865-.036" transform="translate(43.111 46.53)" fill="#eaf5fe"/><path d="M94.46,103.212l1.387.8c.221.128.193.352-.063.5l-1.249.721a.96.96,0,0,1-.865.036l-1.387-.8c-.221-.128-.193-.352.063-.5l1.249-.721a.96.96,0,0,1,.865-.036" transform="translate(41.833 46.823)" fill="#eaf5fe"/><path d="M89.457,102.595l1.387.8c.221.128.193.352-.063.5l-1.249.721a.961.961,0,0,1-.865.036l-1.387-.8c-.221-.128-.193-.352.063-.5l1.249-.721a.96.96,0,0,1,.865-.036" transform="translate(39.561 46.543)" fill="#eaf5fe"/><path d="M109.752,112.041l2.844,1.642c.222.128.195.352-.061.5l-1.249.721a.961.961,0,0,1-.865.036l-2.846-1.643c-.221-.128-.193-.352.063-.5l1.249-.721a.96.96,0,0,1,.865-.036" transform="translate(48.776 50.832)" fill="#eaf5fe"/><path d="M93.39,100.323l4.414,2.549c.221.128.193.352-.063.5l-1.249.721a.96.96,0,0,1-.865.036l-4.414-2.549c-.221-.128-.193-.352.063-.5l1.249-.721a.96.96,0,0,1,.865-.036" transform="translate(41.347 45.512)" fill="#eaf5fe"/><path d="M100.6,102.214,114.95,110.5c.221.128.193.352-.063.5l-1.249.721a.965.965,0,0,1-.865.035L98.422,103.47c-.221-.128-.193-.352.063-.5l1.249-.721a.961.961,0,0,1,.865-.036" transform="translate(44.62 46.37)" fill="#eaf5fe"/><path d="M111.094,110.544l3.753,2.168c.222.128.195.352-.061.5l-1.248.72a.967.967,0,0,1-.868.036l-3.754-2.168c-.221-.128-.193-.352.063-.5l1.249-.721a.964.964,0,0,1,.867-.036" transform="translate(49.385 50.152)" fill="#eaf5fe"/><path d="M91.424,101.459l3.32,1.916c.221.128.193.352-.063.5l-1.249.72a.96.96,0,0,1-.865.036l-3.32-1.916c-.221-.128-.193-.352.063-.5l1.249-.721a.96.96,0,0,1,.865-.036" transform="translate(40.454 46.027)" fill="#eaf5fe"/><path d="M114.782,131.1,82.135,111.389a1.251,1.251,0,0,1-.567-.979l-.7-20.1c0-.361.951-.83,1.264-.65l33.149,19.192a1.25,1.25,0,0,1,.567.979v20.429c0,.359-.756,1.018-1.069.838" transform="translate(36.719 40.691)" fill="#ddedf9"/><path d="M114.582,130.9,81.431,111.7a1.254,1.254,0,0,1-.567-.979V90.3c0-.359.254-.5.567-.323l33.151,19.192a1.254,1.254,0,0,1,.567.979v20.429c0,.359-.254.5-.567.323" transform="translate(36.716 40.817)" fill="#b5d3ea"/><path d="M116.722,54.794c-.714-.457-2.944-1.092-1.339-3.516s7.141-5.075,9.906-5.258,12.048,2.742,11.067,10.51a11.017,11.017,0,0,1-7.407,9.505Z" transform="translate(52.13 20.892)" fill="#262424"/><path d="M117.924,50.043a4.879,4.879,0,0,0-2.673,2.559c-.893,1.919-1.428,4.02-.893,5.208s-.07,2.011-.214,3.839.481,4.113.481,5.21-.535,3.785,0,4.5a8.516,8.516,0,0,0,5,2.449c1.874,0,5.713-2.286,7.586-4.113a12.126,12.126,0,0,0,2.678-4.02s.442.731,1.649,0,2.456-2.834,2.367-3.839-1.572-1.882-1.758-1.992-1.277,1.444-1.277,1.444-1.549,2.161-2.292,1.355.775-4.189-.118-5.742-2.776-2.194-4.066-3.016-3.379-5.666-6.47-3.839" transform="translate(51.817 22.536)" fill="#f0baae"/><path d="M138.41,90.963a68.469,68.469,0,0,0,0,11.957s-5.328,1.674-12.745,7.859l-6.569,3.885a28.273,28.273,0,0,1-4.887,1.623s-.41-.521-2.478.816a8.317,8.317,0,0,1-4.1,1.336s-1.474,1.867.819,1.854a7.2,7.2,0,0,1,3.48.688l-5.732,3.389-2.119,3.616s3.142,2.379,5.738,1.679,7.376-5.316,7.786-5.316,3.962-4.477,3.962-4.477,5.422-3.842,10.792-4.617,12.513-4.186,15.673-10.663,1.739-13.418,2.286-15.237,2.976-8.746.791-13.642-7.183-6.155-9.808-4.057-2.447,13.271-2.892,19.305" transform="translate(47.257 32.093)" fill="#f0baae"/><path d="M130.633,70.112s-3.429,1.227-3.81,8.941a52.034,52.034,0,0,0,.393,11.539s-.583,5.316,4.369,5.221,8.57-2.857,9.332-4.1.286-.571.762-3.714.669-14.375-2.489-16-5.105-3.885-8.557-1.893" transform="translate(57.535 31.479)" fill="#02b6d7"/><path d="M120.733,171.008S108,182.672,104.576,192.282s-6.293,24.8-4.861,27.634,7.421,6.017,7.421,6.017-.637-20.611,3.384-32.92c2.209-6.758,10.213-22.005,10.213-22.005" transform="translate(45.103 77.645)" fill="#fff"/><path d="M288.349,287.253,168.194,217.882V39.093l120.155,69.372Z" transform="translate(76.367 17.75)" fill="#875645"/><path d="M288.349,109.123,168.194,39.752l3.228-2.108,120.155,69.372Z" transform="translate(76.367 17.092)" fill="#ce826a"/><path d="M250.829,266.254V87.449l3.228-2.107V264.147Z" transform="translate(113.887 38.749)" fill="#784832"/><path d="M279.876,269.753l-107.24-61.916V48.265l107.24,61.916Z" transform="translate(78.384 21.914)" fill="#fff"/><path d="M200.152,102.9,181.2,91.953V70.186l18.953,10.94ZM184.414,90.1l12.522,7.228V82.982l-12.522-7.228Z" transform="translate(82.272 31.867)" fill="#9bc2e0"/><path d="M200.152,121,181.2,110.057V88.29l18.953,10.94Zm-15.739-12.8,12.522,7.228V101.086l-12.522-7.228Z" transform="translate(82.272 40.087)" fill="#9bc2e0"/><path d="M200.152,139.1,181.2,128.162V106.394l18.953,10.94Zm-15.739-12.8,12.522,7.228V119.19l-12.522-7.228Z" transform="translate(82.272 48.307)" fill="#9bc2e0"/><path d="M200.152,157.207,181.2,146.266V124.5l18.953,10.94Zm-15.739-12.8,12.522,7.228V137.294l-12.522-7.228Z" transform="translate(82.272 56.527)" fill="#9bc2e0"/><path d="M200.152,175.311,181.2,164.371V142.6l18.953,10.943Zm-15.739-12.8,12.522,7.228V155.4l-12.522-7.229Z" transform="translate(82.272 64.747)" fill="#9bc2e0"/><path d="M253.481,125.747,199.8,94.756V84.611L253.481,115.6Z" transform="translate(90.719 38.417)" fill="#9bc2e0"/><path d="M253.481,144.163,199.8,113.171V103.026l53.679,30.991Z" transform="translate(90.719 46.778)" fill="#9bc2e0"/><path d="M253.481,162.578,199.8,131.587V121.442l53.679,30.991Z" transform="translate(90.719 55.14)" fill="#9bc2e0"/><path d="M253.481,180.994,199.8,150V139.858l53.679,30.991Z" transform="translate(90.719 63.501)" fill="#9bc2e0"/><path d="M253.481,199.41,199.8,168.418V158.273l53.679,30.991Z" transform="translate(90.719 71.863)" fill="#9bc2e0"/><path d="M180.823,76.557l2.667-1.521,5.075,9.54,6.014-10.33,2.821,4.6-7.552,16.3Z" transform="translate(82.101 33.711)" fill="#ec4b75"/><path d="M249.479,95.485l-58.32-33.671-1.5-10.005,58.32,33.671Z" transform="translate(86.115 23.523)" fill="#fecd46"/><path d="M247.982,85.966l-58.32-33.671,5.579-1.559,57.736,33.677Z" transform="translate(86.115 23.036)" fill="#fecd46"/><path d="M190.691,58.69l.3,4.173a13.679,13.679,0,0,0,6.734,10.817l39.008,22.831a8.583,8.583,0,0,0,12.276-4.15l-2.816-1.627-.571,1.357a5.619,5.619,0,0,1-7.989,2.689l-40.114-23.16a7.725,7.725,0,0,1-3.831-6.031l-.461-5.432Z" transform="translate(86.582 26.648)" fill="#fecd46"/></g></g></svg>