<svg xmlns="http://www.w3.org/2000/svg" xmlns:xlink="http://www.w3.org/1999/xlink" width="450" height="399.343" viewBox="0 0 450 399.343"><defs><clipPath id="a"><rect width="450" height="399.343" fill="none"/></clipPath><clipPath id="c"><rect width="159.499" height="140.697" fill="none"/></clipPath><clipPath id="d"><path d="M172.9,279.8c-4.688,2.709-11.775,3-15.837.657L75.608,233.422c-4.063-2.344-3.551-6.44,1.136-9.14l139.784-80.7c4.688-2.709,11.775-3,15.837-.657Z" transform="translate(-72.866 -141.341)" fill="none"/></clipPath><linearGradient id="e" x1="-0.553" y1="1.152" x2="-0.545" y2="1.152" gradientUnits="objectBoundingBox"><stop offset="0" stop-color="#94e2e4"/><stop offset="0.147" stop-color="#91dee0"/><stop offset="0.28" stop-color="#8ad3d5"/><stop offset="0.409" stop-color="#7ec1c2"/><stop offset="0.534" stop-color="#6da7a8"/><stop offset="0.657" stop-color="#578587"/><stop offset="0.779" stop-color="#3c5d5d"/><stop offset="0.896" stop-color="#1d2d2e"/><stop offset="0.995"/><stop offset="1"/></linearGradient><clipPath id="f"><rect width="51.56" height="63.507" fill="none"/></clipPath><clipPath id="g"><path d="M183.178,185.814v44.738l-51.56,6.965V191.34l1.015-.142a15.714,15.714,0,0,1,6-5.57l19.076-9.774c5.666-3.282,11.64-1.724,16.55,1.109l1.794,1.723c2.738,1.582,5.642,3.635,6.728,5.736a3.584,3.584,0,0,1,.4,1.393" transform="translate(-131.618 -174.009)" fill="none"/></clipPath><radialGradient id="h" cx="0.393" cy="-0.048" r="0.969" gradientTransform="matrix(1.26, 0, 0, -1, 0.964, 4.55)" gradientUnits="objectBoundingBox"><stop offset="0" stop-color="#a8cbe5"/><stop offset="0.229" stop-color="#abcde6"/><stop offset="0.437" stop-color="#b6d3e9"/><stop offset="0.637" stop-color="#c9deee"/><stop offset="0.831" stop-color="#e2eef6"/><stop offset="0.995" stop-color="#fff"/><stop offset="1" stop-color="#fff"/></radialGradient><clipPath id="i"><rect width="0.401" height="1.44" fill="none"/></clipPath><clipPath id="j"><path d="M167.473,180.69v1.439a3.559,3.559,0,0,0-.4-1.393Z" transform="translate(-167.072 -180.69)" fill="none"/></clipPath><linearGradient id="k" x1="-605.331" y1="94.901" x2="-601.708" y2="94.901" gradientTransform="matrix(1, 0, 0, 1, 0, 0)" xlink:href="#h"/></defs><g clip-path="url(#a)"><g clip-path="url(#a)"><path d="M266.85,393.507C144.778,419.863,27.082,354.446,3.968,247.394S61.076,32.191,183.148,5.835,422.917,44.9,446.032,151.949s-57.109,215.2-179.182,241.559" transform="translate(0 0)" fill="#f9e6d2"/><path d="M157.351,287.145l-81.457-47.03c-4.058-2.342-5.361-14.3-.673-17.005l141.592-72.84c4.688-2.707,11.779-3,15.837-.657l84.2,39.037c4.06,2.342.81,14.43-3.878,17.136l-139.781,80.7c-4.688,2.707-11.778,3-15.837.657" transform="translate(32.798 67.212)" fill="#9bc2e0"/><path d="M312.687,199.1,175.132,278.508,172.9,279.8c-4.688,2.707-11.775,3-15.837.657L75.61,233.421c-4.064-2.344-3.552-6.438,1.134-9.139l139.786-80.7c4.686-2.707,11.773-3,15.836-.657l8.718,5.037,72.738,41.988c4.054,2.344,3.552,6.439-1.136,9.147" transform="translate(33.084 64.175)" fill="#b5d3ea"/><path d="M89.759,213.6l114.984-66.386c3.44-1.986,8.646-2.2,11.625-.483l81.153,46.854c2.979,1.72,2.606,4.726-.835,6.712L181.7,266.682c-3.442,1.986-8.647,2.2-11.627.481L88.924,220.311c-2.981-1.722-2.607-4.727.835-6.713" transform="translate(39.462 66.094)" fill="#eaf5fe"/><path d="M174.526,265.809a8.4,8.4,0,0,1-4.09-.9L89.284,218.051c-.394-.227-1.054-.692-1.054-1.255,0-.483.5-1.332,1.889-2.137L205.1,148.273a11.562,11.562,0,0,1,5.617-1.386,8.4,8.4,0,0,1,4.092.9l81.152,46.854c.394.227,1.054.692,1.054,1.255,0,.483-.5,1.332-1.889,2.136L180.144,264.423a11.565,11.565,0,0,1-5.618,1.386" transform="translate(40.06 66.693)" fill="#02b6d7"/><g transform="translate(105.951 205.516)" opacity="0.2" style="mix-blend-mode:lighten;isolation:isolate"><g clip-path="url(#c)"><g transform="translate(0 0.001)"><g clip-path="url(#d)"><rect width="175.663" height="189.439" transform="matrix(0.232, -0.973, 0.973, 0.232, -33.43, 133.795)" fill="url(#e)"/></g></g></g></g><path d="M209.972,164.266l-13.479-7.782c-.862-.5-.755-1.367.241-1.943a3.736,3.736,0,0,1,3.363-.138l13.479,7.781c.862.5.755,1.368-.241,1.943a3.74,3.74,0,0,1-3.363.14" transform="translate(88.952 69.953)" fill="#262424"/><path d="M229.1,172.776a5.537,5.537,0,0,1-5.011-.009c-1.389-.8-1.394-2.1-.016-2.892a5.537,5.537,0,0,1,5.011.009c1.387.8,1.394,2.1.016,2.892" transform="translate(101.273 76.86)" fill="#02b6d7"/><path d="M227.051,175.23a6.546,6.546,0,0,1-3.224-.8,2.915,2.915,0,0,1-.016-5.338,6.911,6.911,0,0,1,6.42.009,2.914,2.914,0,0,1,.017,5.339,6.475,6.475,0,0,1-3.2.79m-2.129-3.459c.045.019.135.108.317.212a4.175,4.175,0,0,0,3.6.013,1.11,1.11,0,0,0,.3-.234c-.041-.019-.132-.111-.314-.212a4.2,4.2,0,0,0-3.6-.01,1.159,1.159,0,0,0-.3.231" transform="translate(100.832 76.418)" fill="#262424"/><g transform="translate(191.378 253.016)" style="mix-blend-mode:multiply;isolation:isolate"><g clip-path="url(#f)"><g transform="translate(0 0)"><g clip-path="url(#g)"><rect width="51.56" height="64.946" transform="translate(0 -1.438)" fill="url(#h)"/></g></g></g></g><path d="M164.437,90.937a64.53,64.53,0,0,1,4.967-7.67,17.17,17.17,0,0,1,3.305-3.221c.854-.8,2.505-4.715,2.505-4.715a18.323,18.323,0,0,1-1.9-3.334,25.316,25.316,0,0,1-.522-4.183s-1.989-2.534-.606-2.562,1.767,1.6,1.861,2a22.335,22.335,0,0,0,1.182,2.292l.951-3.173s1.8-7.808,2.389-7.984.816.031.718,1.413-.874,5.957-.874,5.957.406.685.656-.182,1.77-8.047,2.633-7.789.71.888.151,3.247-1.367,5.054-1.367,5.054.721.374.961-.279,2.005-5.858,2.643-6.026,1,.288.394,2.039-1.589,5.344-1.589,5.344l.494.8s2.072-4.859,2.691-4.729.544,1.095.121,2.153S183.43,74.3,182.633,75.64a19.574,19.574,0,0,1-2.709,3.147s-4.528,13.06-6.2,15.653-4.241,2.4-5.572,2.547Z" transform="translate(74.661 26.233)" fill="#efc9a3"/><path d="M150.4,99.341a7.839,7.839,0,0,1,2.039-7.471c3.333-3.574,16.41-8.4,16.493-8.73s3.052-4.553,3.052-4.553,6.931,1.1,8.159,2.645,1.33,1.912,1.307,2.2S168.783,98.8,162.906,102.849s-11.88-1.239-12.506-3.509" transform="translate(68.175 35.682)" fill="#fea749"/><path d="M163.623,81.551s.3-3.8,2.52-3.908,8.32,1.332,9.541,3.943a3.869,3.869,0,0,1-1.028,4.7c-.262.036-4.279.067-5.8-1.537s-5.236-3.2-5.236-3.2" transform="translate(74.292 35.25)" fill="#fecd46"/><path d="M162.232,173.967c1.6,1.989,3.081,3.824,5.713,4.553s6.473,2.863,7.119,5.7-.189,4.076-3.687,4.806c-4.971,1.037-8.8-4.358-12.06-6.043s-7.7-2.135-8.707-4.569,1.172-3.493,1.383-5.469c2.081.7,5.565,2.02,7.325,2.091s1.69-.571,2.914-1.064" transform="translate(68.264 78.522)" fill="#eaf5fe"/><path d="M162.259,173.4c1.578,1.915,3.165,3.6,5.727,4.3s6.463,2.867,7.078,5.7-.195,4.087-3.693,4.806c-4.971,1.022-8.793-4.452-12-6.087s-7.772-2.017-8.75-4.364,1.168-3.37,1.384-5.287c2.079.691,5.576,1.9,7.34,1.97s1.7-.539,2.917-1.032" transform="translate(68.272 78.303)" fill="#345d94"/><path d="M159.191,173.1c1.139,1,2.8,2.9,3.9,3.624s3.843,2.226,1.534,3.144-6.409-2.821-7.419-4.993c-.611-1.313,1.124-1.537,1.989-1.774" transform="translate(71.318 78.597)" fill="#27476d"/><path d="M166.976,127.346c.776,6.878.234,4.348.391,12.611s-1.665,21.545-2.344,28.448-2.689,23.241-1.368,26.371c.8,1.9-5.441,1.511-7.292.932s-4.391-1.179-5.03-2.7-.886-4,0-5.046-2.659-14.415-2.456-16.461,1.424-5.8,1.716-7.8c-.6-1.486-.3-6.19-.734-7.941,1.191-7.209,2.84-4.217,3.516-10.53s.329-6.59.9-11.85c3.352.252,8.862-1.522,10.947-3.295s1.137-.582,1.758-2.738" transform="translate(67.592 57.821)" fill="#4c3d52"/><path d="M143.353,185.6c2.033,3.177,6.094,5.966,8.617,8.242s3.2,3.4,1.445,6.584-9.053,1.485-11.651-.079-8.3-9.217-8.768-10.065c-2.177-3.919-.551-2.38-.084-5.024a35.933,35.933,0,0,0,5.269,1.344c1.823.23,3.386-.586,5.172-1" transform="translate(59.883 84.116)" fill="#eaf5fe"/><path d="M143.323,185.541c1.447,3.149,4.845,6.225,7.152,8.317s4.592,3.109,2.728,6.376-8.823,1.877-11.714-.157-7.821-8.18-8.685-10.523c-1.538-4.173.651-3.558,1.006-6.741,1.387,1.4,2.457,3.144,4.332,3.642s3.36-.631,5.181-.915" transform="translate(60.053 83.005)" fill="#345d94"/><path d="M140.035,184.643c1.307,2.252,3.97,5.351,4.691,7.709s-2.675,1.613-3.977.252a14.554,14.554,0,0,1-3.184-7.5c.606-.535,1.791-1.627,2.47-.458" transform="translate(62.46 83.6)" fill="#27476d"/><path d="M164.065,130.259c.4,9.027-2.563,27.756-6.015,34.539s-3.312,7.83-5.486,12.122-4.653,3.651-5.381,7.76-2.1,6.606-2.632,11.065,1.205,12.342-.916,16.455-6.53,1.832-9.155.43-.723-.714-.752-3.536-2.175-22.785-.864-26.711,3-5,4.1-7.878a30.091,30.091,0,0,0,1.882-6.255c.672-3.094-.206-.875-.4-6.616s-1.431-17.777.2-23.659,2.344-8.758,3.7-13.051c3.59,1.519,6.222,2.8,9.957,4s8.064.254,11.765,1.329" transform="translate(60.134 56.722)" fill="#534752"/><path d="M160.254,91.214c4.009.281,4.715-1.777,7.2,2.866s7.493,16.223,6.859,22.126-1.665,12.836-1.425,17.114a45.782,45.782,0,0,0,.411,5.853c.465,3.933-3.733,10.059-8.175,11.9s-12.031-.227-15.858-1.265-4.842-1.6-6.876-4.156c-1.627-1.992-3.98-4.417-2.508-7.305s2.085-3.993.906-7.56a83.021,83.021,0,0,1-2.883-10.811c-.852-4.289-2.277-11.805.124-16.115s8.413-6.44,10.613-10.8c4.512.172,7.6-2.124,11.609-1.844" transform="translate(62.07 41.316)" fill="#fea749"/><path d="M153.637,99.937c2.338,4.886,2.468,6.113,4.528,12.868s2.719,22.945,2.559,31.252c-.587.99-.942.26-1.64.856.065-10.391-.531-23.714-3.542-33.319-1.252-3.993-1.825-7.5-3.18-10.834a2.338,2.338,0,0,0,1.275-.823" transform="translate(69.179 45.376)" fill="#fecd46"/><path d="M159.123,117.655c1.258-.483,2.121-.314,3.639-1.12.015-.007,2.121-2.329,2.3-3.4a18.4,18.4,0,0,0-1.431-9.739,18.636,18.636,0,0,1-5.8,4.973,82.686,82.686,0,0,0,1.291,9.283" transform="translate(71.662 46.948)" fill="#fecd46"/><path d="M148.773,124.153c1.6-.141,2.7.317,4.595-.2.016,0,2.376-2.542,2.691-3.635a15.127,15.127,0,0,0-.9-9.887c-1.985,2.59-4.707,3.935-7.744,5.044.436,2.933.369,5.844,1.354,8.681" transform="translate(66.935 50.139)" fill="#fecd46"/><path d="M156.893,93.288c-1.793-1.128-9.336-.234-9.336-.234s-3.945.5-3.626,2.482,2.132,7.184,2.681,7.443,10.282,1.057,10.282,1.057,3.251-8.7,0-10.748" transform="translate(65.342 42.098)" fill="#e8a798"/><path d="M156.3,91.46c-1.762-.459-3.16-.106-5.083-.147a11.371,11.371,0,0,1,6.063,5.219c1.259,2.622,1.294,6.361.425,7.36-1.306,1.5-8.362-2.217-10.716-4.518s-1.089-2.67-1.214-4.367.429-2.454-1.086-2.3-3.065,4.239-2.424,6.228,6.415,8.13,7.592,10.129c1.117-.34.22-3.769,1.361-3.981l6.488.32s4.2-2.178,5.434-5.288c-.763-.622.592-6.721-6.838-8.656" transform="translate(64.528 41.419)" fill="#fecd46"/><path d="M156.892,91.973v8.852a6.816,6.816,0,0,1-4.1,2.462c-2.389.289-5.912-1.911-6.79-4.131s-1.04-2.763-1.04-2.763a32.909,32.909,0,0,1,0-3.927,9.828,9.828,0,0,0-1.047-4.294Z" transform="translate(65.344 40.034)" fill="#e8a798"/><path d="M158.266,80.971c.3.209,2.882,1.937,2.943,3.2s.218,1.176-.02,1.784,1.527,2.056,2.249,4.739c.5,1.845.353,7.734-.033,7.785s-.455.74-1.474.906-9.275.163-10.478-.726c-.342-.253-2.033-1.759-2.033-1.759s-4.039,1.1-5.089-2.172c-.42-1.307,1.079-.909,1.079-.909s-7.7-8.22-2.337-13.447c6.946-6.764,11.36-2.121,15.193.6" transform="translate(64.098 34.903)" fill="#f0baae"/><path d="M137.3,128.826l1.957,14.69,4.567,2.864a16.382,16.382,0,0,1,2.22,4.271c.64,2.545.374,2.936.374,2.936L143.8,152.07s-1.13-1.085-1.509-.871c-.762.429-.073,3.5-.073,3.5l2.005,1.583-2.62,2.417s-5.863-.771-6.01-1.218-1.426-10.5-1.575-11.089-1.224-2.005-1.2-3.046-2.9-11.644-3.029-13.225-.243-2.617.207-2.718,6.581-.935,7.315,1.426" transform="translate(58.875 57.743)" fill="#efc9a3"/><path d="M149.292,105.923s-.76,7.942-2.472,10.154S138.037,128.9,138.5,131.47s1.6,10.085.66,10.609-4.282,2.5-6.338,1.6-3.161-1.5-3.85-1.88-.41-11.781.375-12.99,2.851-11.3,4.143-14.043,7.2-14.751,9.262-15.493,6.383.222,6.536,6.649" transform="translate(58.383 44.978)" fill="#fea749"/><path d="M172.051,126.838s-1.922,5.579-10.02,7.366-15.435-2.472-17.357-3.42-5.569-4.768-5.569-4.768l-.9,3.141s7.2,9.569,21.731,8.191c9.655-.916,12.265-6.9,12.265-6.9Z" transform="translate(62.753 57.217)" fill="#8c3923"/><path d="M160.254,130.432l.377,2.613a.9.9,0,0,1-.57.97,15.86,15.86,0,0,1-2.691.865c-.478-.02-.236-.368-.236-.368l2.012-.788a.9.9,0,0,0,.569-.929l-.132-1.3a.669.669,0,0,0-.87-.571c-.835.266-2.027.646-1.96.627.1-.029-.539-.68.378-1.045a18.211,18.211,0,0,1,2.316-.635.669.669,0,0,1,.807.56" transform="translate(71.116 58.96)" fill="#9bc2e0"/><path d="M160.153,130.836l-2.075,1.073.035.337,2.071-1.045Z" transform="translate(71.774 59.405)" fill="#ddedf9"/><path d="M129.077,125.97s-.717,5.063,4.416,5.288,6.267-3.27,6.267-3.27,1.438-1.159,1.127,3.28-4.59,6.283-8.721,5.361-5.268-9.4-3.088-10.66" transform="translate(58.113 57.196)" fill="#fecd46"/><path d="M155.5,81.979s.3,4.173-1.277,6.2-2.325,2.71-2.553,4.583,1.323,7.493-.534,5.669a21.961,21.961,0,0,0-5.656-3.394s-7.64-2.867-4.9-8.932,5.842-8.368,8-8.915,9.447-3.529,10.151,2.915c.294,2.693-3.235,1.874-3.235,1.874" transform="translate(63.56 34.519)" fill="#c02106"/><g transform="translate(242.93 262.73)" style="mix-blend-mode:multiply;isolation:isolate"><g clip-path="url(#i)"><g transform="translate(0 0.001)"><g clip-path="url(#j)"><rect width="0.401" height="1.44" transform="translate(0)" fill="url(#k)"/></g></g></g></g><path d="M144.365,124.778l-56.03,32.35c-3.6,2.079-6.524-.128-6.524-4.934v-31.62c0-4.8,2.921-10.386,6.524-12.467l56.03-32.348c3.6-2.081,6.524.128,6.524,4.932v31.62c0,4.806-2.921,10.386-6.524,12.467" transform="translate(37.146 34.043)" fill="#ddedf9"/><path d="M121.709,102.413,88.041,121.853V111.43l33.668-19.438Z" transform="translate(39.974 41.768)" fill="#9bc2e0"/><path d="M121.709,114.856,88.041,134.3V123.873l33.668-19.438Z" transform="translate(39.974 47.418)" fill="#9bc2e0"/><path d="M242.189,77.472l-56.03,32.35c-3.6,2.079-6.524-.128-6.524-4.934V73.269c0-4.8,2.921-10.386,6.524-12.467l56.03-32.348c3.6-2.081,6.524.128,6.524,4.932v31.62c0,4.806-2.921,10.386-6.524,12.467" transform="translate(81.562 12.564)" fill="#ddedf9"/><path d="M219.533,55.107,185.865,74.546V64.124l33.668-19.438Z" transform="translate(84.391 20.289)" fill="#9bc2e0"/><path d="M219.533,67.55,185.865,86.989V76.567l33.668-19.438Z" transform="translate(84.391 25.939)" fill="#9bc2e0"/><path d="M224.115,55.519l-7.025,4.055L213.305,40.23l13.921-6.992Z" transform="translate(96.85 15.091)" fill="#f16988"/><path d="M223.406,60.524l-7.5,4.329v-8.6l7.5-4.329Z" transform="translate(98.031 23.574)" fill="#f16988"/><path d="M243.7,132.7l-56.03,32.35c-3.6,2.079-6.524-.128-6.524-4.934v-31.62c0-4.8,2.921-10.386,6.524-12.467L243.7,83.677c3.6-2.081,6.524.128,6.524,4.932v31.62c0,4.806-2.921,10.386-6.524,12.467" transform="translate(82.247 37.637)" fill="#ddedf9"/><path d="M221.041,110.331l-33.668,19.439V119.348l33.668-19.439Z" transform="translate(85.075 45.363)" fill="#9bc2e0"/><path d="M221.041,122.774l-33.668,19.439V131.79l33.668-19.438Z" transform="translate(85.075 51.013)" fill="#9bc2e0"/><path d="M214.3,112.453s3.394-6.548,3.9-5.845,5.322,9.374,5.322,9.374l4.218-23.947,4.666-.776-8.884,34.679Z" transform="translate(97.3 41.435)" fill="#02b6d7"/><path d="M127.031,182.6,71,214.946c-3.6,2.079-6.524-.128-6.524-4.934v-31.62c0-4.8,2.921-10.386,6.524-12.467l56.03-32.348c3.6-2.081,6.524.128,6.524,4.932v31.62c0,4.806-2.921,10.386-6.524,12.467" transform="translate(29.275 60.294)" fill="#ddedf9"/><path d="M104.375,160.232,70.706,179.671V169.248l33.668-19.439Z" transform="translate(32.104 68.02)" fill="#9bc2e0"/><path d="M104.375,172.674,70.706,192.113V181.69l33.668-19.438Z" transform="translate(32.104 73.67)" fill="#9bc2e0"/><path d="M98.959,145.174l13.832,10.385-11.754,20.864L98.959,171.7l8.25-13.592-9.928-7.581Z" transform="translate(44.17 65.915)" fill="#fecd46"/></g></g></svg>