<svg xmlns="http://www.w3.org/2000/svg" xmlns:xlink="http://www.w3.org/1999/xlink" width="610" height="526.899" viewBox="0 0 610 526.899"><defs><clipPath id="a"><path d="M466.288,108.4H175.8V409.825h52.733a86.049,86.049,0,0,0,167.18,0h70.575Z" transform="translate(-175.8 -108.4)"/></clipPath><clipPath id="c"><path d="M829.763-.7H566.528L565,86.434,675.415,167.58a41.982,41.982,0,0,0-1.405,10.815,41.486,41.486,0,0,0,79.985,15.459h75.769Z" transform="translate(-565 0.7)"/></clipPath></defs><g transform="translate(0 0.7)"><g transform="translate(366.341 299.483)" opacity="0.17"><path d="M726.183,536.965h0l-2.016.55L719.4,538.92a57.667,57.667,0,0,0-10.571-20.042l5.5-4.461a64.78,64.78,0,0,0-19.248-16.009l-3.361,6.233a56.888,56.888,0,0,0-21.631-6.721l.733-7.027a64.9,64.9,0,0,0-14.6.183,65.909,65.909,0,0,0-10.326,2.139L647.909,500a57.666,57.666,0,0,0-20.042,10.571l-4.461-5.5A64.781,64.781,0,0,0,607.4,524.316l6.233,3.361a56.891,56.891,0,0,0-6.721,21.631l-7.027-.733a63.894,63.894,0,0,0,2.322,24.93h.061l4.461-1.283,2.261-.672a57.667,57.667,0,0,0,10.571,20.042l-5.5,4.461a64.784,64.784,0,0,0,19.248,16.009l3.361-6.233a58.629,58.629,0,0,0,21.692,6.721l-.733,7.027c1.344.122,2.75.244,4.094.306a63.213,63.213,0,0,0,20.775-2.566l-.428-1.528-1.528-5.255a57.929,57.929,0,0,0,20.1-10.571l4.461,5.5a63.663,63.663,0,0,0,15.948-19.248l-6.233-3.361a57.178,57.178,0,0,0,6.721-21.692l7.027.733A65.107,65.107,0,0,0,726.183,536.965ZM651.637,565.5a16.18,16.18,0,1,1,28.719-9.166,16.486,16.486,0,0,1-5.927,11.549A16.257,16.257,0,0,1,651.637,565.5Z" transform="translate(-599.538 -490.567)" fill="#1f65cf"/></g><g transform="translate(49.161 177.268)" opacity="0.29"><path d="M86.471,333.722a26.671,26.671,0,0,0,7.882,6.538l1.405-2.566a23.044,23.044,0,0,0,8.86,2.75l-.306,2.872a26.278,26.278,0,0,0,10.2-.917l-.183-.611-.611-2.139a23.568,23.568,0,0,0,8.188-4.338l1.833,2.261a26.671,26.671,0,0,0,6.538-7.882l-2.566-1.405a23.044,23.044,0,0,0,2.75-8.86l2.872.306a26.279,26.279,0,0,0-.917-10.2h0l-.917.244-1.955.55a22.592,22.592,0,0,0-4.338-8.188l2.261-1.833a26.672,26.672,0,0,0-7.882-6.538l-1.405,2.566a22.723,22.723,0,0,0-8.86-2.75l.306-2.872a26.278,26.278,0,0,0-10.2.917l.794,2.75a22.593,22.593,0,0,0-8.188,4.338L90.2,296.448a26.671,26.671,0,0,0-6.538,7.882l2.566,1.405a22.724,22.724,0,0,0-2.75,8.86l-2.872-.306a26.279,26.279,0,0,0,.917,10.2h0l1.833-.55.917-.244a23.569,23.569,0,0,0,4.338,8.188Zm11.549-9.41a11.6,11.6,0,1,1,16.315,1.65A11.62,11.62,0,0,1,98.019,324.312Z" transform="translate(-80.455 -290.555)" fill="#1f65cf"/></g><g transform="translate(57.254 78.124)"><g transform="translate(120.68 1.466)"><path d="M291.75,157.708a22.553,22.553,0,0,0,3.605,7.516l1.894-1.405a18.786,18.786,0,0,0,5.683,5.072l-1.222,2.016a20.92,20.92,0,0,0,7.882,2.75l.061-.55.244-1.833a18.821,18.821,0,0,0,7.577-.428l.611,2.261a21.553,21.553,0,0,0,7.516-3.666l-1.405-1.894a18.785,18.785,0,0,0,5.072-5.683l2.016,1.222a20.92,20.92,0,0,0,2.75-7.882h0l-.672-.122-1.65-.244a18.821,18.821,0,0,0-.428-7.577l2.261-.611a21.044,21.044,0,0,0-3.666-7.516l-1.894,1.405a18.786,18.786,0,0,0-5.683-5.072l1.222-2.016a20.92,20.92,0,0,0-7.882-2.75l-.305,2.322a18.822,18.822,0,0,0-7.577.428l-.611-2.261a21.043,21.043,0,0,0-7.516,3.666l1.405,1.894a18.786,18.786,0,0,0-5.072,5.683l-2.016-1.222a20.92,20.92,0,0,0-2.75,7.882h0l1.528.244.794.122a18.822,18.822,0,0,0,.428,7.577Z" transform="translate(-291.2 -130.7)" fill="#48c6aa"/><g transform="translate(12.404 11.182)"><path d="M340.3,153.671Z" transform="translate(-322.702 -150.799)" fill="#d9ffff"/><path d="M340.3,153.671Z" transform="translate(-322.702 -150.799)" fill="#d9ffff"/><path d="M311.5,153.971Z" transform="translate(-311.5 -150.916)" fill="#d9ffff"/><path d="M311.5,153.971Z" transform="translate(-311.5 -150.916)" fill="#d9ffff"/><path d="M311.5,152.544c0,.794,0,2.689.061,6.966.061,7.943,7.821,11.793,8.982,12.282,1.161-.611,8.738-4.522,8.677-12.465-.061-3.972-.061-5.866-.061-6.783L320.36,149Z" transform="translate(-311.5 -149)" fill="#fff"/><g transform="translate(5.255 5.683)"><path d="M320.1,164.261l.061,5.194c0,.611,7.149.55,7.149-.061l-.061-5.194Zm2.689,1.955a.835.835,0,0,1,.855-.855.929.929,0,0,1,.917.855.819.819,0,0,1-.489.794v1.466a.367.367,0,0,1-.733,0v-1.466A.87.87,0,0,1,322.789,166.216Z" transform="translate(-320.1 -160.595)" fill="#48c6aa"/><path d="M321.1,161.6h.733v-.367a2.191,2.191,0,0,1,2.2-2.2,2.284,2.284,0,0,1,2.261,2.2v.367h.733v-.367a2.974,2.974,0,0,0-2.933-2.933,2.934,2.934,0,0,0-2.933,2.933Z" transform="translate(-320.489 -158.3)" fill="#48c6aa"/></g></g></g><path d="M223.668,166.307a36.592,36.592,0,0,0,.367-4.522,33.488,33.488,0,0,0-64.342-13.015,23.414,23.414,0,0,0-38.984,17.476h-4.4A22.675,22.675,0,0,0,93.7,188.854h0a22.675,22.675,0,0,0,22.608,22.608h105.71a22.675,22.675,0,0,0,22.608-22.608h0A22.661,22.661,0,0,0,223.668,166.307Z" transform="translate(-93.7 -128.3)" fill="#c9f5ff"/><g transform="translate(65.626 30.693)"><rect width="47.478" height="42.956" transform="translate(49.487 42.956) rotate(180)" fill="#453b73"/><g transform="translate(0 0.042)"><rect width="51.449" height="12.954" fill="#48c6c6"/><g transform="translate(28.947 3.317)"><rect width="5.072" height="6.844" transform="translate(20.332 6.844) rotate(180)" fill="#453b73"/><rect width="5.072" height="6.844" transform="translate(12.702 6.844) rotate(180)" fill="#453b73"/><rect width="5.072" height="6.844" transform="translate(5.072 6.844) rotate(180)" fill="#453b73"/></g></g><g transform="translate(0 15.44)"><rect width="51.449" height="12.954" fill="#48c6c6"/><g transform="translate(28.947 3.293)"><rect width="5.072" height="6.844" transform="translate(20.332 6.844) rotate(180)" fill="#453b73"/><rect width="5.072" height="6.844" transform="translate(12.702 6.844) rotate(180)" fill="#453b73"/><rect width="5.072" height="6.844" transform="translate(5.072 6.844) rotate(180)" fill="#453b73"/></g></g><g transform="translate(0 30.838)"><rect width="51.449" height="12.954" fill="#48c6c6"/><g transform="translate(28.947 3.27)"><rect width="5.072" height="6.844" transform="translate(20.332 6.844) rotate(180)" fill="#453b73"/><rect width="5.072" height="6.844" transform="translate(12.702 6.844) rotate(180)" fill="#453b73"/><rect width="5.072" height="6.844" transform="translate(5.072 6.844) rotate(180)" fill="#453b73"/></g></g></g><g transform="translate(31.774 46.5)"><g transform="translate(12.465)"><rect width="7.944" height="15.093" transform="translate(2.994)" fill="#5c5099"/><path d="M173.127,232.61,166.1,224.3h13.932Z" transform="translate(-166.1 -212.14)" fill="#5c5099"/></g><g transform="translate(0 0.061)"><rect width="7.944" height="15.093" transform="translate(10.972 20.491) rotate(180)" fill="#5c5099"/><path d="M152.6,204.5l7.027,8.31H145.7Z" transform="translate(-145.7 -204.5)" fill="#5c5099"/></g></g></g><g transform="translate(242.949 113.625)"><path d="M435.24,197.4a9.108,9.108,0,0,0,.122-1.283,9.7,9.7,0,0,0-18.637-3.788,6.9,6.9,0,0,0-4.522-1.711,6.806,6.806,0,0,0-6.783,6.783h-1.283a6.546,6.546,0,0,0-6.538,6.538h0a6.546,6.546,0,0,0,6.538,6.538h30.613a6.546,6.546,0,0,0,6.538-6.538h0A6.543,6.543,0,0,0,435.24,197.4Z" transform="translate(-397.6 -186.4)" fill="#c9f5ff"/></g><path d="M463.852,472.6l-5.622-.611-13.871-1.405a160.618,160.618,0,0,0-6.11-62.815l18.82-5.744a177.7,177.7,0,0,0-32.813-61.471l-15.276,12.4a160.091,160.091,0,0,0-48.7-40.084l9.227-17.292A179,179,0,0,0,302.9,275.3l-2.016,19.553a160.156,160.156,0,0,0-62.815,6.11l-5.744-18.82c-3.911,1.161-7.76,2.505-11.549,3.972a177.175,177.175,0,0,0-49.922,28.841l12.4,15.276A159.408,159.408,0,0,0,144.1,377.16c-.305.55-.611,1.161-.917,1.711l-3.239-1.711-14.054-7.516c-1.344,2.444-2.627,4.949-3.788,7.516a178.878,178.878,0,0,0-16.5,59.087h.183l12.893,1.283,6.538.672c-.367,3.788-.672,7.638-.733,11.488a158.744,158.744,0,0,0,1.283,25.175,165.148,165.148,0,0,0,5.622,26.152l-13.871,4.216-4.949,1.528c1.466,4.827,3.116,9.593,4.949,14.237a180.01,180.01,0,0,0,9.838,20.775,175.707,175.707,0,0,0,17.9,26.4l15.276-12.4a162,162,0,0,0,48.761,40.145L200.067,613.2a179.563,179.563,0,0,0,66.542,20.348l.489-4.338L268.625,614a158.709,158.709,0,0,0,62.876-6.172l5.744,18.82A177.293,177.293,0,0,0,398.654,593.9l-12.4-15.276a161.226,161.226,0,0,0,40.206-48.7l17.292,9.227a178.994,178.994,0,0,0,20.286-66.6Zm-97.95,13.5a87.11,87.11,0,1,1,2.2-57.071A86.988,86.988,0,0,1,365.9,486.108Zm97.95-13.5-5.622-.611-13.871-1.405a160.618,160.618,0,0,0-6.11-62.815l18.82-5.744a177.7,177.7,0,0,0-32.813-61.471l-15.276,12.4a160.091,160.091,0,0,0-48.7-40.084l9.227-17.292A179,179,0,0,0,302.9,275.3l-2.016,19.553a160.156,160.156,0,0,0-62.815,6.11l-5.744-18.82c-3.911,1.161-7.76,2.505-11.549,3.972a177.175,177.175,0,0,0-49.922,28.841l12.4,15.276A159.408,159.408,0,0,0,144.1,377.16c-.305.55-.611,1.161-.917,1.711l-3.239-1.711-14.054-7.516c-1.344,2.444-2.627,4.949-3.788,7.516a178.878,178.878,0,0,0-16.5,59.087h.183l12.893,1.283,6.538.672c-.367,3.788-.672,7.638-.733,11.488a158.744,158.744,0,0,0,1.283,25.175,165.148,165.148,0,0,0,5.622,26.152l-13.871,4.216-4.949,1.528c1.466,4.827,3.116,9.593,4.949,14.237a180.01,180.01,0,0,0,9.838,20.775,175.707,175.707,0,0,0,17.9,26.4l15.276-12.4a162,162,0,0,0,48.761,40.145L200.067,613.2a179.563,179.563,0,0,0,66.542,20.348l.489-4.338L268.625,614a158.709,158.709,0,0,0,62.876-6.172l5.744,18.82A177.293,177.293,0,0,0,398.654,593.9l-12.4-15.276a161.226,161.226,0,0,0,40.206-48.7l17.292,9.227a178.994,178.994,0,0,0,20.286-66.6Zm-97.95,13.5a87.11,87.11,0,1,1,2.2-57.071A86.988,86.988,0,0,1,365.9,486.108Z" transform="translate(-41.074 -107.353)" fill="#80a1ba"/><path d="M441.612,482.038l.733-7.149a145.538,145.538,0,0,0,.794-15.459,153.7,153.7,0,0,0-6.66-44.545l-2.078-6.844,18.7-5.683a170.267,170.267,0,0,0-24.869-46.622L413.076,368.2l-4.522-5.56a151.575,151.575,0,0,0-46.5-38.312l-6.294-3.361,9.166-17.17a170.649,170.649,0,0,0-50.472-15.4l-2.016,19.431-7.149-.733a145.538,145.538,0,0,0-15.459-.794,152.854,152.854,0,0,0-19.064,1.222h0a158.28,158.28,0,0,0-25.419,5.438l-6.844,2.078-5.683-18.7c-1.466.489-2.872,1.039-4.277,1.589a15.915,15.915,0,0,0-1.528.611,169.293,169.293,0,0,0-40.756,22.67L198.6,336.366l-5.56,4.522a150.924,150.924,0,0,0-35.44,41.367c-.978,1.711-1.955,3.422-2.872,5.133l-3.361,6.294-17.17-9.166a171.353,171.353,0,0,0-15.4,50.472l5.8.611L138.231,437l-.733,7.149c-.367,3.544-.611,7.149-.733,10.754-.061,1.589-.061,3.116-.061,4.7a148.472,148.472,0,0,0,1.283,19.492,153.093,153.093,0,0,0,5.377,24.992l2.078,6.844-18.7,5.683c.794,2.322,1.65,4.583,2.566,6.844a161.322,161.322,0,0,0,9.471,19.981,172.633,172.633,0,0,0,12.771,19.737l15.154-12.343,4.522,5.56a153.23,153.23,0,0,0,46.622,38.373l6.294,3.361-9.166,17.17a171.378,171.378,0,0,0,50.411,15.4l1.955-19.431,7.149.733a143.557,143.557,0,0,0,15.4.794,154.1,154.1,0,0,0,44.606-6.66l6.844-2.078,5.683,18.7a169.744,169.744,0,0,0,46.561-24.808l-12.465-15.276,5.56-4.522a151.7,151.7,0,0,0,38.373-46.561l3.361-6.294,17.17,9.166a170.647,170.647,0,0,0,15.4-50.472ZM377.7,493.831a93.782,93.782,0,0,1-60.371,55.788,94.944,94.944,0,0,1-27.375,4.094A93.654,93.654,0,0,1,199.885,486.8a95.993,95.993,0,0,1-3.788-19.8c-.061-1.1-.183-2.2-.183-3.361-.061-1.466-.122-2.872-.122-4.277a94.265,94.265,0,0,1,94.283-94.161h.794a81.43,81.43,0,0,1,8.616.489,94.439,94.439,0,0,1,43.139,15.581c1.65,1.1,3.3,2.261,4.827,3.483a94.784,94.784,0,0,1,32.691,47.233,94.091,94.091,0,0,1-1.405,59.149C378.369,492.12,378,492.976,377.7,493.831Z" transform="translate(-46.209 -112.449)" fill="none" stroke="#fff" stroke-miterlimit="10" stroke-width="1.324"/><path d="M340.516,372.129A87.158,87.158,0,0,0,245.01,465.74c-7.21-2.383-12.221-4.766-14.3-7.149-15.7-18.27,15.337-95.017,22.3-104.854s32.507-14.97,32.507-14.97,0-5.866-.733-17.17c-5.133,0-10.571-13.137-10.571-13.137l-5.133-8.8-1.222-9.288c3.788-1.405,7.638-2.75,11.549-3.972l5.744,18.82a158.183,158.183,0,0,1,26.641-5.683l6.66,51.205Z" transform="translate(-88.034 -111.671)" fill="#5a7d93"/><path d="M550.236,537.051c-2.016,1.833-19.675,9.96-39.29,8.86A87.11,87.11,0,0,0,478.5,441.974L525.794,428.9s33.607-.367,38.007,6.233S558.241,529.719,550.236,537.051Z" transform="translate(-186.118 -167.095)" fill="#5a7d93"/><g transform="translate(107.421 65.964)"><g clip-path="url(#a)"><path d="M424.6,369.974l47.539,25.847L496.336,336l12.4,3.116s-8.066,69.475-21.02,82.185-78.946-15.276-78.946-15.276C392.642,395.7,407.368,362.947,424.6,369.974Z" transform="translate(-263.713 -196.928)" fill="#f7a594"/><g transform="translate(228.396 105.916)"><path d="M553.03,336.161s-4.033-13.321-3.116-16.8c.978-3.422,14.3-6.783,14.787-5.133.489,1.589,1.466,5.56-7.21,7.088C562.684,327.056,568.123,338.055,553.03,336.161Z" transform="translate(-549.659 -294.206)" fill="#f7a594"/><path d="M553.8,335.08s0-11.671,2.322-16.193c3.055-5.988,10.815-9.288,10.815-9.288s12.1,11.488,12.343,13.382S567.548,335.2,567.548,335.2,558.81,342.168,553.8,335.08Z" transform="translate(-551.224 -292.575)" fill="#f7a594"/><path d="M558.7,309.15s5.866-28.6,10.327-27.375c2.078.611-3.422,27.924-3.422,27.924Z" transform="translate(-553.129 -281.738)" fill="#f7a594"/><path d="M551.793,332.259h.122c.061,0,.122-.122.122-.183-.978-3.911-2.566-10.754-2.016-12.771.733-2.627,9.532-5.438,13.2-5.438,1.1,0,1.283.244,1.283.306a4.213,4.213,0,0,1-.244,3.605c-.978,1.589-3.238,2.689-6.844,3.3l-.244.061.183.183c2.139,2.383,4.644,6.049,5.194,9.227,0,.061.122.122.183.122s.122-.122.122-.183c-.55-3.116-2.933-6.721-5.072-9.166,3.544-.672,5.8-1.772,6.782-3.422a4.565,4.565,0,0,0,.244-3.85c-.122-.367-.611-.55-1.589-.55-3.727.061-12.71,2.811-13.5,5.683-.611,2.078,1.039,8.982,2.016,12.954C551.732,332.259,551.732,332.259,551.793,332.259Z" transform="translate(-549.584 -294.092)" fill="#e6836f"/><path d="M575.855,332.255c.061,0,.061.061.122.061l.122.061.061-.061c2.139-2.75,6.66-3.544,6.721-3.544s.122-.122.122-.183-.122-.122-.183-.122c-.183.061-4.583.794-6.844,3.544h0c-2.689-1.039-5.988-8-6.049-8.066s-.122-.122-.183-.061-.122.122-.061.183C569.745,324.373,572.983,331.155,575.855,332.255Z" transform="translate(-557.392 -298.121)" fill="#e6836f"/></g><path d="M412.151,386.251s9.96,1.344,33.852,16.62c-2.627,10.265-10.632,37.151-10.632,37.151s-36.479-11.3-41.49-23.586C388.931,404.155,394.247,381.241,412.151,386.251Z" transform="translate(-259.941 -216.199)" fill="#002e73"/><g transform="translate(30.778 258.838)"><g transform="translate(0 285.536)"><path d="M232.43,1043.478h37.762a4.221,4.221,0,0,0,1.711-1.528c1.955-28.047,4.766-41.551,4.766-41.551l-26.275-1.1-5.927,20.9C235.607,1026.186,225.1,1039.079,232.43,1043.478Z" transform="translate(-227.646 -999.3)" fill="#231f20"/><path d="M271.589,1068.433H226.861c-1.161,0-.733-6.233.367-6.233l44.484.244C272.872,1062.444,272.75,1068.433,271.589,1068.433Z" transform="translate(-226.171 -1023.766)" fill="#231f20"/></g><path d="M299.978,562.8c-13.137,20.225-22.731,117.93-40.878,265.069l26.764,1.405c8.066-39.168,17.109-59.087,26.336-115.547,22.058-49.861,33.485-97.094,39.412-145.733C357.294,531.329,312.321,512.082,299.978,562.8Z" transform="translate(-238.979 -532.004)" fill="#002e73"/></g><g transform="translate(123.236 261.859)"><path d="M377.677,571.687a828.042,828.042,0,0,0,14.665,132.351c2.933,59.943,6.9,57.926,12.4,127.768l24.2-.306c2.016-29.941,18.209-169.441,5.622-258.958C428.576,532.152,373.827,518.832,377.677,571.687Z" transform="translate(-377.483 -536.948)" fill="#002e73"/><path d="M420.142,1019.205c-2.139,11.549-3.727,20.592-2.811,31.041l58.6,1.161s5.8-5.621-1.466-14.115-21.142-3.544-30.124-18.392Z" transform="translate(-392.879 -724.408)" fill="#231f20"/><path d="M477.7,1068.433H415.433c-1.161,0-.855-6.233.306-6.233l62.02.244C478.92,1062.444,478.92,1068.433,477.7,1068.433Z" transform="translate(-391.959 -741.251)" fill="#231f20"/></g><path d="M395.81,507.724c0,12.4-87.867,8.8-87.867-3.605-5.011-107.971-31.163-96.972-24.442-107.848,11.488-18.759,69.658-17.659,90.617-9.654,8.31,3.177,19.492,16.254,23.036,37.029,1.833,10.693-6.049,23.1-7.271,31.774C387.012,475.4,395.261,504.852,395.81,507.724Z" transform="translate(-217.265 -214.487)" fill="#002e73"/><path d="M361.714,375.978c-14.848,2.139-24.075-8.188-26.214-12.526l1.039-30,16.987-1.65a52.346,52.346,0,0,1,14.115,3.239l3.85,19.8.855,4.277C374.24,363.33,376.562,373.839,361.714,375.978Z" transform="translate(-237.917 -195.294)" fill="#f7a594"/><path d="M346.5,344.005c2.689,4.094,13.809,14.6,29.208,14.6l-3.3-17.109Z" transform="translate(-242.196 -199.067)" fill="#e6836f"/><g transform="translate(83.89 81.058)"><path d="M373.346,266.966c1.344,5.927,4.094,18.881,3.605,24.869-.672,9.1-9.166,19.187-16.62,20.531-8.616.855-20.164-1.711-26.458-7.088-3.483-4.094-10.265-13.81-13.382-22.3-6.477-17.781,6.049-33.3,21.936-36.907C358.436,242.463,369.19,248.512,373.346,266.966Z" transform="translate(-315.291 -242.619)" fill="#f7a594"/><path d="M323.667,293.143c-3.3-5.866,1.1-8.188,5.927-3.666-.855-4.4-5.866-17.292-1.405-21.631,5.011-4.949,27.13-2.811,39.045-15.215,0,0-8.86-19.431-37.945-7.943C296.476,262.1,323.667,293.143,323.667,293.143Z" transform="translate(-313.09 -241.055)" fill="#73382a"/><ellipse cx="5.56" cy="7.149" rx="5.56" ry="7.149" transform="translate(1.531 48.063) rotate(-39.726)" fill="#f7a594"/></g><path d="M294.1,390.9c9.9-1.161,19.553,46.5,12.771,59.576,0,.978-.061,1.955-.061,2.933-.061,3.727-.183,7.577-.306,11.426-.061,1.711-.122,3.422-.183,5.194-.122,3.788-.305,7.638-.428,11.426-1.222,29.452-3.055,56.949-3.055,56.949h102.9c-.794-20.225-3.788-40.94-5.8-56.949-.55-4.155-.978-8-1.344-11.426-.183-1.833-.367-3.605-.428-5.194a46.375,46.375,0,0,1,.061-8.921c.122-.733.183-1.589.244-2.505.489-15.032-9.349-58.782-16.681-66.664-10.265-4.766-21.753-3.605-21.753-3.605.733,21.447-7.821,40.7-7.821,40.7s-21.814-18.7-33.668-40.94C308.215,384.55,298.683,386.627,294.1,390.9Z" transform="translate(-221.814 -215.17)" fill="#fdb477"/><path d="M406.117,509.726a46.372,46.372,0,0,1,.061-8.921c.122-.733.183-1.589.244-2.505H314.706c-.061,3.727-.183,7.577-.306,11.426Z" transform="translate(-229.71 -260.056)" fill="#fff"/><path d="M313.4,537.026h94.1c-.55-4.155-.978-8-1.344-11.426H313.828C313.706,529.388,313.583,533.177,313.4,537.026Z" transform="translate(-229.321 -270.675)" fill="#fff"/><path d="M373.791,264.172s9.043,3.911,18.514.122c-1.405,6.477-47.05,16.009-52.916,13.5S361.326,261.422,373.791,264.172Z" transform="translate(-239.118 -168.849)" fill="#5c2d22"/><path d="M312.1,273.315c-1.283-9.288-2.689-33.057,18.392-39.229,18.759-5.438,32.2,5.8,38.557,13.26,2.75.428,10.143-1.589,11.426-.061.306.917,0,2.689-7.516,5.683a.06.06,0,0,0,.061.061c-27.191,5.988-50.411,13.565-60.248,26.641a9.464,9.464,0,0,1-2.811.794C309.047,280.464,311.307,276.859,312.1,273.315Z" transform="translate(-227.901 -156.729)" fill="#fff890"/><path d="M356.308,253.562s-8.555-20.225-28.841-14.787l-.367-.855a49.71,49.71,0,0,1,10.938-4.949c6.416-1.039,21.264,1.466,29.819,17.048C363.4,252.217,356.308,253.562,356.308,253.562Z" transform="translate(-234.65 -156.773)" fill="#ffdd69"/><g transform="translate(46.147 186.208)"><path d="M291.7,457.172l-12.587,35.074,54.382,34.463-1.1,12.282s-73.08-15.154-79.8-32.08c-6.783-16.926,15.826-89.212,15.826-89.212C276.117,399.245,289.438,441.773,291.7,457.172Z" transform="translate(-251.323 -413.14)" fill="#f79683"/><path d="M375.081,600.346l28.6.733s-8.8,14.054-28.78,11.487C348.623,609.206,359.01,599.246,375.081,600.346Z" transform="translate(-293.154 -485.923)" fill="#f79683"/><g transform="translate(67.811 24.967)"><path d="M492.7,595.1v1.711a2.538,2.538,0,0,1-2.689,1.711H364.989c-1.405,0-2.566-.733-2.689-1.711V595.1Z" transform="translate(-362.3 -508.882)" fill="#5d4f99"/><path d="M492.7,597.9a2.538,2.538,0,0,1-2.689,1.711H364.989c-1.405,0-2.566-.733-2.689-1.711Z" transform="translate(-362.3 -509.972)" fill="#241f3c"/><g transform="translate(24.531)"><path d="M599.111,455.161l.672.733-.367.55L598.5,455.1Z" transform="translate(-478.704 -454.428)" fill="#241f3c"/><path d="M506.478,539.973H405.107a2.619,2.619,0,0,1-2.627-3.116l13.382-79.741A3.9,3.9,0,0,1,419.527,454H520.9a2.619,2.619,0,0,1,2.628,3.116l-13.382,79.741A3.8,3.8,0,0,1,506.478,539.973Z" transform="translate(-402.447 -454)" fill="#5d4f99"/></g><path d="M507.739,541.173H406.307a2.619,2.619,0,0,1-2.627-3.116l13.382-79.74a3.9,3.9,0,0,1,3.666-3.116H522.1a2.619,2.619,0,0,1,2.628,3.116l-13.382,79.74A3.782,3.782,0,0,1,507.739,541.173Z" transform="translate(-378.382 -454.467)" fill="#241f3c"/><ellipse cx="13.871" cy="13.382" rx="13.871" ry="13.382" transform="matrix(0.114, -0.993, 0.993, 0.114, 72.084, 58.151)" fill="#48c6aa"/></g></g><path d="M293.712,455.715,258.7,438.423s9.716-34.524,20.775-41.123c5.377,3.238,10.754,10.938,13.687,24.319A84.491,84.491,0,0,1,293.712,455.715Z" transform="translate(-208.045 -220.771)" fill="#002e73"/><path d="M386.358,308.14h.061c.122,0,3.727-.794,4.888-2.689,1.1-1.894-6.355-9.349-8.677-11.61a.346.346,0,0,0-.489.489c4.583,4.4,9.1,9.777,8.555,10.754-.978,1.65-4.4,2.322-4.4,2.322a.46.46,0,0,0-.306.428C386.052,308.079,386.174,308.14,386.358,308.14Z" transform="translate(-256.023 -180.494)" fill="#73382a"/><path d="M372.262,328.307a33.039,33.039,0,0,0,11.06-2.078.369.369,0,0,0-.305-.672c-.122.061-12.832,5.194-21.57-1.1a.348.348,0,0,0-.428.55A19.2,19.2,0,0,0,372.262,328.307Z" transform="translate(-247.793 -192.412)" fill="#73382a"/><path d="M393.932,287.5c.306,1.405,1.222,2.383,2.016,2.2s1.161-1.467.855-2.811c-.306-1.405-1.222-2.383-2.016-2.2S393.626,286.091,393.932,287.5Z" transform="translate(-260.603 -176.96)" fill="#5c2d22"/><path d="M356.941,297.354c.489,1.467,1.528,2.444,2.383,2.2s1.1-1.711.611-3.177-1.528-2.444-2.383-2.2C356.7,294.482,356.453,295.887,356.941,297.354Z" transform="translate(-246.16 -180.645)" fill="#5c2d22"/></g><g clip-path="url(#a)"><g transform="translate(235.286 78.671)"><circle cx="3.483" cy="3.483" r="3.483" transform="translate(7.254 21.167) rotate(-75.06)" fill="#002e73" opacity="0.4"/><g opacity="0.4"><path d="M588.136,247.934h0a1.089,1.089,0,0,0,.305-1.528,20.074,20.074,0,0,0-27.008-6.538,1.11,1.11,0,0,0-.428,1.528h0a1.11,1.11,0,0,0,1.528.428,18.015,18.015,0,0,1,24.014,5.8A1.237,1.237,0,0,0,588.136,247.934Z" transform="translate(-560.859 -237.149)" fill="#002e73"/><path d="M585.7,253.534h0a1.109,1.109,0,0,0,.305-1.589,15.765,15.765,0,0,0-20.775-5.011,1.11,1.11,0,0,0-.428,1.528h0a1.11,1.11,0,0,0,1.528.428,13.771,13.771,0,0,1,17.842,4.338A1.145,1.145,0,0,0,585.7,253.534Z" transform="translate(-562.337 -240.182)" fill="#002e73"/><path d="M583.325,259.009h0a1.118,1.118,0,0,0,.306-1.589,11.552,11.552,0,0,0-14.726-3.544,1.131,1.131,0,0,0-.489,1.528h0a1.114,1.114,0,0,0,1.467.489,9.587,9.587,0,0,1,11.854,2.872A1.31,1.31,0,0,0,583.325,259.009Z" transform="translate(-563.746 -243.152)" fill="#002e73"/></g></g></g></g><path d="M195.636,606.46v57.865a4.512,4.512,0,0,1-4.522,4.522H134.838A184.942,184.942,0,0,1,125,648.071v-15.7l13.871-4.216A158.621,158.621,0,0,1,133.249,602h57.865A4.422,4.422,0,0,1,195.636,606.46Z" transform="translate(-48.62 -234.426)" fill="#5a7d93"/><path d="M170.148,449.186v58.232a7.224,7.224,0,0,1-7.21,7.21H124.381c.122-3.85.367-7.7.733-11.488l-6.538-.672-12.893-1.283H105.5A178.879,178.879,0,0,1,122,442.1h40.879A7.022,7.022,0,0,1,170.148,449.186Z" transform="translate(-41.035 -172.23)" fill="#5a7d93"/><g transform="translate(0 261.252)"><g transform="translate(22.853)"><path d="M123.068,500.652H44.61a7.224,7.224,0,0,1-7.21-7.21V435.21A7.224,7.224,0,0,1,44.61,428h78.457a7.224,7.224,0,0,1,7.21,7.21v58.232A7.263,7.263,0,0,1,123.068,500.652Z" transform="translate(-37.4 -428)" fill="#c9f5ff"/><path d="M126.886,461.767h-71a.183.183,0,1,1,0-.367h71a.183.183,0,1,1,0,.367Z" transform="translate(-44.518 -440.991)" fill="#fff"/><path d="M126.886,501.667h-71a.183.183,0,0,1,0-.367h71a.162.162,0,0,1,.183.183A.2.2,0,0,1,126.886,501.667Z" transform="translate(-44.518 -456.511)" fill="#fff"/><path d="M126.886,482.267h-71a.183.183,0,1,1,0-.367h71a.162.162,0,0,1,.183.183A.2.2,0,0,1,126.886,482.267Z" transform="translate(-44.518 -448.965)" fill="#fff"/><path d="M126.692,494.15H55.322L55.2,450.767a.352.352,0,0,1,.367-.367h0a.352.352,0,0,1,.367.367l.122,42.712h70.7a.352.352,0,0,1,.367.367C127.119,494.089,126.875,494.15,126.692,494.15Z" transform="translate(-44.324 -436.713)" fill="#7362bf"/><path d="M115,469.1,88.9,494.214,75.462,482.3l-19.92,18.576a.372.372,0,0,0,0,.489.463.463,0,0,0,.244.122.368.368,0,0,0,.244-.061l19.431-18.148L88.9,495.191,115,470.078Z" transform="translate(-44.421 -443.986)" fill="#7362bf"/><path d="M88.866,490.333a1.833,1.833,0,1,1-1.833-1.833A1.838,1.838,0,0,1,88.866,490.333Z" transform="translate(-55.992 -451.532)" fill="#7362bf"/><path d="M111.166,509.433a1.833,1.833,0,0,1-3.666,0,1.8,1.8,0,0,1,1.833-1.833A1.838,1.838,0,0,1,111.166,509.433Z" transform="translate(-64.666 -458.961)" fill="#7362bf"/><path d="M153.966,468.233a1.833,1.833,0,1,1-1.833-1.833A1.838,1.838,0,0,1,153.966,468.233Z" transform="translate(-81.314 -442.936)" fill="#7362bf"/></g><g transform="translate(67.092 98.438)"><path d="M114.322,656.009h61.593a4.512,4.512,0,0,0,4.522-4.522V593.622a4.512,4.512,0,0,0-4.522-4.522H114.322a4.512,4.512,0,0,0-4.522,4.522v57.865A4.551,4.551,0,0,0,114.322,656.009Z" transform="translate(-109.8 -589.1)" fill="#48c6c6"/><rect width="6.66" height="19.309" transform="translate(51.327 36.418)" fill="#fdfdff"/><rect width="6.66" height="22.242" transform="translate(42.039 33.546)" fill="#fdfdff"/><rect width="6.66" height="28.108" transform="translate(32.691 27.619)" fill="#fdfdff"/><rect width="6.66" height="32.263" transform="translate(23.403 23.525)" fill="#fdfdff"/><rect width="6.66" height="41.123" transform="translate(14.115 14.604)" fill="#fdfdff"/><path d="M176.2,680.955H122.128a.428.428,0,1,1,0-.855H176.2a.428.428,0,1,1,0,.855Z" transform="translate(-114.429 -624.495)" fill="#247f7d"/></g><g transform="translate(0 84.018)"><path d="M44.239,608.884H3.85A3.834,3.834,0,0,1,0,605.034V569.349A3.833,3.833,0,0,1,3.85,565.5h40.39a3.833,3.833,0,0,1,3.85,3.849v35.685A3.873,3.873,0,0,1,44.239,608.884Z" transform="translate(0 -565.5)" fill="#c9f5ff"/><g transform="translate(7.394 12.037)"><g transform="translate(0 5.988)"><path d="M17.783,596.467H12.833a.743.743,0,0,1-.733-.733h0a.743.743,0,0,1,.733-.733h4.949a.743.743,0,0,1,.733.733h0A.843.843,0,0,1,17.783,596.467Z" transform="translate(-12.1 -595)" fill="#48c6c6"/><path d="M17.783,600.566H12.833a.743.743,0,0,1-.733-.733h0a.743.743,0,0,1,.733-.733h4.949a.743.743,0,0,1,.733.733h0A.786.786,0,0,1,17.783,600.566Z" transform="translate(-12.1 -596.595)" fill="#48c6c6"/><path d="M17.783,604.766H12.833a.743.743,0,0,1-.733-.733h0a.743.743,0,0,1,.733-.733h4.949a.743.743,0,0,1,.733.733h0A.786.786,0,0,1,17.783,604.766Z" transform="translate(-12.1 -598.228)" fill="#48c6c6"/><path d="M17.783,608.967H12.833a.743.743,0,0,1-.733-.733h0a.743.743,0,0,1,.733-.733h4.949a.743.743,0,0,1,.733.733h0A.787.787,0,0,1,17.783,608.967Z" transform="translate(-12.1 -599.862)" fill="#48c6c6"/></g><g transform="translate(9.593)"><path d="M38.371,585.2h0a10.571,10.571,0,0,0,0,21.142,10.175,10.175,0,0,0,4.888-1.222l-4.888-9.349Z" transform="translate(-27.8 -585.2)" fill="#51dede"/><path d="M49.988,611.849a10.546,10.546,0,0,0,5.683-9.349H45.1Z" transform="translate(-34.529 -591.929)" fill="#fd9463"/><path d="M45.1,585.2v10.571H55.61A10.562,10.562,0,0,0,45.1,585.2Z" transform="translate(-34.529 -585.2)" fill="#fff"/></g></g></g></g><g transform="translate(345.237 -0.7)"><g transform="translate(65.259 93.489)" opacity="0.31"><path d="M842.646,249.883l-2.689-.428-6.6-.917a75.711,75.711,0,0,0-1.772-30.185l9.166-2.383a83.152,83.152,0,0,0-2.811-8.86,84.157,84.157,0,0,0-11.732-21.2l-4.155,3.116-3.361,2.566a77.13,77.13,0,0,0-22.547-20.164l4.766-8.127a86.631,86.631,0,0,0-31.53-11l-1.344,9.349a75.71,75.71,0,0,0-30.185,1.772l-2.383-9.166A84.956,84.956,0,0,0,705.407,168.8l5.683,7.516a76.368,76.368,0,0,0-20.164,22.547L682.8,194.1a85.514,85.514,0,0,0-11,31.53h.061l6.171.855,3.116.428a75.71,75.71,0,0,0,1.772,30.185l-9.166,2.383a86.412,86.412,0,0,0,14.482,30.063l7.516-5.683a77.354,77.354,0,0,0,22.608,20.164l-4.766,8.127a86.332,86.332,0,0,0,31.468,11l.306-2.078,1.039-7.271a76.073,76.073,0,0,0,30.246-1.772l2.383,9.166A85.463,85.463,0,0,0,809.1,306.648l-5.683-7.516a76.367,76.367,0,0,0,20.164-22.547l8.127,4.766a84.743,84.743,0,0,0,10.938-31.469Zm-74.852,28.291a41.742,41.742,0,1,1,28.047-56.4,37.879,37.879,0,0,1,1.833,5.438,41.752,41.752,0,0,1-29.88,50.961Z" transform="translate(-671.8 -152.3)" fill="#1f65cf"/><path d="M877.977,260.116a44.153,44.153,0,0,0-1.344-11.549,40.607,40.607,0,0,0-1.833-5.438l26.214-32.813,4.155-3.116A85.228,85.228,0,0,1,916.9,228.4Z" transform="translate(-750.759 -173.654)" fill="#1f65cf"/></g><g clip-path="url(#c)"><g transform="translate(20.47 17.454)"><path d="M786.054,212.229l1.039-.794c-8.921-10.938-12.526-20.1-11.121-27.924,1.955-10.693,13.2-17.17,23.1-22.853,5.56-3.177,10.815-6.233,13.748-9.654a10.262,10.262,0,0,0,2.75-8.31c-.917-6.66-8.31-11.61-8.616-11.793l-.733,1.1c.061.061,7.21,4.827,8.066,10.876a9.016,9.016,0,0,1-2.444,7.271c-2.811,3.239-8,6.233-13.443,9.41-10.143,5.866-21.631,12.465-23.708,23.769C773.161,191.454,776.888,200.925,786.054,212.229Z" transform="translate(-666.901 -67.941)" fill="#453b73"/><path d="M731.431,319.137l4.4-2.811c-7.21-11.3-7.21-21.57,0-29.7,12.037-13.5,36.479-2.811,36.723-2.689l2.139-4.766a61.6,61.6,0,0,0-15.52-4.216c-11.671-1.466-21.081,1.344-27.191,8.188C723.121,293.046,722.937,305.817,731.431,319.137Z" transform="translate(-647.78 -123.827)" fill="#453b73"/><g transform="translate(0 19.584)"><g transform="translate(30.744)"><rect width="8.616" height="39.84" transform="matrix(-0.79, -0.613, 0.613, -0.79, 13.219, 36.767)" fill="#453b73"/><path d="M663.571,94.8l7.943,6.171a8,8,0,0,1-1.466,6.66l-4.461,5.744L653,103.6l4.461-5.744A8.168,8.168,0,0,1,663.571,94.8Z" transform="translate(-650.443 -73.484)" fill="#fbb03b"/><g transform="translate(0 29.251)"><rect width="18.82" height="2.261" transform="matrix(-0.79, -0.613, 0.613, -0.79, 14.875, 13.316)" fill="#453b73"/></g></g><g transform="translate(0 29.558)"><path d="M638.8,173.37l2.261,2.322,21.753-13.076-6.172-6.416Z" transform="translate(-614.175 -126.924)" fill="#453b73"/><path d="M601.311,140.447,598.5,138.8l7.821-24.2,7.638,4.583Z" transform="translate(-598.5 -110.743)" fill="#453b73"/><path d="M638.357,116.34l14.97,11.61a4.179,4.179,0,0,0,5.866-.733h0a4.179,4.179,0,0,0-.733-5.866l-14.97-11.61a4.179,4.179,0,0,0-5.866.733h0A4.132,4.132,0,0,0,638.357,116.34Z" transform="translate(-613.366 -108.511)" fill="#d38d2f"/><g transform="translate(38.045 12.487)"><path d="M665.246,128.77a3.634,3.634,0,0,1,4.155,2.811l3.238,16.07a5.951,5.951,0,0,1-5.744,7.21h0a6.05,6.05,0,0,1-6.11-6.538l1.467-16.376a3.7,3.7,0,0,1,2.994-3.177Z" transform="translate(-660.763 -128.724)" fill="#fbb03b"/><g transform="translate(3.627 17.65)"><path d="M669.755,157.725a2.29,2.29,0,1,0,1.589,2.139A2.379,2.379,0,0,0,669.755,157.725Z" transform="translate(-666.7 -157.608)" fill="#453b73"/></g><g transform="translate(3.322 2.222)"><path d="M668.522,132.445a1.768,1.768,0,1,0,1.222,1.65A1.778,1.778,0,0,0,668.522,132.445Z" transform="translate(-666.2 -132.36)" fill="#453b73"/></g></g><g transform="translate(6.171)"><path d="M634.386,111.534a3.6,3.6,0,0,0-3.85-3.239l-16.315,1.161a6.026,6.026,0,0,0-5.438,7.455h0A5.954,5.954,0,0,0,616.727,121l15.4-5.8a3.519,3.519,0,0,0,2.261-3.666Z" transform="translate(-608.6 -108.288)" fill="#fbb03b"/><g transform="translate(20.071 1.967)"><path d="M644.29,111.869a1.762,1.762,0,0,0-2.75.855,1.711,1.711,0,0,0,.611,1.955,1.762,1.762,0,0,0,2.75-.855A1.711,1.711,0,0,0,644.29,111.869Z" transform="translate(-641.447 -111.507)" fill="#453b73"/></g><g transform="translate(3.916 4.909)"><path d="M618.731,116.8a2.325,2.325,0,0,0-3.605,1.1,2.2,2.2,0,0,0,.794,2.505,2.325,2.325,0,0,0,3.605-1.1A2.2,2.2,0,0,0,618.731,116.8Z" transform="translate(-615.009 -116.322)" fill="#453b73"/></g></g></g></g><g transform="translate(51.721 5.671)"><rect width="31.713" height="10.204" transform="translate(42.009 18.428) rotate(172.368)" fill="#453b73"/><path d="M745.133,62.109l20.348-2.75a11.156,11.156,0,0,0,9.593-12.526h0a11.156,11.156,0,0,0-12.526-9.593L742.2,39.989Z" transform="translate(-706.115 -37.145)" fill="#fbb03b"/><path d="M695.766,68.414l14.359-1.894L707.131,44.4l-14.3,1.894a11.156,11.156,0,0,0-9.593,12.526h0A11.07,11.07,0,0,0,695.766,68.414Z" transform="translate(-683.145 -39.967)" fill="#fbb03b"/><path d="M691.369,60.224a5.884,5.884,0,1,1,4.155,7.21A5.908,5.908,0,0,1,691.369,60.224Zm2.383.672a3.387,3.387,0,1,0,4.155-2.383A3.4,3.4,0,0,0,693.752,60.9Z" transform="translate(-686.264 -44.425)" fill="#453b73"/></g><g transform="translate(99.528)"><path d="M892.734,135.763a57.986,57.986,0,0,0,10.021-16.254c5.133-12.771,3.483-24.442-4.7-33.79a31.156,31.156,0,0,0-22.364-10.938c-9.96-.428-19.248,3.911-22.486,6.966l3.605,3.788c2.139-2.016,10.021-5.866,18.637-5.5,7.271.306,13.5,3.422,18.637,9.166,6.9,7.821,8.188,17.415,3.788,28.352a53.1,53.1,0,0,1-9.043,14.6Z" transform="translate(-797.097 -46.102)" fill="#453b73"/><rect width="14.543" height="3.972" transform="translate(61.476 44.26) rotate(-133.128)" fill="#453b73"/><rect width="32.629" height="6.783" transform="translate(68.106 52.851) rotate(139.737)" fill="#453b73"/><path d="M874.583,159.016h0a8.9,8.9,0,0,0,1.039-12.526L840.365,105,826.8,116.488,862,157.916A8.931,8.931,0,0,0,874.583,159.016Z" transform="translate(-786.828 -57.867)" fill="#453b73"/><path d="M801.05,101.211,764.327,51.778a15.032,15.032,0,0,1,2.383-20.409h0a15.024,15.024,0,0,1,20.47,1.1l42.406,44.545Z" transform="translate(-761.383 -27.864)" fill="#fbb03b"/><path d="M773.628,39.067a9.627,9.627,0,1,1-1.161,13.565A9.663,9.663,0,0,1,773.628,39.067Zm2.628,3.116a5.551,5.551,0,1,0,7.821.672A5.481,5.481,0,0,0,776.255,42.183Z" transform="translate(-764.819 -31.346)" fill="#453b73"/></g><g transform="translate(104.605 71.289)"><path d="M779.657,249.795h0a28.837,28.837,0,0,0,40.7-2.872L867.768,192.3a28.837,28.837,0,0,0-2.872-40.7h0a28.837,28.837,0,0,0-40.7,2.872L776.785,209.1A28.782,28.782,0,0,0,779.657,249.795Z" transform="translate(-769.692 -144.532)" fill="#fbb03b"/><path d="M875.132,169.973a15.2,15.2,0,1,0,21.447-1.528A15.2,15.2,0,0,0,875.132,169.973Zm4.583,4.033a9.1,9.1,0,1,1,.917,12.832A9.1,9.1,0,0,1,879.715,174.006Z" transform="translate(-809.257 -152.395)" fill="#453b73"/></g><g transform="translate(104.121 133.167)"><path d="M768.9,294.5h52.427V272.014A26.208,26.208,0,0,0,795.113,245.8h0A26.208,26.208,0,0,0,768.9,272.014V294.5Z" transform="translate(-768.9 -245.8)" fill="#453b73"/></g><g transform="translate(68.701 179.206)"><rect width="85.057" height="19.675" transform="translate(102.867 19.675) rotate(180)" fill="#453b73"/><g transform="translate(3.524 9.505)"><path d="M716.822,366.1H835.975a15,15,0,0,1,.122,1.65v57.193H716.7V367.75A14.969,14.969,0,0,1,716.822,366.1Z" transform="translate(-716.7 -348.135)" fill="#48c6c6"/><path d="M742.969,336.7h67.153c14.359,3.911,24.869,10.632,25.969,20.164H717C718.1,347.332,728.61,340.611,742.969,336.7Z" transform="translate(-716.817 -336.7)" fill="#453b73"/></g><rect width="125.63" height="17.415" transform="translate(125.63 86.308) rotate(180)" fill="#453b73"/><g transform="translate(38.719 37.552)"><path d="M830.938,389.077h0a3.26,3.26,0,0,0,3.239-3.238h0a3.26,3.26,0,0,0-3.239-3.239h0a3.26,3.26,0,0,0-3.238,3.239h0A3.3,3.3,0,0,0,830.938,389.077Z" transform="translate(-795.07 -382.6)" fill="#453b73"/><path d="M813.139,389.077h0a3.26,3.26,0,0,0,3.238-3.238h0a3.26,3.26,0,0,0-3.238-3.239h0a3.26,3.26,0,0,0-3.239,3.239h0A3.3,3.3,0,0,0,813.139,389.077Z" transform="translate(-788.147 -382.6)" fill="#453b73"/><path d="M795.339,389.077h0a3.26,3.26,0,0,0,3.238-3.238h0a3.26,3.26,0,0,0-3.238-3.239h0a3.26,3.26,0,0,0-3.239,3.239h0A3.3,3.3,0,0,0,795.339,389.077Z" transform="translate(-781.223 -382.6)" fill="#453b73"/><path d="M777.538,389.077h0a3.26,3.26,0,0,0,3.238-3.238h0a3.26,3.26,0,0,0-3.238-3.239h0a3.26,3.26,0,0,0-3.239,3.239h0A3.3,3.3,0,0,0,777.538,389.077Z" transform="translate(-774.3 -382.6)" fill="#453b73"/></g><path d="M858.7,400.5h19.248v17.659H858.7Zm18.942.306H859.005v17.048h18.637Z" transform="translate(-768.409 -352.011)" fill="#453b73"/></g><g transform="translate(109.193 144.105)"><g transform="translate(6.355 1.589)"><path d="M789.739,272.533a14.477,14.477,0,0,0-2.139,5.255l1.589.306a13.178,13.178,0,0,0,.061,5.133l-1.589.306a13.907,13.907,0,0,0,2.2,5.194l.306-.183,1.039-.672a12.15,12.15,0,0,0,3.666,3.605l-.856,1.344a14.477,14.477,0,0,0,5.255,2.139l.305-1.589a13.191,13.191,0,0,0,5.133,0l.306,1.589a13.906,13.906,0,0,0,5.194-2.2h0l-.244-.367-.611-.917a12.148,12.148,0,0,0,3.605-3.666l1.344.855a14.477,14.477,0,0,0,2.139-5.255l-1.589-.306a12.117,12.117,0,0,0-.061-5.133l1.589-.306a13.907,13.907,0,0,0-2.2-5.194l-1.344.917a12.15,12.15,0,0,0-3.666-3.605l.856-1.344a14.478,14.478,0,0,0-5.255-2.139l-.306,1.589a12.116,12.116,0,0,0-5.133.061l-.306-1.589a13.907,13.907,0,0,0-5.194,2.2h0l.611.855.305.428a12.149,12.149,0,0,0-3.605,3.666Zm6.294,4.155a7.059,7.059,0,1,1,2.016,9.777A7.081,7.081,0,0,1,796.032,276.688Z" transform="translate(-787.6 -266.3)" fill="#fbb03b"/></g><path d="M787.282,303.953l.733-1.1a17.6,17.6,0,0,1-7.76-14.6h1.833l-2.566-3.85-2.322,3.788h1.65A19.511,19.511,0,0,0,787.282,303.953Z" transform="translate(-777.2 -271.751)" fill="#fff"/><path d="M835.527,279.587a18.815,18.815,0,0,0-5.438-13.321,20.45,20.45,0,0,0-3.116-2.566c-.244.367-.428.794-.672,1.222a20.261,20.261,0,0,1,2.811,2.322,17.585,17.585,0,0,1,5.072,12.343h-1.833l2.566,3.849,2.322-3.788Z" transform="translate(-796.298 -263.7)" fill="#fff"/></g></g></g></g></g></svg>