<svg xmlns="http://www.w3.org/2000/svg" width="506" height="352.354" viewBox="0 0 506 352.354"><g transform="translate(322.783 0.009)"><path d="M588.337,270.965a55.3,55.3,0,1,0,67.252-39.927A55.51,55.51,0,0,0,588.337,270.965Zm13.725,1.622h0a41.7,41.7,0,0,1,51.9-27.949h0a41.7,41.7,0,0,1,27.949,51.9h0a41.7,41.7,0,0,1-51.9,27.949h0A41.546,41.546,0,0,1,602.062,272.588Z" transform="translate(-550.033 -192.868)" fill="#f7cc7f"/><path d="M557.3,278.33c.249,1.373,1.5,1.747,4.367,2.994,5.241,2.121,10.606,4.242,15.721,6.488a3.591,3.591,0,0,1,1.747,2.62c.624,5.49.873,11.1,1.5,16.594.249,1.747,0,2.62-1.5,3.618-6.114,3.868-12.227,7.861-18.217,11.853,1.5,6.488,9.108,20.962,13.1,24.954,6.363-2.62,12.976-5.365,19.339-8.235,2-.873,2.995-.749,4.741.873a139.1,139.1,0,0,0,12.352,10.356c1.747,1.372,2.62,2.371,2.121,4.741-1.5,6.114-2.5,12.352-3.868,18.591-.374,1.622,0,2.745,1.622,3.244l23.207,7.112c1.872.624,2.246-1,2.62-2.121,2.371-5.615,4.866-11.354,6.987-16.969a4.164,4.164,0,0,1,4.242-2.994c6.239-.25,12.353-.749,18.966-1.248,3.993,5.989,8.235,12.6,12.727,19.34a80.579,80.579,0,0,0,24.7-13.351c-2.994-7.237-6.114-14.6-8.734-20.962,4.617-5.739,8.984-11.1,12.976-16.594a3.138,3.138,0,0,1,3.868-1.5c6.114,1.373,12.227,2.5,18.341,3.743,1.372.25,2.246.374,2.995-1.123a80.436,80.436,0,0,0,7.237-22.708c.25-1.747-.375-2.5-1.872-3.119-5.989-2.5-11.853-4.991-17.718-7.486a2.868,2.868,0,0,1-2.121-2.994c-.5-6.114-1.123-12.228-2-18.216a2.453,2.453,0,0,1,1.372-2.87c6.114-3.993,12.1-7.985,18.216-12.1a88.966,88.966,0,0,0-12.851-24.58c-7.362,3.119-14.848,6.114-21.835,9.108-5.989-4.991-11.729-9.732-17.842-14.848,1.123-5.49,2.37-11.728,3.618-17.967,1-5.116,1.747-4.492-3.494-6.613-.5-.25-.873-.624-1.372-.873-4.617-1.372-9.233-2.745-13.85-4.242a25.721,25.721,0,0,1-3.244-.374c-2.62-.873-4.117-.25-5.241,2.62-2.246,5.864-4.741,11.729-7.361,17.468a3.664,3.664,0,0,1-2.246,1.622c-5.365.624-10.98.873-16.345,1.872-2.62.5-3.743-.25-4.991-2.246-3.618-5.864-7.611-11.479-11.728-17.717-8.36,4.367-16.47,8.609-24.58,12.976.624,1.622,1,2.62,1.372,3.494,2.371,5.739,4.741,11.479,7.237,17.218.749,1.622.374,2.5-.749,3.868-3.868,4.492-7.361,9.358-11.1,13.85a3.317,3.317,0,0,1-2.995,1c-4.991-.873-9.982-2-15.1-2.994-4.118-.749-5.615-1.123-6.862.25Zm36.433-.624a57.188,57.188,0,1,1,6.239,43.42A57.5,57.5,0,0,1,593.733,277.706Z" transform="translate(-557.3 -200.107)" fill="#f7cc7f"/></g><path d="M309.081,346.468c.873.624,1.872.374,4.242-.5,4.242-1.5,8.609-2.994,12.976-4.367a2.791,2.791,0,0,1,2.371.624c3.244,2.994,6.363,6.239,9.607,9.233a2.548,2.548,0,0,1,1,2.994c-1.747,5.615-3.244,11.229-4.866,16.719,4.242,3.119,16.47,7.985,21.086,8.235,2.5-4.991,4.991-9.982,7.486-15.1.749-1.622,1.5-2,3.369-2a113.125,113.125,0,0,0,12.976-.25c1.747-.125,2.87,0,3.743,1.747,2.371,4.492,4.991,8.859,7.362,13.351.624,1.248,1.372,1.622,2.62,1.123,5.989-2.62,11.853-5.24,17.842-7.861,1.5-.624.873-1.747.5-2.62-1.5-4.741-2.994-9.358-4.741-13.974a3.13,3.13,0,0,1,1-3.993c3.618-3.369,7.112-6.987,10.855-10.73,5.49,1.5,11.6,3.244,17.967,4.991a65.3,65.3,0,0,0,7.985-21.086c-5.615-2.87-11.354-5.615-16.345-8.11-.25-5.989-.374-11.479-.873-16.844-.125-1.622.25-2.246,1.5-2.87,4.367-2.371,8.734-4.866,13.1-7.361,1-.5,1.622-1,1.248-2.246a59.711,59.711,0,0,0-7.611-17.593c-.749-1.248-1.5-1.248-2.745-.873-4.866,1.622-9.857,3.119-14.723,4.866a2.355,2.355,0,0,1-2.87-.624c-3.493-3.494-7.112-6.738-10.855-9.982a1.871,1.871,0,0,1-.624-2.5c1.622-5.615,3.119-11.229,4.741-16.969a67.634,67.634,0,0,0-20.712-8.11L379.2,250.769c-6.239.125-12.228.25-18.591.374-2.246-3.868-4.741-8.36-7.237-12.851-2.121-3.618-1.248-3.618-5.615-2.246a4.244,4.244,0,0,1-1.248.125c-3.494,1.622-7.112,3.119-10.605,4.741a22.05,22.05,0,0,1-2.121,1.5c-2,.873-2.62,2-1.747,4.367,1.747,4.741,3.244,9.607,4.741,14.473a2.47,2.47,0,0,1-.5,2.246c-2.995,3.244-6.114,6.239-8.859,9.732-1.372,1.622-2.37,1.872-4.242,1.248-5.24-1.622-10.606-2.995-16.47-4.616-2.745,6.987-5.49,13.85-8.11,20.837l2.745,1.373c4.492,2.246,8.984,4.492,13.475,6.613,1.248.624,1.5,1.373,1.622,2.745.125,4.741.5,9.483.5,14.224a3.424,3.424,0,0,1-1.248,2.246c-3.494,2.121-7.112,3.993-10.73,6.114-2.87,1.622-3.993,2.246-3.993,3.743ZM330.916,327a45.913,45.913,0,1,1,26.576,23.083A46.228,46.228,0,0,1,330.916,327Z" transform="translate(-298.6 -191.752)" fill="#50bfa5"/><path d="M349.719,225.059l1.747-3.244-1.622-3.244c-.25-.374.125-.749.5-.749l3.618.624,2.62-2.62a.552.552,0,0,1,.873.25l.5,3.618,3.244,1.622c.374.25.374.749,0,.873l-3.244,1.622-.624,3.618c-.125.374-.624.624-.873.25l-2.5-2.62-3.618.5C349.719,225.807,349.469,225.433,349.719,225.059Z" transform="translate(-285.961 -196.237)" fill="#f7cc7f"/><path d="M502.611,237.159l1.5-2.371-1.248-.5a.456.456,0,0,1-.25-.624h0a.456.456,0,0,1,.624-.25l1.372.5,1.372-2.121-1.248-.5a.456.456,0,0,1-.249-.624h0a.456.456,0,0,1,.624-.25l1.5.624,1.5-2.5c.125-.25.374-.25.624-.25l.25.125a.6.6,0,0,1,.25.749l-1.5,2.371,2.121.873,1.5-2.5c.125-.249.374-.249.624-.249l.25.125a.6.6,0,0,1,.25.749l-1.5,2.371,1.248.5a.456.456,0,0,1,.25.624h0a.456.456,0,0,1-.624.25l-1.372-.5-1.372,2.246,1.248.5a.456.456,0,0,1,.25.624h0a.456.456,0,0,1-.624.25l-1.5-.624-1.622,2.62c-.125.25-.374.25-.624.25l-.25-.125a.6.6,0,0,1-.25-.749l1.5-2.371-2.121-.873-1.622,2.62c-.125.25-.374.25-.624.25l-.25-.125C502.611,237.783,502.486,237.408,502.611,237.159Zm5.365-2,1.372-2.121-2.121-.873-1.372,2.121Z" transform="translate(-248.078 -193.115)" fill="#07345a"/><path d="M495.3,274.615l-2,10.73c.125.5.749.624,2,1,2.371.624,4.617,1.248,6.987,2a1.731,1.731,0,0,1,.874,1c.5,2.246.873,4.617,1.372,6.987.125.749.125,1.123-.5,1.622-2.371,1.872-4.741,3.868-7.112,5.74a34.8,34.8,0,0,0,6.613,9.982c2.62-1.372,5.24-2.87,7.736-4.367a1.4,1.4,0,0,1,2,.125,45.363,45.363,0,0,0,5.74,3.743c.749.5,1.248.873,1.123,1.872-.374,2.62-.5,5.365-.749,7.985-.125.749.125,1.123.873,1.248,3.369.624,6.738,1.373,10.106,2,.874.125.874-.5,1-1l2.246-7.486a1.606,1.606,0,0,1,1.622-1.372c2.62-.374,5.241-.873,7.986-1.373,1.871,2.371,4.117,4.991,6.239,7.611a34.636,34.636,0,0,0,9.857-6.738c-1.622-2.995-3.244-5.864-4.617-8.484,1.622-2.62,3.244-5.116,4.741-7.611a1.162,1.162,0,0,1,1.5-.749l7.861.749c.624,0,1,0,1.248-.624a30.246,30.246,0,0,0,2-9.982,1.119,1.119,0,0,0-.874-1.248c-2.62-.749-5.24-1.622-7.86-2.371-.624-.125-.873-.374-1-1.123-.5-2.5-1-5.116-1.622-7.611a1.022,1.022,0,0,1,.5-1.248c2.371-2,4.741-3.868,7.112-5.989a36.839,36.839,0,0,0-6.488-9.732c-2.995,1.622-5.989,3.244-8.859,4.866-2.745-1.872-5.365-3.618-8.235-5.49.25-2.371.5-4.991.749-7.736.125-2.246.5-2-1.747-2.62-.25-.125-.374-.25-.624-.374-2-.374-3.993-.749-6.114-1.123a5.033,5.033,0,0,1-1.373,0c-1.123-.25-1.747.125-2.121,1.373-.624,2.62-1.5,5.116-2.371,7.736a1.07,1.07,0,0,1-.873.749c-2.246.5-4.617.873-6.738,1.5a1.643,1.643,0,0,1-2.246-.749c-1.872-2.246-3.743-4.492-5.74-6.987-3.369,2.246-6.488,4.367-9.857,6.613.374.624.5,1,.748,1.373,1.248,2.371,2.5,4.616,3.868,6.987.374.624.249,1-.125,1.622-1.372,2.121-2.62,4.242-4.117,6.363a1.535,1.535,0,0,1-1.248.624c-2.121-.125-4.367-.374-6.488-.624C496.419,273.991,495.8,273.991,495.3,274.615ZM515.26,283.6a17.65,17.65,0,0,1,20.712-14.1h0a17.65,17.65,0,0,1,14.1,20.712h0a17.65,17.65,0,0,1-20.712,14.1h0a17.743,17.743,0,0,1-14.1-20.712Z" transform="translate(-250.371 -188.398)" fill="#f47458"/><path d="M438.6,222.817l6.363.749-2.745-4.866Z" transform="translate(-263.92 -195.493)" fill="#355389"/><g transform="translate(197.989 78.208)"><path d="M457.3,266.672c-.249,2.121,1.622,4.117,3.743,4.492a4.342,4.342,0,0,0,4.741-2.994c1.5-3.868-2.745-6.862-5.116-4.617-2.121,2.121-1.5,5.365.873,5.365.873,0,2.246-.749,1.747-1.747a.353.353,0,0,0-.624,0c-.25.5-.25.5-.374.624a1.775,1.775,0,0,1-.749.25c-2.371,0-.749-5.365,2-4.117a3.243,3.243,0,0,1,1.5,3.993,3.485,3.485,0,0,1-3.494,2.5,4.121,4.121,0,0,1-3.618-3.743c0-.374-.5-.374-.624,0Z" transform="translate(-457.282 -262.781)" fill="#f47458"/></g><g transform="translate(311.626)"><path d="M551.03,202.6l1.872.873s3.119-.749,3.494-1.248c.374-.624.624-2.121,1-2.121a1.322,1.322,0,0,1,1.372,1.248c.125.749-1.248,2.87-1,3.119a13.874,13.874,0,0,0,2,1,1.5,1.5,0,0,1,.873,1.248h0a.938.938,0,0,1-.624.873l-.624.125.125.624a.771.771,0,0,1-.624,1l-.5.125.125.374c.125.5-.125,1-.624,1l-.374.125v.125a.938.938,0,0,1-.624.873l-.374.125-5.116-2.121a4.481,4.481,0,0,1-1.248-.873l-1.622-1.123c-.125-.125-.249-.374-.125-.5l2-4.367C550.531,202.6,550.781,202.6,551.03,202.6Z" transform="translate(-548.358 -200.1)" fill="#50bfa5"/></g><path d="M515.675,274.8H481.363A6.39,6.39,0,0,0,475,281.163v11.229a6.39,6.39,0,0,0,6.363,6.363h34.312a6.39,6.39,0,0,0,6.363-6.363V281.163A6.39,6.39,0,0,0,515.675,274.8Z" transform="translate(-254.904 -181.596)" fill="#5184ce"/><path d="M478.333,464.4,441.9,481.119v3.743H571.662v-3.743L534.854,464.4Z" transform="translate(-263.103 -134.63)" fill="#466eb6"/><rect width="56.521" height="71.993" transform="translate(215.23 257.777)" fill="#466eb6"/><path d="M698.9,459.777v-162.2A13.951,13.951,0,0,0,684.922,283.6H370.374A13.951,13.951,0,0,0,356.4,297.574v162.2Z" transform="translate(-284.282 -179.416)" fill="#466eb6"/><rect width="129.637" height="3.743" transform="translate(178.797 346.489)" fill="#184655" opacity="0.3"/><rect width="56.521" height="8.484" transform="translate(215.23 321.285)" fill="#184655" opacity="0.3"/><path d="M356.4,424.8v25.952c0,5.365,3.618,9.732,7.985,9.732H690.911c4.367,0,7.985-4.367,7.985-9.732V424.8Z" transform="translate(-284.282 -144.44)" fill="#5184ce"/><path d="M497.839,280.521a3.119,3.119,0,1,1-3.119-3.119A3.014,3.014,0,0,1,497.839,280.521Z" transform="translate(-250.792 -180.953)" fill="#184655"/><path d="M689.326,451.4V296.562a7.432,7.432,0,0,0-7.611-7.362h-311.3a7.432,7.432,0,0,0-7.611,7.362V451.4Z" transform="translate(-282.697 -178.029)" fill="#cce6ff"/><rect width="196.265" height="136.874" transform="translate(94.452 123.773)" fill="#e9ffff"/><rect width="196.265" height="15.971" transform="translate(94.452 123.773)" fill="#5184ce"/><rect width="13.35" height="103.685" transform="translate(360.464 157.96)" fill="#9bc1f9" opacity="0.6"/><rect width="13.35" height="71.993" transform="translate(341.748 189.652)" fill="#9bc1f9" opacity="0.6"/><rect width="13.35" height="81.226" transform="translate(379.429 180.419)" fill="#9bc1f9" opacity="0.6"/><rect width="13.35" height="84.47" transform="translate(323.157 177.3)" fill="#9bc1f9" opacity="0.6"/><rect width="13.35" height="59.391" transform="translate(304.441 202.254)" fill="#9bc1f9" opacity="0.6"/><g transform="translate(304.441 181.916)"><rect width="13.35" height="79.729" transform="translate(56.022)" fill="#9bc1f9" opacity="0.3"/><rect width="13.35" height="55.398" transform="translate(37.307 24.33)" fill="#9bc1f9" opacity="0.3"/><rect width="13.35" height="62.51" transform="translate(74.987 17.218)" fill="#9bc1f9" opacity="0.3"/><rect width="13.35" height="65.006" transform="translate(18.716 14.848)" fill="#9bc1f9" opacity="0.3"/><rect width="13.35" height="45.666" transform="translate(0 34.063)" fill="#9bc1f9" opacity="0.3"/></g><rect width="181.167" height="23.207" transform="translate(101.189 146.356)" fill="#9bc1f9" opacity="0.6"/><rect width="116.536" height="5.989" transform="translate(165.696 176.177)" fill="#9bc1f9" opacity="0.6"/><rect width="57.395" height="68.749" transform="translate(101.189 176.177)" fill="#5184ce"/><rect width="116.536" height="5.989" transform="translate(165.696 188.779)" fill="#9bc1f9" opacity="0.6"/><rect width="116.536" height="5.989" transform="translate(165.696 226.459)" fill="#9bc1f9" opacity="0.6"/><rect width="116.536" height="5.989" transform="translate(165.696 239.061)" fill="#9bc1f9" opacity="0.6"/><path d="M314.694,361.149,423.62,360.9a3.036,3.036,0,0,1,2.994,2.994l.25,143.487a3.036,3.036,0,0,1-2.995,2.995l-108.925.249a3.036,3.036,0,0,1-2.994-2.995l-.25-143.487A3.036,3.036,0,0,1,314.694,361.149Z" transform="translate(-295.355 -160.268)" fill="#f7cc7f"/><rect width="102.811" height="140.243" transform="translate(22.333 205.093) rotate(-0.103)" fill="#fff"/><path d="M384.617,359.623a1.118,1.118,0,0,0-1.123-1.123l-43.171.125a1.118,1.118,0,0,0-1.123,1.123v4.492l45.417-.125Z" transform="translate(-288.543 -160.863)" fill="#13375b"/><path d="M358.738,354.1a6.8,6.8,0,1,0,6.862,6.738A6.984,6.984,0,0,0,358.738,354.1Zm0,11.229a4.367,4.367,0,1,1,4.367-4.367A4.421,4.421,0,0,1,358.738,365.329Z" transform="translate(-285.373 -161.953)" fill="#13375b"/><g transform="translate(50.657 197.637)"><path d="M383.868,358.6a1.239,1.239,0,0,1,.749,1v4.492l-45.417.125a5.591,5.591,0,0,0,5.615,5.615H379a5.591,5.591,0,0,0,5.615-5.615v-4.492A1,1,0,0,0,383.868,358.6Z" transform="translate(-339.2 -358.475)" fill="#355389"/><path d="M340.3,358.5h0a1.54,1.54,0,0,0-1,.5A1.54,1.54,0,0,1,340.3,358.5Z" transform="translate(-339.175 -358.5)" fill="#9bc1f9"/><path d="M339.2,359.249c0-.125,0-.125.125-.249C339.2,359.125,339.2,359.125,339.2,359.249Z" transform="translate(-339.2 -358.376)" fill="#9bc1f9"/></g><g transform="translate(98.819 231.575)"><path d="M392.4,400.3H377.8V385.7h14.6Zm-13.974-.5H391.9V386.324H378.424Z" transform="translate(-377.8 -385.7)" fill="#184655"/></g><g transform="translate(98.819 255.905)"><path d="M392.4,419.8H377.8V405.2h14.6Zm-13.974-.5H391.9V405.824H378.424Z" transform="translate(-377.8 -405.2)" fill="#184655"/></g><g transform="translate(98.943 280.236)"><path d="M392.5,439.3H377.9V424.7h14.6Zm-14.1-.5h13.475V425.324H378.4Z" transform="translate(-377.9 -424.7)" fill="#184655"/></g><g transform="translate(98.943 304.566)"><path d="M392.5,458.8H377.9V444.2h14.6Zm-13.974-.5H392V444.824H378.524Z" transform="translate(-377.9 -444.2)" fill="#184655"/></g><rect width="62.635" height="2.121" transform="translate(30.067 232.008) rotate(-0.103)" fill="#9bc1f9"/><rect width="62.635" height="2.121" transform="translate(30.067 237.996) rotate(-0.103)" fill="#9bc1f9"/><rect width="62.635" height="2.121" transform="translate(30.067 243.986) rotate(-0.103)" fill="#9bc1f9"/><rect width="62.635" height="2.121" transform="translate(30.069 257.21) rotate(-0.103)" fill="#9bc1f9"/><rect width="62.635" height="2.121" transform="translate(30.069 263.199) rotate(-0.103)" fill="#9bc1f9"/><rect width="62.635" height="2.121" transform="translate(30.194 269.188) rotate(-0.103)" fill="#9bc1f9"/><rect width="62.635" height="2.121" transform="translate(30.194 281.041) rotate(-0.103)" fill="#9bc1f9"/><rect width="62.635" height="2.121" transform="translate(30.194 287.03) rotate(-0.103)" fill="#9bc1f9"/><rect width="62.635" height="2.121" transform="translate(30.194 293.019) rotate(-0.103)" fill="#9bc1f9"/><rect width="62.635" height="2.121" transform="translate(30.194 304.873) rotate(-0.103)" fill="#9bc1f9"/><rect width="62.635" height="2.121" transform="translate(30.194 310.862) rotate(-0.103)" fill="#9bc1f9"/><rect width="62.635" height="2.121" transform="translate(30.194 316.851) rotate(-0.103)" fill="#9bc1f9"/><rect width="72.242" height="2.121" transform="translate(30.192 332.208) rotate(-0.103)" fill="#9bc1f9"/><rect width="86.466" height="2.121" transform="translate(30.317 337.336) rotate(-0.103)" fill="#9bc1f9"/><g transform="translate(101.439 229.329)"><path d="M384.517,398.373l-4.617-7.736,1.622-1,2.745,4.492,4.242-10.231,1.747.749Z" transform="translate(-379.9 -383.9)" fill="#f47458"/></g><g transform="translate(101.564 253.909)"><path d="M384.492,418.2,380,410.338l1.622-.873,2.62,4.492,4.242-10.356,1.747.749Z" transform="translate(-380 -403.6)" fill="#f47458"/></g><g transform="translate(101.688 302.071)"><path d="M384.592,456.8l-4.492-7.736,1.622-1,2.62,4.492,4.242-10.356,1.747.749Z" transform="translate(-380.1 -442.2)" fill="#f47458"/></g><path d="M389.682,427.848l-1.248-1.248-3.743,3.619-3.743-3.619-1.248,1.248,3.618,3.743-3.618,3.618,1.248,1.372,3.743-3.743,3.743,3.743,1.372-1.372-3.743-3.618Z" transform="translate(-278.511 -143.994)" fill="#f47458"/><path d="M327.081,439.1a27.588,27.588,0,0,0-10.481,2.121v3.369a24.376,24.376,0,0,1,10.481-2.371,23.844,23.844,0,0,1,12.852,43.919h5.116c.374-.374.749-.624,1.123-1a26.96,26.96,0,0,0-.125-38.18A26.2,26.2,0,0,0,327.081,439.1Z" transform="translate(-294.141 -140.897)" fill="#9bc1f9" opacity="0.3"/><path d="M327.081,445a20.123,20.123,0,0,0-10.481,2.995v1.872a17.807,17.807,0,0,1,10.481-3.369,18.092,18.092,0,1,1,0,36.184,18.932,18.932,0,0,1-10.481-3.244v1.872a19.645,19.645,0,0,0,30.07-16.719A19.464,19.464,0,0,0,327.081,445Z" transform="translate(-294.141 -139.436)" fill="#9bc1f9" opacity="0.3"/><g transform="translate(49.16 217.351)"><path d="M340.745,382.111v-6.987H338V374.5h6.488v.624h-2.745v6.987Z" transform="translate(-338 -374.251)" fill="#184655"/><path d="M350.015,381.487v.624H344.4V374.5h5.365v.624h-4.492v2.62h3.244v.624h-3.244v3.119Z" transform="translate(-336.415 -374.251)" fill="#184655"/><path d="M349.6,380.264l.749-.249a3.4,3.4,0,0,0,1,1.248,3.183,3.183,0,0,0,2.995,0,1.217,1.217,0,0,0,.5-1.123,1.133,1.133,0,0,0-.374-.873,2.326,2.326,0,0,0-1.248-.624,7.77,7.77,0,0,0-1.248-.374,2.735,2.735,0,0,1-1-.374c-.5-.25-.749-.5-1-.624a1.053,1.053,0,0,1-.25-.873,1.779,1.779,0,0,1,.749-1.5,3.166,3.166,0,0,1,2-.5,3.006,3.006,0,0,1,1.871.5,2.51,2.51,0,0,1,1.123,1.372l-.749.25c-.25-.5-.5-.873-.873-1a2.517,2.517,0,0,0-1.373-.374,1.863,1.863,0,0,0-1.248.374,1.541,1.541,0,0,0-.5,1,1.078,1.078,0,0,0,.374.749,1.88,1.88,0,0,0,1,.5,4.906,4.906,0,0,1,.749.25,11.637,11.637,0,0,1,1.747.624,2.706,2.706,0,0,1,.873.749,1.344,1.344,0,0,1,.25,1,2.012,2.012,0,0,1-.749,1.622,3.569,3.569,0,0,1-2.121.624,3.4,3.4,0,0,1-2-.5A12.118,12.118,0,0,1,349.6,380.264Z" transform="translate(-335.127 -374.275)" fill="#184655"/><path d="M357.945,382.111v-6.987H355.2V374.5h6.488v.624h-2.745v6.987Z" transform="translate(-333.739 -374.251)" fill="#184655"/><path d="M361.7,382.111V374.5h.873v7.611Z" transform="translate(-332.129 -374.251)" fill="#184655"/><path d="M365.373,375v7.112H364.5V374.5h1.372l4.492,6.488V374.5h.873v7.611h-.873Z" transform="translate(-331.436 -374.251)" fill="#184655"/><path d="M377.614,381.287a2.945,2.945,0,0,1-1.123.749,4.653,4.653,0,0,1-1.5.25,3.378,3.378,0,0,1-2.62-1,4.1,4.1,0,0,1-.873-2.995,4.553,4.553,0,0,1,1-2.995,4.059,4.059,0,0,1,4.617-.5,3.55,3.55,0,0,1,1.123,1.747l-.873.125a2.9,2.9,0,0,0-.873-1.373,2.676,2.676,0,0,0-1.5-.5,2.327,2.327,0,0,0-2,.873,3.6,3.6,0,0,0-.749,2.371,3.511,3.511,0,0,0,.749,2.5,2.42,2.42,0,0,0,2.121.873,2.117,2.117,0,0,0,1.622-.5,1.733,1.733,0,0,0,.624-1.248v-.873h-2.371v-.624h3.244v3.618h-.749v-.5Z" transform="translate(-329.702 -374.3)" fill="#184655"/></g><g transform="translate(119.588 23.605)"><g transform="translate(46.358 7.463)"><g transform="translate(36.433)"><path d="M465.5,229.845l-2,7.736,6.114-3.369,18.092-6.738-13.351-.374s-6.987.873-7.361,1.123C466.619,228.6,465.5,229.845,465.5,229.845Z" transform="translate(-460.131 -224.48)" fill="#50bfa5"/><path d="M460.8,225l27.574,2.995-22.209,2.371Z" transform="translate(-460.8 -225)" fill="#96d9c9"/><path d="M472.688,238.754l-6.488-6.613,20.837-4.741Z" transform="translate(-459.462 -224.406)" fill="#96d9c9"/></g><g transform="translate(0 7.736)"><g transform="translate(0 1.372)"><path d="M431.6,252.263a10.979,10.979,0,0,1,.624-1.872c.25-.5.5-1.123.749-1.622l.624.25c-.25.5-.5,1-.749,1.622a9.193,9.193,0,0,0-.5,1.747c0,.125-.125.374-.125.5l-.624-.125Zm3.618-7.112a33.979,33.979,0,0,1,2.87-3.119l.374.5a31.851,31.851,0,0,0-2.87,2.995ZM455.93,246.4c0-.125-.125-.125,0,0l.374-.624.125.125h.125a3.161,3.161,0,0,0,1.872,0,3.539,3.539,0,0,0,1.248-1.123l.5.374a2.913,2.913,0,0,1-1.5,1.248,3.825,3.825,0,0,1-2.371,0Zm-14.349-6.862a26.648,26.648,0,0,1,3.743-2.121l.25.624a34.365,34.365,0,0,0-3.618,2.121Zm12.352,1.5a10.409,10.409,0,0,1,.5-1.872,3.739,3.739,0,0,1,.5-1l.624.25c-.125.249-.25.624-.374.873a4.4,4.4,0,0,0-.374,1.747v1.248h-.624A2.249,2.249,0,0,1,453.934,241.034Zm3.494-2.995h0l.25-.624h.125a5.862,5.862,0,0,1,2.62,3.369l-.624.25A6.082,6.082,0,0,0,457.428,238.039Zm-8.11-1.872a10.7,10.7,0,0,1,2.745-.249c.5,0,1,.125,1.5.125l-.125.624a5.6,5.6,0,0,0-1.5-.125c-.5,0-1.372.125-2.62.25Zm8.235-1.5a13.294,13.294,0,0,1,3.494-2.371l.25.624a15.85,15.85,0,0,0-3.369,2.246Z" transform="translate(-431.6 -232.3)" fill="#9bc1f9"/></g><g transform="translate(33.563)"><path d="M458.625,231.949a12.1,12.1,0,0,1,2.121-.125V231.2a13.559,13.559,0,0,0-2.246.125Z" transform="translate(-458.5 -231.2)" fill="#9bc1f9"/></g></g></g><path d="M420.443,239.6c.374,0,1.5.374,2.995,3.369,2,3.743,4.991,15.222,4.991,15.222l-8.734,3.244-1.123-2.371L416.7,240.6S420.318,239.6,420.443,239.6Z" transform="translate(-388.933 -213.921)" fill="#a34b3d"/><path d="M413.472,238.3a56.366,56.366,0,0,1,11.6,1.622s2.121,18.217-1.872,31.941c-.873,3.119.749,12.851.749,12.851L398,284.341s3.119-23.457,1.872-27.325c-1.123-3.743-1.248-17.094-1.248-17.094s.125,0,5.864-1A72.459,72.459,0,0,1,413.472,238.3Z" transform="translate(-393.565 -214.243)" fill="#b75742"/><path d="M409.458,302.5s.624,6.613,1.622,8.484,0,4.991-.125,5.365c0,.374-2.246,1-5.615.624-3.494-.374-3.369-1.123-3.119-2.5.25-1.248,2.121-2.995,2.246-4.117.125-1.248-1-5.615-1-5.615Z" transform="translate(-392.547 -198.34)" fill="#f7a491"/><path d="M421.064,271.175s17.967-1,21.96,1.372-2.87,14.349-2.87,14.349-12.477-.624-36.932.873c-5.74.374-6.239-15.1-5.24-16.345C399.1,270.177,421.064,271.175,421.064,271.175Z" transform="translate(-393.672 -206.193)" fill="#e0973f"/><path d="M404.9,315.839c-3.494-.374-3.119-2.121-2.87-3.494.125-.873,1.248-1.747,1.747-2.745a5.737,5.737,0,0,0,2.371,1.123c1.622.5,3.743-.5,5.24-1a20.182,20.182,0,0,1,.5,4.617C411.887,314.84,408.393,316.213,404.9,315.839Z" transform="translate(-392.605 -196.581)" fill="#dd513a"/><path d="M408.6,284.006c.749,5.365,4.242,32.44,4.242,32.44l-8.235,1S394.5,282.26,395,276.77c.5-5.365,4.367-5.864,4.367-5.864S406.732,269.658,408.6,284.006Z" transform="translate(-394.312 -206.173)" fill="#f7cc7f"/><path d="M399.1,241.305c2.371-.873,3.618,20.962,3.993,29.945a118.673,118.673,0,0,0,13.725-.125c.873-.125,2.87-.749,3.743-.873a15.316,15.316,0,0,1,2.121-.125,41.716,41.716,0,0,1,4.991,2.246c.5.5,1.747,1.747,1.5,2.246s-2.5-1.5-2.5-1.5l-1.123-.624c1.372,1.372,3.993,3.119,3.618,3.743s-2.745-1.123-4.367-2.371c1.5,1.248,3.244,3.618,2.87,3.993s-2.371-2.371-4.617-3.119c-.749-.25-1.622.5-2.246.624a3.716,3.716,0,0,1-1.622.125l-2.371-.624c-.749.125-.873.5-1.622.749-1,.25-2.5.374-3.743.749-6.862,1.747-9.233,2.5-11.354,2.5C393.74,278.736,393.365,243.426,399.1,241.305Z" transform="translate(-394.296 -213.504)" fill="#f7a491"/><path d="M394.638,262.3c-.5-9.233-.374-20.587,4.741-22.584,2-.749,5.615,3.868,4.991,22.708A36.441,36.441,0,0,1,394.638,262.3Z" transform="translate(-394.446 -213.911)" fill="#a34b3d"/><path d="M429.635,307.725s-1.248,2.121-.25,3.868,5.864,4.367,6.363,5.365a2.111,2.111,0,0,1,.25,1.622l-14.6-3.618,1.123-4.367L423.9,307.6Z" transform="translate(-387.769 -197.076)" fill="#f7a491"/><path d="M430.246,311.9s-4.117.749-5.74-.624c-1.622-1.248-1.5-1.5-2.121-1.372-.374.125-1,1.872-1.372,3.119a1.184,1.184,0,0,0,.873,1.5l15.222,3.743c1.123.249,1.872-.5,1.123-1.373a16.329,16.329,0,0,0-1.622-1.5C435.487,314.522,430.246,311.9,430.246,311.9Z" transform="translate(-387.881 -196.512)" fill="#dd513a"/><path d="M427.89,275.356c1.123-2.5,3.743-5.615,8.484-3.743,4.367,1.872,5.615,6.363,4.242,10.855-1.373,4.617-10.606,31.567-10.855,35.31H422.4s1.372-21.336,1.622-26.576A49.2,49.2,0,0,1,427.89,275.356Z" transform="translate(-387.521 -206.132)" fill="#f7cc7f"/><path d="M445.887,254.6h-24.58a1.621,1.621,0,0,0-1.5,1L412.2,274.064H398.724c-.374,0-.624.25-.624.749h0a.7.7,0,0,0,.624.749h38.43a2.869,2.869,0,0,0,2.5-1.622l7.611-16.969A1.639,1.639,0,0,0,445.887,254.6Z" transform="translate(-393.541 -210.205)" fill="#184655"/><path d="M426.325,263.551A1.41,1.41,0,0,1,424.7,264.8a1.462,1.462,0,0,1-1-1.747,1.41,1.41,0,0,1,1.622-1.248A1.582,1.582,0,0,1,426.325,263.551Z" transform="translate(-387.204 -208.425)" fill="#fff"/><g transform="translate(12.208)"><path d="M417.792,220.867a10.8,10.8,0,0,1-2.121-.873,7.489,7.489,0,0,0-2.5-.873c-1.372-.25-3.743-.125-4.991,1.372-1.622,1.747-4.492.374-3.868,9.483.624,10.356,6.488,9.233,6.613,9.108s5.116-6.613,5.116-6.613,1.747,3.868,1.747,3.743C417.668,235.839,426.651,223.861,417.792,220.867Z" transform="translate(-404.23 -219.019)" fill="#0e2e35"/><path d="M412.789,236.739l.5,3.743s1.123,5.365-.374,6.363-6.114-6.488-6.114-6.488l.5-9.358Z" transform="translate(-403.593 -216.051)" fill="#f7a491"/><path d="M407.1,233.994a10.74,10.74,0,0,0,5.989,5.989l-.374-3.119L407.225,231Z" transform="translate(-403.519 -216.051)" fill="#f47458"/><path d="M412.534,222.713a5.054,5.054,0,0,1,5.74,4.991,34.3,34.3,0,0,1-.374,4.741c-.624,4.242-3.618,8.11-5.49,7.736-2-.374-6.862-3.993-5.989-10.106C406.92,226.331,409.29,223.212,412.534,222.713Z" transform="translate(-403.713 -218.12)" fill="#f7a491"/><path d="M407.973,229.6a1.565,1.565,0,0,1-1.747,1.5,1.68,1.68,0,0,1-1.123-2,1.566,1.566,0,0,1,1.747-1.5A1.5,1.5,0,0,1,407.973,229.6Z" transform="translate(-404.018 -216.896)" fill="#f7a491"/><path d="M406.724,229.086s2.371.624,3.244-.873,3.993-4.741,7.985-3.369-3.494-3.244-3.743-3.244h-4.117s-2.87,2.371-2.994,2.62-1,3.119-1,3.119Z" transform="translate(-403.767 -218.379)" fill="#0e2e35"/></g><path d="M410,232.7l4.242.873A1.777,1.777,0,0,1,412,234.821C409.63,234.447,410,232.7,410,232.7Z" transform="translate(-390.597 -215.63)" fill="#fff"/></g><g transform="translate(179.216 190.562)"><path d="M450.586,467.7s-.749,5.49-2.121,7.237a22.543,22.543,0,0,0-1.872,2.371c-.873,1.622-.374,4.117.25,5.49.374.749,0,.749.749.873a4.63,4.63,0,0,0,5.365-2.5,11.521,11.521,0,0,0,1-4.617c.25-4.991,1.747-7.486,1.747-7.486Z" transform="translate(-441.272 -324.374)" fill="#f7a491"/><path d="M468.674,469.7s.5,6.114.125,8.11c-.249,1.123-1.372,3.244-.873,4.242a2.522,2.522,0,0,0,1.123,1.248l13.85.25c.749,0,.25-.5-.374-.873a23.083,23.083,0,0,0-4.991-2.745c-.25-.125-1-.624-1.248-.749a8.742,8.742,0,0,1-2-1.747c-1-1.123-1.123-6.488-1.123-6.488Z" transform="translate(-435.903 -323.879)" fill="#f7a491"/><path d="M479.808,404.722s1.747,9.982.624,16.47-6.613,67-6.613,67l-6.114.374s-1.248-25.329-1-28.822a58.394,58.394,0,0,1,2-9.358l-.624-20.462,7.736-26.826Z" transform="translate(-436.182 -340.376)" fill="#e25a44"/><path d="M466.194,403.171s-4.866,7.237-5.989,13.351c-1.123,5.989.873,24.58-1.372,32.44-1.248,4.242-5.739,10.855-6.363,16.345-.749,5.49-3.369,19.963-3.369,19.963l6.114,1.248,14.224-36.184,11.1-32.69,2.87-16.844Z" transform="translate(-440.535 -340.946)" fill="#f47458"/><path d="M453.423,478.17c-3.369.624-5.49-1.372-6.738-2.87-.873,1.622-1.248,4.117-.624,5.49.5,1.248,2.121,1.123,3.369,1.248a3.334,3.334,0,0,0,2.995-1.871A5.957,5.957,0,0,0,453.423,478.17Z" transform="translate(-441.364 -322.492)" fill="#f7cc7f"/><path d="M476.4,477.25a12.985,12.985,0,0,1-7.861-.25c-.374,1.123-.873,2.5-.624,3.369.374,1,.873,1.248,1.248,1.248,3.369.125,12.228.25,14.848.25.374,0,.5-.374.374-.749C483.51,480.369,476.647,477.5,476.4,477.25Z" transform="translate(-435.891 -322.071)" fill="#f7cc7f"/><path d="M500.819,392.39c.249-.5-2.5-1.248-2.5-1.872-.125-.624,3.493-.25,3.743-.749.374-.873-3.868-.624-3.743-1s4.492-1,4.117-1.747-4.492,1-4.492.5c-.125-.5,3.993-1.372,3.993-2.5,0-.624-6.738,2.246-7.362,1.872-.749-.374,1.123-2.995.624-3.494s-2.87,4.991-3.369,5.116c-.374.125-9.607,2.995-12.851,3.369-.25-1.123-2.62-6.863-2.87-7.861-1.872,1-4.242-.25-6.114.749,1,3.369,3.119,14.349,3.993,14.848,2.62,1.5,16.22-5.739,18.466-6.987s3.369-.624,4.866-1C498.7,391.392,500.569,392.889,500.819,392.39Z" transform="translate(-435.358 -345.263)" fill="#f38b80"/><path d="M483.49,367.391c.749-3.119,1.372-6.239-.5-9.732A9.006,9.006,0,0,0,476,352.918c-8.36-1-6.488,6.738-18.092,8.484-3.618.5-6.987,1-9.982,2.87-5.49,3.244-7.486,8.484-3.868,16.844,8.859,20.712,29.945,2.745,33.189-1C480.5,376.624,482.991,369.387,483.49,367.391Z" transform="translate(-442.236 -352.829)" fill="#0e2e35"/><path d="M466.249,372.4s-4.242.5-6.737,3.244,4.117,24.7,4.492,28.2c.5,3.493-4.367,13.1-4.367,13.1s16.345,3.244,20.587.5c0,0,.374-26.826-.125-29.321s-4.242-12.6-5.115-13.6C474.11,373.4,466.249,372.4,466.249,372.4Z" transform="translate(-438.095 -347.981)" fill="#f7cc7f"/><path d="M466.971,365.725a1.966,1.966,0,0,1-.125.5c-.25,1.5-1.372,6.613-2.121,7.985-.873,1.622,2.995,6.987,6.862,6.363,1.123-.249-1-4.866-.873-5.365.249-1,.5-2.246.749-3.618a14.492,14.492,0,0,1,.5-2.246c.374-2,.749-3.743.749-3.743Z" transform="translate(-436.696 -349.666)" fill="#f7a491"/><path d="M466.45,366.224a.729.729,0,0,1,.125-.5l5.615-.125s-.374,1.622-.749,3.743a14.51,14.51,0,0,1-.5,2.246,5.171,5.171,0,0,1-2.745-1.373,6.684,6.684,0,0,1-2-2.994C466.325,366.723,466.45,366.349,466.45,366.224Z" transform="translate(-436.299 -349.666)" fill="#f47458" opacity="0.5"/><path d="M470.363,354.9a6.862,6.862,0,0,0-3.993,2.5c-1.622,2.121-3.493,8.859.624,12.477s8.235-.5,8.859-4.866C476.6,360.641,476.477,354.652,470.363,354.9Z" transform="translate(-436.719 -352.318)" fill="#f7a491"/><path d="M475.14,362.549c-.25,1-1,1.747-1.5,1.622-.624-.125-.873-1.123-.624-2.246.25-1,1-1.747,1.5-1.622C475.14,360.552,475.39,361.55,475.14,362.549Z" transform="translate(-434.634 -350.981)" fill="#f7a491"/><path d="M473.455,354.926s-5.49,6.239-7.985,6.488-2.87,3.618-2.87,3.618.873-7.736,3.494-9.233C468.464,354.3,473.455,354.926,473.455,354.926Z" transform="translate(-437.191 -352.342)" fill="#0e2e35"/><path d="M466.033,361.65a2.071,2.071,0,0,1-.873,2.371c-.749.125-1.5-.624-1.747-1.747a2.072,2.072,0,0,1,.873-2.371C465.16,359.778,465.909,360.527,466.033,361.65Z" transform="translate(-437.006 -351.08)" fill="#f7a491"/><path d="M466.392,386.7l17.593,2.62a1.2,1.2,0,0,1,.873,1.123L481.489,413.9a1.2,1.2,0,0,1-1.123.873l-17.593-2.62a1.2,1.2,0,0,1-.873-1.123l3.369-23.457A.972.972,0,0,1,466.392,386.7Z" transform="translate(-437.364 -344.444)" fill="#184655"/><path d="M477.561,387.872c0-.125,0-.249-.125-.249l-7.362-1.123c-.125,0-.249,0-.249.125l-.125.749,7.736,1.123Z" transform="translate(-435.432 -344.488)" fill="#13375b"/><path d="M473.276,386.3a1.2,1.2,0,1,0,1,1.372A1.111,1.111,0,0,0,473.276,386.3Zm-.25,1.872a.759.759,0,1,1,.873-.624A.938.938,0,0,1,473.027,388.175Z" transform="translate(-434.891 -344.542)" fill="#13375b"/><path d="M477.441,387.525c.125,0,.125.125.125.25l-.125.749L469.7,387.4a.972.972,0,0,0,.874,1.123l5.864.873a.972.972,0,0,0,1.123-.873l.125-.749C477.565,387.525,477.565,387.525,477.441,387.525Z" transform="translate(-435.437 -344.266)" fill="#355389"/><path d="M472.393,364.7H468.4a1.869,1.869,0,0,0,1.872,1.622C472.393,366.322,472.393,364.7,472.393,364.7Z" transform="translate(-435.754 -349.889)" fill="#fff"/><path d="M455.6,391.5l6.363.624s-.125,5.365,0,5.989c0,0,10.855,2.995,15.472,3.868,0,0,2.121-1.123,2.87-1.5a29.64,29.64,0,0,1,3.618-.873c.5-.125.374.5-.125.624-.374.25-1.5.749-1.872,1.373a2.91,2.91,0,0,0,1.373-.125c.5-.25,1.123-.624,1.123-.873s.125-.749.25-.749a1.258,1.258,0,0,1,.125.374c0,.125.125.374.125.5.125.374.125.873.249,1a15.275,15.275,0,0,1-.249,2.371,1.888,1.888,0,0,1-.749,1.5,12.089,12.089,0,0,1-2.745.5,16.442,16.442,0,0,1-4.991-.5c-.874-.125-14.723-1.5-14.723-1.5s-5.49-.749-5.864-1.747C455.479,401.606,455.6,391.5,455.6,391.5Z" transform="translate(-438.929 -343.25)" fill="#f7a491"/><path d="M461.164,374.419s-2,1-3.743,5.116c-1.622,3.868-2.121,23.457-2.121,23.457l6.613-1.123,3.369-9.108a16.844,16.844,0,0,0-1.747-16.595C462.661,374.793,461.788,374.045,461.164,374.419Z" transform="translate(-438.999 -347.505)" fill="#f7cc7f"/></g><rect width="28.198" height="28.198" transform="translate(306.438 123.773)" fill="#9bc1f9" opacity="0.6"/><rect width="55.149" height="3.868" transform="translate(339.627 123.773)" fill="#9bc1f9" opacity="0.6"/><rect width="37.182" height="3.868" transform="translate(339.627 131.883)" fill="#9bc1f9" opacity="0.6"/><rect width="49.534" height="3.868" transform="translate(339.627 139.993)" fill="#9bc1f9" opacity="0.6"/><g transform="translate(299.669 131.673)"><path d="M637.437,374.431c-1.123-1-10.106,2.995-9.981,4.367s-6.239,14.6-6.239,14.6l-10.98-8.734h0c-.125-.374-1.123-3.743-1.248-4.367,0-.624-1.872-1.747-2.745-1.622s.748,1.248.873,1.5c.25.5-.873.749-.873.749s-3.12-1-3.244-2-2.246,1.747-2,2.121,5.365,4.492,6.114,5.365c0,0,14.224,16.22,15.222,16.595.873.374,3.993-5.24,6.987-8.984C632.446,390.527,641.056,377.426,637.437,374.431Z" transform="translate(-523.366 -288.629)" fill="#f7a491"/><path d="M653.327,471.065s2,1.872,2,2.62.125,8.235-.624,8.859c-.749.749-3.119,1.248-2.371,2,.624.624,4.991.5,7.861.25.874,0,1.872-6.738,2.246-7.736.5-1.5,1.622-4.741,1.248-5.739a7.851,7.851,0,0,0-2.745-2.371,14.1,14.1,0,0,1-2.995-3.244Z" transform="translate(-510.683 -265.981)" fill="#f48c7f"/><path d="M638.462,473.525s1.747,4.866,1.747,4.991c.125.749.624,2.745.624,3.369,0,2.62-11.978-2.246-9.358-3.494a3.2,3.2,0,0,0,1.123-1.872,6.213,6.213,0,0,0-1-3.119Z" transform="translate(-515.906 -264.074)" fill="#f7a491"/><g transform="translate(100.383 117.744)"><path d="M622.437,400s-.873,8.859-.873,8.983c0,14.349-2.87,42.173-2.246,44.918,1.372,6.613,15.472,39.927,15.472,39.927l7.611-.873-8.235-40.426,1.872-15.721,5.24-31.817Z" transform="translate(-619.229 -400)" fill="#50bfa5"/><path d="M647.057,407.613l1.5,8.36,3.868,34.437L667.395,484.1s-2.121,4.866-5.24,5.615l-23.831-34.562L623.6,410.857l.5-9.857Z" transform="translate(-618.146 -399.752)" fill="#96d9c9"/></g><path d="M619.4,387.683l10.605,1.123s.5-8.734.5-12.851c0-4.991-.374-11.479-1-11.354a9.135,9.135,0,0,0-5.365,3.244C619.4,374.333,619.4,387.683,619.4,387.683Z" transform="translate(-518.804 -291.025)" fill="#b75742"/><path d="M624.442,375.174c-.249,1.5-4.242,43.171-4.242,43.171,19.339,9.358,29.945,1.622,29.945,1.622s-.624-29.321.125-33.314c.5-2.62,1.123-20.213-.624-20.587a55.9,55.9,0,0,0-7.486-1.622c-2.371-.25-11.479-.374-13.1.125A21.972,21.972,0,0,0,624.442,375.174Z" transform="translate(-518.606 -291.118)" fill="#f47458"/><path d="M660.969,468.2s-4.492,12.6-6.239,13.226c-.5.125-2.745.624-3.119,1.622a4.084,4.084,0,0,0,0,1.248h9.358s1.123-5.615,1.622-7.985c0,0,2.5-5.989,2.246-6.488S660.969,468.2,660.969,468.2Z" transform="translate(-510.839 -265.362)" fill="#f47458"/><path d="M643.31,481.767l-1.372-4.367s-2.87,1.248-4.367,1-4.242-1-4.242-1c-5.74,1.872-10.481,2.87-9.607,4.367H643.31Z" transform="translate(-517.759 -263.083)" fill="#f47458"/><g transform="translate(97.851 103.645)"><path d="M618.448,399.555s-.25-.125-.25-.25c.374-4.117.25-7.985-1-9.358a5.208,5.208,0,0,1,.624-1.248c1.5,1.123,2.246,4.242,1.872,9.108a2.934,2.934,0,0,1-.25,1C619.072,399.306,618.7,399.68,618.448,399.555Z" transform="translate(-617.2 -388.7)" fill="#f7a491"/></g><path d="M637.145,358.207l1.248,8.235s-4.492,9.732-7.237,8.859c-2.246-.749-.873-9.358-.873-9.358s1.248-4.616.873-6.987S637.145,358.207,637.145,358.207Z" transform="translate(-516.211 -292.743)" fill="#f7a491"/><path d="M630.95,358.956c-.374-2.371,5.989-.749,5.989-.749l.125.624a1.816,1.816,0,0,1-.749,1.123,8.064,8.064,0,0,1-5.615,2.5A11.529,11.529,0,0,0,630.95,358.956Z" transform="translate(-516.005 -292.742)" fill="#f47458"/><g transform="translate(111.141 47.067)"><path d="M638.767,349.3c.125-.125,1.5,9.358-1,11.978-2.371,2.62-7.112,3.494-8.734,1.372-1.871-2.246-1.747-12.352,2-14.973C634.65,344.935,638.767,349.3,638.767,349.3Z" transform="translate(-627.851 -342.507)" fill="#f7a491"/><path d="M632.142,343.411a11.216,11.216,0,0,1,5.49,3.119c1.372.125,3.119.873,4.991,3.868a7.729,7.729,0,0,1-2,9.982,5.988,5.988,0,0,0-2.62,4.367l-.374-1.248a10.627,10.627,0,0,1-.374-2.87,3.982,3.982,0,0,1,.374-1.747c.624-1.372-1.372-2.246-1.872-3.369-.374-.873-.5-2.87-1.123-4.367l-.749-1.123a4.86,4.86,0,0,0-3.743-1C628.149,349.525,628.4,342.663,632.142,343.411Z" transform="translate(-627.589 -343.354)" fill="#0e2e35"/><path d="M634.4,354.9c0,1.123.5,2.121,1.123,2.121s1.248-.873,1.248-2-.5-2.121-1.123-2.121C635.024,352.778,634.4,353.651,634.4,354.9Z" transform="translate(-626.229 -340.992)" fill="#f7a491"/></g><path d="M632.018,356.65l-3.618-.25a1.571,1.571,0,0,0,1.622,1.5C631.894,358.147,632.018,356.65,632.018,356.65Z" transform="translate(-516.575 -293.056)" fill="#fff"/><g transform="translate(0 0)"><path d="M608.02,374.345a24.972,24.972,0,0,0,2.371-2.745l15.846,15.472c1,1,.624,2.87-.749,4.242s-3.244,1.747-4.242.873L605.4,376.716C606.273,375.967,607.147,375.218,608.02,374.345Z" transform="translate(-522.272 -289.291)" fill="#0e2e35"/><ellipse cx="39.927" cy="40.176" rx="39.927" ry="40.176" transform="translate(0 57.119) rotate(-45.669)" fill="#c5ddf9" opacity="0.6"/><path d="M620.949,384.52A40.631,40.631,0,0,1,595.5,397l-43.3-44.044v-.25a40.141,40.141,0,0,1,12.6-25.2Z" transform="translate(-535.45 -300.215)" fill="#fff"/><path d="M587.815,318.9l40.051,40.675c0,1.248-.125,2.5-.25,3.743a40.246,40.246,0,0,1-4.991,15.6l-54.026-54.9A38.427,38.427,0,0,1,587.815,318.9Z" transform="translate(-531.388 -302.345)" fill="#fff"/><path d="M561.738,392.277a45.088,45.088,0,1,0-1-64.008A45.41,45.41,0,0,0,561.738,392.277Zm3.618-3.743a39.926,39.926,0,1,1,56.646-.5A40.145,40.145,0,0,1,565.357,388.534Z" transform="translate(-536.504 -303.355)" fill="#184655"/><path d="M563.058,389.76a42.4,42.4,0,1,0-.873-60.14A42.548,42.548,0,0,0,563.058,389.76Zm1.747-1.747a39.926,39.926,0,1,1,56.646-.5A40.144,40.144,0,0,1,564.805,388.014Z" transform="translate(-535.952 -302.835)" fill="#50bfa5" opacity="0.5"/><path d="M672.759,439.557l2.5-2.5a6.478,6.478,0,0,0-.125-9.108l-45.666-44.294a6.478,6.478,0,0,0-9.108.125l-2.5,2.5a6.478,6.478,0,0,0,.125,9.108l45.666,44.294A6.478,6.478,0,0,0,672.759,439.557Z" transform="translate(-519.634 -286.752)" fill="#184655"/></g><path d="M663.265,416.893v-.25c-.25-2.87-2.62-27.075-3.119-28.2-.374-.873-11.1-16.345-11.1-16.345l-5.24,7.237,10.356,13.85c.25.874,3.993,17.218,3.993,17.218s.749,2.995,1.123,4.741a3.079,3.079,0,0,1-.5,1.123,10.6,10.6,0,0,1-1.123,1.747,12.482,12.482,0,0,0-1.372,2.371c-.125.374-.249,1.248-.374,1.872a8.149,8.149,0,0,0-.25,1.372,4.1,4.1,0,0,1-.374.749.416.416,0,0,0,.5.624c.374-.125.624-.624.873-.873.5-.873.749-2.371.873-2.371a21.149,21.149,0,0,1,.624,2.995c.125.25.624,3.369.874,3.993s.749.5.749.125c.125-.249-.374-4.617-.374-4.617s0-.5.25-.374.624,4.117.749,4.617c.125.624.5.873.873.374s-.25-4.741-.25-4.741-.125-.5.125-.5.5,3.369.624,3.618a.488.488,0,0,0,.873-.125c.25-.624-.374-4.242-.374-4.242s0-.25.125-.25c.125.125.624,2.87.874,3.119a.345.345,0,0,0,.5,0c.5-.374-.249-2.994-.249-4.367s-.624-2.87-.374-4.367C663.265,417.267,663.265,417.018,663.265,416.893Z" transform="translate(-512.76 -289.167)" fill="#f8a492"/><path d="M658.465,383.523l-9.233,6.114s-5.115-7.736-7.985-10.481c-3.494-3.494,1.248-13.974,3.494-13.351C649.856,367.178,658.465,383.523,658.465,383.523Z" transform="translate(-513.7 -290.733)" fill="#f47458"/></g><rect width="456.911" height="2.745" transform="translate(6.363 349.608)" fill="#0e2e35"/></svg>