<svg xmlns="http://www.w3.org/2000/svg" xmlns:xlink="http://www.w3.org/1999/xlink" width="925" height="539" viewBox="0 0 925 539"><defs><clipPath id="a"><rect width="161.145" height="61.016" fill="none"/></clipPath></defs><g transform="translate(-495 -7080.282)"><rect width="925" height="539" transform="translate(495 7080.282)" fill="#f6f6f6"/><rect width="338.843" height="94" rx="12" transform="translate(1031.157 7200.956)" fill="#b2dcff"/><rect width="338.843" height="103" rx="12" transform="translate(1031.157 7392.607)" fill="#b2dcff"/><path d="M8.032,6.12h-3.2V15H3.527V6.12H.335V5.047h7.7Zm4.348,9.017a3.232,3.232,0,0,1-2.447-.988,3.666,3.666,0,0,1-.943-2.642v-.232a4.438,4.438,0,0,1,.42-1.965,3.28,3.28,0,0,1,1.176-1.354,2.956,2.956,0,0,1,1.637-.489,2.77,2.77,0,0,1,2.242.95,4.114,4.114,0,0,1,.8,2.721v.526H10.254a2.629,2.629,0,0,0,.639,1.767,2.009,2.009,0,0,0,1.555.673,2.2,2.2,0,0,0,1.135-.273,2.851,2.851,0,0,0,.813-.725l.772.6A3.106,3.106,0,0,1,12.38,15.137Zm-.157-6.631a1.687,1.687,0,0,0-1.285.557,2.708,2.708,0,0,0-.643,1.562H14v-.1a2.409,2.409,0,0,0-.52-1.494A1.588,1.588,0,0,0,12.223,8.506Zm5.7-.9.041.93A2.7,2.7,0,0,1,20.18,7.467q2.345,0,2.365,2.646V15H21.28V10.105a1.7,1.7,0,0,0-.366-1.183A1.466,1.466,0,0,0,19.8,8.54a1.825,1.825,0,0,0-1.08.328,2.228,2.228,0,0,0-.725.861V15H16.728V7.6Zm9.6,7.533a3.232,3.232,0,0,1-2.447-.988,3.666,3.666,0,0,1-.943-2.642v-.232a4.438,4.438,0,0,1,.42-1.965,3.28,3.28,0,0,1,1.176-1.354,2.956,2.956,0,0,1,1.637-.489,2.77,2.77,0,0,1,2.242.95,4.114,4.114,0,0,1,.8,2.721v.526H25.4a2.629,2.629,0,0,0,.639,1.767,2.009,2.009,0,0,0,1.555.673,2.2,2.2,0,0,0,1.135-.273,2.851,2.851,0,0,0,.813-.725l.772.6A3.106,3.106,0,0,1,27.521,15.137Zm-.157-6.631a1.687,1.687,0,0,0-1.285.557,2.708,2.708,0,0,0-.643,1.562h3.705v-.1a2.409,2.409,0,0,0-.52-1.494A1.588,1.588,0,0,0,27.364,8.506Zm8.08.232a3.79,3.79,0,0,0-.622-.048,1.667,1.667,0,0,0-1.688,1.06V15H31.869V7.6H33.1l.021.854a1.969,1.969,0,0,1,1.764-.991,1.292,1.292,0,0,1,.561.1Zm4.327,2.5a4.347,4.347,0,0,1,.8-2.751A2.757,2.757,0,0,1,44.8,8.424l.062-.82H46.02v7.219a3.009,3.009,0,0,1-.851,2.263,3.141,3.141,0,0,1-2.287.827,3.8,3.8,0,0,1-1.565-.342,2.7,2.7,0,0,1-1.169-.937l.656-.759a2.473,2.473,0,0,0,1.989,1,1.938,1.938,0,0,0,1.439-.52,1.986,1.986,0,0,0,.516-1.463v-.636a2.6,2.6,0,0,1-2.071.875,2.526,2.526,0,0,1-2.1-1.046A4.571,4.571,0,0,1,39.771,11.24Zm1.271.144a3.316,3.316,0,0,0,.513,1.965,1.666,1.666,0,0,0,1.436.714,1.852,1.852,0,0,0,1.757-1.087V9.6A1.874,1.874,0,0,0,43,8.54a1.681,1.681,0,0,0-1.442.718A3.612,3.612,0,0,0,41.043,11.384ZM51.5,8.738a3.79,3.79,0,0,0-.622-.048,1.667,1.667,0,0,0-1.688,1.06V15H47.927V7.6h1.23l.021.854a1.969,1.969,0,0,1,1.764-.991,1.292,1.292,0,0,1,.561.1ZM56.957,15a2.657,2.657,0,0,1-.178-.779,2.822,2.822,0,0,1-2.105.916,2.611,2.611,0,0,1-1.794-.619,2,2,0,0,1-.7-1.569,2.091,2.091,0,0,1,.878-1.794,4.142,4.142,0,0,1,2.471-.639h1.23V9.935a1.42,1.42,0,0,0-.4-1.056,1.593,1.593,0,0,0-1.169-.393,1.844,1.844,0,0,0-1.135.342,1.007,1.007,0,0,0-.458.827H52.329a1.745,1.745,0,0,1,.393-1.07,2.683,2.683,0,0,1,1.066-.817,3.588,3.588,0,0,1,1.48-.3,2.924,2.924,0,0,1,2,.639,2.306,2.306,0,0,1,.752,1.76v3.4a4.162,4.162,0,0,0,.26,1.62V15Zm-2.1-.964a2.223,2.223,0,0,0,1.128-.308,1.861,1.861,0,0,0,.772-.8V11.411h-.991q-2.324,0-2.324,1.36a1.151,1.151,0,0,0,.4.93A1.524,1.524,0,0,0,54.858,14.036ZM61.2,7.6l.041.93a2.7,2.7,0,0,1,2.215-1.066q2.345,0,2.365,2.646V15H64.559V10.105a1.7,1.7,0,0,0-.366-1.183,1.466,1.466,0,0,0-1.118-.383A1.825,1.825,0,0,0,62,8.868a2.228,2.228,0,0,0-.725.861V15H60.006V7.6Zm12.961,6.5a1.822,1.822,0,0,0,1.183-.41,1.443,1.443,0,0,0,.561-1.025h1.2a2.293,2.293,0,0,1-.437,1.21,2.882,2.882,0,0,1-1.077.916,3.107,3.107,0,0,1-1.425.342,3.047,3.047,0,0,1-2.4-1.008,4.016,4.016,0,0,1-.892-2.758v-.212a4.453,4.453,0,0,1,.4-1.921A3.02,3.02,0,0,1,72.4,7.932a3.233,3.233,0,0,1,1.753-.465,2.966,2.966,0,0,1,2.068.745,2.663,2.663,0,0,1,.878,1.935h-1.2a1.743,1.743,0,0,0-.543-1.179,1.691,1.691,0,0,0-1.207-.461,1.77,1.77,0,0,0-1.494.694,3.259,3.259,0,0,0-.53,2.006v.239a3.194,3.194,0,0,0,.526,1.969A1.779,1.779,0,0,0,74.163,14.1Zm4.026-2.871a4.369,4.369,0,0,1,.427-1.955,3.187,3.187,0,0,1,1.189-1.34,3.238,3.238,0,0,1,1.74-.472A3.119,3.119,0,0,1,83.99,8.513a4.024,4.024,0,0,1,.933,2.782v.089a4.407,4.407,0,0,1-.414,1.938,3.14,3.14,0,0,1-1.183,1.336,3.275,3.275,0,0,1-1.767.479,3.111,3.111,0,0,1-2.437-1.046,4,4,0,0,1-.933-2.769Zm1.271.15a3.164,3.164,0,0,0,.571,1.976,1.934,1.934,0,0,0,3.059-.01,3.46,3.46,0,0,0,.567-2.116,3.159,3.159,0,0,0-.578-1.972,1.836,1.836,0,0,0-1.535-.755,1.816,1.816,0,0,0-1.511.745A3.435,3.435,0,0,0,79.461,11.384ZM87.7,7.6l.034.82a2.732,2.732,0,0,1,2.194-.957,2.115,2.115,0,0,1,2.112,1.189A2.8,2.8,0,0,1,93,7.795a2.837,2.837,0,0,1,1.4-.328q2.434,0,2.475,2.577V15H95.607V10.119a1.7,1.7,0,0,0-.362-1.186,1.6,1.6,0,0,0-1.217-.393,1.677,1.677,0,0,0-1.169.42,1.706,1.706,0,0,0-.54,1.131V15H91.048V10.153A1.411,1.411,0,0,0,89.469,8.54a1.692,1.692,0,0,0-1.7,1.06V15H86.5V7.6Zm17.329,3.78a4.429,4.429,0,0,1-.772,2.721,2.476,2.476,0,0,1-2.092,1.032,2.713,2.713,0,0,1-2.119-.854v3.562H98.779V7.6h1.155l.062.82a2.605,2.605,0,0,1,2.146-.957,2.522,2.522,0,0,1,2.109,1,4.477,4.477,0,0,1,.776,2.8Zm-1.265-.144a3.268,3.268,0,0,0-.533-1.976,1.718,1.718,0,0,0-1.463-.725,1.859,1.859,0,0,0-1.723,1.019v3.534A1.863,1.863,0,0,0,101.78,14.1a1.71,1.71,0,0,0,1.446-.721A3.567,3.567,0,0,0,103.763,11.24ZM111.2,15a2.657,2.657,0,0,1-.178-.779,2.822,2.822,0,0,1-2.105.916,2.611,2.611,0,0,1-1.794-.619,2,2,0,0,1-.7-1.569,2.091,2.091,0,0,1,.878-1.794,4.141,4.141,0,0,1,2.471-.639H111V9.935a1.42,1.42,0,0,0-.4-1.056,1.593,1.593,0,0,0-1.169-.393,1.844,1.844,0,0,0-1.135.342,1.007,1.007,0,0,0-.458.827h-1.271a1.745,1.745,0,0,1,.393-1.07,2.683,2.683,0,0,1,1.066-.817,3.588,3.588,0,0,1,1.48-.3,2.924,2.924,0,0,1,2,.639,2.306,2.306,0,0,1,.752,1.76v3.4a4.162,4.162,0,0,0,.26,1.62V15Zm-2.1-.964a2.223,2.223,0,0,0,1.128-.308,1.861,1.861,0,0,0,.772-.8V11.411h-.991q-2.324,0-2.324,1.36a1.151,1.151,0,0,0,.4.93A1.524,1.524,0,0,0,109.1,14.036Zm6.863-8.224V7.6h1.381v.978h-1.381v4.593a1.027,1.027,0,0,0,.185.667.777.777,0,0,0,.629.222,3.062,3.062,0,0,0,.6-.082V15a3.688,3.688,0,0,1-.971.136,1.575,1.575,0,0,1-1.278-.513,2.2,2.2,0,0,1-.431-1.456V8.581h-1.347V7.6H114.7V5.813ZM120.2,15h-1.265V7.6H120.2Zm-1.367-9.358a.755.755,0,0,1,.188-.52.706.706,0,0,1,.557-.212.717.717,0,0,1,.561.212.747.747,0,0,1,.191.52.722.722,0,0,1-.191.513.73.73,0,0,1-.561.205.718.718,0,0,1-.557-.205A.73.73,0,0,1,118.829,5.642Zm9.652,5.742a4.4,4.4,0,0,1-.779,2.724,2.49,2.49,0,0,1-2.092,1.029,2.578,2.578,0,0,1-2.167-.991l-.062.854H122.22V4.5h1.265V8.417a2.564,2.564,0,0,1,2.112-.95,2.505,2.505,0,0,1,2.116,1.019,4.53,4.53,0,0,1,.769,2.789Zm-1.265-.144a3.417,3.417,0,0,0-.5-2,1.652,1.652,0,0,0-1.436-.7,1.857,1.857,0,0,0-1.8,1.162v3.2a1.909,1.909,0,0,0,1.812,1.162,1.643,1.643,0,0,0,1.415-.7A3.634,3.634,0,0,0,127.217,11.24ZM131.448,15h-1.265V7.6h1.265Zm-1.367-9.358a.755.755,0,0,1,.188-.52.706.706,0,0,1,.557-.212.717.717,0,0,1,.561.212.747.747,0,0,1,.191.52.722.722,0,0,1-.191.513.73.73,0,0,1-.561.205.718.718,0,0,1-.557-.205A.73.73,0,0,1,130.081,5.642ZM134.846,15h-1.265V4.5h1.265Zm3.4,0h-1.265V7.6h1.265Zm-1.367-9.358a.755.755,0,0,1,.188-.52.706.706,0,0,1,.557-.212.717.717,0,0,1,.561.212.747.747,0,0,1,.191.52.722.722,0,0,1-.191.513.73.73,0,0,1-.561.205.718.718,0,0,1-.557-.205A.73.73,0,0,1,136.876,5.642Zm3.083,5.6a4.333,4.333,0,0,1,.807-2.738,2.745,2.745,0,0,1,4.17-.147V4.5H146.2V15h-1.162l-.062-.793a2.575,2.575,0,0,1-2.112.93,2.526,2.526,0,0,1-2.1-1.053,4.382,4.382,0,0,1-.81-2.748Zm1.265.144a3.281,3.281,0,0,0,.52,1.969,1.68,1.68,0,0,0,1.436.711,1.845,1.845,0,0,0,1.757-1.08v-3.4a1.859,1.859,0,0,0-1.743-1.046,1.687,1.687,0,0,0-1.449.718A3.612,3.612,0,0,0,141.224,11.384ZM152.729,15a2.657,2.657,0,0,1-.178-.779,2.822,2.822,0,0,1-2.105.916,2.611,2.611,0,0,1-1.794-.619,2,2,0,0,1-.7-1.569,2.091,2.091,0,0,1,.878-1.794,4.142,4.142,0,0,1,2.471-.639h1.23V9.935a1.42,1.42,0,0,0-.4-1.056,1.593,1.593,0,0,0-1.169-.393,1.844,1.844,0,0,0-1.135.342,1.007,1.007,0,0,0-.458.827H148.1a1.745,1.745,0,0,1,.393-1.07,2.683,2.683,0,0,1,1.066-.817,3.588,3.588,0,0,1,1.48-.3,2.924,2.924,0,0,1,2,.639,2.306,2.306,0,0,1,.752,1.76v3.4a4.162,4.162,0,0,0,.26,1.62V15Zm-2.1-.964a2.223,2.223,0,0,0,1.128-.308,1.861,1.861,0,0,0,.772-.8V11.411h-.991q-2.324,0-2.324,1.36a1.151,1.151,0,0,0,.4.93A1.524,1.524,0,0,0,150.63,14.036Zm4.84-2.8a4.333,4.333,0,0,1,.807-2.738,2.745,2.745,0,0,1,4.17-.147V4.5h1.265V15h-1.162l-.062-.793a2.575,2.575,0,0,1-2.112.93,2.526,2.526,0,0,1-2.1-1.053,4.382,4.382,0,0,1-.81-2.748Zm1.265.144a3.281,3.281,0,0,0,.52,1.969,1.68,1.68,0,0,0,1.436.711,1.845,1.845,0,0,0,1.757-1.08v-3.4A1.859,1.859,0,0,0,158.7,8.54a1.687,1.687,0,0,0-1.449.718A3.612,3.612,0,0,0,156.734,11.384ZM170.105,14.1a1.822,1.822,0,0,0,1.183-.41,1.443,1.443,0,0,0,.561-1.025h1.2a2.293,2.293,0,0,1-.437,1.21,2.881,2.881,0,0,1-1.077.916,3.107,3.107,0,0,1-1.425.342,3.047,3.047,0,0,1-2.4-1.008,4.016,4.016,0,0,1-.892-2.758v-.212a4.453,4.453,0,0,1,.4-1.921,3.02,3.02,0,0,1,1.138-1.306,3.233,3.233,0,0,1,1.753-.465,2.966,2.966,0,0,1,2.068.745,2.663,2.663,0,0,1,.878,1.935h-1.2a1.743,1.743,0,0,0-.543-1.179,1.691,1.691,0,0,0-1.207-.461A1.77,1.77,0,0,0,168.6,9.2a3.259,3.259,0,0,0-.53,2.006v.239a3.194,3.194,0,0,0,.526,1.969A1.779,1.779,0,0,0,170.105,14.1Zm4.026-2.871a4.369,4.369,0,0,1,.427-1.955,3.187,3.187,0,0,1,1.189-1.34,3.238,3.238,0,0,1,1.74-.472,3.119,3.119,0,0,1,2.444,1.046,4.024,4.024,0,0,1,.933,2.782v.089a4.407,4.407,0,0,1-.414,1.938,3.14,3.14,0,0,1-1.183,1.336,3.275,3.275,0,0,1-1.767.479,3.111,3.111,0,0,1-2.437-1.046,4,4,0,0,1-.933-2.769Zm1.271.15a3.164,3.164,0,0,0,.571,1.976,1.934,1.934,0,0,0,3.059-.01,3.46,3.46,0,0,0,.567-2.116,3.159,3.159,0,0,0-.578-1.972,1.836,1.836,0,0,0-1.535-.755,1.816,1.816,0,0,0-1.511.745A3.435,3.435,0,0,0,175.4,11.384Zm8.244-3.78.041.93A2.7,2.7,0,0,1,185.9,7.467q2.345,0,2.365,2.646V15H187V10.105a1.7,1.7,0,0,0-.366-1.183,1.466,1.466,0,0,0-1.118-.383,1.825,1.825,0,0,0-1.08.328,2.228,2.228,0,0,0-.725.861V15h-1.265V7.6Zm9.687,3.637a4.333,4.333,0,0,1,.807-2.738,2.745,2.745,0,0,1,4.17-.147V4.5h1.265V15h-1.162l-.062-.793a2.575,2.575,0,0,1-2.112.93,2.526,2.526,0,0,1-2.1-1.053,4.382,4.382,0,0,1-.81-2.748Zm1.265.144a3.281,3.281,0,0,0,.52,1.969,1.68,1.68,0,0,0,1.436.711,1.845,1.845,0,0,0,1.757-1.08v-3.4a1.859,1.859,0,0,0-1.743-1.046,1.687,1.687,0,0,0-1.449.718A3.612,3.612,0,0,0,194.6,11.384ZM202.911,15h-1.265V7.6h1.265Zm-1.367-9.358a.755.755,0,0,1,.188-.52.706.706,0,0,1,.557-.212.717.717,0,0,1,.561.212.747.747,0,0,1,.191.52.722.722,0,0,1-.191.513.73.73,0,0,1-.561.205.718.718,0,0,1-.557-.205A.73.73,0,0,1,201.544,5.642Zm5.831,7.643L209.207,7.6H210.5L207.847,15h-.964L204.2,7.6H205.5Zm7.41,1.853a3.232,3.232,0,0,1-2.447-.988,3.666,3.666,0,0,1-.943-2.642v-.232a4.438,4.438,0,0,1,.42-1.965,3.279,3.279,0,0,1,1.176-1.354,2.956,2.956,0,0,1,1.637-.489,2.77,2.77,0,0,1,2.242.95,4.114,4.114,0,0,1,.8,2.721v.526h-5.011a2.629,2.629,0,0,0,.639,1.767,2.009,2.009,0,0,0,1.555.673,2.2,2.2,0,0,0,1.135-.273,2.851,2.851,0,0,0,.813-.725l.772.6A3.106,3.106,0,0,1,214.785,15.137Zm-.157-6.631a1.687,1.687,0,0,0-1.285.557,2.708,2.708,0,0,0-.643,1.562h3.705v-.1a2.409,2.409,0,0,0-.52-1.494A1.588,1.588,0,0,0,214.628,8.506Zm8.08.232a3.79,3.79,0,0,0-.622-.048A1.667,1.667,0,0,0,220.4,9.75V15h-1.265V7.6h1.23l.021.854a1.969,1.969,0,0,1,1.764-.991,1.292,1.292,0,0,1,.561.1Zm5.469,4.3a.931.931,0,0,0-.386-.8,3.718,3.718,0,0,0-1.347-.489,6.367,6.367,0,0,1-1.524-.492,2.169,2.169,0,0,1-.834-.684,1.635,1.635,0,0,1-.27-.943,1.919,1.919,0,0,1,.769-1.538,3,3,0,0,1,1.965-.629,3.091,3.091,0,0,1,2.041.649,2.063,2.063,0,0,1,.783,1.661H228.1a1.142,1.142,0,0,0-.441-.9,1.652,1.652,0,0,0-1.111-.376,1.729,1.729,0,0,0-1.08.3.947.947,0,0,0-.39.786.767.767,0,0,0,.362.69,4.458,4.458,0,0,0,1.309.444,6.821,6.821,0,0,1,1.535.506,2.239,2.239,0,0,1,.872.708,1.74,1.74,0,0,1,.284,1.008,1.893,1.893,0,0,1-.793,1.589,3.326,3.326,0,0,1-2.058.6,3.725,3.725,0,0,1-1.572-.314,2.557,2.557,0,0,1-1.07-.878,2.117,2.117,0,0,1-.386-1.22h1.265a1.309,1.309,0,0,0,.509,1.008,1.976,1.976,0,0,0,1.254.373,2.039,2.039,0,0,0,1.152-.291A.893.893,0,0,0,228.177,13.038ZM232.463,15H231.2V7.6h1.265ZM231.1,5.642a.755.755,0,0,1,.188-.52.706.706,0,0,1,.557-.212.717.717,0,0,1,.561.212.747.747,0,0,1,.191.52.722.722,0,0,1-.191.513.73.73,0,0,1-.561.205.718.718,0,0,1-.557-.205A.73.73,0,0,1,231.1,5.642Zm3.083,5.6a4.333,4.333,0,0,1,.807-2.738,2.745,2.745,0,0,1,4.17-.147V4.5h1.265V15h-1.162l-.062-.793a2.575,2.575,0,0,1-2.112.93,2.526,2.526,0,0,1-2.1-1.053,4.382,4.382,0,0,1-.81-2.748Zm1.265.144a3.281,3.281,0,0,0,.52,1.969,1.68,1.68,0,0,0,1.436.711,1.845,1.845,0,0,0,1.757-1.08v-3.4a1.859,1.859,0,0,0-1.743-1.046,1.687,1.687,0,0,0-1.449.718A3.612,3.612,0,0,0,235.443,11.384ZM246.948,15a2.657,2.657,0,0,1-.178-.779,2.822,2.822,0,0,1-2.105.916,2.611,2.611,0,0,1-1.794-.619,2,2,0,0,1-.7-1.569,2.091,2.091,0,0,1,.878-1.794,4.142,4.142,0,0,1,2.471-.639h1.23V9.935a1.42,1.42,0,0,0-.4-1.056,1.593,1.593,0,0,0-1.169-.393,1.844,1.844,0,0,0-1.135.342,1.007,1.007,0,0,0-.458.827H242.32a1.745,1.745,0,0,1,.393-1.07,2.683,2.683,0,0,1,1.066-.817,3.588,3.588,0,0,1,1.48-.3,2.924,2.924,0,0,1,2,.639,2.306,2.306,0,0,1,.752,1.76v3.4a4.162,4.162,0,0,0,.26,1.62V15Zm-2.1-.964a2.223,2.223,0,0,0,1.128-.308,1.861,1.861,0,0,0,.772-.8V11.411h-.991q-2.324,0-2.324,1.36a1.151,1.151,0,0,0,.4.93A1.524,1.524,0,0,0,244.85,14.036Zm4.84-2.8A4.333,4.333,0,0,1,250.5,8.5a2.745,2.745,0,0,1,4.17-.147V4.5h1.265V15h-1.162l-.062-.793a2.575,2.575,0,0,1-2.112.93,2.526,2.526,0,0,1-2.1-1.053,4.382,4.382,0,0,1-.81-2.748Zm1.265.144a3.281,3.281,0,0,0,.52,1.969,1.68,1.68,0,0,0,1.436.711,1.845,1.845,0,0,0,1.757-1.08v-3.4a1.859,1.859,0,0,0-1.743-1.046,1.687,1.687,0,0,0-1.449.718A3.612,3.612,0,0,0,250.954,11.384Zm10.1-.144a4.333,4.333,0,0,1,.807-2.738,2.745,2.745,0,0,1,4.17-.147V4.5h1.265V15H266.13l-.062-.793a2.575,2.575,0,0,1-2.112.93,2.526,2.526,0,0,1-2.1-1.053,4.382,4.382,0,0,1-.81-2.748Zm1.265.144a3.281,3.281,0,0,0,.52,1.969,1.68,1.68,0,0,0,1.436.711,1.845,1.845,0,0,0,1.757-1.08v-3.4a1.859,1.859,0,0,0-1.743-1.046,1.687,1.687,0,0,0-1.449.718A3.612,3.612,0,0,0,262.315,11.384Zm10.008,3.753a3.232,3.232,0,0,1-2.447-.988,3.666,3.666,0,0,1-.943-2.642v-.232a4.438,4.438,0,0,1,.42-1.965,3.28,3.28,0,0,1,1.176-1.354,2.956,2.956,0,0,1,1.637-.489,2.77,2.77,0,0,1,2.242.95,4.114,4.114,0,0,1,.8,2.721v.526H270.2a2.629,2.629,0,0,0,.639,1.767,2.009,2.009,0,0,0,1.555.673,2.2,2.2,0,0,0,1.135-.273,2.851,2.851,0,0,0,.813-.725l.772.6A3.106,3.106,0,0,1,272.323,15.137Zm-.157-6.631a1.687,1.687,0,0,0-1.285.557,2.708,2.708,0,0,0-.643,1.562h3.705v-.1a2.409,2.409,0,0,0-.52-1.494A1.588,1.588,0,0,0,272.166,8.506ZM2.153,31.6l.041.93a2.7,2.7,0,0,1,2.215-1.066q2.345,0,2.365,2.646V39H5.51V34.105a1.7,1.7,0,0,0-.366-1.183,1.466,1.466,0,0,0-1.118-.383,1.825,1.825,0,0,0-1.08.328,2.228,2.228,0,0,0-.725.861V39H.957V31.6ZM13.248,39a2.657,2.657,0,0,1-.178-.779,2.822,2.822,0,0,1-2.105.916,2.611,2.611,0,0,1-1.794-.619,2,2,0,0,1-.7-1.569,2.091,2.091,0,0,1,.878-1.794,4.142,4.142,0,0,1,2.471-.639h1.23v-.581a1.42,1.42,0,0,0-.4-1.056,1.593,1.593,0,0,0-1.169-.393,1.844,1.844,0,0,0-1.135.342,1.007,1.007,0,0,0-.458.827H8.62a1.745,1.745,0,0,1,.393-1.07,2.683,2.683,0,0,1,1.066-.817,3.588,3.588,0,0,1,1.48-.3,2.924,2.924,0,0,1,2,.639,2.306,2.306,0,0,1,.752,1.76v3.4a4.162,4.162,0,0,0,.26,1.62V39Zm-2.1-.964a2.223,2.223,0,0,0,1.128-.308,1.861,1.861,0,0,0,.772-.8V35.411h-.991q-2.324,0-2.324,1.36a1.151,1.151,0,0,0,.4.93A1.524,1.524,0,0,0,11.149,38.036Zm7.485-.752L20.467,31.6h1.292L19.106,39h-.964l-2.68-7.4h1.292Zm7.41,1.853a3.232,3.232,0,0,1-2.447-.988,3.666,3.666,0,0,1-.943-2.642v-.232a4.438,4.438,0,0,1,.42-1.965,3.28,3.28,0,0,1,1.176-1.354,2.956,2.956,0,0,1,1.637-.489,2.77,2.77,0,0,1,2.242.95,4.114,4.114,0,0,1,.8,2.721v.526H23.919a2.629,2.629,0,0,0,.639,1.767,2.009,2.009,0,0,0,1.555.673,2.2,2.2,0,0,0,1.135-.273,2.851,2.851,0,0,0,.813-.725l.772.6A3.106,3.106,0,0,1,26.045,39.137Zm-.157-6.631a1.687,1.687,0,0,0-1.285.557,2.708,2.708,0,0,0-.643,1.562h3.705v-.1a2.409,2.409,0,0,0-.52-1.494A1.588,1.588,0,0,0,25.888,32.506Zm4.2,2.734a4.347,4.347,0,0,1,.8-2.751,2.757,2.757,0,0,1,4.231-.065l.062-.82H36.34v7.219a3.009,3.009,0,0,1-.851,2.263,3.141,3.141,0,0,1-2.287.827,3.8,3.8,0,0,1-1.565-.342,2.7,2.7,0,0,1-1.169-.937l.656-.759a2.473,2.473,0,0,0,1.989,1,1.938,1.938,0,0,0,1.439-.52,1.986,1.986,0,0,0,.516-1.463v-.636A2.6,2.6,0,0,1,33,39.137a2.527,2.527,0,0,1-2.1-1.046A4.571,4.571,0,0,1,30.092,35.24Zm1.271.144a3.316,3.316,0,0,0,.513,1.965,1.666,1.666,0,0,0,1.436.714,1.852,1.852,0,0,0,1.757-1.087V33.6a1.874,1.874,0,0,0-1.743-1.06,1.681,1.681,0,0,0-1.442.718A3.612,3.612,0,0,0,31.363,35.384ZM42.813,39a2.657,2.657,0,0,1-.178-.779,2.822,2.822,0,0,1-2.105.916,2.611,2.611,0,0,1-1.794-.619,2,2,0,0,1-.7-1.569,2.091,2.091,0,0,1,.878-1.794,4.142,4.142,0,0,1,2.471-.639h1.23v-.581a1.42,1.42,0,0,0-.4-1.056,1.593,1.593,0,0,0-1.169-.393,1.844,1.844,0,0,0-1.135.342,1.007,1.007,0,0,0-.458.827H38.186a1.745,1.745,0,0,1,.393-1.07,2.683,2.683,0,0,1,1.066-.817,3.588,3.588,0,0,1,1.48-.3,2.924,2.924,0,0,1,2,.639,2.306,2.306,0,0,1,.752,1.76v3.4a4.162,4.162,0,0,0,.26,1.62V39Zm-2.1-.964a2.223,2.223,0,0,0,1.128-.308,1.861,1.861,0,0,0,.772-.8V35.411h-.991q-2.324,0-2.324,1.36a1.151,1.151,0,0,0,.4.93A1.524,1.524,0,0,0,40.715,38.036Zm4.84-2.8a4.333,4.333,0,0,1,.807-2.738,2.745,2.745,0,0,1,4.17-.147V28.5H51.8V39H50.634l-.062-.793a2.575,2.575,0,0,1-2.112.93,2.526,2.526,0,0,1-2.1-1.053,4.382,4.382,0,0,1-.81-2.748Zm1.265.144a3.281,3.281,0,0,0,.52,1.969,1.68,1.68,0,0,0,1.436.711,1.845,1.845,0,0,0,1.757-1.08v-3.4a1.859,1.859,0,0,0-1.743-1.046,1.687,1.687,0,0,0-1.449.718A3.612,3.612,0,0,0,46.819,35.384Zm6.6-.15a4.369,4.369,0,0,1,.427-1.955,3.187,3.187,0,0,1,1.189-1.34,3.238,3.238,0,0,1,1.74-.472,3.119,3.119,0,0,1,2.444,1.046,4.024,4.024,0,0,1,.933,2.782v.089a4.407,4.407,0,0,1-.414,1.938,3.14,3.14,0,0,1-1.183,1.336,3.275,3.275,0,0,1-1.767.479,3.111,3.111,0,0,1-2.437-1.046,4,4,0,0,1-.933-2.769Zm1.271.15a3.164,3.164,0,0,0,.571,1.976,1.934,1.934,0,0,0,3.059-.01,3.46,3.46,0,0,0,.567-2.116,3.159,3.159,0,0,0-.578-1.972,1.836,1.836,0,0,0-1.535-.755,1.816,1.816,0,0,0-1.511.745A3.435,3.435,0,0,0,54.694,35.384Zm10.623-2.646a3.79,3.79,0,0,0-.622-.048,1.667,1.667,0,0,0-1.688,1.06V39H61.742V31.6h1.23l.021.854a1.969,1.969,0,0,1,1.764-.991,1.292,1.292,0,0,1,.561.1Zm4.231,6.4a3.232,3.232,0,0,1-2.447-.988,3.666,3.666,0,0,1-.943-2.642v-.232a4.438,4.438,0,0,1,.42-1.965,3.28,3.28,0,0,1,1.176-1.354,2.956,2.956,0,0,1,1.637-.489,2.77,2.77,0,0,1,2.242.95,4.114,4.114,0,0,1,.8,2.721v.526H67.423a2.629,2.629,0,0,0,.639,1.767,2.009,2.009,0,0,0,1.555.673,2.2,2.2,0,0,0,1.135-.273,2.851,2.851,0,0,0,.813-.725l.772.6A3.106,3.106,0,0,1,69.549,39.137Zm-.157-6.631a1.687,1.687,0,0,0-1.285.557,2.708,2.708,0,0,0-.643,1.562h3.705v-.1a2.409,2.409,0,0,0-.52-1.494A1.588,1.588,0,0,0,69.392,32.506ZM78.2,37.038a.931.931,0,0,0-.386-.8,3.718,3.718,0,0,0-1.347-.489,6.367,6.367,0,0,1-1.524-.492,2.169,2.169,0,0,1-.834-.684,1.635,1.635,0,0,1-.27-.943,1.919,1.919,0,0,1,.769-1.538,3,3,0,0,1,1.965-.629,3.091,3.091,0,0,1,2.041.649,2.063,2.063,0,0,1,.783,1.661H78.128a1.142,1.142,0,0,0-.441-.9,1.652,1.652,0,0,0-1.111-.376,1.729,1.729,0,0,0-1.08.3.947.947,0,0,0-.39.786.767.767,0,0,0,.362.69,4.458,4.458,0,0,0,1.309.444,6.821,6.821,0,0,1,1.535.506,2.239,2.239,0,0,1,.872.708,1.74,1.74,0,0,1,.284,1.008,1.893,1.893,0,0,1-.793,1.589,3.326,3.326,0,0,1-2.058.6,3.725,3.725,0,0,1-1.572-.314,2.557,2.557,0,0,1-1.07-.878,2.117,2.117,0,0,1-.386-1.22h1.265a1.309,1.309,0,0,0,.509,1.008,1.976,1.976,0,0,0,1.254.373,2.039,2.039,0,0,0,1.152-.291A.893.893,0,0,0,78.2,37.038Zm2.871,3.944-.718-.492a3.3,3.3,0,0,0,.67-1.846V37.5h1.237v.991a3.114,3.114,0,0,1-.338,1.381A3.233,3.233,0,0,1,81.074,40.982ZM88.7,39H87.438V31.6H88.7Zm-1.367-9.358a.755.755,0,0,1,.188-.52.706.706,0,0,1,.557-.212.717.717,0,0,1,.561.212.747.747,0,0,1,.191.52.722.722,0,0,1-.191.513.73.73,0,0,1-.561.205.718.718,0,0,1-.557-.205A.73.73,0,0,1,87.336,29.642ZM91.923,31.6l.041.93a2.7,2.7,0,0,1,2.215-1.066q2.345,0,2.365,2.646V39H95.279V34.105a1.7,1.7,0,0,0-.366-1.183A1.466,1.466,0,0,0,93.8,32.54a1.825,1.825,0,0,0-1.08.328,2.228,2.228,0,0,0-.725.861V39H90.727V31.6Zm9.5,6.5a1.822,1.822,0,0,0,1.183-.41,1.443,1.443,0,0,0,.561-1.025h1.2a2.293,2.293,0,0,1-.437,1.21,2.881,2.881,0,0,1-1.077.916,3.107,3.107,0,0,1-1.425.342,3.047,3.047,0,0,1-2.4-1.008,4.016,4.016,0,0,1-.892-2.758v-.212a4.453,4.453,0,0,1,.4-1.921,3.02,3.02,0,0,1,1.138-1.306,3.233,3.233,0,0,1,1.753-.465,2.966,2.966,0,0,1,2.068.745,2.663,2.663,0,0,1,.878,1.935h-1.2a1.743,1.743,0,0,0-.543-1.179,1.691,1.691,0,0,0-1.207-.461,1.77,1.77,0,0,0-1.494.694,3.259,3.259,0,0,0-.53,2.006v.239a3.194,3.194,0,0,0,.526,1.969A1.779,1.779,0,0,0,101.418,38.1Zm5.735.9h-1.265V28.5h1.265Zm6.59-.731a2.686,2.686,0,0,1-2.167.868,2.3,2.3,0,0,1-1.8-.687,2.974,2.974,0,0,1-.625-2.034V31.6h1.265v4.778q0,1.682,1.367,1.682a1.893,1.893,0,0,0,1.928-1.08V31.6h1.265V39h-1.2Zm5.571-1.121,1.723-5.544h1.354l-2.974,8.538q-.69,1.846-2.194,1.846l-.239-.021-.472-.089V40.853l.342.027a1.683,1.683,0,0,0,1-.26,1.88,1.88,0,0,0,.591-.95l.28-.752L116.088,31.6h1.381Zm7.273,1.989a3.232,3.232,0,0,1-2.447-.988,3.666,3.666,0,0,1-.943-2.642v-.232a4.438,4.438,0,0,1,.42-1.965,3.28,3.28,0,0,1,1.176-1.354,2.956,2.956,0,0,1,1.637-.489,2.77,2.77,0,0,1,2.242.95,4.114,4.114,0,0,1,.8,2.721v.526h-5.011a2.629,2.629,0,0,0,.639,1.767,2.009,2.009,0,0,0,1.555.673,2.2,2.2,0,0,0,1.135-.273,2.851,2.851,0,0,0,.813-.725l.772.6A3.106,3.106,0,0,1,126.588,39.137Zm-.157-6.631a1.687,1.687,0,0,0-1.285.557,2.708,2.708,0,0,0-.643,1.562h3.705v-.1a2.409,2.409,0,0,0-.52-1.494A1.588,1.588,0,0,0,126.431,32.506Zm5.7-.9.041.93a2.7,2.7,0,0,1,2.215-1.066q2.345,0,2.365,2.646V39h-1.265V34.105a1.7,1.7,0,0,0-.366-1.183A1.466,1.466,0,0,0,134,32.54a1.825,1.825,0,0,0-1.08.328,2.228,2.228,0,0,0-.725.861V39h-1.265V31.6Zm6.221,3.637a4.333,4.333,0,0,1,.807-2.738,2.745,2.745,0,0,1,4.17-.147V28.5h1.265V39h-1.162l-.062-.793a2.575,2.575,0,0,1-2.112.93,2.526,2.526,0,0,1-2.1-1.053,4.382,4.382,0,0,1-.81-2.748Zm1.265.144a3.281,3.281,0,0,0,.52,1.969,1.68,1.68,0,0,0,1.436.711,1.845,1.845,0,0,0,1.757-1.08v-3.4a1.859,1.859,0,0,0-1.743-1.046,1.687,1.687,0,0,0-1.449.718A3.612,3.612,0,0,0,139.617,35.384Zm6.6-.15a4.369,4.369,0,0,1,.427-1.955,3.187,3.187,0,0,1,1.189-1.34,3.238,3.238,0,0,1,1.74-.472,3.119,3.119,0,0,1,2.444,1.046,4.024,4.024,0,0,1,.933,2.782v.089a4.407,4.407,0,0,1-.414,1.938,3.14,3.14,0,0,1-1.183,1.336,3.275,3.275,0,0,1-1.767.479,3.111,3.111,0,0,1-2.437-1.046,4,4,0,0,1-.933-2.769Zm1.271.15a3.164,3.164,0,0,0,.571,1.976,1.934,1.934,0,0,0,3.059-.01,3.46,3.46,0,0,0,.567-2.116,3.159,3.159,0,0,0-.578-1.972,1.836,1.836,0,0,0-1.535-.755,1.816,1.816,0,0,0-1.511.745A3.435,3.435,0,0,0,147.492,35.384Zm16.023-.779h-4.047L158.7,39h-1.285l1.729-9.953h5.988l-.191,1.073h-4.7l-.588,3.411h4.054Zm2.625,4.4h-1.23l1.285-7.4h1.23Zm1.019-10.1a.677.677,0,0,1,.523.188.7.7,0,0,1,.208.53.73.73,0,0,1-.731.745.682.682,0,0,1-.526-.185.669.669,0,0,1-.2-.52.776.776,0,0,1,.205-.533A.723.723,0,0,1,167.159,28.9Zm5.605,3.828-.581-.062a2.117,2.117,0,0,0-1.873,1.073L169.4,39h-1.237l1.285-7.4,1.2-.007-.185.861a2.212,2.212,0,0,1,1.853-1,2.27,2.27,0,0,1,.588.1Zm3.261,6.405a2.667,2.667,0,0,1-2.16-1.019,3.505,3.505,0,0,1-.656-2.536l.034-.294a4.921,4.921,0,0,1,.653-2.01,3.8,3.8,0,0,1,1.309-1.371,3.054,3.054,0,0,1,1.668-.441,2.352,2.352,0,0,1,1.791.759,3.121,3.121,0,0,1,.711,1.982,5.792,5.792,0,0,1-.027.889l-.075.567h-4.833a2.5,2.5,0,0,0,.332,1.709,1.57,1.57,0,0,0,1.357.731,2.631,2.631,0,0,0,2.023-.984l.711.6a3.253,3.253,0,0,1-1.2,1.049A3.4,3.4,0,0,1,176.025,39.137Zm.786-6.638a1.807,1.807,0,0,0-1.336.52,3.693,3.693,0,0,0-.906,1.606l3.6.007.027-.109a2.024,2.024,0,0,0-.277-1.432A1.3,1.3,0,0,0,176.812,32.5Zm3.876,6.5,1.121-6.419h-1.142l.171-.978h1.135l.123-.875a2.9,2.9,0,0,1,.861-1.743,2.561,2.561,0,0,1,1.832-.643,4.274,4.274,0,0,1,.882.117l-.15,1.038a4.057,4.057,0,0,0-.663-.082,1.412,1.412,0,0,0-1.042.4,1.814,1.814,0,0,0-.5,1.06l-.109.729h1.531l-.171.978h-1.531L181.925,39Zm8.292-7.533a2.666,2.666,0,0,1,1.593.506,2.874,2.874,0,0,1,.981,1.357,4.2,4.2,0,0,1,.215,1.89l-.014.15a4.975,4.975,0,0,1-.643,1.952,3.77,3.77,0,0,1-1.326,1.357,3.234,3.234,0,0,1-1.784.458,2.671,2.671,0,0,1-1.589-.506,2.809,2.809,0,0,1-.974-1.34,4.314,4.314,0,0,1-.219-1.866,5.04,5.04,0,0,1,.622-2.064,3.858,3.858,0,0,1,1.336-1.418A3.2,3.2,0,0,1,188.979,31.467Zm-2.516,3.965a4.2,4.2,0,0,0,0,.9,2.194,2.194,0,0,0,.482,1.285,1.447,1.447,0,0,0,1.1.5,1.971,1.971,0,0,0,1.135-.3,2.554,2.554,0,0,0,.875-.981,4.131,4.131,0,0,0,.458-1.456,6.559,6.559,0,0,0,.021-1.06,2.277,2.277,0,0,0-.5-1.306,1.479,1.479,0,0,0-1.107-.506,2.016,2.016,0,0,0-1.627.752,3.715,3.715,0,0,0-.827,2.023ZM195.72,34.3l2.01-2.693h1.518l-2.967,3.719,1.8,3.678h-1.347l-1.224-2.762L193.43,39h-1.511l3.056-3.8-1.75-3.6h1.354Zm3.35,6.692-.711-.513a4.515,4.515,0,0,0,.984-1.941l.178-1.032h1.21l-.144.923A3.956,3.956,0,0,1,199.069,40.989Zm10.281-1.853a3.187,3.187,0,0,1-1.651-.458,2.967,2.967,0,0,1-1.1-1.289,4.854,4.854,0,0,1-.444-1.911,9.074,9.074,0,0,1,.185-2.044,7.009,7.009,0,0,1,.779-2.194,4.945,4.945,0,0,1,1.347-1.565,3.876,3.876,0,0,1,2.447-.766,2.945,2.945,0,0,1,2.3,1.008,4.193,4.193,0,0,1,.9,2.656,9.778,9.778,0,0,1-.147,1.825,7.556,7.556,0,0,1-.622,2.058A5.136,5.136,0,0,1,212.2,38.05,3.914,3.914,0,0,1,209.351,39.137Zm3.493-6.248a3.449,3.449,0,0,0-.472-2.088,1.8,1.8,0,0,0-1.524-.769,2.593,2.593,0,0,0-1.637.492,3.726,3.726,0,0,0-1.183,1.555,8.013,8.013,0,0,0-.584,2.622l-.021.444a3.479,3.479,0,0,0,.479,2.1,1.781,1.781,0,0,0,1.511.786,2.633,2.633,0,0,0,2.143-.933,5.3,5.3,0,0,0,1.131-2.717A12.245,12.245,0,0,0,212.844,32.889Zm8.771,2.447a5.868,5.868,0,0,1-.608,2.03,3.455,3.455,0,0,1-1.169,1.35,2.676,2.676,0,0,1-1.545.427,2.463,2.463,0,0,1-1.969-.868l-.663,3.568h-1.237L216.2,31.6l1.121-.007-.137.827a2.806,2.806,0,0,1,2.194-.957,2.063,2.063,0,0,1,1.661.786,3.46,3.46,0,0,1,.629,2.092,7.36,7.36,0,0,1-.034.848ZM220.4,35.2l.034-.573a2.6,2.6,0,0,0-.379-1.526,1.334,1.334,0,0,0-1.1-.556,2.194,2.194,0,0,0-1.853,1.017L216.48,37.1a1.548,1.548,0,0,0,1.5,1.01,1.946,1.946,0,0,0,1.569-.72A4.18,4.18,0,0,0,220.4,35.2Zm5.407,3.941a2.667,2.667,0,0,1-2.16-1.019,3.505,3.505,0,0,1-.656-2.536l.034-.294a4.921,4.921,0,0,1,.653-2.01,3.8,3.8,0,0,1,1.309-1.371,3.054,3.054,0,0,1,1.668-.441,2.352,2.352,0,0,1,1.791.759,3.121,3.121,0,0,1,.711,1.982,5.792,5.792,0,0,1-.027.889l-.075.567h-4.833a2.5,2.5,0,0,0,.332,1.709,1.57,1.57,0,0,0,1.357.731,2.631,2.631,0,0,0,2.023-.984l.711.6a3.253,3.253,0,0,1-1.2,1.049A3.4,3.4,0,0,1,225.8,39.137Zm.786-6.638a1.807,1.807,0,0,0-1.336.52,3.693,3.693,0,0,0-.906,1.606l3.6.007.027-.109a2.024,2.024,0,0,0-.277-1.432A1.3,1.3,0,0,0,226.591,32.5Zm7.875.232-.581-.062a2.117,2.117,0,0,0-1.873,1.073L231.1,39h-1.237l1.285-7.4,1.2-.007-.185.861a2.212,2.212,0,0,1,1.853-1,2.27,2.27,0,0,1,.588.1ZM238.779,39a1.657,1.657,0,0,1-.048-.39l.021-.39a3.032,3.032,0,0,1-2.16.916A2.21,2.21,0,0,1,235,38.518,1.872,1.872,0,0,1,234.445,37a2.277,2.277,0,0,1,1.029-1.835,4.38,4.38,0,0,1,2.526-.66l1.292.007.082-.588a1.352,1.352,0,0,0-.256-1.049,1.237,1.237,0,0,0-.974-.4,1.908,1.908,0,0,0-1.125.311,1.324,1.324,0,0,0-.6.858l-1.244.007a1.983,1.983,0,0,1,.506-1.152,2.943,2.943,0,0,1,1.142-.779,3.688,3.688,0,0,1,1.442-.263,2.452,2.452,0,0,1,1.8.7,2.173,2.173,0,0,1,.54,1.788l-.6,3.664-.034.526a2.581,2.581,0,0,0,.082.745l-.014.116Zm-1.941-.957a2.158,2.158,0,0,0,1.125-.284,2.847,2.847,0,0,0,.913-.824l.267-1.524-.937-.007a3.547,3.547,0,0,0-1.791.369,1.36,1.36,0,0,0-.7,1.046,1.059,1.059,0,0,0,.243.865A1.156,1.156,0,0,0,236.838,38.043Zm4.6,2.946-.711-.513a4.515,4.515,0,0,0,.984-1.941l.178-1.032h1.21l-.144.923A3.956,3.956,0,0,1,241.438,40.989Zm8-1.989h-1.278l1.729-9.953h1.278Zm8.654-4.6h-4.184l-.615,3.527h4.867L257.975,39h-6.146l1.729-9.953h6.077l-.191,1.073h-4.792l-.554,3.206h4.184Zm7.41,2.734,2.632-5.53h1.367l-4.389,8.627a2.656,2.656,0,0,1-2.352,1.777,4.03,4.03,0,0,1-.745-.123l.109-1.025.321.034a1.622,1.622,0,0,0,1.015-.263,2.426,2.426,0,0,0,.755-.94l.444-.848L263.389,31.6h1.292ZM2.522,56.506a2.866,2.866,0,0,1,2.235-1.032,1.8,1.8,0,0,1,1.542.714,2.815,2.815,0,0,1,.373,1.965L5.865,63H4.628l.813-4.867a2.6,2.6,0,0,0,.007-.622,1.022,1.022,0,0,0-1.128-.978,2.276,2.276,0,0,0-1.955,1.189L1.449,63H.212L2.037,52.5H3.274Zm8.436,6.631A2.667,2.667,0,0,1,8.8,62.118a3.505,3.505,0,0,1-.656-2.536l.034-.294a4.921,4.921,0,0,1,.653-2.01,3.8,3.8,0,0,1,1.309-1.371,3.054,3.054,0,0,1,1.668-.441,2.352,2.352,0,0,1,1.791.759,3.121,3.121,0,0,1,.711,1.982,5.793,5.793,0,0,1-.027.889l-.075.567H9.372A2.5,2.5,0,0,0,9.7,61.373a1.57,1.57,0,0,0,1.357.731,2.631,2.631,0,0,0,2.023-.984l.711.6a3.253,3.253,0,0,1-1.2,1.049A3.4,3.4,0,0,1,10.958,63.137Zm.786-6.638a1.807,1.807,0,0,0-1.336.52A3.693,3.693,0,0,0,9.5,58.625l3.6.007.027-.109a2.024,2.024,0,0,0-.277-1.432A1.3,1.3,0,0,0,11.744,56.5Zm7.8,6.5a1.657,1.657,0,0,1-.048-.39l.021-.39a3.032,3.032,0,0,1-2.16.916,2.21,2.21,0,0,1-1.589-.619A1.872,1.872,0,0,1,15.21,61a2.277,2.277,0,0,1,1.029-1.835,4.38,4.38,0,0,1,2.526-.66l1.292.007.082-.588a1.352,1.352,0,0,0-.256-1.049,1.237,1.237,0,0,0-.974-.4,1.908,1.908,0,0,0-1.125.311,1.324,1.324,0,0,0-.6.858l-1.244.007a1.983,1.983,0,0,1,.506-1.152,2.943,2.943,0,0,1,1.142-.779,3.688,3.688,0,0,1,1.442-.263,2.452,2.452,0,0,1,1.8.7,2.173,2.173,0,0,1,.54,1.788l-.6,3.664-.034.526a2.58,2.58,0,0,0,.082.745L20.8,63ZM17.6,62.043a2.158,2.158,0,0,0,1.125-.284,2.847,2.847,0,0,0,.913-.824l.267-1.524L18.97,59.4a3.547,3.547,0,0,0-1.791.369,1.36,1.36,0,0,0-.7,1.046,1.059,1.059,0,0,0,.243.865A1.156,1.156,0,0,0,17.6,62.043Zm5.229-2.755a5.755,5.755,0,0,1,.622-2.037,3.527,3.527,0,0,1,1.2-1.36,2.736,2.736,0,0,1,1.565-.431,2.31,2.31,0,0,1,1.9.9l.711-3.862h1.237L28.246,63H27.118l.13-.793a2.727,2.727,0,0,1-2.16.93,2.043,2.043,0,0,1-1.634-.8,3.5,3.5,0,0,1-.656-2.082A6.648,6.648,0,0,1,22.832,59.288Zm1.189.707a2.563,2.563,0,0,0,.349,1.516,1.258,1.258,0,0,0,1.08.553,2.235,2.235,0,0,0,1.907-1.079l.588-3.414a1.535,1.535,0,0,0-1.49-1.038,1.875,1.875,0,0,0-1.289.44,2.849,2.849,0,0,0-.848,1.29A5.322,5.322,0,0,0,24.021,59.995ZM31.541,63h-1.23l1.818-10.5h1.237Zm5.223.137a2.667,2.667,0,0,1-2.16-1.019,3.505,3.505,0,0,1-.656-2.536l.034-.294a4.921,4.921,0,0,1,.653-2.01,3.8,3.8,0,0,1,1.309-1.371,3.054,3.054,0,0,1,1.668-.441,2.352,2.352,0,0,1,1.791.759,3.121,3.121,0,0,1,.711,1.982,5.793,5.793,0,0,1-.027.889l-.075.567H35.178a2.5,2.5,0,0,0,.332,1.709,1.57,1.57,0,0,0,1.357.731,2.631,2.631,0,0,0,2.023-.984l.711.6a3.253,3.253,0,0,1-1.2,1.049A3.4,3.4,0,0,1,36.764,63.137ZM37.55,56.5a1.807,1.807,0,0,0-1.336.52,3.693,3.693,0,0,0-.906,1.606l3.6.007.027-.109a2.024,2.024,0,0,0-.277-1.432A1.3,1.3,0,0,0,37.55,56.5ZM45.4,61q.1-.766-.841-1.08l-1.285-.376q-1.627-.561-1.572-1.859a2.048,2.048,0,0,1,.892-1.6,3.177,3.177,0,0,1,1.986-.612,2.649,2.649,0,0,1,1.822.653,2.068,2.068,0,0,1,.673,1.665l-1.23-.007a1.154,1.154,0,0,0-.349-.9,1.379,1.379,0,0,0-.964-.362,1.8,1.8,0,0,0-1.107.314,1.151,1.151,0,0,0-.5.807q-.089.643.786.937l.622.171a4.005,4.005,0,0,1,1.8.854,1.632,1.632,0,0,1,.492,1.306,2.074,2.074,0,0,1-.451,1.2,2.58,2.58,0,0,1-1.094.783,3.658,3.658,0,0,1-1.456.25,2.885,2.885,0,0,1-1.941-.687,2.124,2.124,0,0,1-.738-1.733l1.237.007a1.311,1.311,0,0,0,.4,1,1.515,1.515,0,0,0,1.087.376,2.132,2.132,0,0,0,1.169-.284A1.091,1.091,0,0,0,45.4,61Zm7.068,0q.1-.766-.841-1.08l-1.285-.376q-1.627-.561-1.572-1.859a2.048,2.048,0,0,1,.892-1.6,3.177,3.177,0,0,1,1.986-.612,2.649,2.649,0,0,1,1.822.653,2.068,2.068,0,0,1,.673,1.665l-1.23-.007a1.154,1.154,0,0,0-.349-.9,1.379,1.379,0,0,0-.964-.362,1.8,1.8,0,0,0-1.107.314,1.151,1.151,0,0,0-.5.807q-.089.643.786.937l.622.171a4.005,4.005,0,0,1,1.8.854A1.632,1.632,0,0,1,53.7,60.9a2.074,2.074,0,0,1-.451,1.2,2.58,2.58,0,0,1-1.094.783,3.658,3.658,0,0,1-1.456.25,2.885,2.885,0,0,1-1.941-.687,2.124,2.124,0,0,1-.738-1.733l1.237.007a1.311,1.311,0,0,0,.4,1,1.515,1.515,0,0,0,1.087.376,2.132,2.132,0,0,0,1.169-.284A1.091,1.091,0,0,0,52.473,61Zm12.633-1.661a5.763,5.763,0,0,1-.622,2.044,3.484,3.484,0,0,1-1.176,1.347,2.676,2.676,0,0,1-1.531.417,2.284,2.284,0,0,1-1.989-1L59.534,63H58.393l1.825-10.5h1.237l-.745,3.924a2.719,2.719,0,0,1,2.16-.957,2.063,2.063,0,0,1,1.661.786,3.46,3.46,0,0,1,.629,2.092,6.443,6.443,0,0,1-.041.848Zm-1.176-.714a2.633,2.633,0,0,0-.335-1.526,1.282,1.282,0,0,0-1.087-.556A2.252,2.252,0,0,0,60.553,57.7L60,60.916a1.574,1.574,0,0,0,1.538,1.154,1.8,1.8,0,0,0,1.268-.43,2.81,2.81,0,0,0,.824-1.28A5.756,5.756,0,0,0,63.93,58.622Zm6.754-1.891L70.1,56.67a2.117,2.117,0,0,0-1.873,1.073L67.32,63H66.083l1.285-7.4,1.2-.007-.185.861a2.211,2.211,0,0,1,1.853-1,2.27,2.27,0,0,1,.588.1Zm4.033-1.265a2.666,2.666,0,0,1,1.593.506,2.875,2.875,0,0,1,.981,1.357,4.2,4.2,0,0,1,.215,1.89l-.014.15a4.975,4.975,0,0,1-.643,1.952,3.77,3.77,0,0,1-1.326,1.357,3.234,3.234,0,0,1-1.784.458,2.671,2.671,0,0,1-1.589-.506,2.809,2.809,0,0,1-.974-1.34,4.315,4.315,0,0,1-.219-1.866,5.04,5.04,0,0,1,.622-2.064,3.858,3.858,0,0,1,1.336-1.418A3.2,3.2,0,0,1,74.717,55.467ZM72.2,59.432a4.2,4.2,0,0,0,0,.9,2.194,2.194,0,0,0,.482,1.285,1.447,1.447,0,0,0,1.1.5,1.971,1.971,0,0,0,1.135-.3,2.554,2.554,0,0,0,.875-.981,4.131,4.131,0,0,0,.458-1.456,6.557,6.557,0,0,0,.021-1.06,2.277,2.277,0,0,0-.5-1.306,1.479,1.479,0,0,0-1.107-.506,2.016,2.016,0,0,0-1.627.752,3.715,3.715,0,0,0-.827,2.023ZM85.06,61.25,87.418,55.6H88.7L85.326,63h-1l-.766-5.592L80.89,63h-1l-.8-7.4h1.183l.451,5.51,2.625-5.51h1ZM93.276,61q.1-.766-.841-1.08l-1.285-.376q-1.627-.561-1.572-1.859a2.048,2.048,0,0,1,.892-1.6,3.177,3.177,0,0,1,1.986-.612,2.649,2.649,0,0,1,1.822.653,2.068,2.068,0,0,1,.673,1.665l-1.23-.007a1.154,1.154,0,0,0-.349-.9,1.379,1.379,0,0,0-.964-.362,1.8,1.8,0,0,0-1.107.314,1.151,1.151,0,0,0-.5.807q-.089.643.786.937l.622.171a4.005,4.005,0,0,1,1.8.854,1.632,1.632,0,0,1,.492,1.306,2.074,2.074,0,0,1-.451,1.2,2.58,2.58,0,0,1-1.094.783,3.658,3.658,0,0,1-1.456.25,2.885,2.885,0,0,1-1.941-.687,2.124,2.124,0,0,1-.738-1.733l1.237.007a1.311,1.311,0,0,0,.4,1,1.515,1.515,0,0,0,1.087.376,2.132,2.132,0,0,0,1.169-.284A1.091,1.091,0,0,0,93.276,61Zm5.688,2.14a2.667,2.667,0,0,1-2.16-1.019,3.505,3.505,0,0,1-.656-2.536l.034-.294a4.921,4.921,0,0,1,.653-2.01,3.8,3.8,0,0,1,1.309-1.371,3.054,3.054,0,0,1,1.668-.441,2.352,2.352,0,0,1,1.791.759,3.121,3.121,0,0,1,.711,1.982,5.793,5.793,0,0,1-.027.889l-.075.567H97.378a2.5,2.5,0,0,0,.332,1.709,1.57,1.57,0,0,0,1.357.731,2.631,2.631,0,0,0,2.023-.984l.711.6a3.253,3.253,0,0,1-1.2,1.049A3.4,3.4,0,0,1,98.964,63.137ZM99.75,56.5a1.807,1.807,0,0,0-1.336.52,3.693,3.693,0,0,0-.906,1.606l3.6.007.027-.109a2.024,2.024,0,0,0-.277-1.432A1.3,1.3,0,0,0,99.75,56.5Zm7.875.232-.581-.062a2.117,2.117,0,0,0-1.873,1.073L104.262,63h-1.237l1.285-7.4,1.2-.007-.185.861a2.211,2.211,0,0,1,1.853-1,2.27,2.27,0,0,1,.588.1Zm.834,5.605a.792.792,0,0,1,.195-.547.742.742,0,0,1,.584-.219.765.765,0,0,1,.591.219.776.776,0,0,1,.2.547.734.734,0,0,1-.2.526.778.778,0,0,1-.591.212.7.7,0,0,1-.779-.738Z" transform="translate(1049.051 7217.956)" fill="#12263f"/><path d="M8.812,10.345A6.157,6.157,0,0,1,8.319,12.9a3.728,3.728,0,0,1-1.395,1.665,3.837,3.837,0,0,1-2.105.574,3.8,3.8,0,0,1-2.085-.578,3.817,3.817,0,0,1-1.412-1.647,5.908,5.908,0,0,1-.516-2.478V9.716a6.084,6.084,0,0,1,.5-2.536A3.8,3.8,0,0,1,2.717,5.495,3.788,3.788,0,0,1,4.806,4.91a3.858,3.858,0,0,1,2.109.578,3.721,3.721,0,0,1,1.4,1.675,6.187,6.187,0,0,1,.492,2.553ZM7.506,9.7a4.463,4.463,0,0,0-.711-2.717,2.345,2.345,0,0,0-1.989-.947,2.32,2.32,0,0,0-1.958.947,4.371,4.371,0,0,0-.735,2.628v.731a4.469,4.469,0,0,0,.721,2.7,2.329,2.329,0,0,0,1.986.981A2.32,2.32,0,0,0,6.788,13.1a4.444,4.444,0,0,0,.718-2.656Zm9.324,1.682a4.429,4.429,0,0,1-.772,2.721,2.476,2.476,0,0,1-2.092,1.032,2.713,2.713,0,0,1-2.119-.854v3.562H10.582V7.6h1.155l.062.82a2.605,2.605,0,0,1,2.146-.957,2.522,2.522,0,0,1,2.109,1,4.477,4.477,0,0,1,.776,2.8Zm-1.265-.144a3.268,3.268,0,0,0-.533-1.976,1.718,1.718,0,0,0-1.463-.725,1.859,1.859,0,0,0-1.723,1.019v3.534A1.863,1.863,0,0,0,13.583,14.1a1.71,1.71,0,0,0,1.446-.721A3.567,3.567,0,0,0,15.565,11.24Zm5.94,3.9a3.232,3.232,0,0,1-2.447-.988,3.666,3.666,0,0,1-.943-2.642v-.232a4.438,4.438,0,0,1,.42-1.965,3.28,3.28,0,0,1,1.176-1.354,2.956,2.956,0,0,1,1.637-.489,2.77,2.77,0,0,1,2.242.95,4.114,4.114,0,0,1,.8,2.721v.526H19.38a2.629,2.629,0,0,0,.639,1.767,2.009,2.009,0,0,0,1.555.673,2.2,2.2,0,0,0,1.135-.273,2.851,2.851,0,0,0,.813-.725l.772.6A3.106,3.106,0,0,1,21.506,15.137Zm-.157-6.631a1.687,1.687,0,0,0-1.285.557,2.708,2.708,0,0,0-.643,1.562h3.705v-.1a2.409,2.409,0,0,0-.52-1.494A1.588,1.588,0,0,0,21.349,8.506Zm8.08.232a3.79,3.79,0,0,0-.622-.048,1.667,1.667,0,0,0-1.688,1.06V15H25.854V7.6h1.23l.021.854a1.969,1.969,0,0,1,1.764-.991,1.292,1.292,0,0,1,.561.1ZM34.884,15a2.657,2.657,0,0,1-.178-.779,2.822,2.822,0,0,1-2.105.916,2.611,2.611,0,0,1-1.794-.619,2,2,0,0,1-.7-1.569,2.091,2.091,0,0,1,.878-1.794,4.142,4.142,0,0,1,2.471-.639h1.23V9.935a1.42,1.42,0,0,0-.4-1.056,1.593,1.593,0,0,0-1.169-.393,1.844,1.844,0,0,0-1.135.342,1.007,1.007,0,0,0-.458.827H30.256a1.745,1.745,0,0,1,.393-1.07,2.683,2.683,0,0,1,1.066-.817,3.588,3.588,0,0,1,1.48-.3,2.924,2.924,0,0,1,2,.639,2.306,2.306,0,0,1,.752,1.76v3.4a4.162,4.162,0,0,0,.26,1.62V15Zm-2.1-.964a2.223,2.223,0,0,0,1.128-.308,1.861,1.861,0,0,0,.772-.8V11.411h-.991q-2.324,0-2.324,1.36a1.151,1.151,0,0,0,.4.93A1.524,1.524,0,0,0,32.785,14.036Zm8.723-5.3a3.79,3.79,0,0,0-.622-.048A1.667,1.667,0,0,0,39.2,9.75V15H37.933V7.6h1.23l.021.854a1.969,1.969,0,0,1,1.764-.991,1.292,1.292,0,0,1,.561.1ZM52.568,14.1a1.822,1.822,0,0,0,1.183-.41,1.443,1.443,0,0,0,.561-1.025h1.2a2.293,2.293,0,0,1-.437,1.21,2.881,2.881,0,0,1-1.077.916,3.107,3.107,0,0,1-1.425.342,3.047,3.047,0,0,1-2.4-1.008,4.016,4.016,0,0,1-.892-2.758v-.212a4.453,4.453,0,0,1,.4-1.921,3.02,3.02,0,0,1,1.138-1.306,3.233,3.233,0,0,1,1.753-.465,2.966,2.966,0,0,1,2.068.745,2.663,2.663,0,0,1,.878,1.935h-1.2a1.743,1.743,0,0,0-.543-1.179,1.691,1.691,0,0,0-1.207-.461,1.77,1.77,0,0,0-1.494.694,3.259,3.259,0,0,0-.53,2.006v.239a3.194,3.194,0,0,0,.526,1.969A1.779,1.779,0,0,0,52.568,14.1Zm4.026-2.871a4.369,4.369,0,0,1,.427-1.955,3.187,3.187,0,0,1,1.189-1.34,3.238,3.238,0,0,1,1.74-.472A3.119,3.119,0,0,1,62.4,8.513a4.024,4.024,0,0,1,.933,2.782v.089a4.407,4.407,0,0,1-.414,1.938,3.14,3.14,0,0,1-1.183,1.336,3.275,3.275,0,0,1-1.767.479,3.111,3.111,0,0,1-2.437-1.046,4,4,0,0,1-.933-2.769Zm1.271.15a3.164,3.164,0,0,0,.571,1.976,1.934,1.934,0,0,0,3.059-.01,3.46,3.46,0,0,0,.567-2.116,3.159,3.159,0,0,0-.578-1.972,1.836,1.836,0,0,0-1.535-.755,1.816,1.816,0,0,0-1.511.745A3.435,3.435,0,0,0,57.866,11.384ZM66.11,7.6l.041.93a2.7,2.7,0,0,1,2.215-1.066q2.345,0,2.365,2.646V15H69.467V10.105A1.7,1.7,0,0,0,69.1,8.923a1.466,1.466,0,0,0-1.118-.383,1.825,1.825,0,0,0-1.08.328,2.228,2.228,0,0,0-.725.861V15H64.914V7.6ZM82.981,15H81.7l.8-4.6h-4.86l-.8,4.6H75.551L77.28,5.047h1.285L77.82,9.326h4.854l.745-4.279h1.292ZM93.317,6.12h-3.1L88.683,15H87.4l1.538-8.88h-3.1l.191-1.073h7.472Zm3.3-1.073,1.743,8.107,4.566-8.107h1.688L102.888,15h-1.278l.684-3.937.813-4.006L98.595,15H97.61L95.833,6.9l-.615,4.293L94.555,15H93.27L95,5.047Zm10.049,8.88h4.58L111.057,15h-5.865l1.729-9.953h1.292Zm12.339-.779L120.729,7.6h1.354l-2.974,8.538q-.69,1.846-2.194,1.846l-.239-.021-.472-.089V16.853l.342.027a1.683,1.683,0,0,0,1-.26,1.88,1.88,0,0,0,.591-.95l.28-.752L115.78,7.6h1.381ZM131.9,12.4h-4.033l-1.36,2.6h-1.374l5.407-9.953h1.128L133.636,15h-1.265Zm-3.466-1.073h3.274l-.827-4.642Zm12.4-6.275h1.285l-1.2,7.048a3.55,3.55,0,0,1-1.142,2.246,3.31,3.31,0,0,1-2.352.81,2.73,2.73,0,0,1-2.03-.793,2.7,2.7,0,0,1-.636-2.105h1.278a1.788,1.788,0,0,0,.308,1.309,1.4,1.4,0,0,0,1.148.5,1.889,1.889,0,0,0,1.422-.526,2.4,2.4,0,0,0,.711-1.436Zm7.554,7.349h-4.033l-1.36,2.6H141.62l5.407-9.953h1.128L150.124,15h-1.265Zm-3.466-1.073H148.2l-.827-4.642Zm10.732-2.468,2.905-3.808h1.586l-3.876,5L158.587,15h-1.442l-1.764-3.876L152.387,15H150.8l3.958-5.079L152.5,5.047h1.422Zm4.942,8.128-.718-.492a3.3,3.3,0,0,0,.67-1.846V13.5h1.237v.991a3.114,3.114,0,0,1-.338,1.381A3.233,3.233,0,0,1,160.6,16.982ZM171.418,15a2.657,2.657,0,0,1-.178-.779,2.822,2.822,0,0,1-2.105.916,2.611,2.611,0,0,1-1.794-.619,2,2,0,0,1-.7-1.569,2.091,2.091,0,0,1,.878-1.794,4.142,4.142,0,0,1,2.471-.639h1.23V9.935a1.42,1.42,0,0,0-.4-1.056,1.593,1.593,0,0,0-1.169-.393,1.844,1.844,0,0,0-1.135.342,1.007,1.007,0,0,0-.458.827H166.79a1.745,1.745,0,0,1,.393-1.07,2.683,2.683,0,0,1,1.066-.817,3.588,3.588,0,0,1,1.48-.3,2.924,2.924,0,0,1,2,.639,2.306,2.306,0,0,1,.752,1.76v3.4a4.162,4.162,0,0,0,.26,1.62V15Zm-2.1-.964a2.223,2.223,0,0,0,1.128-.308,1.861,1.861,0,0,0,.772-.8V11.411h-.991q-2.324,0-2.324,1.36a1.151,1.151,0,0,0,.4.93A1.524,1.524,0,0,0,169.319,14.036Zm4.84-2.8a4.333,4.333,0,0,1,.807-2.738,2.745,2.745,0,0,1,4.17-.147V4.5H180.4V15h-1.162l-.062-.793a2.575,2.575,0,0,1-2.112.93,2.526,2.526,0,0,1-2.1-1.053,4.382,4.382,0,0,1-.81-2.748Zm1.265.144a3.281,3.281,0,0,0,.52,1.969,1.68,1.68,0,0,0,1.436.711,1.845,1.845,0,0,0,1.757-1.08v-3.4a1.859,1.859,0,0,0-1.743-1.046,1.687,1.687,0,0,0-1.449.718A3.612,3.612,0,0,0,175.424,11.384Zm10.008,3.753a3.232,3.232,0,0,1-2.447-.988,3.666,3.666,0,0,1-.943-2.642v-.232a4.438,4.438,0,0,1,.42-1.965,3.279,3.279,0,0,1,1.176-1.354,2.956,2.956,0,0,1,1.637-.489,2.77,2.77,0,0,1,2.242.95,4.114,4.114,0,0,1,.8,2.721v.526h-5.011a2.629,2.629,0,0,0,.639,1.767,2.009,2.009,0,0,0,1.555.673,2.2,2.2,0,0,0,1.135-.273,2.851,2.851,0,0,0,.813-.725l.772.6A3.106,3.106,0,0,1,185.432,15.137Zm-.157-6.631a1.687,1.687,0,0,0-1.285.557,2.708,2.708,0,0,0-.643,1.562h3.705v-.1a2.409,2.409,0,0,0-.52-1.494A1.588,1.588,0,0,0,185.274,8.506Zm5.694-.9.034.82a2.732,2.732,0,0,1,2.194-.957,2.115,2.115,0,0,1,2.112,1.189,2.8,2.8,0,0,1,.96-.861,2.837,2.837,0,0,1,1.4-.328q2.434,0,2.475,2.577V15h-1.265V10.119a1.7,1.7,0,0,0-.362-1.186A1.6,1.6,0,0,0,197.3,8.54a1.677,1.677,0,0,0-1.169.42,1.706,1.706,0,0,0-.54,1.131V15h-1.271V10.153a1.411,1.411,0,0,0-1.579-1.613,1.692,1.692,0,0,0-1.7,1.06V15h-1.265V7.6ZM206.616,15a2.657,2.657,0,0,1-.178-.779,2.822,2.822,0,0,1-2.105.916,2.611,2.611,0,0,1-1.794-.619,2,2,0,0,1-.7-1.569,2.091,2.091,0,0,1,.878-1.794,4.142,4.142,0,0,1,2.471-.639h1.23V9.935a1.42,1.42,0,0,0-.4-1.056,1.593,1.593,0,0,0-1.169-.393,1.844,1.844,0,0,0-1.135.342,1.007,1.007,0,0,0-.458.827h-1.271a1.745,1.745,0,0,1,.393-1.07,2.683,2.683,0,0,1,1.066-.817,3.588,3.588,0,0,1,1.48-.3,2.924,2.924,0,0,1,2,.639,2.306,2.306,0,0,1,.752,1.76v3.4a4.162,4.162,0,0,0,.26,1.62V15Zm-2.1-.964a2.223,2.223,0,0,0,1.128-.308,1.861,1.861,0,0,0,.772-.8V11.411h-.991q-2.324,0-2.324,1.36a1.151,1.151,0,0,0,.4.93A1.524,1.524,0,0,0,204.518,14.036ZM205.687,4.5h1.531l-1.832,2.01-1.019,0Zm8.285,8.538a.931.931,0,0,0-.386-.8,3.718,3.718,0,0,0-1.347-.489,6.367,6.367,0,0,1-1.524-.492,2.169,2.169,0,0,1-.834-.684,1.635,1.635,0,0,1-.27-.943,1.919,1.919,0,0,1,.769-1.538,3,3,0,0,1,1.965-.629,3.091,3.091,0,0,1,2.041.649,2.063,2.063,0,0,1,.783,1.661H213.9a1.142,1.142,0,0,0-.441-.9,1.652,1.652,0,0,0-1.111-.376,1.729,1.729,0,0,0-1.08.3.947.947,0,0,0-.39.786.767.767,0,0,0,.362.69,4.458,4.458,0,0,0,1.309.444,6.821,6.821,0,0,1,1.535.506,2.239,2.239,0,0,1,.872.708,1.74,1.74,0,0,1,.284,1.008,1.893,1.893,0,0,1-.793,1.589,3.326,3.326,0,0,1-2.058.6,3.725,3.725,0,0,1-1.572-.314,2.557,2.557,0,0,1-1.07-.878,2.117,2.117,0,0,1-.386-1.22h1.265a1.309,1.309,0,0,0,.509,1.008,1.976,1.976,0,0,0,1.254.373,2.039,2.039,0,0,0,1.152-.291A.893.893,0,0,0,213.972,13.038Zm6.07-1.8a4.333,4.333,0,0,1,.807-2.738,2.745,2.745,0,0,1,4.17-.147V4.5h1.265V15h-1.162l-.062-.793a2.575,2.575,0,0,1-2.112.93,2.526,2.526,0,0,1-2.1-1.053,4.382,4.382,0,0,1-.81-2.748Zm1.265.144a3.281,3.281,0,0,0,.52,1.969,1.68,1.68,0,0,0,1.436.711,1.845,1.845,0,0,0,1.757-1.08v-3.4a1.859,1.859,0,0,0-1.743-1.046,1.687,1.687,0,0,0-1.449.718A3.612,3.612,0,0,0,221.307,11.384Zm10.008,3.753a3.232,3.232,0,0,1-2.447-.988,3.666,3.666,0,0,1-.943-2.642v-.232a4.438,4.438,0,0,1,.42-1.965,3.279,3.279,0,0,1,1.176-1.354,2.956,2.956,0,0,1,1.637-.489,2.77,2.77,0,0,1,2.242.95,4.114,4.114,0,0,1,.8,2.721v.526h-5.011a2.629,2.629,0,0,0,.639,1.767,2.009,2.009,0,0,0,1.555.673,2.2,2.2,0,0,0,1.135-.273,2.851,2.851,0,0,0,.813-.725l.772.6A3.106,3.106,0,0,1,231.314,15.137Zm-.157-6.631a1.687,1.687,0,0,0-1.285.557,2.708,2.708,0,0,0-.643,1.562h3.705v-.1a2.409,2.409,0,0,0-.52-1.494A1.588,1.588,0,0,0,231.157,8.506ZM2.222,32.5a2.689,2.689,0,0,1,2.188-1.032q2.345,0,2.365,2.646V39H5.51V34.105a1.7,1.7,0,0,0-.366-1.183,1.466,1.466,0,0,0-1.118-.383,1.825,1.825,0,0,0-1.08.328,2.228,2.228,0,0,0-.725.861V39H.957V28.5H2.222Zm9.516,6.638a3.232,3.232,0,0,1-2.447-.988,3.666,3.666,0,0,1-.943-2.642v-.232a4.438,4.438,0,0,1,.42-1.965,3.28,3.28,0,0,1,1.176-1.354,2.956,2.956,0,0,1,1.637-.489,2.77,2.77,0,0,1,2.242.95,4.114,4.114,0,0,1,.8,2.721v.526H9.611a2.629,2.629,0,0,0,.639,1.767,2.009,2.009,0,0,0,1.555.673,2.2,2.2,0,0,0,1.135-.273,2.851,2.851,0,0,0,.813-.725l.772.6A3.106,3.106,0,0,1,11.737,39.137Zm-.157-6.631a1.687,1.687,0,0,0-1.285.557,2.708,2.708,0,0,0-.643,1.562h3.705v-.1a2.409,2.409,0,0,0-.52-1.494A1.588,1.588,0,0,0,11.58,32.506Zm8.08.232a3.79,3.79,0,0,0-.622-.048,1.667,1.667,0,0,0-1.688,1.06V39H16.085V31.6h1.23l.021.854a1.969,1.969,0,0,1,1.764-.991,1.292,1.292,0,0,1,.561.1Zm4.737,0a3.79,3.79,0,0,0-.622-.048,1.667,1.667,0,0,0-1.688,1.06V39H20.822V31.6h1.23l.021.854a1.969,1.969,0,0,1,1.764-.991,1.292,1.292,0,0,1,.561.1ZM29.853,39a2.657,2.657,0,0,1-.178-.779,2.822,2.822,0,0,1-2.105.916,2.611,2.611,0,0,1-1.794-.619,2,2,0,0,1-.7-1.569,2.091,2.091,0,0,1,.878-1.794,4.142,4.142,0,0,1,2.471-.639h1.23v-.581a1.42,1.42,0,0,0-.4-1.056,1.593,1.593,0,0,0-1.169-.393,1.844,1.844,0,0,0-1.135.342,1.007,1.007,0,0,0-.458.827H25.225a1.745,1.745,0,0,1,.393-1.07,2.683,2.683,0,0,1,1.066-.817,3.588,3.588,0,0,1,1.48-.3,2.924,2.924,0,0,1,2,.639,2.306,2.306,0,0,1,.752,1.76v3.4a4.162,4.162,0,0,0,.26,1.62V39Zm-2.1-.964a2.223,2.223,0,0,0,1.128-.308,1.861,1.861,0,0,0,.772-.8V35.411h-.991q-2.324,0-2.324,1.36a1.151,1.151,0,0,0,.4.93A1.524,1.524,0,0,0,27.754,38.036ZM34.091,31.6l.034.82a2.732,2.732,0,0,1,2.194-.957,2.115,2.115,0,0,1,2.112,1.189,2.8,2.8,0,0,1,.96-.861,2.837,2.837,0,0,1,1.4-.328q2.434,0,2.475,2.577V39H42V34.119a1.7,1.7,0,0,0-.362-1.186,1.6,1.6,0,0,0-1.217-.393,1.677,1.677,0,0,0-1.169.42,1.706,1.706,0,0,0-.54,1.131V39H37.44V34.153a1.411,1.411,0,0,0-1.579-1.613,1.692,1.692,0,0,0-1.7,1.06V39H32.895V31.6ZM46.546,39H45.281V31.6h1.265Zm-1.367-9.358a.755.755,0,0,1,.188-.52.706.706,0,0,1,.557-.212.717.717,0,0,1,.561.212.747.747,0,0,1,.191.52.722.722,0,0,1-.191.513.73.73,0,0,1-.561.205.718.718,0,0,1-.557-.205A.73.73,0,0,1,45.179,29.642Zm6.46,9.5a3.232,3.232,0,0,1-2.447-.988,3.666,3.666,0,0,1-.943-2.642v-.232a4.438,4.438,0,0,1,.42-1.965,3.28,3.28,0,0,1,1.176-1.354,2.956,2.956,0,0,1,1.637-.489,2.77,2.77,0,0,1,2.242.95,4.114,4.114,0,0,1,.8,2.721v.526H49.513a2.629,2.629,0,0,0,.639,1.767,2.009,2.009,0,0,0,1.555.673,2.2,2.2,0,0,0,1.135-.273,2.851,2.851,0,0,0,.813-.725l.772.6A3.106,3.106,0,0,1,51.639,39.137Zm-.157-6.631a1.687,1.687,0,0,0-1.285.557,2.708,2.708,0,0,0-.643,1.562h3.705v-.1a2.409,2.409,0,0,0-.52-1.494A1.588,1.588,0,0,0,51.481,32.506Zm5.7-.9.041.93a2.7,2.7,0,0,1,2.215-1.066q2.345,0,2.365,2.646V39H60.539V34.105a1.7,1.7,0,0,0-.366-1.183,1.466,1.466,0,0,0-1.118-.383,1.825,1.825,0,0,0-1.08.328,2.228,2.228,0,0,0-.725.861V39H55.986V31.6Zm8.244-1.791V31.6h1.381v.978H65.427v4.593a1.027,1.027,0,0,0,.185.667.777.777,0,0,0,.629.222,3.062,3.062,0,0,0,.6-.082V39a3.688,3.688,0,0,1-.971.136,1.575,1.575,0,0,1-1.278-.513,2.2,2.2,0,0,1-.431-1.456V32.581H62.815V31.6h1.347V29.813ZM72.851,39a2.657,2.657,0,0,1-.178-.779,2.822,2.822,0,0,1-2.105.916,2.611,2.611,0,0,1-1.794-.619,2,2,0,0,1-.7-1.569,2.091,2.091,0,0,1,.878-1.794,4.142,4.142,0,0,1,2.471-.639h1.23v-.581a1.42,1.42,0,0,0-.4-1.056,1.593,1.593,0,0,0-1.169-.393,1.844,1.844,0,0,0-1.135.342,1.007,1.007,0,0,0-.458.827H68.223a1.745,1.745,0,0,1,.393-1.07,2.683,2.683,0,0,1,1.066-.817,3.588,3.588,0,0,1,1.48-.3,2.924,2.924,0,0,1,2,.639,2.306,2.306,0,0,1,.752,1.76v3.4a4.162,4.162,0,0,0,.26,1.62V39Zm-2.1-.964a2.223,2.223,0,0,0,1.128-.308,1.861,1.861,0,0,0,.772-.8V35.411h-.991q-2.324,0-2.324,1.36a1.151,1.151,0,0,0,.4.93A1.524,1.524,0,0,0,70.752,38.036Zm9.454-1a.931.931,0,0,0-.386-.8,3.718,3.718,0,0,0-1.347-.489,6.367,6.367,0,0,1-1.524-.492,2.169,2.169,0,0,1-.834-.684,1.635,1.635,0,0,1-.27-.943,1.919,1.919,0,0,1,.769-1.538,3,3,0,0,1,1.965-.629,3.091,3.091,0,0,1,2.041.649,2.063,2.063,0,0,1,.783,1.661H80.131a1.142,1.142,0,0,0-.441-.9,1.652,1.652,0,0,0-1.111-.376,1.729,1.729,0,0,0-1.08.3.947.947,0,0,0-.39.786.767.767,0,0,0,.362.69,4.458,4.458,0,0,0,1.309.444,6.821,6.821,0,0,1,1.535.506,2.239,2.239,0,0,1,.872.708,1.74,1.74,0,0,1,.284,1.008,1.893,1.893,0,0,1-.793,1.589,3.326,3.326,0,0,1-2.058.6,3.725,3.725,0,0,1-1.572-.314,2.557,2.557,0,0,1-1.07-.878,2.117,2.117,0,0,1-.386-1.22h1.265a1.309,1.309,0,0,0,.509,1.008,1.976,1.976,0,0,0,1.254.373,2.039,2.039,0,0,0,1.152-.291A.893.893,0,0,0,80.206,37.038ZM89.551,38.1a1.822,1.822,0,0,0,1.183-.41,1.443,1.443,0,0,0,.561-1.025h1.2a2.293,2.293,0,0,1-.437,1.21,2.881,2.881,0,0,1-1.077.916,3.107,3.107,0,0,1-1.425.342,3.047,3.047,0,0,1-2.4-1.008,4.016,4.016,0,0,1-.892-2.758v-.212a4.453,4.453,0,0,1,.4-1.921,3.02,3.02,0,0,1,1.138-1.306,3.233,3.233,0,0,1,1.753-.465,2.966,2.966,0,0,1,2.068.745,2.663,2.663,0,0,1,.878,1.935h-1.2a1.743,1.743,0,0,0-.543-1.179,1.691,1.691,0,0,0-1.207-.461,1.77,1.77,0,0,0-1.494.694,3.259,3.259,0,0,0-.53,2.006v.239a3.194,3.194,0,0,0,.526,1.969A1.779,1.779,0,0,0,89.551,38.1Zm4.026-2.871A4.369,4.369,0,0,1,94,33.278a3.187,3.187,0,0,1,1.189-1.34,3.238,3.238,0,0,1,1.74-.472,3.119,3.119,0,0,1,2.444,1.046,4.024,4.024,0,0,1,.933,2.782v.089a4.407,4.407,0,0,1-.414,1.938,3.14,3.14,0,0,1-1.183,1.336,3.275,3.275,0,0,1-1.767.479,3.111,3.111,0,0,1-2.437-1.046,4,4,0,0,1-.933-2.769Zm1.271.15a3.164,3.164,0,0,0,.571,1.976,1.934,1.934,0,0,0,3.059-.01,3.46,3.46,0,0,0,.567-2.116,3.159,3.159,0,0,0-.578-1.972,1.836,1.836,0,0,0-1.535-.755,1.816,1.816,0,0,0-1.511.745A3.435,3.435,0,0,0,94.849,35.384Zm8.237-3.78.034.82a2.732,2.732,0,0,1,2.194-.957,2.115,2.115,0,0,1,2.112,1.189,2.8,2.8,0,0,1,.96-.861,2.837,2.837,0,0,1,1.4-.328q2.434,0,2.475,2.577V39H111V34.119a1.7,1.7,0,0,0-.362-1.186,1.6,1.6,0,0,0-1.217-.393,1.677,1.677,0,0,0-1.169.42,1.706,1.706,0,0,0-.54,1.131V39h-1.271V34.153a1.411,1.411,0,0,0-1.579-1.613,1.692,1.692,0,0,0-1.7,1.06V39H101.89V31.6Zm10.746,3.63a4.369,4.369,0,0,1,.427-1.955,3.187,3.187,0,0,1,1.189-1.34,3.238,3.238,0,0,1,1.74-.472,3.119,3.119,0,0,1,2.444,1.046,4.024,4.024,0,0,1,.933,2.782v.089a4.407,4.407,0,0,1-.414,1.938,3.14,3.14,0,0,1-1.183,1.336,3.275,3.275,0,0,1-1.767.479,3.111,3.111,0,0,1-2.437-1.046,4,4,0,0,1-.933-2.769Zm1.271.15a3.164,3.164,0,0,0,.571,1.976,1.934,1.934,0,0,0,3.059-.01,3.46,3.46,0,0,0,.567-2.116,3.159,3.159,0,0,0-.578-1.972,1.836,1.836,0,0,0-1.535-.755,1.816,1.816,0,0,0-1.511.745A3.435,3.435,0,0,0,115.1,35.384Zm14.239-.4h-2.3l-.7,4.02h-1.292l1.729-9.953,2.994.007a3.337,3.337,0,0,1,2.386.794,2.476,2.476,0,0,1,.69,2.142,2.835,2.835,0,0,1-.68,1.649,3.716,3.716,0,0,1-1.61,1.074l1.545,4.2L132.1,39h-1.367ZM127.23,33.9l1.887.007a2.635,2.635,0,0,0,1.661-.523,2.036,2.036,0,0,0,.793-1.4,1.608,1.608,0,0,0-.342-1.34,1.826,1.826,0,0,0-1.354-.513l-1.989-.007Zm11.854,2.536q.15-1.094-1.135-1.6l-1.183-.431-.4-.171q-2-.909-1.866-2.557a2.674,2.674,0,0,1,.567-1.463,3.228,3.228,0,0,1,1.323-.981,4.243,4.243,0,0,1,1.753-.325,3.5,3.5,0,0,1,1.61.4,2.592,2.592,0,0,1,1.077,1.07,2.916,2.916,0,0,1,.328,1.548l-1.292-.007a1.783,1.783,0,0,0-.41-1.423,1.836,1.836,0,0,0-1.367-.518,2.547,2.547,0,0,0-1.565.438,1.711,1.711,0,0,0-.725,1.233q-.137,1.02,1.251,1.548l1.019.363.513.219a2.574,2.574,0,0,1,1.784,2.639,2.636,2.636,0,0,1-.567,1.453,3.172,3.172,0,0,1-1.336.947,4.607,4.607,0,0,1-1.815.314,3.8,3.8,0,0,1-1.712-.4,2.794,2.794,0,0,1-1.179-1.077,2.693,2.693,0,0,1-.355-1.552l1.285.007a1.693,1.693,0,0,0,.482,1.412,2.169,2.169,0,0,0,1.535.537,2.74,2.74,0,0,0,1.634-.431A1.677,1.677,0,0,0,139.084,36.437Zm9.044-1.1a5.868,5.868,0,0,1-.608,2.03,3.455,3.455,0,0,1-1.169,1.35,2.676,2.676,0,0,1-1.545.427,2.463,2.463,0,0,1-1.969-.868l-.663,3.568h-1.237l1.777-10.24,1.121-.007-.137.827a2.806,2.806,0,0,1,2.194-.957,2.063,2.063,0,0,1,1.661.786,3.46,3.46,0,0,1,.629,2.092,7.36,7.36,0,0,1-.034.848Zm-1.217-.14.034-.573a2.6,2.6,0,0,0-.379-1.526,1.334,1.334,0,0,0-1.1-.556,2.194,2.194,0,0,0-1.853,1.017l-.622,3.544a1.548,1.548,0,0,0,1.5,1.01,1.946,1.946,0,0,0,1.569-.72A4.18,4.18,0,0,0,146.911,35.2Zm5.407,3.941a2.667,2.667,0,0,1-2.16-1.019,3.505,3.505,0,0,1-.656-2.536l.034-.294a4.921,4.921,0,0,1,.653-2.01,3.8,3.8,0,0,1,1.309-1.371,3.054,3.054,0,0,1,1.668-.441,2.352,2.352,0,0,1,1.791.759,3.121,3.121,0,0,1,.711,1.982,5.792,5.792,0,0,1-.027.889l-.075.567h-4.833a2.5,2.5,0,0,0,.332,1.709,1.57,1.57,0,0,0,1.357.731,2.631,2.631,0,0,0,2.023-.984l.711.6a3.253,3.253,0,0,1-1.2,1.049A3.4,3.4,0,0,1,152.318,39.137ZM153.1,32.5a1.807,1.807,0,0,0-1.336.52,3.693,3.693,0,0,0-.906,1.606l3.6.007.027-.109a2.024,2.024,0,0,0-.277-1.432A1.3,1.3,0,0,0,153.1,32.5Zm6.4,5.612a1.877,1.877,0,0,0,1.2-.386,1.837,1.837,0,0,0,.7-1.049l1.169-.007a2.638,2.638,0,0,1-.557,1.271,3.22,3.22,0,0,1-2.56,1.2,2.64,2.64,0,0,1-1.562-.482,2.7,2.7,0,0,1-.94-1.306,4.35,4.35,0,0,1-.205-1.883l.034-.342a4.9,4.9,0,0,1,.622-1.907,3.6,3.6,0,0,1,1.285-1.309,3.192,3.192,0,0,1,1.75-.441,2.5,2.5,0,0,1,1.859.779,2.7,2.7,0,0,1,.7,1.907l-1.155-.007a1.775,1.775,0,0,0-.4-1.172,1.406,1.406,0,0,0-1.053-.475,1.972,1.972,0,0,0-1.6.718,3.76,3.76,0,0,0-.8,2.064l-.021.178a5.928,5.928,0,0,0-.014.9,2.061,2.061,0,0,0,.451,1.265A1.449,1.449,0,0,0,159.5,38.111Zm3.78,2.878-.711-.513a4.515,4.515,0,0,0,.984-1.941l.178-1.032h1.21l-.144.923A3.956,3.956,0,0,1,163.283,40.989ZM177.5,35.828a3.968,3.968,0,0,1-1.4,2.447,3.917,3.917,0,0,1-2.663.861,3.1,3.1,0,0,1-1.613-.455,2.872,2.872,0,0,1-1.073-1.251,4.673,4.673,0,0,1-.424-1.808,5.8,5.8,0,0,1,.048-1.094l.116-.82a6.191,6.191,0,0,1,1.576-3.538,3.976,3.976,0,0,1,3.052-1.261,2.977,2.977,0,0,1,2.222.906,3.6,3.6,0,0,1,.868,2.437h-1.278q-.089-2.092-1.641-2.256l-.226-.014a2.642,2.642,0,0,0-2.157.96,5.2,5.2,0,0,0-1.118,2.717l-.15,1.032-.041.6a3.384,3.384,0,0,0,.448,2,1.688,1.688,0,0,0,1.453.769,2.559,2.559,0,0,0,1.719-.5,3.321,3.321,0,0,0,1.036-1.716Zm5.824,2.44a2.856,2.856,0,0,1-2.208.868,1.843,1.843,0,0,1-1.569-.759,2.9,2.9,0,0,1-.379-2l.793-4.778H181.2l-.8,4.8a3.188,3.188,0,0,0-.014.588,1.223,1.223,0,0,0,.294.772,1,1,0,0,0,.725.3,2.219,2.219,0,0,0,2.051-1.073l.93-5.387h1.237L184.338,39h-1.169Zm5.981-.157a1.877,1.877,0,0,0,1.2-.386,1.837,1.837,0,0,0,.7-1.049l1.169-.007a2.638,2.638,0,0,1-.557,1.271,3.22,3.22,0,0,1-2.56,1.2,2.64,2.64,0,0,1-1.562-.482,2.7,2.7,0,0,1-.94-1.306,4.35,4.35,0,0,1-.205-1.883l.034-.342a4.9,4.9,0,0,1,.622-1.907,3.6,3.6,0,0,1,1.285-1.309,3.192,3.192,0,0,1,1.75-.441,2.5,2.5,0,0,1,1.859.779,2.7,2.7,0,0,1,.7,1.907l-1.155-.007a1.775,1.775,0,0,0-.4-1.172,1.406,1.406,0,0,0-1.053-.475,1.972,1.972,0,0,0-1.6.718,3.76,3.76,0,0,0-.8,2.064l-.021.178a5.928,5.928,0,0,0-.014.9,2.061,2.061,0,0,0,.451,1.265A1.449,1.449,0,0,0,189.308,38.111Zm8.75.157a2.856,2.856,0,0,1-2.208.868,1.843,1.843,0,0,1-1.569-.759,2.9,2.9,0,0,1-.379-2l.793-4.778h1.237l-.8,4.8a3.188,3.188,0,0,0-.014.588,1.223,1.223,0,0,0,.294.772,1,1,0,0,0,.725.3,2.219,2.219,0,0,0,2.051-1.073l.93-5.387h1.237L199.069,39H197.9Zm5.3-6.672-.157.827a2.892,2.892,0,0,1,2.249-.957,2.282,2.282,0,0,1,1.193.321,1.576,1.576,0,0,1,.673.868,3.054,3.054,0,0,1,2.454-1.189,1.956,1.956,0,0,1,1.634.745,2.662,2.662,0,0,1,.39,1.928L210.978,39h-1.23l.807-4.874a2.575,2.575,0,0,0,0-.649q-.13-.93-1.217-.95a1.869,1.869,0,0,0-1.227.42,1.944,1.944,0,0,0-.708,1.138L206.562,39h-1.244l.82-4.867a1.563,1.563,0,0,0-.229-1.169,1.2,1.2,0,0,0-.988-.424,2.026,2.026,0,0,0-1.839,1.053L202.146,39h-1.237l1.285-7.4ZM219.6,35.336a5.763,5.763,0,0,1-.622,2.044,3.484,3.484,0,0,1-1.176,1.347,2.676,2.676,0,0,1-1.531.417,2.284,2.284,0,0,1-1.989-1l-.253.861h-1.142l1.825-10.5h1.237l-.745,3.924a2.719,2.719,0,0,1,2.16-.957,2.063,2.063,0,0,1,1.661.786,3.46,3.46,0,0,1,.629,2.092,6.441,6.441,0,0,1-.041.848Zm-1.176-.714a2.633,2.633,0,0,0-.335-1.526A1.282,1.282,0,0,0,217,32.54a2.252,2.252,0,0,0-1.955,1.161l-.554,3.216a1.574,1.574,0,0,0,1.538,1.154,1.8,1.8,0,0,0,1.268-.43,2.81,2.81,0,0,0,.824-1.28A5.756,5.756,0,0,0,218.422,34.622Zm5.353,4.514a2.667,2.667,0,0,1-2.16-1.019,3.505,3.505,0,0,1-.656-2.536l.034-.294a4.921,4.921,0,0,1,.653-2.01,3.8,3.8,0,0,1,1.309-1.371,3.054,3.054,0,0,1,1.668-.441,2.352,2.352,0,0,1,1.791.759,3.121,3.121,0,0,1,.711,1.982,5.792,5.792,0,0,1-.027.889l-.075.567h-4.833a2.5,2.5,0,0,0,.332,1.709,1.57,1.57,0,0,0,1.357.731,2.631,2.631,0,0,0,2.023-.984l.711.6a3.253,3.253,0,0,1-1.2,1.049A3.4,3.4,0,0,1,223.774,39.137Zm.786-6.638a1.807,1.807,0,0,0-1.336.52,3.693,3.693,0,0,0-.906,1.606l3.6.007.027-.109a2.024,2.024,0,0,0-.277-1.432A1.3,1.3,0,0,0,224.561,32.5Zm7.875.232-.581-.062a2.117,2.117,0,0,0-1.873,1.073L229.072,39h-1.237l1.285-7.4,1.2-.007-.185.861a2.212,2.212,0,0,1,1.853-1,2.27,2.27,0,0,1,.588.1Zm6.146,4.4,2.632-5.53h1.367l-4.389,8.627a2.656,2.656,0,0,1-2.352,1.777,4.029,4.029,0,0,1-.745-.123l.109-1.025.321.034a1.622,1.622,0,0,0,1.015-.263,2.426,2.426,0,0,0,.755-.94l.444-.848L236.462,31.6h1.292Zm15.408-7.014h-3.1L249.354,39h-1.278l1.538-8.88h-3.1l.191-1.073h7.472Zm2.96,9.017a2.667,2.667,0,0,1-2.16-1.019,3.505,3.505,0,0,1-.656-2.536l.034-.294a4.921,4.921,0,0,1,.653-2.01,3.8,3.8,0,0,1,1.309-1.371,3.054,3.054,0,0,1,1.668-.441,2.352,2.352,0,0,1,1.791.759,3.121,3.121,0,0,1,.711,1.982,5.794,5.794,0,0,1-.027.889l-.075.567h-4.833a2.5,2.5,0,0,0,.332,1.709,1.57,1.57,0,0,0,1.357.731,2.631,2.631,0,0,0,2.023-.984l.711.6a3.254,3.254,0,0,1-1.2,1.049A3.4,3.4,0,0,1,256.949,39.137Zm.786-6.638a1.807,1.807,0,0,0-1.336.52,3.693,3.693,0,0,0-.906,1.606l3.6.007.027-.109a2.024,2.024,0,0,0-.277-1.432A1.3,1.3,0,0,0,257.735,32.5ZM265.59,37q.1-.766-.841-1.08l-1.285-.376q-1.627-.561-1.572-1.859a2.048,2.048,0,0,1,.892-1.6,3.177,3.177,0,0,1,1.986-.612,2.649,2.649,0,0,1,1.822.653,2.068,2.068,0,0,1,.673,1.665l-1.23-.007a1.154,1.154,0,0,0-.349-.9,1.379,1.379,0,0,0-.964-.362,1.8,1.8,0,0,0-1.107.314,1.151,1.151,0,0,0-.5.807q-.089.643.786.937l.622.171a4.005,4.005,0,0,1,1.8.854,1.632,1.632,0,0,1,.492,1.306,2.074,2.074,0,0,1-.451,1.2,2.58,2.58,0,0,1-1.094.783,3.658,3.658,0,0,1-1.456.25,2.885,2.885,0,0,1-1.941-.687,2.124,2.124,0,0,1-.738-1.733l1.237.007a1.311,1.311,0,0,0,.4,1,1.515,1.515,0,0,0,1.087.376,2.132,2.132,0,0,0,1.169-.284A1.091,1.091,0,0,0,265.59,37Zm5.756-7.185-.314,1.791h1.347l-.171.978h-1.34l-.772,4.6a1.6,1.6,0,0,0-.007.328.521.521,0,0,0,.581.533,3.543,3.543,0,0,0,.6-.068l-.1,1.032a3.366,3.366,0,0,1-.9.123,1.292,1.292,0,0,1-1.107-.543,2.1,2.1,0,0,1-.287-1.425l.752-4.58h-1.306l.171-.978H269.8l.314-1.791Zm1.374,10.042H271.6L277.5,29.047h1.114ZM8.969,53.047,7.82,59.78a3.822,3.822,0,0,1-1.34,2.471,3.934,3.934,0,0,1-2.673.892,3.462,3.462,0,0,1-1.7-.441A2.54,2.54,0,0,1,1.046,61.52,3.229,3.229,0,0,1,.82,59.787l1.148-6.74H3.233L2.092,59.8a2.183,2.183,0,0,0,.355,1.645,1.777,1.777,0,0,0,1.429.626,2.461,2.461,0,0,0,1.753-.564,2.734,2.734,0,0,0,.9-1.7l1.148-6.759Zm2.57,2.55-.178.937a2.916,2.916,0,0,1,2.27-1.066,1.835,1.835,0,0,1,1.545.725,2.815,2.815,0,0,1,.369,1.962L14.738,63H13.5l.813-4.862a2.592,2.592,0,0,0,.007-.621,1.022,1.022,0,0,0-1.128-.976,2.329,2.329,0,0,0-1.955,1.188L10.322,63H9.085l1.285-7.4ZM17.985,63h-1.23l1.285-7.4h1.23ZM19,52.9a.677.677,0,0,1,.523.188.7.7,0,0,1,.208.53.73.73,0,0,1-.731.745.682.682,0,0,1-.526-.185.669.669,0,0,1-.2-.52.775.775,0,0,1,.205-.533A.723.723,0,0,1,19,52.9Zm4.272.909L22.962,55.6h1.347l-.171.978H22.8l-.772,4.6a1.6,1.6,0,0,0-.007.328.521.521,0,0,0,.581.533,3.544,3.544,0,0,0,.6-.068l-.1,1.032a3.366,3.366,0,0,1-.9.123,1.292,1.292,0,0,1-1.107-.543,2.1,2.1,0,0,1-.287-1.425l.752-4.58H20.255l.171-.978h1.306l.314-1.791Zm2.01,8.524a.792.792,0,0,1,.195-.547.742.742,0,0,1,.584-.219.765.765,0,0,1,.591.219.776.776,0,0,1,.2.547.734.734,0,0,1-.2.526.778.778,0,0,1-.591.212.7.7,0,0,1-.779-.738Z" transform="translate(1049.051 7410.607)" fill="#12263f"/><path d="M5.9,10.563A6.172,6.172,0,0,1,3.44,9.371a2.279,2.279,0,0,1-.769-1.747,2.408,2.408,0,0,1,.94-1.945A3.736,3.736,0,0,1,6.055,4.91a4.078,4.078,0,0,1,1.829.4A3.007,3.007,0,0,1,9.127,6.4a2.8,2.8,0,0,1,.441,1.524H8.249A1.82,1.82,0,0,0,7.675,6.5a2.335,2.335,0,0,0-1.62-.518,2.391,2.391,0,0,0-1.514.428A1.428,1.428,0,0,0,4,7.6,1.285,1.285,0,0,0,4.513,8.63,5.062,5.062,0,0,0,6.27,9.4a8.152,8.152,0,0,1,1.941.77,2.946,2.946,0,0,1,1.039.981,2.5,2.5,0,0,1,.338,1.319,2.326,2.326,0,0,1-.943,1.938,4.022,4.022,0,0,1-2.522.728,4.678,4.678,0,0,1-1.914-.393,3.221,3.221,0,0,1-1.371-1.077,2.627,2.627,0,0,1-.482-1.552H3.676a1.714,1.714,0,0,0,.667,1.425,2.806,2.806,0,0,0,1.781.523,2.58,2.58,0,0,0,1.593-.424,1.377,1.377,0,0,0,.554-1.155,1.351,1.351,0,0,0-.513-1.131A5.911,5.911,0,0,0,5.9,10.563Zm9.741,3.705a2.686,2.686,0,0,1-2.167.868,2.3,2.3,0,0,1-1.8-.687,2.974,2.974,0,0,1-.625-2.034V7.6H12.31v4.778q0,1.682,1.367,1.682a1.893,1.893,0,0,0,1.928-1.08V7.6h1.265V15h-1.2Zm7.458-1.23a.931.931,0,0,0-.386-.8,3.718,3.718,0,0,0-1.347-.489,6.367,6.367,0,0,1-1.524-.492,2.169,2.169,0,0,1-.834-.684,1.635,1.635,0,0,1-.27-.943A1.919,1.919,0,0,1,19.5,8.1a3,3,0,0,1,1.965-.629,3.091,3.091,0,0,1,2.041.649,2.063,2.063,0,0,1,.783,1.661H23.021a1.142,1.142,0,0,0-.441-.9,1.652,1.652,0,0,0-1.111-.376,1.729,1.729,0,0,0-1.08.3.947.947,0,0,0-.39.786.767.767,0,0,0,.362.69,4.458,4.458,0,0,0,1.309.444,6.821,6.821,0,0,1,1.535.506,2.239,2.239,0,0,1,.872.708,1.74,1.74,0,0,1,.284,1.008,1.893,1.893,0,0,1-.793,1.589,3.326,3.326,0,0,1-2.058.6,3.725,3.725,0,0,1-1.572-.314,2.557,2.557,0,0,1-1.07-.878,2.117,2.117,0,0,1-.386-1.22h1.265a1.309,1.309,0,0,0,.509,1.008,1.976,1.976,0,0,0,1.254.373,2.039,2.039,0,0,0,1.152-.291A.893.893,0,0,0,23.1,13.038ZM32.441,14.1a1.822,1.822,0,0,0,1.183-.41,1.443,1.443,0,0,0,.561-1.025h1.2a2.293,2.293,0,0,1-.437,1.21,2.881,2.881,0,0,1-1.077.916,3.107,3.107,0,0,1-1.425.342,3.047,3.047,0,0,1-2.4-1.008,4.016,4.016,0,0,1-.892-2.758v-.212a4.453,4.453,0,0,1,.4-1.921,3.02,3.02,0,0,1,1.138-1.306,3.233,3.233,0,0,1,1.753-.465,2.966,2.966,0,0,1,2.068.745,2.663,2.663,0,0,1,.878,1.935h-1.2a1.743,1.743,0,0,0-.543-1.179,1.691,1.691,0,0,0-1.207-.461,1.77,1.77,0,0,0-1.494.694,3.259,3.259,0,0,0-.53,2.006v.239a3.194,3.194,0,0,0,.526,1.969A1.779,1.779,0,0,0,32.441,14.1Zm8.928.9a2.657,2.657,0,0,1-.178-.779,2.822,2.822,0,0,1-2.105.916,2.611,2.611,0,0,1-1.794-.619,2,2,0,0,1-.7-1.569,2.091,2.091,0,0,1,.878-1.794,4.142,4.142,0,0,1,2.471-.639h1.23V9.935a1.42,1.42,0,0,0-.4-1.056,1.593,1.593,0,0,0-1.169-.393,1.844,1.844,0,0,0-1.135.342,1.007,1.007,0,0,0-.458.827H36.741a1.745,1.745,0,0,1,.393-1.07A2.683,2.683,0,0,1,38.2,7.768a3.588,3.588,0,0,1,1.48-.3,2.924,2.924,0,0,1,2,.639,2.306,2.306,0,0,1,.752,1.76v3.4a4.162,4.162,0,0,0,.26,1.62V15Zm-2.1-.964a2.223,2.223,0,0,0,1.128-.308,1.861,1.861,0,0,0,.772-.8V11.411H40.18q-2.324,0-2.324,1.36a1.151,1.151,0,0,0,.4.93A1.524,1.524,0,0,0,39.271,14.036Zm8.723-5.3a3.79,3.79,0,0,0-.622-.048,1.667,1.667,0,0,0-1.688,1.06V15H44.418V7.6h1.23l.021.854a1.969,1.969,0,0,1,1.764-.991,1.292,1.292,0,0,1,.561.1ZM53.448,15a2.657,2.657,0,0,1-.178-.779,2.822,2.822,0,0,1-2.105.916,2.611,2.611,0,0,1-1.794-.619,2,2,0,0,1-.7-1.569,2.091,2.091,0,0,1,.878-1.794,4.142,4.142,0,0,1,2.471-.639h1.23V9.935a1.42,1.42,0,0,0-.4-1.056,1.593,1.593,0,0,0-1.169-.393,1.844,1.844,0,0,0-1.135.342,1.007,1.007,0,0,0-.458.827H48.82a1.745,1.745,0,0,1,.393-1.07,2.683,2.683,0,0,1,1.066-.817,3.588,3.588,0,0,1,1.48-.3,2.924,2.924,0,0,1,2,.639,2.306,2.306,0,0,1,.752,1.76v3.4a4.162,4.162,0,0,0,.26,1.62V15Zm-2.1-.964a2.223,2.223,0,0,0,1.128-.308,1.861,1.861,0,0,0,.772-.8V11.411h-.991q-2.324,0-2.324,1.36a1.151,1.151,0,0,0,.4.93A1.524,1.524,0,0,0,51.35,14.036Zm8.114.068a1.822,1.822,0,0,0,1.183-.41,1.443,1.443,0,0,0,.561-1.025h1.2a2.293,2.293,0,0,1-.437,1.21,2.881,2.881,0,0,1-1.077.916,3.107,3.107,0,0,1-1.425.342,3.047,3.047,0,0,1-2.4-1.008,4.016,4.016,0,0,1-.892-2.758v-.212a4.453,4.453,0,0,1,.4-1.921A3.02,3.02,0,0,1,57.7,7.932a3.233,3.233,0,0,1,1.753-.465,2.966,2.966,0,0,1,2.068.745,2.663,2.663,0,0,1,.878,1.935h-1.2a1.743,1.743,0,0,0-.543-1.179,1.691,1.691,0,0,0-1.207-.461,1.77,1.77,0,0,0-1.494.694,3.259,3.259,0,0,0-.53,2.006v.239a3.194,3.194,0,0,0,.526,1.969A1.779,1.779,0,0,0,59.464,14.1Zm6.077-8.292V7.6h1.381v.978H65.541v4.593a1.027,1.027,0,0,0,.185.667.777.777,0,0,0,.629.222,3.062,3.062,0,0,0,.6-.082V15a3.688,3.688,0,0,1-.971.136,1.575,1.575,0,0,1-1.278-.513,2.2,2.2,0,0,1-.431-1.456V8.581H62.93V7.6h1.347V5.813Zm5.927,9.324a3.232,3.232,0,0,1-2.447-.988,3.666,3.666,0,0,1-.943-2.642v-.232a4.438,4.438,0,0,1,.42-1.965,3.28,3.28,0,0,1,1.176-1.354,2.956,2.956,0,0,1,1.637-.489,2.77,2.77,0,0,1,2.242.95,4.114,4.114,0,0,1,.8,2.721v.526H69.342a2.629,2.629,0,0,0,.639,1.767,2.009,2.009,0,0,0,1.555.673,2.2,2.2,0,0,0,1.135-.273,2.851,2.851,0,0,0,.813-.725l.772.6A3.106,3.106,0,0,1,71.468,15.137Zm-.157-6.631a1.687,1.687,0,0,0-1.285.557,2.708,2.708,0,0,0-.643,1.562h3.705v-.1a2.409,2.409,0,0,0-.52-1.494A1.588,1.588,0,0,0,71.311,8.506Zm8.08.232a3.79,3.79,0,0,0-.622-.048A1.667,1.667,0,0,0,77.08,9.75V15H75.815V7.6h1.23l.021.854a1.969,1.969,0,0,1,1.764-.991,1.292,1.292,0,0,1,.561.1ZM81.927,15H80.655V7.6h1.271ZM81.94,4.507h1.531L81.64,6.517l-1.019,0Zm6.378,8.531a.931.931,0,0,0-.386-.8,3.718,3.718,0,0,0-1.347-.489,6.367,6.367,0,0,1-1.524-.492,2.169,2.169,0,0,1-.834-.684,1.635,1.635,0,0,1-.27-.943A1.919,1.919,0,0,1,84.726,8.1a3,3,0,0,1,1.965-.629,3.091,3.091,0,0,1,2.041.649,2.063,2.063,0,0,1,.783,1.661H88.243a1.142,1.142,0,0,0-.441-.9,1.652,1.652,0,0,0-1.111-.376,1.729,1.729,0,0,0-1.08.3.947.947,0,0,0-.39.786.767.767,0,0,0,.362.69,4.458,4.458,0,0,0,1.309.444,6.821,6.821,0,0,1,1.535.506,2.239,2.239,0,0,1,.872.708,1.74,1.74,0,0,1,.284,1.008,1.893,1.893,0,0,1-.793,1.589,3.326,3.326,0,0,1-2.058.6,3.725,3.725,0,0,1-1.572-.314,2.557,2.557,0,0,1-1.07-.878,2.117,2.117,0,0,1-.386-1.22h1.265a1.309,1.309,0,0,0,.509,1.008,1.976,1.976,0,0,0,1.254.373,2.039,2.039,0,0,0,1.152-.291A.893.893,0,0,0,88.318,13.038Zm4.628-7.226V7.6h1.381v.978H92.946v4.593a1.027,1.027,0,0,0,.185.667.777.777,0,0,0,.629.222,3.062,3.062,0,0,0,.6-.082V15a3.688,3.688,0,0,1-.971.136,1.575,1.575,0,0,1-1.278-.513,2.2,2.2,0,0,1-.431-1.456V8.581H90.335V7.6h1.347V5.813ZM97.178,15H95.913V7.6h1.265ZM95.811,5.642A.755.755,0,0,1,96,5.122a.706.706,0,0,1,.557-.212.717.717,0,0,1,.561.212.747.747,0,0,1,.191.52.722.722,0,0,1-.191.513.73.73,0,0,1-.561.205A.718.718,0,0,1,96,6.154.73.73,0,0,1,95.811,5.642Zm6.357,8.463a1.822,1.822,0,0,0,1.183-.41,1.443,1.443,0,0,0,.561-1.025h1.2a2.293,2.293,0,0,1-.437,1.21,2.882,2.882,0,0,1-1.077.916,3.107,3.107,0,0,1-1.425.342,3.047,3.047,0,0,1-2.4-1.008,4.016,4.016,0,0,1-.892-2.758v-.212a4.453,4.453,0,0,1,.4-1.921,3.02,3.02,0,0,1,1.138-1.306,3.233,3.233,0,0,1,1.753-.465,2.966,2.966,0,0,1,2.068.745,2.663,2.663,0,0,1,.878,1.935h-1.2a1.743,1.743,0,0,0-.543-1.179,1.691,1.691,0,0,0-1.207-.461,1.77,1.77,0,0,0-1.494.694,3.259,3.259,0,0,0-.53,2.006v.239a3.194,3.194,0,0,0,.526,1.969A1.779,1.779,0,0,0,102.168,14.1Zm8.928.9a2.657,2.657,0,0,1-.178-.779,2.822,2.822,0,0,1-2.105.916,2.611,2.611,0,0,1-1.794-.619,2,2,0,0,1-.7-1.569,2.091,2.091,0,0,1,.878-1.794,4.141,4.141,0,0,1,2.471-.639h1.23V9.935a1.42,1.42,0,0,0-.4-1.056,1.593,1.593,0,0,0-1.169-.393,1.844,1.844,0,0,0-1.135.342,1.007,1.007,0,0,0-.458.827h-1.271a1.745,1.745,0,0,1,.393-1.07,2.683,2.683,0,0,1,1.066-.817,3.588,3.588,0,0,1,1.48-.3,2.924,2.924,0,0,1,2,.639,2.306,2.306,0,0,1,.752,1.76v3.4a4.162,4.162,0,0,0,.26,1.62V15Zm-2.1-.964a2.223,2.223,0,0,0,1.128-.308,1.861,1.861,0,0,0,.772-.8V11.411h-.991q-2.324,0-2.324,1.36a1.151,1.151,0,0,0,.4.93A1.524,1.524,0,0,0,109,14.036Zm9.454-1a.931.931,0,0,0-.386-.8,3.718,3.718,0,0,0-1.347-.489,6.367,6.367,0,0,1-1.524-.492,2.169,2.169,0,0,1-.834-.684,1.635,1.635,0,0,1-.27-.943,1.919,1.919,0,0,1,.769-1.538,3,3,0,0,1,1.965-.629,3.091,3.091,0,0,1,2.041.649,2.063,2.063,0,0,1,.783,1.661h-1.271a1.142,1.142,0,0,0-.441-.9,1.652,1.652,0,0,0-1.111-.376,1.729,1.729,0,0,0-1.08.3.947.947,0,0,0-.39.786.767.767,0,0,0,.362.69,4.458,4.458,0,0,0,1.309.444,6.821,6.821,0,0,1,1.535.506,2.239,2.239,0,0,1,.872.708,1.74,1.74,0,0,1,.284,1.008,1.893,1.893,0,0,1-.793,1.589,3.326,3.326,0,0,1-2.058.6,3.725,3.725,0,0,1-1.572-.314,2.557,2.557,0,0,1-1.07-.878,2.117,2.117,0,0,1-.386-1.22H115.1a1.309,1.309,0,0,0,.509,1.008,1.976,1.976,0,0,0,1.254.373,2.039,2.039,0,0,0,1.152-.291A.893.893,0,0,0,118.451,13.038Zm10.685,0a.931.931,0,0,0-.386-.8,3.718,3.718,0,0,0-1.347-.489,6.367,6.367,0,0,1-1.524-.492,2.169,2.169,0,0,1-.834-.684,1.635,1.635,0,0,1-.27-.943,1.919,1.919,0,0,1,.769-1.538,3,3,0,0,1,1.965-.629,3.091,3.091,0,0,1,2.041.649,2.063,2.063,0,0,1,.783,1.661h-1.271a1.142,1.142,0,0,0-.441-.9,1.652,1.652,0,0,0-1.111-.376,1.729,1.729,0,0,0-1.08.3.947.947,0,0,0-.39.786.767.767,0,0,0,.362.69,4.458,4.458,0,0,0,1.309.444,6.821,6.821,0,0,1,1.535.506,2.239,2.239,0,0,1,.872.708,1.74,1.74,0,0,1,.284,1.008,1.893,1.893,0,0,1-.793,1.589,3.326,3.326,0,0,1-2.058.6,3.725,3.725,0,0,1-1.572-.314,2.557,2.557,0,0,1-1.07-.878,2.117,2.117,0,0,1-.386-1.22h1.265a1.309,1.309,0,0,0,.509,1.008,1.976,1.976,0,0,0,1.254.373,2.039,2.039,0,0,0,1.152-.291A.893.893,0,0,0,129.136,13.038Zm2.577-1.8a4.369,4.369,0,0,1,.427-1.955,3.187,3.187,0,0,1,1.189-1.34,3.238,3.238,0,0,1,1.74-.472,3.119,3.119,0,0,1,2.444,1.046,4.024,4.024,0,0,1,.933,2.782v.089a4.407,4.407,0,0,1-.414,1.938,3.14,3.14,0,0,1-1.183,1.336,3.275,3.275,0,0,1-1.767.479,3.111,3.111,0,0,1-2.437-1.046,4,4,0,0,1-.933-2.769Zm1.271.15a3.164,3.164,0,0,0,.571,1.976,1.934,1.934,0,0,0,3.059-.01,3.46,3.46,0,0,0,.567-2.116,3.159,3.159,0,0,0-.578-1.972,1.836,1.836,0,0,0-1.535-.755,1.816,1.816,0,0,0-1.511.745A3.435,3.435,0,0,0,132.984,11.384Zm8.244-3.78.041.93a2.7,2.7,0,0,1,2.215-1.066q2.345,0,2.365,2.646V15h-1.265V10.105a1.7,1.7,0,0,0-.366-1.183A1.466,1.466,0,0,0,143.1,8.54a1.825,1.825,0,0,0-1.08.328,2.228,2.228,0,0,0-.725.861V15h-1.265V7.6Zm6.487,6.733a.792.792,0,0,1,.195-.547.742.742,0,0,1,.584-.219.765.765,0,0,1,.591.219.776.776,0,0,1,.2.547.734.734,0,0,1-.2.526.778.778,0,0,1-.591.212.7.7,0,0,1-.779-.738Zm.007-6.036a.792.792,0,0,1,.195-.547.742.742,0,0,1,.584-.219.765.765,0,0,1,.591.219.776.776,0,0,1,.2.547.734.734,0,0,1-.2.526.778.778,0,0,1-.591.212.7.7,0,0,1-.779-.738Z" transform="translate(809 7304.608)" fill="#12263f"/><path d="M1.5,212h-3V0h3Z" transform="translate(992.157 7236.456)" fill="#607c89"/><path d="M31.757,1.5H0v-3H31.757Z" transform="translate(992.657 7238.107)" fill="#607c89"/><path d="M213.257,1.5H0v-3H213.257Z" transform="translate(777.243 7340.108)" fill="#607c89"/><path d="M33.914,1.5H0v-3H33.914Z" transform="translate(990.5 7448.782)" fill="#607c89"/><path d="M5.326,0l5.326,9.485H0Z" transform="translate(1031.157 7232.782) rotate(90)" fill="#607c89"/><path d="M5.326,0l5.326,9.485H0Z" transform="translate(1031.157 7443.457) rotate(90)" fill="#607c89"/><rect width="215" height="111" rx="15" transform="translate(563 7284.607)" fill="#fff"/><g transform="translate(589.637 7309.257)"><g clip-path="url(#a)"><path d="M1.029,149.651q-.009-.11-.017-.22c.022-.294.345-.529.167-.861l.138-.326a3.473,3.473,0,0,0,.382-1.229c.079-.759.354-.866,1.042-.463a87.918,87.918,0,0,1,11.968,8.687c1.578,1.325,3.112,2.7,4.652,4.072.36.32.539.371.821-.116a86.7,86.7,0,0,1,16.064-19.919,57.7,57.7,0,0,1,5.728-4.814c.172-.042.241.019.194.195a70.954,70.954,0,0,0-5.469,6.4,2.157,2.157,0,0,0-.5.9,1.538,1.538,0,0,1-.343.79,2.032,2.032,0,0,0-.229,2.468,16.78,16.78,0,0,1,1.679,7.154,17.053,17.053,0,0,1-2.666,9.338A19.107,19.107,0,0,1,20.819,170.5a16.275,16.275,0,0,1-9.638-1.79,18.8,18.8,0,0,1-7.82-6.868,15.38,15.38,0,0,1-2.554-8.025,5.919,5.919,0,0,1-.072-1.895,21.376,21.376,0,0,1,.3-2.269" transform="translate(-0.547 -110.959)" fill="#009cdc"/><path d="M36.067,37.454c-2.2,1.663-4.418,3.293-6.578,5-1.776,1.4-3.5,2.871-5.2,4.373-.56.5-.893.481-1.416-.013q-4.369-4.125-8.788-8.2C11.464,36.2,8.81,33.808,6.172,31.4a.932.932,0,0,1-.442-.632c1.1.583,2.136,1.14,3.181,1.677.878.451,1.778.857,2.648,1.321.475.253.687.109.947-.326A140.375,140.375,0,0,0,23.362,12.155a.585.585,0,0,1,.106-.134c.393.225.472.642.613,1.016A117.434,117.434,0,0,0,31.44,28.684c1.413,2.532,2.865,5.041,4.3,7.56.142.249.323.494.182.809-2.852,1.49-5.835,2.727-8.578,4.429a32.2,32.2,0,0,0-3.166,2.151.916.916,0,0,1-1.429-.093,59.59,59.59,0,0,0-11.625-9.085,29.046,29.046,0,0,1-2.593-1.578.166.166,0,0,1-.1-.1c-.033.052-.012.084.068.1,2.156,1.678,4.132,3.555,6.189,5.337,2.868,2.485,5.6,5.124,8.383,7.7.38.351.61.283.949,0,3.055-2.539,6.18-4.991,9.411-7.306a21.458,21.458,0,0,1,2.51-1.556.25.25,0,0,1,.125.407" transform="translate(-4.729 -9.921)" fill="#009cdc"/><path d="M297.772,170.914c1.426-4.376,3.056-8.465,4.533-12.608.226-.633.521-.871,1.183-.818a13.758,13.758,0,0,0,2.178,0c.757-.061.8.192.563.825-1.845,4.906-3.664,9.821-5.491,14.733-.666,1.791-1.351,3.575-1.986,5.377a.8.8,0,0,1-.94.637c-.491-.033-.918.043-1.149-.606-1.737-4.881-3.753-9.66-5.321-14.624-.334.213-.315.593-.412.893-1.507,4.659-3.38,9.183-5.025,13.79-.228.639-.658.51-1.1.539a.754.754,0,0,1-.917-.546q-3.736-10.149-7.531-20.277c-.233-.621-.083-.763.525-.737,1.072.045,2.334-.293,3.165.165.8.443.857,1.814,1.214,2.784,1.218,3.315,2.545,6.592,3.549,9.983a1.694,1.694,0,0,0,.193.3c.111-.271.2-.463.268-.664,1.263-4.007,2.871-7.89,4.259-11.852a.939.939,0,0,1,1.073-.723c2.34.016,2.349-.007,3.167,2.215,1.35,3.666,2.851,7.278,4.005,11.213" transform="translate(-227.989 -129.915)" fill="#0060ad"/><path d="M631.112,120.6c0,1.9-.008,3.641,0,5.378.008,1.29-.178,1.128,1.178,1.135,1.8.009,3.606.037,5.408-.014.773-.021.891.239.69.909-.239.8-.161,1.876-.671,2.365-.566.542-1.658.148-2.519.172-1.162.032-2.326.025-3.489,0-.449-.01-.608.131-.607.591.015,3.8-.013,7.6.021,11.4.012,1.348,1.182,2.314,2.827,2.4a10.041,10.041,0,0,0,1.82-.14c.525-.07.711.122.6.623-.187.878-.389,1.753-.562,2.634a.6.6,0,0,1-.618.5c-2.524.261-4.882-.066-6.758-1.986a6.319,6.319,0,0,1-1.632-4.635c-.013-3.511-.024-7.023.013-10.534.007-.7-.2-.9-.881-.856-.839.056-1.687-.013-2.528.023-.539.023-.823-.1-.757-.708.1-.882-.373-2.008.207-2.591.5-.507,1.606-.13,2.443-.142,1.5-.023,1.656-.027,1.461-1.518-.278-2.125.412-3.448,2.5-4.067a12.058,12.058,0,0,0,1.85-.937" transform="translate(-513.805 -99.534)" fill="#0060ad"/><path d="M857.023,159.657c1.659-2.592,4.011-3.2,6.6-3.349.484-.027.674.156.755.6a20.856,20.856,0,0,0,.465,2.121c.2.694.1.947-.718.958a6.736,6.736,0,0,0-6.812,5.466,11.147,11.147,0,0,0-.254,2.5c.011,3.018-.014,6.036.019,9.053.007.625-.178.789-.78.758-.957-.05-1.919-.035-2.877,0-.478.016-.659-.111-.658-.624q.023-9.967,0-19.935c0-.514.2-.644.673-.631.93.026,1.861.028,2.791,0,.5-.016.659.182.665.657.009.721.075,1.441.132,2.424" transform="translate(-703.785 -128.999)" fill="#0060ad"/><path d="M.266,187.37a17.91,17.91,0,0,0,3.775,11.3,19.1,19.1,0,0,0,11.786,6.955c4.949.865,9.341-.657,13.326-3.5a17.26,17.26,0,0,0,7.182-11.653,15.757,15.757,0,0,0-1.431-9.534c-.744-1.548-.2-2.485.741-3.5a26.469,26.469,0,0,1,3.192,8.318,17.314,17.314,0,0,1-5.594,15.88,26.919,26.919,0,0,1-5.061,3.518,2.248,2.248,0,0,1-.758.466l-.4.2a3.888,3.888,0,0,1-.52.208l-.427.152c-.3.095-.568.246-.859.35a6.746,6.746,0,0,1-.81.23c-.238.061-.474.133-.715.181a6.418,6.418,0,0,1-.868.181c-.3.076-.592.2-.894.274a6.752,6.752,0,0,1-1.156.064c-.755,0-1.51,0-2.264,0a4.522,4.522,0,0,1-1.292-.162,4.406,4.406,0,0,1-.934-.166,6.232,6.232,0,0,1-.872-.184,6.417,6.417,0,0,1-.691-.191,5.755,5.755,0,0,0-.865-.208,3.7,3.7,0,0,0-.9-.385c-.176-.062-.346-.139-.517-.213-.242-.107-.5-.182-.737-.3a1.344,1.344,0,0,1-.639-.478C6.11,202.629,2.388,199,.753,193.541A16.547,16.547,0,0,1,.12,186.67c.413.157.2.445.146.7" transform="translate(0 -146.432)" fill="#0060ad"/><path d="M768.2,168.361c0,3.3-.012,6.607.012,9.91,0,.555-.13.763-.717.734-.985-.047-1.974-.034-2.96,0-.472.014-.662-.1-.661-.619q.023-9.953,0-19.907c0-.476.13-.681.638-.665.986.03,1.976.049,2.96-.006.671-.038.74.269.737.821-.02,3.245-.01,6.491-.01,9.736" transform="translate(-630.425 -130.234)" fill="#0060ad"/><path d="M119.679,27.154c-.875-1.89-2-3.644-3.036-5.443A126.4,126.4,0,0,1,107.264,2.1l.78-2.1c.89,2.137,1.713,4.2,2.6,6.237A167.712,167.712,0,0,0,120.791,25.1c.834,1.39.827,1.4-.54,2.258a3.216,3.216,0,0,1-.388.18c-.015-.148-.022-.3-.183-.379Z" transform="translate(-88.525)" fill="#0060ad"/><path d="M766.772,107.538a3.666,3.666,0,0,1-2.655,2.56,3.753,3.753,0,0,1-2.573-2.558c0-.888,1.749-2.667,2.612-2.65a3.893,3.893,0,0,1,2.615,2.648" transform="translate(-628.504 -86.566)" fill="#0060ad"/><path d="M.835,223.722c-.037-.236.069-.5-.146-.7a2.818,2.818,0,0,1,.362-1.546,6.477,6.477,0,0,1-.216,2.246" transform="translate(-0.569 -182.784)" fill="#0065b1"/><path d="M237.321,130.577l-.194-.195,1.037-.876.142.142-.985.928" transform="translate(-195.701 -106.881)" fill="#43a9e1"/><path d="M4.792,206.386a1.209,1.209,0,0,1-.382,1.229,2.658,2.658,0,0,1,.382-1.229" transform="translate(-3.64 -170.331)" fill="#377abf"/><path d="M2.764,215.286c.328.361.01.6-.168.861-.066-.311.12-.573.168-.861" transform="translate(-2.131 -177.676)" fill="#0063b0"/><path d="M13.105,220.4a14.236,14.236,0,0,0,1.1,7.279,14.872,14.872,0,0,0,6.5,7.232,16.53,16.53,0,0,0,7.681,2.216,16.515,16.515,0,0,0,13.631-5.572,15.4,15.4,0,0,0,2.471-3.846,5.905,5.905,0,0,1-.749,2.891,16.047,16.047,0,0,1-12.228,9.131,16.4,16.4,0,0,1-10.621-1.538,14.661,14.661,0,0,1-8.41-11.092,12.278,12.278,0,0,1,.627-6.7" transform="translate(-10.135 -181.893)" fill="#1fb6e8"/><path d="M47.974,134.805c-1.281.931-2.571,1.851-3.842,2.8-2.689,2-5.34,4.043-7.89,6.214-.432.368-.692.477-1.223-.014-3.076-2.846-6.078-5.772-9.29-8.471-1.813-1.524-3.558-3.127-5.333-4.7-.041-.156-.012-.241.172-.172a61.234,61.234,0,0,1,10.5,7.059,50.233,50.233,0,0,1,4.025,3.7c.322.333.521.364.925.053A56.517,56.517,0,0,1,47.464,134.9a2.179,2.179,0,0,1,.508-.1h0" transform="translate(-16.818 -107.651)" fill="#1fb6e8"/><path d="M18.606,129.258l-.172.172a.772.772,0,0,1-.432-.436.593.593,0,0,1,.6.264" transform="translate(-14.857 -106.447)" fill="#18ace2"/><path d="M502.694,170.5c.041-2.783.052-5.569,0-8.351-.055-2.978-1.194-5.44-4.047-6.648a12.116,12.116,0,0,0-10.654.717c-.2.1-.439.2-.36.511.27,1.073.536,2.148.816,3.271a10.779,10.779,0,0,1,6.169-1.637c2.737.142,3.774,1.287,3.764,4.008,0,.532-.118.726-.693.79a49.025,49.025,0,0,0-5.619.631c-4.751,1.094-7,5.692-4.785,9.749,2.077,3.806,8.1,4.521,11.344,1.34a6.827,6.827,0,0,0,.551-.714,4.769,4.769,0,0,0,2.657,2.548.63.63,0,0,0,.778-.108c.8-.8,1.622-1.568,2.516-2.426-1.939-.616-2.463-1.947-2.437-3.681m-4.324-2.447c.269,2.976-2.658,5.125-4.72,5.149a2.939,2.939,0,0,1-2.847-1.762,3.04,3.04,0,0,1,.776-3.336,4.792,4.792,0,0,1,3.034-1.139c.953-.09,1.916-.113,2.862-.247.7-.1,1.047.036.9.812a2.834,2.834,0,0,0,0,.521" transform="translate(-401.45 -127.573)" fill="#0060ad"/></g></g></g></svg>