<svg xmlns="http://www.w3.org/2000/svg" xmlns:xlink="http://www.w3.org/1999/xlink" width="1320" height="506.835" viewBox="0 0 1320 506.835"><defs><clipPath id="a"><rect width="956.474" height="506.835" fill="none"/></clipPath><clipPath id="d"><path d="M956.474,0H907.322L0,506.835H618.954L956.474,312.36Z" fill="none"/></clipPath><linearGradient id="e" y1="1" x2="0.001" y2="1" gradientUnits="objectBoundingBox"><stop offset="0" stop-color="#45108a"/><stop offset="0.02" stop-color="#45108a"/><stop offset="0.394" stop-color="#3d065f"/><stop offset="1" stop-color="#12054e"/><stop offset="1" stop-color="#10054d"/></linearGradient><clipPath id="f"><rect width="885.32" height="506.791" fill="none"/></clipPath><clipPath id="g"><path d="M693.985,0H56.155l885.32,506.791V141.673Z" transform="translate(-56.155)" fill="none"/></clipPath><linearGradient id="h" x1="-0.08" y1="1" x2="-0.079" y2="1" xlink:href="#e"/></defs><g transform="translate(12972 10472)"><path d="M1299.213,0H20.787C9.307,0,0,8.4,0,18.772V488.063c0,10.367,9.307,18.772,20.787,18.772H1299.213c11.48,0,20.787-8.4,20.787-18.772V18.772C1320,8.4,1310.693,0,1299.213,0Z" transform="translate(-12972 -10472)" fill="#0d5897"/><g transform="translate(-12608.474 -10472)" opacity="0.27"><g clip-path="url(#a)"><g clip-path="url(#a)"><g opacity="0.5"><g clip-path="url(#a)"><g clip-path="url(#d)"><rect width="956.474" height="506.835" transform="translate(0 0)" fill="url(#e)"/></g></g></g><g transform="translate(71.153)" opacity="0.5"><g clip-path="url(#f)"><g transform="translate(0)"><g clip-path="url(#g)"><rect width="885.32" height="506.791" fill="url(#h)"/></g></g></g></g></g></g></g></g></svg>