<svg xmlns="http://www.w3.org/2000/svg" xmlns:xlink="http://www.w3.org/1999/xlink" width="243.348" height="220.809" viewBox="0 0 243.348 220.809"><defs><clipPath id="a"><rect width="210.647" height="210.647" fill="none"/></clipPath><clipPath id="b"><rect width="224.812" height="219.058" fill="none"/></clipPath></defs><g transform="translate(-950.43 -8097.912)"><g transform="translate(983.131 8108.074)"><g clip-path="url(#a)"><path d="M210.647,105.323A105.323,105.323,0,1,1,105.323,0,105.323,105.323,0,0,1,210.647,105.323" fill="#ff6176"/></g></g><g transform="translate(950.43 8097.912)"><path d="M266.811,174.386,206.865,209V142.089l59.946-34.61Z" transform="translate(-45.334 -23.554)" fill="#ccd7e2"/><path d="M182.842,137.933v66.906L97.248,155.423V88.517Z" transform="translate(-21.312 -19.398)" fill="#adbcce"/><path d="M129.673,157.686l25.1,15.9,20.817,10.468-21.1-12.291Z" transform="translate(-28.418 -34.557)" fill="#7e91a5"/><path d="M198.539,219.916v1.96l-29.663-18.792Z" transform="translate(-37.009 -44.506)" fill="#7e91a5"/><path d="M206.864,223.373l11.3-4.516-11.3,6.476Z" transform="translate(-45.334 -47.962)" fill="#9eacbc"/><path d="M280.033,151,267.2,158.54l12.832-5.43Z" transform="translate(-58.557 -33.092)" fill="#9eacbc"/><path d="M242.117,179.522,222.9,190.2l-11.554,7.559,13.6-6.709Z" transform="translate(-46.317 -39.342)" fill="#9eacbc"/><g clip-path="url(#b)"><path d="M95.583,140.926a10.528,10.528,0,0,0-2.9,1.381,19.5,19.5,0,0,0-3.025,2.236,41.421,41.421,0,0,1,10.663,4.764,95.137,95.137,0,0,0,13.955,6.924L95.585,144.777Z" transform="translate(-19.648 -30.884)" fill="#e0e1e0"/><path d="M277.636,163.923,256.478,178.18l24.541-11.707Z" transform="translate(-56.207 -35.924)" fill="#e0e1e0"/><path d="M212.388,212.074l-9.123,2.92-12.825-4.171,12.825,6.705Z" transform="translate(-41.735 -46.202)" fill="#e0e1e0"/><path d="M242.788,93.61l-59.946,34.61L97.246,78.8l11.673-6.74,48.274-27.87Z" transform="translate(-21.311 -9.685)" fill="#f0f0f0"/><path d="M247.64,106.544l-44.85,25.895-2.444-1.412,44.85-25.894Z" transform="translate(-43.906 -23.04)" fill="#ccd7e2"/><path d="M233.3,98.265l-44.85,25.895-2.445-1.412,44.85-25.894Z" transform="translate(-40.763 -21.225)" fill="#ccd7e2"/><path d="M229.956,110.179,195.62,130l-2.444-1.411,34.335-19.823Z" transform="translate(-42.334 -23.836)" fill="#ccd7e2"/><path d="M211.79,85.847l-44.85,25.894-2.445-1.411,44.85-25.894Z" transform="translate(-36.049 -18.504)" fill="#ccd7e2"/><path d="M208.446,97.761,174.11,117.584l-2.444-1.411L206,96.35Z" transform="translate(-37.621 -21.115)" fill="#ccd7e2"/><path d="M197.451,77.568,152.6,103.461l-2.445-1.411,44.85-25.894Z" transform="translate(-32.907 -16.69)" fill="#ccd7e2"/><path d="M194.106,89.482l-34.336,19.823-2.445-1.411,34.336-19.823Z" transform="translate(-34.478 -19.301)" fill="#ccd7e2"/><path d="M159.338,67.985,123.922,88.432l-2.445-1.411,35.416-20.447Z" transform="translate(-26.622 -14.59)" fill="#ccd7e2"/><path d="M155.993,79.9l-24.9,14.377-2.444-1.411,24.9-14.377Z" transform="translate(-28.193 -17.201)" fill="#ccd7e2"/><path d="M177.157,223.837l-59.946,34.61v-44.1l59.946-34.61Z" transform="translate(-25.687 -39.389)" fill="#ccd7e2"/><path d="M93.188,210.19v44.1L7.595,204.874v-44.1Z" transform="translate(-1.664 -35.234)" fill="#adbcce"/><path d="M40.019,200.737l25.1,15.9L85.937,227.1l-21.1-12.291Z" transform="translate(-8.77 -43.991)" fill="#7e91a5"/><path d="M108.886,262.967v1.96L79.223,246.135Z" transform="translate(-17.362 -53.94)" fill="#7e91a5"/><path d="M117.211,266.424l11.3-4.516-11.3,6.476Z" transform="translate(-25.687 -57.397)" fill="#9eacbc"/><path d="M190.38,194.054l-12.832,7.537,12.832-5.43Z" transform="translate(-38.909 -42.527)" fill="#9eacbc"/><path d="M152.463,222.573l-19.215,10.679-11.554,7.559,13.6-6.709Z" transform="translate(-26.669 -48.777)" fill="#9eacbc"/><path d="M5.929,183.976a10.527,10.527,0,0,0-2.9,1.381A19.557,19.557,0,0,0,0,187.594a41.41,41.41,0,0,1,10.663,4.765,95.175,95.175,0,0,0,13.955,6.923L5.931,187.827Z" transform="translate(0 -40.318)" fill="#e0e1e0"/><path d="M187.982,206.974l-21.158,14.258,24.541-11.708Z" transform="translate(-36.559 -45.358)" fill="#e0e1e0"/><path d="M122.735,255.125l-9.123,2.92-12.824-4.171,12.824,6.705Z" transform="translate(-22.087 -55.636)" fill="#e0e1e0"/><path d="M153.134,165.867l-59.946,34.61-85.6-49.418,11.673-6.74,48.273-27.87Z" transform="translate(-1.664 -25.52)" fill="#f0f0f0"/><path d="M157.986,178.8,113.136,204.7l-2.445-1.412,44.85-25.894Z" transform="translate(-24.258 -38.875)" fill="#ccd7e2"/><path d="M143.646,170.522,98.8,196.417,96.352,195l44.85-25.894Z" transform="translate(-21.115 -37.061)" fill="#ccd7e2"/><path d="M140.3,182.436,105.966,202.26l-2.444-1.411,34.336-19.823Z" transform="translate(-22.687 -39.672)" fill="#ccd7e2"/><path d="M122.137,158.1,77.287,184l-2.445-1.411,44.85-25.894Z" transform="translate(-16.402 -34.339)" fill="#ccd7e2"/><path d="M118.792,170.018,84.457,189.841l-2.444-1.411,34.335-19.823Z" transform="translate(-17.973 -36.95)" fill="#ccd7e2"/><path d="M107.8,149.825l-44.85,25.894L60.5,174.308l44.851-25.894Z" transform="translate(-13.259 -32.525)" fill="#ccd7e2"/><path d="M104.453,161.739,70.117,181.562l-2.444-1.411,34.335-19.824Z" transform="translate(-14.83 -35.136)" fill="#ccd7e2"/><path d="M69.684,140.242,34.268,160.69l-2.445-1.411L67.24,138.831Z" transform="translate(-6.974 -30.425)" fill="#ccd7e2"/><path d="M66.34,152.156l-24.9,14.377-2.445-1.411,24.9-14.377Z" transform="translate(-8.545 -33.036)" fill="#ccd7e2"/><path d="M154.4,183.716l-29.75,7.688a13.618,13.618,0,0,1-6.216.1,7.682,7.682,0,0,1-4.5-2.463l-3.625-4.729c-1.808-2.359.054-5.139,4.151-6.2l29.751-7.687a13.6,13.6,0,0,1,6.215-.1,7.678,7.678,0,0,1,4.5,2.463l3.625,4.728c1.4,1.821.605,3.893-1.712,5.23a9.779,9.779,0,0,1-2.439.969m-38.114-.69,3.3,4.309a3.047,3.047,0,0,0,1.78.975,5.4,5.4,0,0,0,2.463-.041l27.1-7c1.623-.419,2.361-1.521,1.644-2.456l-3.3-4.308a3.043,3.043,0,0,0-1.781-.975,5.391,5.391,0,0,0-2.461.041l-27.1,7a3.872,3.872,0,0,0-.966.384c-.918.53-1.231,1.351-.679,2.072" transform="translate(-24.024 -37.259)" fill="#f94d5c"/><path d="M146.34,20.215c-2.369.212-4.744.3-7.121.39-.674.027-1.358.042-2.045.065,6.893,5.1,11.069,14.555,11.069,27.541,0,28.543-20.164,63.323-45.038,77.684-12.013,6.936-22.928,7.839-31,3.7a3.815,3.815,0,0,0,.846,2.178,37.037,37.037,0,0,0,4.135,4.235,31.083,31.083,0,0,0,3.465,2.481c6.779.023,14.442-2.182,22.559-6.868,27.631-15.953,50.031-54.588,50.031-86.295,0-10.62-2.516-19.111-6.9-25.114" transform="translate(-15.823 -4.43)" fill="#2d2a28"/><path d="M99.266,21.448C74.392,35.809,54.228,70.589,54.228,99.131s20.164,40.039,45.038,25.678S144.3,75.669,144.3,47.126,124.14,7.087,99.266,21.448" transform="translate(-11.884 -3.345)" fill="#e7e6e0"/><path d="M102.965,20.813,65.95,125.078c8.226,7.677,21.238,8.189,35.885-.267.593-.343,1.181-.7,1.768-1.064L139.4,22.923c-7.87-9.076-21.213-10.466-36.431-2.11" transform="translate(-14.453 -3.345)" fill="#efefef"/><path d="M112.618,25.592c-.33.182-.659.366-.99.558s-.661.387-.99.586v7.084l1.98-1.143Z" transform="translate(-24.246 -5.608)" fill="#5f5a57"/><path d="M158.349,30.868q-.477-.722-.991-1.395l-5.352,6.636.99,1.4Z" transform="translate(-33.312 -6.459)" fill="#5f5a57"/><path d="M86.423,55.746l1.715-2.126-3.091-4.358q-.869,1.048-1.714,2.127Z" transform="translate(-18.262 -10.796)" fill="#5f5a57"/><path d="M158.942,62.03l6.173-3.564q.012-.574.012-1.144t-.012-1.128l-6.173,3.564Z" transform="translate(-34.832 -12.315)" fill="#5f5a57"/><path d="M85.047,157.669l3.091-7.927-1.715-.146-3.09,7.926c.563.069,1.135.117,1.714.148" transform="translate(-18.262 -32.784)" fill="#5f5a57"/><path d="M153,91.212l-.99,2.539,5.352.455q.515-1.265.991-2.539Z" transform="translate(-33.312 -19.989)" fill="#5f5a57"/><path d="M70.025,140.376l-.99-1.4-5.353,6.636q.477.723.991,1.4Z" transform="translate(-13.956 -30.457)" fill="#5f5a57"/><path d="M63.134,115.07l-6.173,3.565c-.007.382-.012.764-.012,1.144s.005.754.012,1.129l6.173-3.565Z" transform="translate(-12.48 -25.217)" fill="#5f5a57"/><path d="M69.036,86.686l.99-2.539-5.352-.456q-.515,1.266-.991,2.539Z" transform="translate(-13.956 -18.341)" fill="#5f5a57"/><path d="M112.618,149.695v-7.084l-1.98,1.143v7.084q.494-.272.99-.557c.331-.191.661-.388.99-.586" transform="translate(-24.246 -31.253)" fill="#5f5a57"/><path d="M136.041,121.172l-1.715,2.126,3.091,4.358q.869-1.048,1.714-2.127Z" transform="translate(-29.437 -26.555)" fill="#5f5a57"/><path d="M137.417,18.8l-3.091,7.926,1.715.146,3.09-7.925c-.562-.069-1.135-.118-1.714-.148" transform="translate(-29.437 -4.121)" fill="#5f5a57"/><path d="M135.83,11.513s-12.44-7.668-14.386-8.245S91.2,1.093,64.528,35.694s-21.77,61.385-18.887,78.27a93.067,93.067,0,0,0,5.3,11.412l13.317,7.7-3.422-7.52L52.7,114.857l-.584-24.333,8.938-30.717,21.07-29.934,24.263-16.093Z" transform="translate(-9.491 -0.672)" fill="#2d2a28"/><path d="M56.134,126.778c-1.416-1.419-3.315-3.034-3.992-4.979a8.749,8.749,0,0,1-.333-3.868c-6.98-5.073-7.619-10.235-7.619-23.313,0-28.542,21.152-66.717,46.026-81.077,11.306-6.527,17.052-8.652,24.961-5.322A51.163,51.163,0,0,1,121.1,7.81c1.8-.073,3.606-.134,5.406-.244-9.061-9.465-23.989-10.442-40.871-.7C58,22.823,35.6,61.459,35.6,93.166c0,19.732,8.676,32.127,21.889,34.834-.469-.385-.923-.788-1.355-1.221" transform="translate(-7.802 0)" fill="#2d2a28"/><path d="M105.8,84.768l-.8-.1c-.593-.073-.78-.851-.419-1.739l19.449-47.84c.361-.888,1.134-1.549,1.726-1.477l.8.1c.592.073.779.851.419,1.739l-19.449,47.84c-.361.888-1.134,1.549-1.726,1.477" transform="translate(-22.879 -7.365)" fill="#c5cbd0"/><path d="M109.636,74.981l.446-.258c.27-.155.489.01.489.37l-.012,48.228a1.171,1.171,0,0,1-.49.935l-.446.257c-.27.156-.489-.009-.489-.369l.012-48.228a1.173,1.173,0,0,1,.49-.934" transform="translate(-23.917 -16.363)" fill="#c5cbd0"/><path d="M110.364,87.135l-.483,1.2c-.358.889-1.129,1.554-1.723,1.488L84.889,87.212c-.594-.067-.786-.841-.429-1.73l.483-1.2c.357-.889,1.128-1.554,1.723-1.488l23.268,2.613c.594.067.786.841.429,1.73" transform="translate(-18.47 -18.143)" fill="#c5cbd0"/><path d="M112.054,85.7a6.108,6.108,0,0,1-2.772,4.782c-1.531.884-2.772.176-2.772-1.581a6.108,6.108,0,0,1,2.772-4.781c1.531-.884,2.772-.176,2.772,1.58" transform="translate(-23.342 -18.352)" fill="#c5cbd0"/><path d="M107.651,85.834l-.8-.1c-.593-.072-.78-.85-.419-1.738l19.449-47.84c.361-.888,1.134-1.549,1.726-1.477l.8.1c.592.073.779.851.419,1.739l-19.449,47.84c-.361.888-1.134,1.549-1.726,1.477" transform="translate(-23.284 -7.599)" fill="#5f5a57"/><path d="M111.483,76.047l.446-.258c.27-.155.489.01.489.37l-.012,48.228a1.171,1.171,0,0,1-.49.935l-.446.257c-.27.156-.489-.009-.489-.369l.012-48.228a1.174,1.174,0,0,1,.49-.935" transform="translate(-24.322 -16.596)" fill="#f9335b"/><path d="M112.211,88.2l-.484,1.2c-.358.889-1.129,1.554-1.723,1.488L86.737,88.278c-.6-.067-.788-.841-.43-1.73l.484-1.2c.357-.888,1.128-1.555,1.723-1.488l23.267,2.613c.595.067.787.841.43,1.73" transform="translate(-18.875 -18.377)" fill="#5f5a57"/><path d="M113.9,86.769a6.108,6.108,0,0,1-2.772,4.782c-1.531.885-2.772.176-2.772-1.58a6.106,6.106,0,0,1,2.772-4.781c1.531-.885,2.772-.177,2.772,1.58" transform="translate(-23.746 -18.586)" fill="#8d8a88"/><path d="M101.557,16.05C73.926,32,51.526,70.639,51.526,102.345s22.4,44.478,50.031,28.525,50.031-54.589,50.031-86.3S129.189.1,101.557,16.05m0,109.09C76.683,139.5,56.52,128.006,56.52,99.463S76.683,36.14,101.557,21.78,146.6,18.915,146.6,47.458s-20.165,63.322-45.038,77.683" transform="translate(-11.292 -2.012)" fill="#514c48"/><path d="M80.221,137.593c-16.453,0-26.677-13.219-26.677-34.494,0-31.37,22.242-69.732,49.581-85.516,7.758-4.479,15.162-6.75,22.006-6.75,16.453,0,26.675,13.217,26.675,34.494,0,31.37-22.242,69.732-49.582,85.516-7.758,4.479-15.161,6.75-22,6.75M122.89,15.446c-6.466,0-13.419,2.122-20.666,6.306-25.082,14.482-45.488,49.68-45.488,78.464,0,20.209,9.857,32.764,25.724,32.764,6.465,0,13.417-2.122,20.665-6.307,25.082-14.481,45.488-49.679,45.488-78.463,0-20.209-9.857-32.764-25.723-32.764" transform="translate(-11.734 -2.374)" fill="#6e6a67"/></g></g></g></svg>