<svg xmlns="http://www.w3.org/2000/svg" xmlns:xlink="http://www.w3.org/1999/xlink" width="259.443" height="259.253" viewBox="0 0 259.443 259.253"><defs><clipPath id="a"><rect width="210.647" height="210.647" fill="none"/></clipPath><clipPath id="b"><rect width="233.986" height="242.718" fill="none"/></clipPath><clipPath id="e"><rect width="67.717" height="39.096" fill="none"/></clipPath><clipPath id="f"><path d="M634.171,393.651c-1.755,6.994-1.141,12.943-.1,18.7,1.126,8.179,3.834,25.45,6.641,32.888-.2,12.711-.3,24.446.816,36.367a13.553,13.553,0,0,0,13.021-.247c-.274-19.218-.039-41.239-3.536-62.855-1.272-7.965,4.716-17.909.365-25.3Z" transform="translate(-633.064 -393.208)" fill="none"/></clipPath><clipPath id="h"><path d="M684.5,438.88c-3.751,12.425,3.727,27.653,6.526,39.123,6.525,15.806,4.61,32.909,8.047,48.906,4.462,1.87,7.572,2.038,12.481-.554-.9-19.559-1.282-40.321-5.794-62.384-1.906-8.275,5.09-18.608-.427-26.006Z" transform="translate(-683.473 -437.966)" fill="none"/></clipPath><clipPath id="j"><path d="M631.756,221.147c-1.087,7.024.088,15.257,2.466,24.695a19.136,19.136,0,0,1,.477,6.328c-.817,7.889-3.459,18.75-4.532,24.746,3.839.647,31.712,8.847,39.618,1.7-5.616-20.747-4.5-35.766,3.7-52.145-4.586-8.181-18.153-14.61-28.611-14.61-6.749,0-12.2,2.678-13.113,9.289" transform="translate(-630.167 -211.858)" fill="none"/></clipPath><clipPath id="l"><path d="M662.713,152a22.674,22.674,0,0,0,.155,10.15c.371,6.1,2.684,8.27,6.417,7.563a1.578,1.578,0,0,0,.028,1.294l-.179,2.605,11.034-4.017a9.6,9.6,0,0,1,.1-7.2l1.4-6.284-12.215-7.3Z" transform="translate(-662.212 -148.816)" fill="none"/></clipPath><clipPath id="n"><path d="M661.816,125.647c-13.148,3.841-12.5,17.155,2.156,12.935a6.191,6.191,0,0,0,3.5,2.965,5.678,5.678,0,0,1,1.108,2.92c-.093-8.3,7.338-5.146,4.012.314a4.425,4.425,0,0,0-.129,3.11c5.277-5.973,4.054-22.7-7.218-22.705a13.862,13.862,0,0,0-3.434.463" transform="translate(-652.442 -125.184)" fill="none"/></clipPath><clipPath id="p"><path d="M646.167,260.673c-7.951,25.524-17.291,28.416-38.8,36.087a17.167,17.167,0,0,1,1.094,8.325c17.941-3.754,42.9-10.419,48.01-35.132.9-4.447,2.9-9.546.279-13.825a3.556,3.556,0,0,0-3.15-2.172c-3,0-6.49,3.953-7.436,6.717" transform="translate(-607.371 -253.956)" fill="none"/></clipPath><clipPath id="r"><rect width="41.394" height="27.676" fill="none"/></clipPath><clipPath id="s"><path d="M183.04,773.814s-1.6.739-1.295,4.4l.432,3.106c-.015.825-.648,4.433,1.531,4.737h0a18.888,18.888,0,0,1,.107,2.424,1.065,1.065,0,0,0,1.035.086s.046-1.863.086-2.243a14.644,14.644,0,0,0,3.538,0l1.811-2.415-1.121-2.934-.518-4.659s-.611-2.981-3.443-2.981a5.79,5.79,0,0,0-2.165.479" transform="translate(-181.706 -773.335)" fill="none"/></clipPath><clipPath id="u"><path d="M201.918,806.261c-.345,2.157.247,1.966.863,5.78a20.727,20.727,0,0,1-.345,5.263,1.164,1.164,0,0,0,1.381.087,20.014,20.014,0,0,1,1.294-4.746,6.825,6.825,0,0,0,7.6,5.246,2.125,2.125,0,0,0,.255-.069l6.989-3.364c-.162-2.137-3.366-1.813-3.366-1.813s0,0,0-.01c-7.024,1.659-5.791-7.054-11.557-9.221a2.562,2.562,0,0,0-.716-.109c-2.038,0-2.39,2.956-2.39,2.956" transform="translate(-201.816 -803.305)" fill="none"/></clipPath></defs><g transform="translate(-934.334 -9537.972)"><g transform="translate(983.131 9586.578)"><g clip-path="url(#a)"><path d="M210.647,105.323A105.323,105.323,0,1,1,105.323,0,105.323,105.323,0,0,1,210.647,105.323" fill="#ff6176"/></g></g><g transform="translate(934.334 9537.972)"><g clip-path="url(#b)"><g clip-path="url(#b)"><path d="M321.117,413.537a29.629,29.629,0,0,0,.413-4.836l-98.693-57.354a41.284,41.284,0,0,1-18.946,32.815l98.693,57.354c9.808-6,16.443-16.776,18.533-27.979" transform="translate(-146.79 -252.948)" fill="#fff"/><path d="M301.888,441.065l-.072-.042-98.894-57.471.2-.123a41.02,41.02,0,0,0,18.88-32.7l.007-.235,98.965,57.513v.081a29.819,29.819,0,0,1-.414,4.859v0c-2.2,11.8-9.154,22.3-18.6,28.073Zm-98.424-57.522,98.42,57.2c9.341-5.745,16.215-16.146,18.4-27.841a29.617,29.617,0,0,0,.411-4.731l-98.421-57.2a41.337,41.337,0,0,1-18.807,32.572" transform="translate(-146.091 -252.334)" fill="#26c6dc"/><path d="M536.358,544.868c-16.9-7.19-21.34,25.587-1.217,21.513-.587-3.151-1.142-6.126-2.418-10.872a41.233,41.233,0,0,0,3.635-10.641" transform="translate(-375.653 -391.526)" fill="#f65841"/><path d="M564.476,547.528a40.647,40.647,0,0,1-3.635,10.641c.859,3.314,1.537,5.931,2.418,10.872,10.189-2.6,10.905-15.266,1.217-21.513" transform="translate(-403.771 -394.187)" fill="#8cc1e3"/><path d="M287.511,399.925c-10.447-5.42-16.223,8.209-14.375,14.719,2.765,10.32,21.739,9.338,21.238-3.589-5.238-.038-6.306-.055-9.848-.111a41.081,41.081,0,0,0,3.9-10.434c-.572-.4-.879-.567-.912-.585" transform="translate(-196.396 -287.024)" fill="#3992d8"/><path d="M318.58,405.215a40.956,40.956,0,0,1-3.9,10.434c4.333.067,4.89.076,9.848.111a14.085,14.085,0,0,0-5.951-10.545" transform="translate(-226.553 -291.73)" fill="#f65841"/><path d="M264.854,481.728c-.118-.074-.121-.15-.01-.254.4-.355.4-.355.464-.371.853-.024-.263.9-.454.625m.955-.841c-.846-.535-2.342,1.181-.87,1.073-.488.413-.488.413-.544.429-.336.074-.464-.217-.2-.35l-.319-.185c-.667.557.144.831.368.848a.856.856,0,0,0,.609-.191c1.288-1.207,1.526-1.016.961-1.624" transform="translate(-189.785 -346.134)" fill="#f65841"/><path d="M270.6,483.432l-1.005-.584-.272.251.683.4c-.651.325-1.514.772-2.174,1.079l.343.2a14.71,14.71,0,0,0,2.426-1.342" transform="translate(-192.819 -347.621)" fill="#f65841"/><path d="M271.607,490.2l-.33-.192-.289.235.33.192Z" transform="translate(-195.094 -352.778)" fill="#f65841"/><path d="M276.856,486.935l-.945-.549-1.078.964.319.185c.282-.242.522-.04.513.054a.209.209,0,0,1-.077.12c-.5.426-.5.426-.563.445-.376.076-.452-.233-.184-.374l-.346-.163c-.707.59.245.845.375.855a1.738,1.738,0,0,0,1.261-.876c.066-.235-.4-.454-.637-.359l.468-.42.626.364Z" transform="translate(-197.433 -350.168)" fill="#f65841"/><path d="M279.472,491.238c-.143-.089-.151-.174-.026-.285.295-.247.319-.267.421-.277.768.031-.15.851-.4.562m.881-.748c-.317-.138.3-.57.364-.522.627.053-.117.751-.364.522m.8-.722c-.451-.336-1.382.123-1.235.66-.895-.065-1.459,1.056-.316,1.166.528.01,1.1-.43.928-.811.447.055,1.342-.56.624-1.016" transform="translate(-200.833 -352.521)" fill="#f65841"/><path d="M418.077,478.753a41.234,41.234,0,0,1-3.839,11.046c-3.107.984-6.041,1.914-10.709,2.978,7.765,19.219,33.883-.363,14.548-14.025" transform="translate(-290.516 -344.673)" fill="#004166"/><path d="M417.683,475.516c-10.247-5.316-15.706,7.515-14.548,14.025,3.235-.776,6.029-1.447,10.709-2.978a41.419,41.419,0,0,0,3.839-11.046" transform="translate(-290.123 -341.436)" fill="#f2a444"/><path d="M396.738,559l1.073-.461-.746.651-.327-.19m1.876-.71-.386-.224a11.763,11.763,0,0,0-2.072.985l.634.369-.4.329.325.189.4-.329.176.1.274-.23-.176-.1,1.224-1.089" transform="translate(-285.209 -401.773)" fill="#f2a444"/><path d="M402.948,560.215l-.929-.54-1.078.964.313.181c.279-.24.516-.042.507.05a.21.21,0,0,1-.078.12c-.5.426-.5.426-.562.445-.376.077-.442-.232-.178-.37l-.339-.159c-.706.589.232.837.36.847.563.057,1.319-.83,1.259-.877.069-.235-.393-.449-.626-.353l.468-.42.617.358Z" transform="translate(-288.223 -402.932)" fill="#f2a444"/><path d="M404.885,567.655l-.325-.189-.289.235.325.189Z" transform="translate(-291.05 -408.541)" fill="#f2a444"/><path d="M409.5,564.384a.8.8,0,0,0-1.007.17l.312.181c.382-.344.517-.006.514.027-.19.345-.509.476-.792.242l-.271.236c.615.208-.1.646-.239.659-.319.017-.363-.265-.113-.4l-.339-.158c-.718.6.236.847.367.856.521,0,1.105-.444.915-.823.438.071,1.33-.546.653-.994" transform="translate(-293.233 -406.243)" fill="#f2a444"/><path d="M412.49,568.54c-.143-.089-.15-.171-.023-.283.295-.247.319-.268.42-.278.762.029-.164.845-.4.561m.881-.748c-.314-.135.31-.569.366-.521.622.052-.127.746-.366.521m.8-.722c-.444-.332-1.37.136-1.231.663-.878-.06-1.464,1.049-.327,1.16.523.006,1.1-.433.929-.81.437.05,1.331-.566.628-1.013" transform="translate(-296.601 -408.176)" fill="#f2a444"/><path d="M518.707,627.484l-.945-.549-1.078.964.319.185c.282-.242.522-.039.513.054a.208.208,0,0,1-.077.12c-.5.426-.5.426-.563.445-.376.076-.452-.233-.184-.374l-.346-.163c-.706.59.245.845.375.855a1.737,1.737,0,0,0,1.261-.876c.067-.236-.4-.454-.637-.359l.468-.42.627.364Z" transform="translate(-371.552 -451.355)" fill="#004166"/><path d="M521.325,631.787c-.143-.089-.151-.174-.026-.285.295-.247.319-.267.421-.277.768.031-.15.851-.395.562m.881-.748c-.317-.138.3-.57.364-.522.627.052-.117.751-.364.522m.8-.722c-.451-.336-1.382.123-1.235.66-.895-.065-1.459,1.056-.316,1.166.528.01,1.1-.43.928-.811.447.055,1.342-.56.624-1.016" transform="translate(-374.952 -453.707)" fill="#004166"/><path d="M525.49,637.743l-.33-.192-.289.235.33.192Z" transform="translate(-377.875 -458.998)" fill="#004166"/><path d="M529.066,635.914l1.081-.456-.746.651Zm1.889-.7-.394-.229a11.676,11.676,0,0,0-2.082.979l.648.376-.4.329.331.192.4-.329.177.1.274-.23-.177-.1,1.224-1.089" transform="translate(-380.473 -457.149)" fill="#004166"/><path d="M533.371,638.787c-.144-.09-.152-.175-.028-.286.3-.252.319-.268.421-.277.768.031-.15.85-.393.563m.881-.748c-.318-.137.305-.57.364-.523.627.053-.115.751-.364.523m.8-.722c-.452-.337-1.386.122-1.235.66-.9-.066-1.457,1.053-.317,1.166.526.009,1.1-.432.929-.811.446.053,1.339-.561.624-1.016" transform="translate(-383.624 -458.747)" fill="#004166"/></g><path d="M92.346,468.518,48.954,493.57l98.693,57.354,43.392-25.052Z" transform="translate(-35.244 -337.304)" fill="#fff"/><path d="M146.929,550.67l-.07-.041-98.9-57.476L91.628,467.94l.07.041,98.9,57.476ZM48.516,493.154l98.414,57.192,43.112-24.89L91.628,468.264Z" transform="translate(-34.526 -336.888)" fill="#26c6dc"/><path d="M354.386,579.257,338,569.735l-.514.3,16.386,9.523Z" transform="translate(-242.97 -410.174)" fill="#0477bf"/><path d="M313.817,568.815,286.06,552.685l-.513.3L313.3,569.112Z" transform="translate(-205.576 -397.899)" fill="#0477bf"/><path d="M301.625,575.854l-27.757-16.131-.513.3,27.757,16.131Z" transform="translate(-196.799 -402.966)" fill="#0477bf"/><path d="M289.43,582.893l-27.757-16.131-.515.3,27.757,16.131Z" transform="translate(-188.018 -408.034)" fill="#0477bf"/><path d="M277.238,589.932,249.481,573.8l-.515.3,27.757,16.131Z" transform="translate(-179.24 -413.101)" fill="#0477bf"/><path d="M468.414,645.522,452.029,636l-.513.3,16.385,9.522Z" transform="translate(-325.064 -457.882)" fill="#0477bf"/><path d="M427.844,635.08l-27.756-16.13-.513.3,27.756,16.13Z" transform="translate(-287.669 -445.606)" fill="#0477bf"/><path d="M415.652,642.119,387.9,625.989l-.513.3,27.756,16.13Z" transform="translate(-278.892 -450.674)" fill="#0477bf"/><path d="M403.457,649.158,375.7,633.028l-.515.3,27.756,16.13Z" transform="translate(-270.111 -455.741)" fill="#0477bf"/><path d="M391.265,656.2l-27.756-16.13-.515.3,27.756,16.13Z" transform="translate(-261.333 -460.809)" fill="#0477bf"/><path d="M280.542,621.889l-16.386-9.522-.515.3,16.386,9.522Z" transform="translate(-189.806 -440.867)" fill="#0477bf"/><path d="M239.973,611.447l-27.757-16.131-.515.3,27.757,16.131Z" transform="translate(-152.411 -428.591)" fill="#0477bf"/><path d="M227.781,618.486l-27.757-16.131-.515.3,27.757,16.131Z" transform="translate(-143.634 -433.659)" fill="#0477bf"/><path d="M215.588,625.527,187.831,609.4l-.513.3,27.757,16.131Z" transform="translate(-134.857 -438.728)" fill="#0477bf"/><path d="M203.4,632.567l-27.757-16.131-.513.3,27.757,16.131Z" transform="translate(-126.08 -443.796)" fill="#0477bf"/><path d="M394.57,688.154l-16.385-9.522-.515.3,16.384,9.522Z" transform="translate(-271.9 -488.574)" fill="#0477bf"/><path d="M354,677.712l-27.756-16.13-.515.3,27.756,16.13Z" transform="translate(-234.505 -476.298)" fill="#0477bf"/><path d="M341.809,684.751l-27.756-16.13-.515.3,27.756,16.13Z" transform="translate(-225.728 -481.366)" fill="#0477bf"/><path d="M329.615,691.793l-27.756-16.13-.513.3,27.756,16.13Z" transform="translate(-216.95 -486.436)" fill="#0477bf"/><path d="M317.423,698.832,289.667,682.7l-.513.3,27.756,16.13Z" transform="translate(-208.173 -491.503)" fill="#0477bf"/><g clip-path="url(#b)"><path d="M202.534,515.469a119.361,119.361,0,0,0-16.65,1.176,4.989,4.989,0,0,0-.77-4.087l-4.743,2.738,11.195,6.506Zm-.83-.763-10.122-5.882L186,512.048a4.749,4.749,0,0,1,1.736,3.327,69.572,69.572,0,0,1,13.973-.67" transform="translate(-129.856 -366.321)" fill="#d9e8f5"/><path d="M199.518,512.882c-.5-.022-1.015-.038-1.531-.047l-10.969,6.333-11.194-6.506,4.743-2.738a7.416,7.416,0,0,0-.493-.644l-6.019,3.475,12.8,7.438Zm.012-.551-12.33-7.165-6.418,3.705a8.036,8.036,0,0,1,.666.545l5.587-3.225c1.687.824,10.535,6.789,12.5,6.141" transform="translate(-125.308 -363.688)" fill="#0477bf"/><path d="M120.379,559l-9.6-.059,9.653,5.61Zm10.949.067-9.062-.055.052,5.257,9.01-5.2m-11.014-6.609-9.339,5.392,9.393.057-.054-5.449m11.152,5.517L122.2,552.6l.053,5.327,9.211.056" transform="translate(-79.756 -397.739)" fill="#d9e8f5"/><path d="M115.407,547.564l-.821-.477-13.146,7.59,12.8,7.438.918-.53-1.439.156-.01-1.055-9.653-5.61-1.718-.01.36-1.091,1.552.009,9.339-5.392-.008-.831Zm11.979,6.961-11.92-6.927.011,1.127,9.264,5.384,1.566.01-.36,1.091L124.6,555.2l-9.01,5.2.009.925,11.784-6.8" transform="translate(-73.031 -393.869)" fill="#0477bf"/><path d="M213.337,519.007c-6.4-1.967-13.47-1.269-20.087-.46-.149-2.731-2.812-4.46-5.214-5.319,2.234,1.492,4.07,3.832,3.366,6.587,6.916-.86,14.85-1.7,21.935-.809" transform="translate(-135.374 -369.493)" fill="#be1e2d"/><path d="M146.749,556.356l-1.887-.011c.008.761.06,5.989.066,6.606l1.885-.2c-.007-.72-.055-5.564-.064-6.391m-.076-7.589-1.885.2c0,.339.057,5.763.063,6.28l1.887.011c-.009-.872-.057-5.743-.065-6.5" transform="translate(-104.239 -395.079)" fill="#be1e2d"/><path d="M128.615,571.824l-23.609-.144-.36,1.091,23.609.144Z" transform="translate(-75.338 -411.575)" fill="#be1e2d"/><path d="M122.037,616.443a14.532,14.532,0,0,0,2.4-1.119L25.741,557.97c-2.672,1.558-6.186,2.523-9.031.877h0c.842.4,98.694,57.518,99.534,57.757a8.254,8.254,0,0,0,5.793-.161" transform="translate(-12.03 -401.704)" fill="#fff"/><path d="M118.568,616.787a6.935,6.935,0,0,1-2.557-.468c-.493-.14-31.412-18.128-68.715-39.845-16.024-9.328-28.884-16.815-30.631-17.807-.069-.037-.138-.074-.207-.115l.131-.247c.019.009.084.045.193.107,3.307,1.764,7.177-.087,8.706-.979l.071-.041.07.041,98.9,57.476-.211.121a14.561,14.561,0,0,1-2.42,1.129,9.909,9.909,0,0,1-3.334.628M18.243,559.252c4.125,2.385,15.505,9.01,29.194,16.98,28.658,16.684,67.906,39.533,68.669,39.824a8.126,8.126,0,0,0,5.7-.16h0a13.941,13.941,0,0,0,2.161-.989L25.56,557.716c-1.368.786-4.377,2.207-7.316,1.536" transform="translate(-11.849 -401.288)" fill="#26c6dc"/><path d="M369.52,157.648l-98.693-57.354.2,70.31,98.693,57.354Z" transform="translate(-194.979 -72.205)" fill="#fff"/><path d="M369.5,227.575l-.211-.123-98.762-57.395v-.08l-.2-70.554.211.123L369.3,156.94v.08ZM270.8,169.9l98.412,57.191-.2-69.986L270.606,99.91Z" transform="translate(-194.617 -71.578)" fill="#26c6dc"/><path d="M387.682,189.956l-83.169-48.333,0,1.054,83.169,48.333Z" transform="translate(-219.231 -101.96)" fill="#0477bf"/><path d="M388.236,385.178l-83.169-48.333,0,1.056,83.169,48.333Z" transform="translate(-219.629 -242.508)" fill="#0477bf"/><path d="M328.334,201.6l-23.69-13.767.09,31.6,23.69,13.767Z" transform="translate(-219.325 -135.231)" fill="#f65841"/><path d="M522.442,320.57l-31.054-18.046,0,1.056,31.054,18.047Z" transform="translate(-353.769 -217.799)" fill="#0477bf"/><path d="M467.107,312.106,414.5,281.535l0,1.056,52.605,30.571Z" transform="translate(-298.416 -202.688)" fill="#0477bf"/><path d="M467.18,337.629l-52.605-30.571,0,1.056,52.605,30.571Z" transform="translate(-298.468 -221.063)" fill="#0477bf"/><path d="M467.252,363.153l-52.605-30.571,0,1.054,52.605,30.571Z" transform="translate(-298.52 -239.438)" fill="#0477bf"/><path d="M467.325,388.676l-52.605-30.571,0,1.054,52.605,30.571Z" transform="translate(-298.573 -257.814)" fill="#0477bf"/><path d="M426.464,57.818,327.771.464l.8-.464,98.693,57.354Z" transform="translate(-235.975 -0.001)" fill="#dbdbdb"/><path d="M369.55,85.48a35.022,35.022,0,0,1,15.918-26.471L286.775,1.655A34.754,34.754,0,0,0,270.827,29.28L369.52,86.634c0-.382.009-.77.03-1.154" transform="translate(-194.979 -1.191)" fill="#fff"/><path d="M369.293,86.458l-.211-.123-98.766-57.4,0-.083A34.793,34.793,0,0,1,286.333,1.117l.072-.045.073.042,98.895,57.471-.2.123A35.072,35.072,0,0,0,369.323,85.07c-.02.367-.031.751-.03,1.144ZM270.6,28.781l98.412,57.19c0-.315.013-.623.029-.919v0A35.387,35.387,0,0,1,384.83,58.594L286.41,1.4A34.517,34.517,0,0,0,270.6,28.781" transform="translate(-194.612 -0.772)" fill="#26c6dc"/><path d="M597.848,242.334a34.524,34.524,0,0,0-2.782,8.691l2.065,1.2-2.065-1.2a34.014,34.014,0,0,1,2.782-8.691" transform="translate(-428.411 -174.466)" fill="#d5e8f5"/><path d="M587.909,207.337a37.392,37.392,0,0,0-7.359,16.13l2.065,1.2-2.065-1.2a33.1,33.1,0,0,1,2-6.917,4.6,4.6,0,0,0,2.313.609c2.546-3.766,1.662-6.16,3.043-9.822" transform="translate(-417.96 -149.27)" fill="#d5e8f5"/><path d="M577.865,187.96a2.789,2.789,0,0,0-1.711-.258,37.226,37.226,0,0,0-10.12,19.251l2.065,1.2-2.065-1.2a34.411,34.411,0,0,1,3.453-10.049,9.2,9.2,0,0,0,.913,3.626,38.306,38.306,0,0,1,8.058-11.863,1.328,1.328,0,0,0-.592-.706" transform="translate(-407.51 -135.119)" fill="#d5e8f5"/><path d="M581.462,192.974c-.562.279-1.049.538-1.679.895-.139.74-.225,1.227-.314,1.795.581-.819,1.377-1.9,1.993-2.689" transform="translate(-417.182 -138.929)" fill="#d5e8f5"/><path d="M539.749,208.858A34.4,34.4,0,0,0,537,217.474l2.065,1.2-2.065-1.2a33.9,33.9,0,0,1,2.747-8.616" transform="translate(-386.609 -150.365)" fill="#d5e8f5"/><path d="M528.425,180.494a37.124,37.124,0,0,0-5.939,14.2l2.065,1.2-2.065-1.2a36.788,36.788,0,0,1,5.939-14.2" transform="translate(-376.158 -129.945)" fill="#d5e8f5"/><path d="M517.676,155.517a37.691,37.691,0,0,0-9.706,18.829l2.065,1.2-2.065-1.2a34.184,34.184,0,0,1,2.329-7.689c4.228-.565,4.513-4.7,8.229-8.614a2.111,2.111,0,0,0-.852-2.526" transform="translate(-365.707 -111.963)" fill="#d5e8f5"/><path d="M504.356,154.706c-6.493,1.671-8.47,7.2-10.9,16.694l2.065,1.2-2.065-1.2a33.638,33.638,0,0,1,2.924-8.989,5.3,5.3,0,0,0,1.285,2.935,38.988,38.988,0,0,1,6.694-10.64" transform="translate(-355.257 -111.379)" fill="#d5e8f5"/><path d="M469.077,153.882a35.813,35.813,0,0,0-4.655,12.2l2.065,1.2-2.065-1.2a35.708,35.708,0,0,1,4.655-12.2" transform="translate(-334.355 -110.786)" fill="#d5e8f5"/><path d="M459.948,120.538A37.269,37.269,0,0,0,449.9,139.714l2.065,1.2-2.065-1.2c-.1-2.209,5.456-17.477,9.96-17.393a8.142,8.142,0,0,0,.085-1.782" transform="translate(-323.901 -86.78)" fill="#d5e8f5"/><path d="M448.31,111.893a4.384,4.384,0,0,0-2.744-.39c-6.944,7.263-9.367,14.508-10.177,19.307l2.065,1.2-2.065-1.2a34.087,34.087,0,0,1,3-9.149,12.177,12.177,0,0,0,3.719-1.851,36.037,36.037,0,0,1,6.3-7.853c-.029-.019-.068-.047-.1-.064" transform="translate(-313.454 -80.239)" fill="#d5e8f5"/><path d="M430.8,116.59a40.363,40.363,0,0,0-5.022,2.949,36.453,36.453,0,0,0-4.9,12.608l2.064,1.2-2.064-1.2a34.858,34.858,0,0,1,3.712-10.54,4.858,4.858,0,0,0,1.086,3.152,39.173,39.173,0,0,1,5.128-8.169" transform="translate(-303.007 -83.938)" fill="#d5e8f5"/><path d="M395.492,118.081a35.545,35.545,0,0,0-3.645,10.414l2.064,1.2-2.064-1.2a34.678,34.678,0,0,1,3.645-10.414" transform="translate(-282.106 -85.011)" fill="#d5e8f5"/><path d="M386.348,82.23a37.122,37.122,0,0,0-9.016,18.093l2.064,1.2-2.064-1.2a32.5,32.5,0,0,1,3.54-10.217c4.967-3.023,4.943-2.216,5.475-7.875" transform="translate(-271.656 -59.201)" fill="#d5e8f5"/><path d="M374.6,69.022a3.421,3.421,0,0,0-1.36-.421,37.14,37.14,0,0,0-10.421,19.547l2.064,1.2-2.064-1.2a34.1,34.1,0,0,1,3.176-9.5,2.968,2.968,0,0,0,1.635,2.088,37.554,37.554,0,0,1,7.752-11.007,2.468,2.468,0,0,0-.782-.7" transform="translate(-261.205 -49.389)" fill="#d5e8f5"/><path d="M376.91,70.87a22.758,22.758,0,0,0-3.341,1.6,32.58,32.58,0,0,0-.493,3.586,37.706,37.706,0,0,1,3.834-5.19" transform="translate(-268.592 -51.022)" fill="#d5e8f5"/><path d="M321.519,86.28a33.839,33.839,0,0,0-2.251,7.508l2.065,1.2-2.065-1.2a33.82,33.82,0,0,1,2.251-7.508" transform="translate(-229.853 -62.116)" fill="#d5e8f5"/><path d="M308.959,63.814a36.312,36.312,0,0,0-4.208,11.437l2.065,1.2-2.065-1.2a33.957,33.957,0,0,1,2.277-7.569,5.742,5.742,0,0,0,2.57.079.891.891,0,0,0,.116-.565,20.155,20.155,0,0,1-.754-3.382" transform="translate(-219.402 -45.942)" fill="#d5e8f5"/><path d="M309.6,77.7a5.734,5.734,0,0,1-2.57-.079,33.255,33.255,0,0,0-2.277,7.569l2.065,1.2A34.012,34.012,0,0,1,309.6,77.7" transform="translate(-219.402 -55.886)" fill="#3992d8"/><path d="M328.691,59.781c-1.79,1.222-3.488,2.577-5.339,3.711a35.017,35.017,0,0,0-4.085,11.219l2.065,1.2a36.922,36.922,0,0,1,7.359-16.13" transform="translate(-229.853 -43.039)" fill="#3992d8"/><path d="M345.2,52.2a2.07,2.07,0,0,0-1.058-.253,37.068,37.068,0,0,0-10.358,19.486l2.065,1.2a37.334,37.334,0,0,1,10.114-19.245A1.617,1.617,0,0,0,345.2,52.2" transform="translate(-240.304 -37.398)" fill="#3992d8"/><path d="M356.055,70.591A37.218,37.218,0,0,0,348.3,87.218l2.065,1.2a35.6,35.6,0,0,1,4.874-12.56,43.094,43.094,0,0,1,.817-5.268" transform="translate(-250.754 -50.821)" fill="#3992d8"/><path d="M365.991,104.46a34.181,34.181,0,0,0-3.176,9.5l2.064,1.2a33.9,33.9,0,0,1,2.747-8.616,3.031,3.031,0,0,1-1.635-2.088" transform="translate(-261.205 -75.205)" fill="#3992d8"/><path d="M385.334,100.422c-4.117,2.6-4.117,2.6-4.462,2.78a35.208,35.208,0,0,0-3.541,10.217l2.064,1.2a36.788,36.788,0,0,1,5.939-14.2" transform="translate(-271.655 -72.298)" fill="#3992d8"/><path d="M403.617,91.532a4.26,4.26,0,0,0-3.149-.02,37.7,37.7,0,0,0-8.621,17.651l2.064,1.2a37.125,37.125,0,0,1,9.706-18.829" transform="translate(-282.106 -65.677)" fill="#3992d8"/><path d="M415.2,99.809a37.264,37.264,0,0,0-8.837,17.894l2.064,1.2a35.958,35.958,0,0,1,3.184-9.521c2.034-3.7,3.691-5.129,3.589-9.573" transform="translate(-292.556 -71.856)" fill="#3992d8"/><path d="M424.591,134.505a35.191,35.191,0,0,0-3.712,10.54l2.064,1.2a33.882,33.882,0,0,1,2.734-8.588,4.858,4.858,0,0,1-1.086-3.152" transform="translate(-303.007 -96.835)" fill="#3992d8"/><path d="M442.11,141.3a12.177,12.177,0,0,1-3.719,1.851,34.025,34.025,0,0,0-3,9.149l2.065,1.2a35.709,35.709,0,0,1,4.655-12.2" transform="translate(-313.454 -101.724)" fill="#3992d8"/><path d="M462.016,124.824c-6.971.994-9.946,9.372-12.11,17.975l2.065,1.2a37.071,37.071,0,0,1,10.045-19.176" transform="translate(-323.905 -89.866)" fill="#3992d8"/><path d="M475.483,125.9c-.032-.017-.075-.04-.108-.056a37.084,37.084,0,0,0-10.953,20.053l2.065,1.2c2.539-15.108,13.3-19.32,9-21.2" transform="translate(-334.355 -90.597)" fill="#3992d8"/><path d="M486.8,146.048a37.368,37.368,0,0,0-7.862,16.757L481,164a33.8,33.8,0,0,1,2.449-7.962c.849-1.9,2.283-3.539,2.586-5.689.2-1.454.494-2.86.761-4.306" transform="translate(-344.807 -105.146)" fill="#3992d8"/><path d="M496.378,182.218a34.16,34.16,0,0,0-2.924,8.989l2.065,1.2a33.314,33.314,0,0,1,2.143-7.254,5.3,5.3,0,0,1-1.285-2.935" transform="translate(-355.257 -131.186)" fill="#3992d8"/><path d="M513.68,189.85a8.69,8.69,0,0,1-3.381,1.525,34.234,34.234,0,0,0-2.329,7.69l2.065,1.2a34.68,34.68,0,0,1,3.645-10.414" transform="translate(-365.707 -136.68)" fill="#3992d8"/><path d="M533.567,170.87c-1.485.592-3.574,1.175-5.142,2.7a37.129,37.129,0,0,0-5.939,14.2l2.065,1.2a37.22,37.22,0,0,1,9.016-18.093" transform="translate(-376.158 -123.016)" fill="#3992d8"/><path d="M548.606,169.95a3.327,3.327,0,0,0-1.105-.395c-5.6,5.926-8.632,10.83-10.5,19.623l2.065,1.2a37.4,37.4,0,0,1,10.42-19.547,2.286,2.286,0,0,0-.882-.882" transform="translate(-386.609 -122.069)" fill="#3992d8"/><path d="M560.226,184.683a37.307,37.307,0,0,0-8.708,17.749l2.065,1.2a36.444,36.444,0,0,1,5.763-13.938c.265-1.675.66-3.328.88-5.011" transform="translate(-397.059 -132.96)" fill="#3992d8"/><path d="M569.487,220.612a35.031,35.031,0,0,0-3.453,10.049l2.065,1.2a34.055,34.055,0,0,1,2.3-7.623,9.209,9.209,0,0,1-.913-3.626" transform="translate(-407.51 -158.827)" fill="#3992d8"/><path d="M584.866,240.84a4.708,4.708,0,0,1-2.312-.609,33.167,33.167,0,0,0-2,6.917l2.065,1.2a32.907,32.907,0,0,1,2.251-7.508" transform="translate(-417.96 -172.952)" fill="#3992d8"/><path d="M601.34,236.812a28.388,28.388,0,0,1-3.313,1.171,34.316,34.316,0,0,0-2.961,9.066l2.065,1.2a35.539,35.539,0,0,1,4.208-11.437" transform="translate(-428.411 -170.49)" fill="#3992d8"/><path d="M98.765,578.941l-.013-4.792L.059,516.795c-.211,4.644-.055,11.617,3.985,13.5l98.692,57.354c-2.442-1.419-3.959-4.434-3.971-8.713" transform="translate(0 -372.061)" fill="#ccc"/><path d="M444.787,204.792l0,1.033c-38.373,22.154,8.25,106.49-35.5,131.213,0,0-43.391,25.053-43.391,25.053-10.832,5.845-14.6-2.835-13.654-12.565l.9-.519c-.856,9.029,2.334,17.646,12.753,12.051l43.391-25.052c42.768-24.4-4.464-107.538,35.5-131.214" transform="translate(-253.495 -147.438)" fill="#ccc"/><path d="M359.28,363.5a6.406,6.406,0,0,1-3.627-1.051c-3.077-2.045-4.539-7.117-3.911-13.569l.007-.071,1.2-.691-.026.27c-.581,6.128.745,10.9,3.546,12.758,2.2,1.464,5.232,1.18,9-.844l.012.022c.164-.125.622-.389,1.849-1.1l41.527-23.975c21.666-12.359,20.137-40.182,18.658-67.088-.711-12.918-1.444-26.275.476-37.542,2.154-12.641,7.506-21.336,16.362-26.583l.211-.125,0,1.359-.07.041c-18.486,10.673-17.182,35.546-15.8,61.881,1.457,27.79,2.964,56.526-19.7,69.333l-.01-.017c-.153.112-.594.366-1.853,1.094l-41.526,23.976a13.678,13.678,0,0,1-6.326,1.92m-7.266-14.521c-.6,6.312.816,11.258,3.794,13.237,2.388,1.587,5.638,1.29,9.662-.881.429-.248,43.243-24.966,43.386-25.05,22.514-12.723,21.011-41.371,19.558-69.076-.7-13.3-1.355-25.853.465-36.778,2.061-12.365,6.956-20.413,15.405-25.319l0-.707c-8.656,5.215-13.9,13.809-16.018,26.263-1.915,11.236-1.182,24.577-.472,37.479,1.484,26.992,3.018,54.9-18.8,67.347L365.6,360.548c-3.871,2.079-7,2.358-9.293.833-2.847-1.891-4.221-6.645-3.694-12.748Z" transform="translate(-253.13 -146.807)" fill="#26c6dc"/><path d="M98.9,572.815.21,515.461l.9-.519L99.8,572.3Z" transform="translate(-0.151 -370.726)" fill="#e6e6e6"/><g transform="translate(166.269 194.915)" opacity="0.15" style="mix-blend-mode:multiply;isolation:isolate"><g clip-path="url(#e)"><path d="M651.488,729.345c-13.223,7.634-34.661,7.634-47.883,0s-13.223-20.011,0-27.645,34.661-7.634,47.883,0,13.222,20.011,0,27.645" transform="translate(-593.688 -695.974)" fill="#2e8bb6" fill-rule="evenodd"/></g></g><path d="M647.672,717.283a6.238,6.238,0,0,1,.439,4.031,13.728,13.728,0,0,1-7.561,1.344v-.672a5.686,5.686,0,0,0-2.285,0,36.672,36.672,0,0,1-7.525,2.418c-5.106.538-6.105-.871-6.23-2.418,5.224-4.605,14.922-3.5,23.162-4.7" transform="translate(-449.609 -516.4)" fill="#25100c" fill-rule="evenodd"/><path d="M646.566,701.449a6.939,6.939,0,0,1,1.075,6.719c-2.9,1.372-5.485,1.278-8.466,1.478a43.808,43.808,0,0,1-8.869,2.687c-5.7,1.59-8.5-3.32-2.418-5.51,3.881-1.41,7.707-2.72,11.825-4.568Z" transform="translate(-449.578 -505)" fill="#452b19" fill-rule="evenodd"/><path d="M739.941,754.544l1.075,2.016c-1.311,7.808-1.162,19.927-12.5,17.6-8.041-1.987,11.825-19.058,11.422-19.619" transform="translate(-523.108 -543.225)" fill="#25100c" fill-rule="evenodd"/><path d="M729.844,747.993a99.735,99.735,0,0,0-5.128,10.525c-.935,2.451-2.889,7.653,1.073,8.8a5.548,5.548,0,0,0,5.371-.4c5.537-2.365,5.313-8.588,6.344-13.552.329-1.921,2.361-5.029.672-6.584a18.794,18.794,0,0,0-8.466-.537c-.578.084-.1,1.21.134,1.746" transform="translate(-520.805 -537.078)" fill="#452b19" fill-rule="evenodd"/><path d="M641.531,481.607a13.553,13.553,0,0,0,13.021-.247c-.274-19.218-.039-41.239-3.536-62.855-1.272-7.965,4.716-17.909.365-25.3l-17.209.443c-1.755,6.994-1.141,12.943-.1,18.7,1.127,8.179,3.835,25.45,6.641,32.887-.2,12.711-.3,24.447.816,36.367" transform="translate(-455.767 -283.086)" fill="#403e60" fill-rule="evenodd"/></g><g transform="translate(177.297 110.122)"><g clip-path="url(#f)"><path d="M677.51,383.138a206.778,206.778,0,0,0,4.5,53.137,363.558,363.558,0,0,1,1.247,47.549l7.423-4.046c1.669-27.547.1-69.642,2.076-96.9Z" transform="translate(-664.889 -385.771)" fill="#2c2b49" fill-rule="evenodd"/></g></g><g clip-path="url(#b)"><path d="M699.077,526.91c4.462,1.87,7.572,2.038,12.481-.554-.9-19.559-1.282-40.322-5.794-62.384-1.906-8.275,5.09-18.608-.427-26.006l-20.832.914c-3.751,12.425,3.727,27.653,6.526,39.123,6.525,15.806,4.61,32.909,8.047,48.906" transform="translate(-492.059 -315.309)" fill="#403e60" fill-rule="evenodd"/></g><g transform="translate(191.414 122.657)"><g clip-path="url(#h)"><path d="M739.2,428.806a172.326,172.326,0,0,0,7.211,52.993c2.333,16.433,3.484,34.359,3.09,47.5l8.857-4.248c1.106-27.594-2.191-69.627-.7-96.921Z" transform="translate(-723.542 -430.883)" fill="#2c2b49" fill-rule="evenodd"/></g></g><g clip-path="url(#b)"><path d="M626.274,272.172l-.793-20.59c1.206-10.659-9.428-38.97,12.272-38.561-1.177,5.892-2.776,18.7-3.373,24.757,4.021,21.033,6.041,15.317-.786,36.292Z" transform="translate(-449.184 -153.359)" fill="#51acbd" fill-rule="evenodd"/><path d="M631.756,221.147c2.319-16.855,34.18-8.14,41.725,5.321-8.2,16.38-9.311,31.4-3.7,52.145-7.906,7.149-35.779-1.051-39.618-1.7,1.074-6,3.716-16.857,4.533-24.746a19.134,19.134,0,0,0-.477-6.327c-2.378-9.437-3.553-17.671-2.466-24.695" transform="translate(-453.681 -152.525)" fill="#69bac9" fill-rule="evenodd"/></g><g transform="translate(176.485 59.333)"><g clip-path="url(#j)"><path d="M729.347,320.449s3.941-14.9,1.933-21.4c0,0,.262-10.2-4.135-12.205l7.254-23.61s3.719-7.813,10.674-6.753,9.884,29.465,9.884,29.465l-5.036,27.278Z" transform="translate(-699.986 -243.913)" fill="#549aa7" fill-rule="evenodd"/></g></g><g clip-path="url(#b)"><path d="M667.217,239.885l2.186.281-.188,37.853-4.535,5.665-3.125-6.439Z" transform="translate(-476.279 -172.703)" fill="#f65841" fill-rule="evenodd"/><path d="M679.668,219.492l-3.918,3.129a10.031,10.031,0,0,1,1.728-7.21l1.421,1.043Z" transform="translate(-486.421 -155.083)" fill="#fff" fill-rule="evenodd"/><path d="M662.714,152a22.677,22.677,0,0,0,.155,10.15c.371,6.1,2.684,8.27,6.417,7.563a1.578,1.578,0,0,0,.028,1.294l-.179,2.605,11.034-4.017a9.6,9.6,0,0,1,.1-7.2l1.4-6.284-12.216-7.3Z" transform="translate(-476.752 -107.138)" fill="#fed1a5" fill-rule="evenodd"/></g><g transform="translate(185.46 41.678)"><g clip-path="url(#l)"><path d="M681.486,210.171l1.675-2s6.117,1.049,10.344-5.228c0,0,1.146,1.809,1.6.208s4.383-.621,4.383-.621l-.905,8.657-13.478,3.267Z" transform="translate(-676.088 -187.275)" fill="#ebbf93" fill-rule="evenodd"/></g></g><g clip-path="url(#b)"><path d="M680.372,228.9l2.248.311.126,4.286-5.062-1.671Z" transform="translate(-487.891 -164.796)" fill="#f65841" fill-rule="evenodd"/><path d="M691.258,217.967l.756,5.378a20.121,20.121,0,0,0,9.649-7.173l-1.062-2.652a22.162,22.162,0,0,1-9.344,4.448" transform="translate(-497.663 -153.721)" fill="#fff" fill-rule="evenodd"/><path d="M663.972,138.581a6.191,6.191,0,0,0,3.5,2.965,5.677,5.677,0,0,1,1.108,2.92c-.093-8.3,7.338-5.146,4.012.313a4.426,4.426,0,0,0-.129,3.11c5.772-6.532,3.769-25.933-10.652-22.243-13.148,3.841-12.5,17.155,2.156,12.935" transform="translate(-469.718 -90.124)" fill-rule="evenodd"/></g><g transform="translate(182.724 35.059)"><g clip-path="url(#n)"><path d="M652.422,117.841c-1.909,20.112,21.341,4.93,23.3.025L667.9,113Z" transform="translate(-652.347 -116.409)" fill="#1a1a1a" fill-rule="evenodd"/><path d="M652.477,101.782c-1.909,20.112,21.342,4.929,23.3.025l-7.821-4.87Z" transform="translate(-652.387 -104.847)" fill="#262626" fill-rule="evenodd"/><path d="M652.781,90.172c-1.909,20.111,21.341,4.929,23.3.025l-7.82-4.87Z" transform="translate(-652.606 -96.489)" fill="#333" fill-rule="evenodd"/></g></g><g clip-path="url(#b)"><path d="M566.544,406.934c-1.639.542-6.888,2.372-8.5,2.617-.67.146-6.281.945-4.924-.576,1.057-.36,2.331-.169,3.254-.8-.883.036-4.469.17-5.164-.333-.222-1.385,4.593-.451,5.942-1.51-2.056.218-4.985.092-7.041.089-.868-.538-.732-1.219,1.311-1.48l2.9.212,2.452-.306a57.944,57.944,0,0,0-6.767-.495c-3.173-2.062,6.073-1.189,6.909-1.439,6.2-.746-1.163-3.5,1.661-5.978,1.073.97,3.239,2.46,3.833,3.95l2.875-.1c1.047,2.176,1.737,4.166,1.263,6.151" transform="translate(-395.493 -285.77)" fill="#fcceb4" fill-rule="evenodd"/><path d="M604.726,415.741a7.821,7.821,0,0,0-.854-7.179l-2.2.346a11.287,11.287,0,0,1,1.143,7.484Z" transform="translate(-433.165 -294.14)" fill="#fff" fill-rule="evenodd"/><path d="M607.372,296.761a17.171,17.171,0,0,1,1.093,8.325c17.942-3.754,42.9-10.419,48.01-35.133.9-4.447,2.9-9.546.279-13.824-3-5.485-9.267.688-10.587,4.545-7.951,25.524-17.29,28.416-38.8,36.087" transform="translate(-437.271 -182.833)" fill="#51acbd" fill-rule="evenodd"/></g><g transform="translate(170.101 71.123)"><g clip-path="url(#p)"><path d="M645.646,254.07c-3.255,12.217-3.728,26.621-12.528,36.406-17.673,13.938-29.424,6.043-43.862,18.042-1.309,3.125,12,17.145,15.368,16.8,32.423-3.352,41.557-9.247,47.561-36.871,2.028-11.486,5.973-27.671-6.54-34.375" transform="translate(-594.265 -254.038)" fill="#377884" fill-rule="evenodd"/></g></g><g clip-path="url(#b)"><g transform="translate(41.161 215.042)" opacity="0.15" style="mix-blend-mode:multiply;isolation:isolate"><g clip-path="url(#r)"><path d="M182.188,791.46c-8.057,5.407-21.119,5.407-29.175,0s-8.057-14.174,0-19.581c13.207-11.064,49.816,2.3,29.175,19.581" transform="translate(-146.971 -767.839)" fill="#2e8bb6" fill-rule="evenodd"/></g></g><path d="M183.561,755.637a28.711,28.711,0,0,1-.173,7.851l3.882,8.541,5.694-.345c-1.788-4.885-5.487-9.929-3.537-15.529Z" transform="translate(-132.028 -544.012)" fill="#d6a7a8" fill-rule="evenodd"/><path d="M188.648,776.316s-.9-4.41-5.608-2.5c0,0-1.6.739-1.295,4.4l.432,3.106c-.014.825-.648,4.433,1.531,4.737h0a18.888,18.888,0,0,1,.107,2.424,1.066,1.066,0,0,0,1.035.086s.046-1.863.086-2.243a14.657,14.657,0,0,0,3.538,0l1.811-2.415-1.121-2.933Z" transform="translate(-130.817 -556.754)" fill="#3d61af" fill-rule="evenodd"/></g><g transform="translate(50.889 216.581)"><g clip-path="url(#s)"><path d="M193.839,802.265l-.595-.518a10.945,10.945,0,0,1,2.588-6.989,15.865,15.865,0,0,0,1.726,7.248Z" transform="translate(-190.013 -788.759)" fill="#3d4e86" fill-rule="evenodd"/><path d="M180.69,796.23c.43-.878.159-4.5-.345-6.3-.427-.942-1.639-3.8-1.639-3.8l-.863,9.318Z" transform="translate(-178.925 -782.551)" fill="#3d4e86" fill-rule="evenodd"/></g></g><g clip-path="url(#b)"><path d="M215.033,779.985c-1.617,5.365.5,12.074,4.4,15.961h0l-3.08.863c-2.186-2.571-7.5-8.282-9.862-10.784,1.084-1.545,1.874-6.666,2.07-7.593Z" transform="translate(-148.662 -560.423)" fill="#f7a790" fill-rule="evenodd"/><path d="M219.95,814.458l-6.988,3.365a2.088,2.088,0,0,1-.255.069,6.825,6.825,0,0,1-7.6-5.246,20.013,20.013,0,0,0-1.294,4.746,1.164,1.164,0,0,1-1.381-.087,20.716,20.716,0,0,0,.345-5.263c-.616-3.815-1.208-3.624-.863-5.78,0,0,.431-3.624,3.105-2.847,5.766,2.167,4.533,10.881,11.557,9.221l0,.01s3.2-.324,3.366,1.812" transform="translate(-145.295 -578.331)" fill="#3d61af" fill-rule="evenodd"/></g><g transform="translate(56.521 224.975)"><g clip-path="url(#u)"><path d="M221.859,837.714s-2.915-.142-3.537-2.157c-.574-.767-2.031-6.829-3.71-5.176-1.017,1.095-1.035,1.466-1.035,1.466l.949,3.106,4.4,3.365Z" transform="translate(-210.283 -822.594)" fill="#3d4e86" fill-rule="evenodd"/><rect width="2.589" height="1.553" transform="translate(0.015 13.309)" fill="#3d4e86"/></g></g><g clip-path="url(#b)"><path d="M212.152,808.078c-.886-1.287-2.95-4.215-5.058-3.457l-.017-.042c2.2-1.012,4.421,1.972,5.122,3.474Z" transform="translate(-149.083 -579.1)" fill="#fff" fill-rule="evenodd"/><path d="M254.508,838.654c-.522-1.041-3.38-1.479-4.284-1.048l-.015-.043c1.069-.589,3.72-.4,4.343,1.061Z" transform="translate(-180.135 -602.771)" fill="#fff" fill-rule="evenodd"/><path d="M189.579,776.435c-1.7-1.649-4.444-2.659-5.915.078l-.039-.021c1.4-3.02,4.322-2.083,5.991-.095Z" transform="translate(-132.199 -557.63)" fill="#fff" fill-rule="evenodd"/><path d="M196.567,404.716c12.907,39.741,5.919,71.324-10.7,107.327l-7.7-2.588c1.341-13.549,3.563-26.444,9.858-36.322a177.579,177.579,0,0,0-4.313-30.455c.7,14.637-3.065,46.14-5.545,60.738l-8-.259L168.873,478.4l1.726-11.733c-1.545-19.249-11.737-47.812,3.658-63.759,6.392,5.161,13.879,5.547,22.311,1.812" transform="translate(-119.411 -290.066)" fill="#004166" fill-rule="evenodd"/><path d="M195.725,530.327c-.739-10.194-4.865-25.591-12.337-34.078,6.331,2.025,12.643,7.973,13.372,15.1Z" transform="translate(-132.028 -357.269)" fill="#002d47" fill-rule="evenodd"/><path d="M174.81,282.229a16.173,16.173,0,0,0,5.761,9.372,31.291,31.291,0,0,0,9.949,5.28c6.607,1.343,9.085-4.9,4.5-7.586-4.249-2.485-5.155-2.19-9.418-5.689l-3.395-13.231c-3.161-5.362-10.565.63-7.395,11.854" transform="translate(-125.296 -193.221)" fill="#c54634" fill-rule="evenodd"/><path d="M216.121,231.165l.42-1.271s-1.309-4.165-.382-5.88c0,0,5.033,1.1,5.891-3.962s1.778-10.5-.21-12.311-13.158,5.3-13.158,5.3-.763,9.5-3.223,11.94.453,4.9.453,4.9Z" transform="translate(-147.208 -149.349)" fill="#ffc9b6" fill-rule="evenodd"/><path d="M209.126,185.2s-3.373-2.506-3.185,1.72c.136,3.072-.383,3.355-1.082,4.518-.384.64-1.337,5.08-4.7,5.08-3.884,0-4.421-2.4-5.867-3.71-2.959-2.678-2.595-8.61-2.761-12.079s.3-7.412,3.6-10.354,7.67-4.4,10.718-2.76c2.7,1.738,3.492,1.9,7.333,1.984.88.22,2.8,1.342,2.6,5.894-.25,5.844-5.318,7.9-5.981,7Z" transform="translate(-137.869 -120.179)" fill="#3d1611" fill-rule="evenodd"/><path d="M323.293,245.711a8.382,8.382,0,0,0-4.077,2.167l-2.489-3.688c2.408-2.618,5.9-6.094,9.086-7.749,3.073-1.568,6.3,1.695,7.488,3.251,0,2.055-2.814-.467-3.78-.73,1,1.133-.081,3.387-.963,3.728-.368.627-1.444,1.7-2.211.906,0,0-2.235,1.673-3.054,2.115" transform="translate(-228.024 -169.923)" fill="#ffc9b6" fill-rule="evenodd"/><path d="M346.969,239.582c-3.4.089-11.765-6.071-12.052-5.9a.9.9,0,0,1,.891-1.568c-.017.011,6.9,3.714,9.947,5.7.308.32,1.583,1.742,1.214,1.767" transform="translate(-240.796 -167.013)" fill-rule="evenodd"/><path d="M348.62,251.167c.661.247,4.864-.165,4.375,1.226-.222,1.732-4.683.592-6.124,1.35l-.4-1.838a2.278,2.278,0,0,1,2.149-.739" transform="translate(-249.438 -180.8)" fill="#ffc9b6" fill-rule="evenodd"/><path d="M257.986,265.823a7.485,7.485,0,0,0-3.706-4.221c-7.051,5.415-16.146,9.131-24.834,13.185l11.583,9.624a246.579,246.579,0,0,1,16.957-18.587" transform="translate(-165.187 -188.337)" fill="#dd4f3a" fill-rule="evenodd"/><path d="M205.756,317.24l-2.39-22.489c2.269-6.569,5.793-18.431-8.972-22.517-8.487,4.131-10.2-2.538-14.571-2.777-6.859,0-4.533,19.873-4.322,19,.089.274,3.873,11.839,3.8,11.693.067,1.717-4.94,12.217-5.311,14.281,8.589,5.726,24.973,6.457,31.768,2.81" transform="translate(-125.261 -193.992)" fill="#f65841" fill-rule="evenodd"/><path d="M251.8,303.879l6.3,9.835,8.292,7.89c5.6,3.757,9.853-1.333,6.634-5.56-2.982-3.916-7.14-7.479-9.75-12.338l-6.187-10.777c-3.562-3.8-9.688-2.941-8.48,3.185Z" transform="translate(-178.869 -209.245)" fill="#f87664" fill-rule="evenodd"/><path d="M375.2,401.6,374,407.434c1.176.416,20.447,7.21,22.391-.606-.628-1.995-4-.113-5.731-.714-2.755-.939-3.984-2.3-2.768-4.5,0,0,.874-1.462.532-1.941-.587-.818-1.238-.007-2.039.921a19.009,19.009,0,0,1-3.006,3.114c-.716.448-8.17-2.113-8.17-2.113" transform="translate(-269.254 -287.498)" fill="#ffc9b6" fill-rule="evenodd"/><path d="M316.727,387.961l11.648,4.745a48.846,48.846,0,0,1,2.242-7.851l-17.082-8.887c-5.435-1.466-10.092,2.848-5.177,7.161Z" transform="translate(-220.504 -270.464)" fill="#f87664" fill-rule="evenodd"/></g></g></g></g></svg>