<svg xmlns="http://www.w3.org/2000/svg" xmlns:xlink="http://www.w3.org/1999/xlink" width="450" height="399.343" viewBox="0 0 450 399.343"><defs><clipPath id="a"><rect width="450" height="399.343" fill="none"/></clipPath><clipPath id="c"><rect width="66.419" height="38.347" fill="none"/></clipPath><clipPath id="d"><rect width="234.041" height="135.564" fill="none"/></clipPath><clipPath id="e"><rect width="225.559" height="135.565" fill="none"/></clipPath></defs><g clip-path="url(#a)"><g clip-path="url(#a)"><path d="M266.85,393.507C144.778,419.863,27.082,354.446,3.968,247.394S61.076,32.191,183.148,5.835,422.917,44.9,446.032,151.949s-57.109,215.2-179.182,241.559" transform="translate(0 0)" fill="#f9e6d2"/><g transform="translate(157.335 145.852)" style="mix-blend-mode:multiply;isolation:isolate"><g clip-path="url(#c)"><path d="M164.97,133.082c-12.928,7.464-33.955,7.426-46.966-.084s-13.075-19.651-.147-27.116,33.956-7.426,46.966.086,13.075,19.651.147,27.115" transform="translate(-108.205 -100.308)" fill="#ddedec"/></g></g><g transform="translate(84.414 242.809)" style="mix-blend-mode:multiply;isolation:isolate"><g clip-path="url(#d)"><path d="M210.209,302.553,58.055,214.267l81.887-47.278L292.1,255.275Z" transform="translate(-58.055 -166.989)" fill="#ddedec"/></g></g><g transform="translate(119.266 176.005)" style="mix-blend-mode:multiply;isolation:isolate"><g clip-path="url(#e)"><path d="M234.177,256.61,82.023,168.323l81.887-47.278,139.43,80.9a8.516,8.516,0,0,1-.016,14.74Z" transform="translate(-82.024 -121.045)" fill="#ddedec"/></g></g><path d="M214.247,183.741a2.523,2.523,0,0,0,1.236-2.547L207.2,124.019c-.728-5.03-4.816-6.7-9.62-3.922L174.4,133.479c-4.806,2.774-8.891,9.158-9.62,15.029l-8.026,64.66a2.034,2.034,0,0,0,3.036,2.012,2.574,2.574,0,0,0,1.332-1.941l7.749-65.825a15.293,15.293,0,0,1,6.774-10.639l20.9-12.064c3.386-1.956,6.264-.775,6.769,2.776l7.8,54.842a2.035,2.035,0,0,0,3.032,1.476Z" transform="translate(71.167 53.923)" fill="#9bc2e0"/><path d="M208.634,76.941c.35,1.806.175,2.508-2.274,6.331s-4.067,13.035-4.723,18.785c-.965,8.463-3.014,22.407-3.842,27.948-.177,1.186-1.214,2.369-2.069,2.358l-1.777-.019c-.563-.007-.871-.541-.759-1.32,1.016-7.131,5.931-41.145,7.7-45.4,1.973-4.753,7.4-10.492,7.746-8.688" transform="translate(87.707 34.78)" fill="#53241d"/><path d="M261.182,146.5c2.837-1.639-45.151-26.04-47.429-27.919-.864-.712-2.976-1.685-4.172-.965-3.584,2.158-43.732,24.243-48.454,27.974s-10.846,18.306-8.4,19.1,47.387,36.563,51.739,28.008c6.369-12.522,46.4-40.239,56.712-46.2" transform="translate(69.092 53.286)" fill="#a24c32"/><path d="M245.749,159.053l-2.536.75s-3.039-11.052-17.784-19.131a66.73,66.73,0,0,0-29.709-8.415,3.014,3.014,0,0,1-2.536-1.339L203.614,82.9l5.014-6.068s16.2,2.229,30.134,9.3a47.276,47.276,0,0,1,19.9,19.586s-9.9,19.2-9.447,22.631-3.462,30.7-3.462,30.7" transform="translate(87.714 34.887)" fill="#a24c32"/><path d="M243.042,96.806c.35,1.806.174,2.508-2.274,6.331s-4.067,13.035-4.723,18.785c-.965,8.463-3.014,22.407-3.842,27.948-.177,1.186-1.214,2.369-2.071,2.358l-1.775-.019c-.563-.007-.871-.541-.759-1.32,1.016-7.131,5.931-41.145,7.7-45.4,1.975-4.753,7.4-10.494,7.747-8.688" transform="translate(103.329 43.8)" fill="#8c3923"/><path d="M241.416,147.211c2.837-1.639,5.073-5.867,4.529-8.747-.208-1.1-.762-1.684-1.956-.965-3.586,2.158-43.733,24.243-48.456,27.974s-10.846,18.306-8.4,19.1,2.425-5.719,10.321-11.179c6.37-4.4,33.644-20.227,43.959-26.184" transform="translate(84.714 62.286)" fill="#8c3923"/><path d="M249.415,203.183a1.272,1.272,0,0,0,.624-1.287l-8.4-58.012c-.73-5.03-4.816-6.694-9.621-3.92l-23.176,13.382c-4.806,2.774-8.891,9.158-9.62,15.028L191.1,233.747a1.677,1.677,0,0,0,2.5,1.659l1.252-.724a1.268,1.268,0,0,0,.628-.954l7.823-66.448a15.291,15.291,0,0,1,6.774-10.639l20.9-12.064c3.386-1.956,6.264-.775,6.769,2.776l7.869,55.367a1.677,1.677,0,0,0,2.5,1.216Z" transform="translate(86.762 62.943)" fill="#9bc2e0"/><path d="M206.764,84.391s-7.086-3.261-8.772.449-1.463,8.886-2.363,13.047-3.149,15.746-3.149,15.746-5.312,3.067-6.606,3.815-10.378,4.17-11.164,4.4-3.038,1.124-3.038,1.124-6.523-.787-6.691-.787-6.017,1.969-6.3,3.43a16.813,16.813,0,0,1-2.025,4.1s.057,1.182,1.069.845a8.585,8.585,0,0,0,1.4-.563s-.891,1.349-.445,1.63a2.675,2.675,0,0,0,2.3-.506A6.032,6.032,0,0,0,162.114,130l.73-1.294h3.037s4.161,1.125,4.779,1.125h1.069l.506,1.237s-.337,1.406-.337,1.6-1.518,1.041-1.406,1.884.39,1.551,1.067,1.393,1.239-1.338,1.857-1.675.912-.506.912-.506a18.6,18.6,0,0,1,1.62-3.149c.281-.055.281-3.318.281-3.318s1.125-.112,7.142-.618,14.622,0,17.1-4.442,4.285-20.47,5.095-23.17,4.58-12.729,1.2-14.677" transform="translate(71.129 37.715)" fill="#e8a798"/><path d="M183.766,184.815s-.084.619-2.278,1.884a23.157,23.157,0,0,1-5.3,1.995s-.564-.324-.979-.631c-1.519,1.467-2.066,5.034-5.021,6.988-3.318,2.193-9.307,2.642-12.371,3.036-5.681.729-1.291-4.451.055-6.636,2.081-3.375,3.094-2.136,10.18-2.588,4.669-.3,6.074-4.16,8.66-6.185a18.054,18.054,0,0,0,4.778-5.793,1.819,1.819,0,0,0,.02-1.643c.135.215.278.425.432.631,1.98,2.625,2.7,3.943,2.261,6.184Z" transform="translate(70.367 79.567)" fill="#562922"/><path d="M183.965,182.36c-.843,2.867-6.13,3.6-8.156,4.609s-2.306,5.23-5.623,7.424-9.306,3.036-12.372,3.43c-5.679.73-1.293-4.448.057-6.636,2.081-3.373,6.19-5.935,7.142-6.779-.173.252-4.049,4.249,3.036,3.8,4.672-.3,6.074-4.16,8.662-6.184a18.08,18.08,0,0,0,4.778-5.794,1.831,1.831,0,0,0,.02-1.643c.135.217.276.426.432.631,2.246,2.979,2.867,4.275,2.024,7.144" transform="translate(70.368 79.269)" fill="#bd4428"/><path d="M173.008,190.53c-.042.01.249-.276.249-.276-.048.054-.132.148-.249.276" transform="translate(78.551 86.383)" fill="#e8a798"/><path d="M196.49,193.589c-.59,1.408-4.076,4.164-4.076,4.164l-.963-.679a35.622,35.622,0,0,1-5.208,6.3c-3.968,3.8-15.315,3.289-15.951,1.855s1.671-4.508,3.293-6.357a6.168,6.168,0,0,1,6.9-1.515c2.723,1.181,5.624-.23,7.818-2.392s5.969-8.156,6.13-9.137a2.989,2.989,0,0,0,.01-1.3c.823,1.88,2,2.747,2.287,4.282.01.1.038.4.064.813a11.123,11.123,0,0,1-.31,3.965" transform="translate(77.271 83.784)" fill="#562922"/><path d="M188.509,188.253c-.028-.391-.054-.689-.064-.766a3.758,3.758,0,0,1,.064.766" transform="translate(85.562 85.127)" fill="#562922"/><path d="M198.086,117.934l-4.513,2.606s-11.381,6.289-18.68,14.378S164.624,146.2,164.624,146.2s1.585-2.735,10.268,1.764,18.695,6.748,21.507,10.684,2.454,9.067,1.326,10.142l-1.128,1.073s18.4-7.916,21.959-11.778,13.159-6.411,17.658-14.846-.715-19.759-.715-19.759Z" transform="translate(74.746 53.547)" fill="#02b6d7"/><path d="M196.487,188.226c-.044,2.828-2.953,5.4-4.262,6.664s-2.024,4.43-5.985,8.223-15.315,3.243-15.951,1.809,1.967-4.726,3.59-6.572a33.373,33.373,0,0,1,4.809-4.3,7.619,7.619,0,0,0,.884-.935c-.672,1.1-1.117,2.665.915,3.549,2.723,1.182,5.624-.228,7.818-2.392s5.969-8.156,6.13-9.137a2.979,2.979,0,0,0,.01-1.3c.951,2.175,2.075,2.324,2.041,4.393" transform="translate(77.274 83.468)" fill="#bd4428"/><path d="M217.457,147.3c-4.387-1-14.171-.017-14.171-.017-11.81.507-15.374-10.5-15.374-10.5s3.9-8.9,3.9-10.254-2.609-7.416-2.609-7.416-.6-.345-2.79-1.863-3.206-7.254-1.646-9.448,3.839-11.81,3.839-11.81l3.206-10.29,1.181-.712,2.9-1.329,9.485-4.346s2.3,1.157,2.3,2.888c0,1.182,1.725,2.143,3.679,3.04.915.422,1.876.827,2.732,1.232,2.7,1.282,6.242,5.133,8.942,7.831s-1.518,16.871-3.375,22.25,0,14.36.843,15.541,5.682,7.706,6.2,8.922-4.852,7.275-9.239,6.279" transform="translate(83.55 36.012)" fill="#ec4b75"/><path d="M206.425,94.811a76.8,76.8,0,0,1-8.688,11.725,50.73,50.73,0,0,0-4.134,4.556s-1.434-4.556-2.193-7-1.688-8.942-.676-12.653c.51-1.87,1.492-5.112,2.3-7.778l9.485-4.346s2.3,1.157,2.3,2.888c0,1.181,1.723,2.143,3.677,3.04,2.169,1.991-.979,7.292-2.075,9.569" transform="translate(86.4 36.012)" fill="#e8a798"/><path d="M190.784,65.36c-3.58.478-8.689,7.254-8.774,11.472s3.669,7.689,3.669,7.689,1.476-5.749,5.019-8.532,5.4,2.7,6.074,2.952,10.715,8.865,10.715,8.865l1.237,2.017a18.515,18.515,0,0,0,1.63-3.543,12.5,12.5,0,0,0,.5-3.2s1.1,1.518.843,2.614a5.169,5.169,0,0,0,.038,2.193s2.156-2.952,2.409-4.976a25.382,25.382,0,0,0,0-4.64s1.6-5.389.592-8.051S202.592,59.033,197.7,61.9s-3.978,2.93-3.978,2.93-2.386.455-2.937.529" transform="translate(82.64 27.841)" fill="#784832"/><path d="M184.8,72.572s-1.214,6.5-.755,7.507,1.134,2.616,1.134,2.616.169,3.879.843,4.638a51.268,51.268,0,0,1,3.965,6.833c.253.845,1.341,1.471,2.084,1.9s5.975-.971,7.786-2.828,4.763-4.554,5.544-6.411a8.078,8.078,0,0,0,.781-2.469s2.025-2.422,1.6-3.942-1.181-3.373-3.29-2.446a5.635,5.635,0,0,0-2.783,3.373s-3.122-8.1-7.676-10.459-9.238,1.687-9.238,1.687" transform="translate(83.518 31.849)" fill="#f0baae"/><path d="M184.978,68.487s-1.012,6.833,1.349,9.617a37.032,37.032,0,0,0,5.82,5.482c.253.084-.928-2.783-.928-2.783s2.38,4.09,4.3,5.736a15.967,15.967,0,0,0,4.385,2.53s-1.94-2.193-2.446-2.952a6.993,6.993,0,0,1-.59-2.616s3.539,5.128,5.406,5.568a20.024,20.024,0,0,0,3.956.439s-3.612-1.831-3.956-3.539-.772-3.853-.772-3.853,1.186-11.267-4.971-13.629a16.448,16.448,0,0,0-11.557,0" transform="translate(83.89 30.619)" fill="#875645"/><path d="M206.924,97.477a18.9,18.9,0,0,0-.169,11.295c1.855,6.026,1.687,7.826,1.237,9.681s-1.463,7.76-1.463,7.76-1.432,4.893,1.758,5.342,4.2,1.6,6.284-1.588,3.824-16.136,2.867-20.118,2.306-12.878-.337-16.815-3.663-3.881-5.431-3.375-4.747,7.817-4.747,7.817" transform="translate(93.52 40.6)" fill="#e8a798"/><path d="M220.557,115.135a17.69,17.69,0,0,0-8.717-.169c-4.611,1.125-12.476,1.125-13.745,1.125a31.39,31.39,0,0,1-6.5-1.631c-.225-.225-4.836-.563-5.623.225a47.448,47.448,0,0,1-5.287,3.2s-2.812,1.688-1.575,1.969a4.923,4.923,0,0,0,2.531-.225s-1.125,1.518,0,1.575a9.811,9.811,0,0,0,2.53-.323s-1.463.885-.282,1.223a19.032,19.032,0,0,0,3.881.337c.282,0,4.724-1.56,4.724-1.56s4.068.329,4.724,0a3.621,3.621,0,0,0,1.124-.971s10.348,3.93,17.94,3.372,9.332.167,10.177-2.052-1.908-5.431-5.9-6.1" transform="translate(81.181 51.848)" fill="#e8a798"/><path d="M77.734,234.429l-10.222-6.22V139.755l10.222,6.219Z" transform="translate(30.653 63.455)" fill="#ddedf9"/><path d="M151.569,201.879,74.483,246.384V157.929l77.086-44.505Z" transform="translate(33.818 51.499)" fill="#9bc2e0"/><path d="M77.841,159.69l-10.222-6.22,76.6-44.228,10.223,6.22Z" transform="translate(30.702 49.6)" fill="#c9d6e2"/><path d="M165.278,285.645l-10.222-6.22V190.97l10.222,6.22Z" transform="translate(70.402 86.708)" fill="#ddedf9"/><path d="M239.113,253.095,162.027,297.6V209.145l77.086-44.505Z" transform="translate(73.567 74.753)" fill="#b5d3ea"/><path d="M165.414,206.068l-10.222-6.22,76.6-44.226,10.222,6.219Z" transform="translate(70.464 70.659)" fill="#c9d6e2"/><path d="M204.957,243.114,67.512,163.76V138.224l137.445,79.353Z" transform="translate(30.653 62.76)" fill="#ddedf9"/><path d="M211.294,225.139,59.14,136.853V130.41L211.294,218.7Z" transform="translate(26.852 59.212)" fill="#d0e4f4"/><path d="M246.121,164.852l-82.4,47.575v-6.443l82.4-47.575Z" transform="translate(74.336 71.924)" fill="#c2dcef"/><path d="M211.408,233.357,59.254,145.071l81.887-47.278L293.3,186.079Z" transform="translate(26.904 44.402)" fill="#eaf5fe"/><path d="M213.511,154.227h-3.341l-59.011-34.113a3.631,3.631,0,0,0-3.266.137l-35.579,20.54h-3.126v2.2a.966.966,0,0,0,.566,1.035l61.785,35.717c.838.483,3.564,1.107,4.531.548l36.642-22.568c.64-.369.9-.864.76-1.3.039,0,.039-2.194.039-2.194" transform="translate(49.568 54.389)" fill="#e3f1fb"/><path d="M171.533,178.056l-61.787-35.717c-.838-.484-.731-1.328.236-1.886l37.9-21.885a3.629,3.629,0,0,1,3.267-.135L212.94,154.15c.838.483.731,1.328-.234,1.886l-36.642,22.57c-.967.558-3.693-.065-4.531-.55" transform="translate(49.573 53.625)" fill="#9bc2e0"/><path d="M170.775,172.713,113.852,139.8c-.717-.414-.627-1.136.2-1.614l24.757-14.221a3.109,3.109,0,0,1,2.8-.116l56.923,32.909c.717.414.627,1.137-.2,1.614L173.57,172.6a3.106,3.106,0,0,1-2.795.116" transform="translate(51.474 56.108)" fill="#b5d3ea"/><path d="M157.567,137.974l-9.649-5.57,7.657-4.422,9.649,5.572Z" transform="translate(67.161 58.109)" fill="#eaf5fe"/><path d="M148.13,132.525l-2.7-1.562c-.794-.458-.694-1.258.222-1.787l4.34-2.505a3.437,3.437,0,0,1,3.094-.128l2.7,1.562Z" transform="translate(65.786 57.315)" fill="#eaf5fe"/><path d="M155.354,136.7l2.7,1.562a3.442,3.442,0,0,0,3.094-.128l4.34-2.507c.916-.529,1.016-1.329.222-1.787l-2.7-1.562Z" transform="translate(70.537 60.058)" fill="#eaf5fe"/><path d="M158.364,156.829l-2.309,1.333a2.453,2.453,0,0,1-2.207.092l-2.657-1.534c-.566-.326-.494-.9.158-1.274l2.309-1.333a2.449,2.449,0,0,1,2.207-.092l2.657,1.533c.566.327.494.9-.158,1.275" transform="translate(68.474 69.832)" fill="#9bc2e0"/><path d="M154.72,154.725l-2.31,1.333a2.454,2.454,0,0,1-2.207.092l-2.655-1.534c-.566-.326-.5-.9.158-1.274l2.309-1.333a2.453,2.453,0,0,1,2.207-.092l2.657,1.534c.566.326.494.9-.158,1.274" transform="translate(66.819 68.877)" fill="#9bc2e0"/><path d="M151.076,152.621l-2.31,1.333a2.446,2.446,0,0,1-2.206.092l-2.657-1.534c-.566-.326-.494-.9.159-1.274l2.309-1.333a2.453,2.453,0,0,1,2.207-.092l2.657,1.534c.566.326.494.9-.159,1.274" transform="translate(65.165 67.921)" fill="#9bc2e0"/><path d="M147.432,150.517l-2.311,1.333a2.446,2.446,0,0,1-2.206.092l-2.657-1.533c-.566-.327-.494-.9.158-1.275l2.309-1.333a2.453,2.453,0,0,1,2.207-.092l2.657,1.534c.566.326.494.9-.159,1.274" transform="translate(63.51 66.966)" fill="#9bc2e0"/><path d="M143.788,148.413l-2.309,1.333a2.449,2.449,0,0,1-2.207.092l-2.657-1.533c-.566-.327-.494-.9.158-1.275l2.309-1.333a2.454,2.454,0,0,1,2.207-.092l2.657,1.534c.566.326.494.9-.158,1.274" transform="translate(61.856 66.011)" fill="#9bc2e0"/><path d="M140.144,146.31l-2.31,1.333a2.449,2.449,0,0,1-2.207.092l-2.655-1.533c-.566-.327-.5-.9.158-1.275l2.309-1.333a2.453,2.453,0,0,1,2.207-.092l2.657,1.534c.566.326.494.9-.158,1.274" transform="translate(60.201 65.056)" fill="#9bc2e0"/><path d="M136.5,144.206l-2.31,1.333a2.451,2.451,0,0,1-2.206.092l-2.657-1.534c-.566-.326-.494-.9.159-1.274l2.309-1.333A2.449,2.449,0,0,1,134,141.4l2.657,1.534c.566.326.494.9-.158,1.274" transform="translate(58.547 64.1)" fill="#9bc2e0"/><path d="M132.856,142.1l-2.31,1.333a2.45,2.45,0,0,1-2.206.092l-2.657-1.534c-.566-.326-.494-.9.158-1.274l2.309-1.333a2.454,2.454,0,0,1,2.207-.092l2.657,1.534c.566.326.494.9-.159,1.274" transform="translate(56.892 63.145)" fill="#9bc2e0"/><path d="M129.212,140l-2.309,1.333a2.449,2.449,0,0,1-2.207.092l-2.657-1.533c-.566-.327-.494-.9.158-1.275l2.309-1.333a2.453,2.453,0,0,1,2.207-.092l2.657,1.534c.566.326.494.9-.158,1.274" transform="translate(55.238 62.19)" fill="#9bc2e0"/><path d="M125.568,137.894l-2.309,1.333a2.449,2.449,0,0,1-2.207.092l-2.657-1.533c-.566-.327-.494-.9.158-1.275l2.309-1.333a2.454,2.454,0,0,1,2.207-.092l2.657,1.534c.566.326.494.9-.158,1.274" transform="translate(53.583 61.235)" fill="#9bc2e0"/><path d="M121.924,135.79l-2.31,1.333a2.449,2.449,0,0,1-2.207.092l-2.655-1.533c-.566-.327-.494-.9.158-1.275l2.309-1.333a2.454,2.454,0,0,1,2.207-.092l2.657,1.534c.566.326.494.9-.158,1.274" transform="translate(51.929 60.279)" fill="#9bc2e0"/><path d="M162.564,154.972l-2.309,1.333a2.453,2.453,0,0,1-2.207.092l-4.234-2.444c-.566-.327-.5-.9.158-1.274l2.309-1.335a2.458,2.458,0,0,1,2.207-.092l4.234,2.444c.566.327.494.9-.158,1.275" transform="translate(69.664 68.575)" fill="#9bc2e0"/><path d="M157.656,152.139l-2.309,1.333a2.449,2.449,0,0,1-2.207.092l-2.657-1.533c-.566-.327-.494-.9.159-1.275l2.309-1.333a2.454,2.454,0,0,1,2.207-.092l2.657,1.534c.566.326.494.9-.159,1.274" transform="translate(68.152 67.702)" fill="#9bc2e0"/><path d="M154.434,150.279l-2.31,1.333a2.451,2.451,0,0,1-2.206.092l-2.657-1.534c-.566-.326-.494-.9.158-1.274l2.309-1.333a2.449,2.449,0,0,1,2.207-.092l2.657,1.534c.566.326.494.9-.159,1.274" transform="translate(66.69 66.858)" fill="#9bc2e0"/><path d="M151.213,148.419l-2.309,1.333a2.454,2.454,0,0,1-2.207.092l-2.657-1.534c-.566-.326-.494-.9.158-1.274l2.309-1.333a2.449,2.449,0,0,1,2.207-.092l2.657,1.533c.566.327.494.9-.158,1.275" transform="translate(65.227 66.013)" fill="#9bc2e0"/><path d="M147.991,146.559l-2.311,1.333a2.453,2.453,0,0,1-2.207.092l-2.655-1.534c-.566-.326-.494-.9.158-1.274l2.309-1.333a2.449,2.449,0,0,1,2.207-.092l2.657,1.534c.566.326.494.9-.158,1.274" transform="translate(63.764 65.169)" fill="#9bc2e0"/><path d="M144.77,144.7l-2.309,1.333a2.454,2.454,0,0,1-2.207.092L137.6,144.59c-.566-.326-.494-.9.159-1.274l2.309-1.333a2.449,2.449,0,0,1,2.207-.092l2.657,1.534c.566.326.494.9-.158,1.274" transform="translate(62.302 64.324)" fill="#9bc2e0"/><path d="M141.548,142.839l-2.31,1.333a2.45,2.45,0,0,1-2.206.092l-2.657-1.534c-.566-.326-.494-.9.158-1.274l2.309-1.333a2.453,2.453,0,0,1,2.207-.092l2.657,1.534c.566.326.494.9-.159,1.274" transform="translate(60.839 63.48)" fill="#9bc2e0"/><path d="M138.327,140.979l-2.31,1.333a2.453,2.453,0,0,1-2.207.092l-2.655-1.534c-.566-.326-.5-.9.158-1.274l2.309-1.333a2.454,2.454,0,0,1,2.207-.092l2.657,1.534c.566.326.494.9-.158,1.274" transform="translate(59.376 62.635)" fill="#9bc2e0"/><path d="M135.1,139.119l-2.31,1.333a2.45,2.45,0,0,1-2.206.092l-2.657-1.534c-.566-.326-.494-.9.158-1.274L130.4,136.4a2.454,2.454,0,0,1,2.207-.092l2.657,1.534c.566.326.494.9-.158,1.274" transform="translate(57.913 61.791)" fill="#9bc2e0"/><path d="M131.884,137.259l-2.309,1.333a2.453,2.453,0,0,1-2.207.092l-2.657-1.534c-.566-.326-.494-.9.158-1.274l2.309-1.333a2.453,2.453,0,0,1,2.207-.092l2.657,1.534c.566.326.494.9-.159,1.274" transform="translate(56.451 60.946)" fill="#9bc2e0"/><path d="M128.662,135.4l-2.31,1.333a2.45,2.45,0,0,1-2.206.092l-2.657-1.534c-.566-.326-.494-.9.158-1.274l2.309-1.333a2.453,2.453,0,0,1,2.207-.092l2.657,1.534c.566.326.494.9-.158,1.274" transform="translate(54.988 60.102)" fill="#9bc2e0"/><path d="M160.636,149.578l-2.309,1.333a2.456,2.456,0,0,1-2.209.092l-2.655-1.534c-.566-.326-.494-.9.158-1.274l2.309-1.333a2.453,2.453,0,0,1,2.207-.092l2.657,1.534c.566.326.494.9-.159,1.274" transform="translate(69.506 66.54)" fill="#9bc2e0"/><path d="M157.44,147.733l-2.31,1.333a2.449,2.449,0,0,1-2.207.092l-2.655-1.533c-.566-.327-.5-.9.158-1.275l2.309-1.333a2.453,2.453,0,0,1,2.207-.092l2.657,1.534c.566.326.494.9-.158,1.274" transform="translate(68.054 65.702)" fill="#9bc2e0"/><path d="M154.243,145.887l-2.309,1.333a2.449,2.449,0,0,1-2.207.092l-2.657-1.533c-.566-.327-.494-.9.158-1.275l2.309-1.333a2.454,2.454,0,0,1,2.207-.092l2.657,1.534c.566.326.494.9-.158,1.274" transform="translate(66.603 64.864)" fill="#9bc2e0"/><path d="M151.046,144.041l-2.31,1.333a2.449,2.449,0,0,1-2.207.092l-2.655-1.533c-.566-.327-.5-.9.158-1.275l2.309-1.333a2.453,2.453,0,0,1,2.207-.092l2.657,1.534c.566.326.494.9-.158,1.274" transform="translate(65.151 64.026)" fill="#9bc2e0"/><path d="M147.849,142.2l-2.31,1.333a2.449,2.449,0,0,1-2.207.092l-2.655-1.533c-.566-.327-.5-.9.158-1.275l2.309-1.333a2.454,2.454,0,0,1,2.207-.092l2.657,1.534c.566.326.494.9-.158,1.274" transform="translate(63.7 63.188)" fill="#9bc2e0"/><path d="M144.653,140.35l-2.309,1.333a2.452,2.452,0,0,1-2.209.092l-2.655-1.533c-.566-.327-.494-.9.159-1.275l2.309-1.333a2.453,2.453,0,0,1,2.207-.092l2.657,1.534c.566.326.494.9-.158,1.274" transform="translate(62.249 62.35)" fill="#9bc2e0"/><path d="M141.456,138.5l-2.31,1.333a2.453,2.453,0,0,1-2.207.092l-2.655-1.534c-.566-.326-.5-.9.158-1.274l2.309-1.333a2.449,2.449,0,0,1,2.207-.092l2.657,1.533c.566.327.494.9-.158,1.275" transform="translate(60.797 61.512)" fill="#9bc2e0"/><path d="M138.259,136.659l-2.309,1.333a2.449,2.449,0,0,1-2.207.092l-2.657-1.533c-.566-.327-.494-.9.159-1.275l2.309-1.333a2.454,2.454,0,0,1,2.207-.092l2.657,1.534c.566.326.494.9-.158,1.274" transform="translate(59.345 60.674)" fill="#9bc2e0"/><path d="M162.746,146.515l-2.309,1.333a2.449,2.449,0,0,1-2.207.092l-2.657-1.534c-.566-.326-.494-.9.158-1.274l2.309-1.333a2.454,2.454,0,0,1,2.207-.092l2.657,1.534c.566.326.494.9-.158,1.274" transform="translate(70.464 65.149)" fill="#9bc2e0"/><path d="M159.549,144.669,157.239,146a2.45,2.45,0,0,1-2.206.092l-2.657-1.534c-.566-.326-.494-.9.158-1.274l2.309-1.333a2.449,2.449,0,0,1,2.207-.092l2.657,1.534c.566.326.494.9-.158,1.274" transform="translate(69.012 64.311)" fill="#9bc2e0"/><path d="M156.352,142.824l-2.309,1.333a2.449,2.449,0,0,1-2.207.092l-2.657-1.533c-.566-.327-.494-.9.158-1.275l2.309-1.333a2.453,2.453,0,0,1,2.207-.092l2.657,1.534c.566.326.494.9-.158,1.274" transform="translate(67.56 63.473)" fill="#9bc2e0"/><path d="M173.255,148.3l-2.309,1.333a2.454,2.454,0,0,1-2.207.092l-2.657-1.534c-.566-.326-.494-.9.159-1.274l2.309-1.333a2.449,2.449,0,0,1,2.207-.092l2.657,1.533c.566.327.494.9-.159,1.275" transform="translate(75.235 65.96)" fill="#9bc2e0"/><path d="M170.058,146.455l-2.309,1.333a2.449,2.449,0,0,1-2.207.092l-2.657-1.533c-.566-.327-.494-.9.158-1.275l2.309-1.333a2.454,2.454,0,0,1,2.207-.092l2.657,1.534c.566.326.494.9-.158,1.274" transform="translate(73.783 65.122)" fill="#9bc2e0"/><path d="M166.861,144.61l-2.31,1.333a2.453,2.453,0,0,1-2.207.092l-2.655-1.534c-.566-.326-.5-.9.158-1.274l2.309-1.333a2.454,2.454,0,0,1,2.207-.092l2.657,1.534c.566.326.494.9-.158,1.274" transform="translate(72.332 64.284)" fill="#9bc2e0"/><path d="M143.148,130.919l-2.31,1.333a2.45,2.45,0,0,1-2.206.092l-2.657-1.534c-.566-.326-.494-.9.158-1.274l2.309-1.333a2.453,2.453,0,0,1,2.207-.092l2.657,1.534c.566.326.494.9-.158,1.274" transform="translate(61.565 58.068)" fill="#9bc2e0"/><path d="M139.952,129.073l-2.31,1.333a2.449,2.449,0,0,1-2.207.092l-2.655-1.533c-.566-.327-.5-.9.158-1.275l2.309-1.333a2.454,2.454,0,0,1,2.207-.092l2.657,1.534c.566.326.494.9-.158,1.274" transform="translate(60.114 57.23)" fill="#9bc2e0"/><path d="M136.755,127.228l-2.309,1.333a2.449,2.449,0,0,1-2.207.092l-2.657-1.533c-.566-.327-.494-.9.159-1.275l2.309-1.333a2.453,2.453,0,0,1,2.207-.092l2.657,1.534c.566.326.494.9-.159,1.274" transform="translate(58.663 56.392)" fill="#9bc2e0"/><path d="M153.155,140.978l-2.311,1.333a2.446,2.446,0,0,1-2.206.092l-2.657-1.534c-.566-.326-.494-.9.158-1.274l2.309-1.333a2.454,2.454,0,0,1,2.207-.092l2.657,1.534c.566.326.494.9-.158,1.274" transform="translate(66.109 62.635)" fill="#9bc2e0"/><path d="M149.959,139.132l-2.309,1.333a2.454,2.454,0,0,1-2.207.092l-2.657-1.534c-.566-.326-.494-.9.158-1.274l2.309-1.333a2.449,2.449,0,0,1,2.207-.092l2.657,1.533c.566.327.494.9-.158,1.275" transform="translate(64.658 61.797)" fill="#9bc2e0"/><path d="M146.762,137.287l-2.31,1.333a2.446,2.446,0,0,1-2.206.092l-2.657-1.533c-.566-.327-.494-.9.158-1.275l2.309-1.333a2.453,2.453,0,0,1,2.207-.092l2.657,1.534c.566.326.494.9-.158,1.274" transform="translate(63.206 60.959)" fill="#9bc2e0"/><path d="M143.565,135.441l-2.31,1.333a2.453,2.453,0,0,1-2.207.092l-2.655-1.534c-.566-.326-.5-.9.159-1.274l2.309-1.333a2.453,2.453,0,0,1,2.207-.092l2.657,1.534c.566.326.494.9-.158,1.274" transform="translate(61.754 60.121)" fill="#9bc2e0"/><path d="M140.368,133.595l-2.309,1.333a2.449,2.449,0,0,1-2.207.092l-2.657-1.533c-.566-.327-.494-.9.158-1.275l2.309-1.333a2.454,2.454,0,0,1,2.207-.092l2.657,1.534c.566.326.494.9-.158,1.274" transform="translate(60.303 59.283)" fill="#9bc2e0"/><path d="M135.063,134.813l-2.31,1.333a2.456,2.456,0,0,1-2.209.092L127.89,134.7c-.566-.326-.5-.9.158-1.274l2.308-1.333a2.456,2.456,0,0,1,2.209-.092l2.657,1.534c.564.326.493.9-.159,1.274" transform="translate(57.894 59.836)" fill="#9bc2e0"/><path d="M125.632,133.65l-2.31,1.333a2.449,2.449,0,0,1-2.207.092l-2.655-1.533c-.566-.327-.5-.9.159-1.275l2.309-1.333a2.454,2.454,0,0,1,2.207-.092l2.657,1.534c.566.326.494.9-.158,1.274" transform="translate(53.612 59.308)" fill="#9bc2e0"/><path d="M166.637,153.043l-2.309,1.333a2.453,2.453,0,0,1-2.207.092l-5.4-3.12c-.566-.326-.494-.9.158-1.274l2.31-1.333a2.449,2.449,0,0,1,2.207-.092l5.4,3.119c.566.327.494.9-.159,1.275" transform="translate(70.982 67.393)" fill="#9bc2e0"/><path d="M138.754,132.662,136.444,134a2.45,2.45,0,0,1-2.206.092l-8.364-4.827c-.566-.327-.494-.9.158-1.275l2.31-1.333a2.453,2.453,0,0,1,2.207-.092l8.362,4.829c.566.326.494.9-.158,1.274" transform="translate(56.979 57.363)" fill="#9bc2e0"/><path d="M171.073,147.04l-2.31,1.335a2.449,2.449,0,0,1-2.207.092l-27.093-15.644c-.566-.326-.494-.9.158-1.272l2.309-1.335a2.453,2.453,0,0,1,2.207-.09l27.095,15.643c.566.326.494.9-.158,1.272" transform="translate(63.148 58.982)" fill="#9bc2e0"/><path d="M170.881,151.211l-2.309,1.333a2.454,2.454,0,0,1-2.207.092l-7.12-4.111c-.566-.327-.494-.9.158-1.274l2.31-1.333a2.454,2.454,0,0,1,2.207-.093l7.119,4.111c.566.327.494.9-.158,1.275" transform="translate(72.13 66.111)" fill="#9bc2e0"/><path d="M132.981,133.611l-2.309,1.333a2.454,2.454,0,0,1-2.207.092l-6.3-3.637c-.566-.326-.494-.9.158-1.274l2.309-1.333a2.449,2.449,0,0,1,2.207-.092l6.3,3.637c.566.326.494.9-.158,1.274" transform="translate(55.295 58.335)" fill="#9bc2e0"/><path d="M155.631,153.884l2.614,1.509c.419.241.365.663-.118.942l-2.354,1.36a1.816,1.816,0,0,1-1.631.067l-2.614-1.509c-.417-.241-.365-.663.118-.942L154,153.952a1.812,1.812,0,0,1,1.631-.068" transform="translate(68.672 69.796)" fill="#eaf5fe"/><path d="M151.987,151.78l2.614,1.509c.419.241.366.663-.118.942l-2.354,1.36a1.812,1.812,0,0,1-1.631.067l-2.614-1.509c-.417-.241-.365-.663.118-.942l2.354-1.358a1.812,1.812,0,0,1,1.631-.068" transform="translate(67.018 68.841)" fill="#eaf5fe"/><path d="M148.343,149.676l2.614,1.509c.419.241.366.663-.118.942l-2.354,1.36a1.812,1.812,0,0,1-1.631.067l-2.614-1.509c-.417-.241-.365-.663.118-.942l2.354-1.358a1.812,1.812,0,0,1,1.631-.068" transform="translate(65.363 67.885)" fill="#eaf5fe"/><path d="M144.7,147.572l2.614,1.509c.419.241.366.663-.116.942l-2.356,1.36a1.812,1.812,0,0,1-1.631.067L140.6,149.94c-.417-.241-.365-.663.118-.941l2.354-1.36a1.812,1.812,0,0,1,1.631-.068" transform="translate(63.709 66.93)" fill="#eaf5fe"/><path d="M141.055,145.468l2.614,1.509c.419.241.365.663-.118.942l-2.354,1.36a1.816,1.816,0,0,1-1.631.067l-2.614-1.509c-.417-.241-.365-.663.118-.942l2.354-1.358a1.812,1.812,0,0,1,1.631-.068" transform="translate(62.054 65.975)" fill="#eaf5fe"/><path d="M137.411,143.365l2.614,1.509c.419.241.366.663-.118.942l-2.354,1.36a1.816,1.816,0,0,1-1.631.067l-2.614-1.509c-.417-.241-.365-.663.118-.942l2.354-1.358a1.812,1.812,0,0,1,1.631-.068" transform="translate(60.4 65.02)" fill="#eaf5fe"/><path d="M133.767,141.261l2.614,1.509c.419.241.366.663-.118.942l-2.354,1.36a1.816,1.816,0,0,1-1.631.067l-2.614-1.509c-.417-.241-.365-.663.118-.942l2.354-1.358a1.812,1.812,0,0,1,1.631-.068" transform="translate(58.745 64.065)" fill="#eaf5fe"/><path d="M130.123,139.157l2.614,1.509c.419.241.366.663-.116.942l-2.356,1.36a1.812,1.812,0,0,1-1.631.067l-2.614-1.509c-.417-.241-.365-.663.118-.942l2.354-1.358a1.812,1.812,0,0,1,1.631-.068" transform="translate(57.091 63.109)" fill="#eaf5fe"/><path d="M126.479,137.053l2.614,1.509c.419.241.365.663-.118.942l-2.354,1.36a1.812,1.812,0,0,1-1.631.067l-2.614-1.509c-.417-.241-.365-.663.118-.942l2.354-1.358a1.812,1.812,0,0,1,1.631-.068" transform="translate(55.436 62.154)" fill="#eaf5fe"/><path d="M122.835,134.949l2.614,1.509c.419.241.365.663-.118.942l-2.354,1.36a1.817,1.817,0,0,1-1.631.067l-2.614-1.509c-.417-.241-.365-.663.118-.942l2.354-1.358a1.812,1.812,0,0,1,1.631-.068" transform="translate(53.781 61.199)" fill="#eaf5fe"/><path d="M119.191,132.845l2.614,1.509c.419.241.366.663-.118.942l-2.354,1.36a1.817,1.817,0,0,1-1.631.067l-2.614-1.509c-.417-.241-.365-.663.118-.942l2.354-1.358a1.812,1.812,0,0,1,1.631-.068" transform="translate(52.127 60.243)" fill="#eaf5fe"/><path d="M158.255,151.117l4.192,2.421c.417.241.366.663-.116.942l-2.356,1.358a1.815,1.815,0,0,1-1.633.068l-4.191-2.421c-.419-.241-.366-.663.116-.942l2.354-1.358a1.815,1.815,0,0,1,1.633-.068" transform="translate(69.863 68.54)" fill="#eaf5fe"/><path d="M154.923,149.194l2.614,1.509c.419.241.365.663-.118.942L155.066,153a1.816,1.816,0,0,1-1.631.067l-2.614-1.509c-.417-.241-.365-.663.118-.942l2.354-1.358a1.812,1.812,0,0,1,1.631-.068" transform="translate(68.351 67.666)" fill="#eaf5fe"/><path d="M151.7,147.334l2.613,1.509c.42.241.366.663-.118.942l-2.354,1.36a1.813,1.813,0,0,1-1.63.067L147.6,149.7c-.417-.241-.365-.663.118-.942l2.354-1.358a1.815,1.815,0,0,1,1.633-.068" transform="translate(66.888 66.822)" fill="#eaf5fe"/><path d="M148.48,145.474l2.614,1.509c.419.241.365.663-.118.942l-2.354,1.36a1.817,1.817,0,0,1-1.631.067l-2.614-1.509c-.417-.241-.365-.663.118-.942l2.354-1.358a1.812,1.812,0,0,1,1.631-.068" transform="translate(65.425 65.977)" fill="#eaf5fe"/><path d="M145.258,143.614l2.614,1.509c.419.241.366.663-.118.942l-2.354,1.36a1.817,1.817,0,0,1-1.631.067l-2.614-1.509c-.417-.241-.365-.663.118-.942l2.354-1.358a1.812,1.812,0,0,1,1.631-.068" transform="translate(63.962 65.133)" fill="#eaf5fe"/><path d="M142.037,141.754l2.614,1.509c.419.241.365.663-.118.942l-2.354,1.36a1.817,1.817,0,0,1-1.631.067l-2.614-1.509c-.417-.241-.365-.663.118-.942l2.354-1.358a1.812,1.812,0,0,1,1.631-.068" transform="translate(62.5 64.288)" fill="#eaf5fe"/><path d="M138.817,139.894l2.613,1.509c.42.241.366.663-.116.942l-2.356,1.36a1.814,1.814,0,0,1-1.63.067l-2.616-1.509c-.417-.241-.365-.663.118-.942l2.354-1.358a1.816,1.816,0,0,1,1.633-.068" transform="translate(61.037 63.444)" fill="#eaf5fe"/><path d="M135.594,138.034l2.614,1.509c.419.241.365.663-.118.942l-2.354,1.36a1.812,1.812,0,0,1-1.631.067l-2.614-1.509c-.417-.241-.365-.663.118-.942l2.354-1.358a1.812,1.812,0,0,1,1.631-.068" transform="translate(59.575 62.599)" fill="#eaf5fe"/><path d="M132.372,136.174l2.614,1.509c.419.241.366.663-.116.942l-2.356,1.36a1.812,1.812,0,0,1-1.631.067l-2.614-1.509c-.417-.241-.365-.663.118-.942l2.354-1.358a1.812,1.812,0,0,1,1.631-.068" transform="translate(58.112 61.755)" fill="#eaf5fe"/><path d="M129.151,134.314l2.614,1.509c.419.241.366.663-.118.942l-2.354,1.36a1.812,1.812,0,0,1-1.631.067l-2.614-1.509c-.417-.241-.365-.663.118-.942l2.354-1.358a1.812,1.812,0,0,1,1.631-.068" transform="translate(56.649 60.91)" fill="#eaf5fe"/><path d="M125.929,132.454l2.614,1.509c.419.241.366.663-.116.942l-2.356,1.36a1.812,1.812,0,0,1-1.631.067l-2.614-1.509c-.417-.241-.365-.663.118-.942l2.354-1.358a1.812,1.812,0,0,1,1.631-.068" transform="translate(55.186 60.066)" fill="#eaf5fe"/><path d="M157.9,146.633l2.613,1.509c.419.241.366.663-.116.942l-2.356,1.36a1.812,1.812,0,0,1-1.631.067L153.8,149c-.417-.241-.365-.663.118-.942l2.354-1.358a1.815,1.815,0,0,1,1.633-.068" transform="translate(69.704 66.504)" fill="#eaf5fe"/><path d="M154.707,144.788l2.614,1.509c.419.241.366.663-.118.942l-2.354,1.36a1.817,1.817,0,0,1-1.631.067l-2.614-1.509c-.417-.241-.365-.663.118-.942l2.354-1.358a1.812,1.812,0,0,1,1.631-.068" transform="translate(68.253 65.666)" fill="#eaf5fe"/><path d="M151.51,142.942l2.614,1.509c.419.241.365.663-.118.942l-2.354,1.36a1.812,1.812,0,0,1-1.631.067l-2.614-1.509c-.417-.241-.365-.663.118-.942l2.354-1.358a1.812,1.812,0,0,1,1.631-.068" transform="translate(66.801 64.828)" fill="#eaf5fe"/><path d="M148.313,141.1l2.614,1.509c.419.241.366.663-.118.942l-2.354,1.36a1.817,1.817,0,0,1-1.631.067l-2.614-1.509c-.417-.241-.365-.663.118-.942l2.354-1.358a1.812,1.812,0,0,1,1.631-.068" transform="translate(65.35 63.99)" fill="#eaf5fe"/><path d="M145.117,139.251l2.614,1.509c.419.241.365.663-.118.942l-2.354,1.36a1.817,1.817,0,0,1-1.631.067l-2.614-1.509c-.417-.241-.365-.663.118-.942l2.354-1.358a1.812,1.812,0,0,1,1.631-.068" transform="translate(63.898 63.152)" fill="#eaf5fe"/><path d="M141.92,137.4l2.614,1.509c.419.241.366.663-.116.942l-2.356,1.36a1.812,1.812,0,0,1-1.631.067l-2.614-1.509c-.417-.241-.365-.663.118-.942l2.354-1.358a1.812,1.812,0,0,1,1.631-.068" transform="translate(62.447 62.314)" fill="#eaf5fe"/><path d="M138.723,135.559l2.614,1.509c.419.241.366.663-.118.942l-2.354,1.36a1.817,1.817,0,0,1-1.631.067l-2.614-1.509c-.417-.241-.365-.663.118-.942l2.354-1.358a1.812,1.812,0,0,1,1.631-.068" transform="translate(60.995 61.476)" fill="#eaf5fe"/><path d="M135.526,133.714l2.614,1.509c.419.241.366.663-.116.942l-2.356,1.36a1.816,1.816,0,0,1-1.631.067l-2.614-1.509c-.417-.241-.365-.663.118-.942l2.354-1.358a1.812,1.812,0,0,1,1.631-.068" transform="translate(59.544 60.638)" fill="#eaf5fe"/><path d="M160.013,143.57l2.614,1.509c.419.241.365.663-.118.942l-2.354,1.36a1.812,1.812,0,0,1-1.631.067l-2.614-1.509c-.417-.241-.365-.663.118-.942l2.354-1.358a1.812,1.812,0,0,1,1.631-.068" transform="translate(70.662 65.113)" fill="#eaf5fe"/><path d="M156.816,141.724l2.614,1.509c.419.241.366.663-.118.942l-2.354,1.36a1.816,1.816,0,0,1-1.631.067l-2.614-1.509c-.417-.241-.365-.663.118-.942l2.354-1.358a1.812,1.812,0,0,1,1.631-.068" transform="translate(69.21 64.275)" fill="#eaf5fe"/><path d="M153.621,139.879l2.613,1.509c.42.241.365.663-.118.942l-2.354,1.36a1.814,1.814,0,0,1-1.63.067l-2.616-1.509c-.417-.241-.365-.663.118-.942l2.354-1.358a1.815,1.815,0,0,1,1.633-.068" transform="translate(67.759 63.437)" fill="#eaf5fe"/><path d="M170.522,145.356l2.614,1.509c.419.241.366.663-.118.942l-2.354,1.36a1.817,1.817,0,0,1-1.631.067l-2.614-1.509c-.417-.241-.365-.663.118-.942l2.354-1.358a1.812,1.812,0,0,1,1.631-.068" transform="translate(75.433 65.924)" fill="#eaf5fe"/><path d="M167.325,143.51l2.614,1.509c.419.241.366.663-.116.942l-2.356,1.36a1.816,1.816,0,0,1-1.631.067l-2.614-1.509c-.417-.241-.365-.663.118-.942l2.354-1.358a1.812,1.812,0,0,1,1.631-.068" transform="translate(73.982 65.086)" fill="#eaf5fe"/><path d="M164.129,141.665l2.614,1.509c.419.241.366.663-.118.942l-2.354,1.36a1.812,1.812,0,0,1-1.631.067l-2.614-1.509c-.417-.241-.365-.663.118-.942l2.354-1.358a1.812,1.812,0,0,1,1.631-.068" transform="translate(72.531 64.248)" fill="#eaf5fe"/><path d="M140.415,127.974l2.614,1.509c.419.241.366.663-.116.942l-2.356,1.36a1.812,1.812,0,0,1-1.631.067l-2.614-1.509c-.417-.241-.365-.663.118-.942l2.354-1.358a1.813,1.813,0,0,1,1.631-.068" transform="translate(61.764 58.032)" fill="#eaf5fe"/><path d="M137.219,126.128l2.614,1.509c.419.241.366.663-.118.942l-2.354,1.36a1.816,1.816,0,0,1-1.631.067l-2.614-1.509c-.417-.241-.365-.663.118-.942l2.354-1.358a1.812,1.812,0,0,1,1.631-.068" transform="translate(60.312 57.193)" fill="#eaf5fe"/><path d="M134.022,124.283l2.614,1.509c.419.241.366.663-.116.942l-2.356,1.36a1.817,1.817,0,0,1-1.631.067l-2.614-1.509c-.417-.241-.365-.663.118-.942l2.354-1.358a1.812,1.812,0,0,1,1.631-.068" transform="translate(58.861 56.356)" fill="#eaf5fe"/><path d="M150.423,138.033l2.614,1.509c.419.241.366.663-.116.942l-2.356,1.36a1.812,1.812,0,0,1-1.631.067L146.32,140.4c-.417-.241-.365-.663.118-.942l2.354-1.358a1.812,1.812,0,0,1,1.631-.068" transform="translate(66.308 62.599)" fill="#eaf5fe"/><path d="M147.226,136.187l2.614,1.509c.419.241.366.663-.118.942L147.369,140a1.817,1.817,0,0,1-1.631.067l-2.614-1.509c-.417-.241-.365-.663.118-.942l2.354-1.358a1.812,1.812,0,0,1,1.631-.068" transform="translate(64.856 61.761)" fill="#eaf5fe"/><path d="M144.029,134.342l2.614,1.509c.419.241.366.663-.116.942l-2.356,1.36a1.817,1.817,0,0,1-1.631.067l-2.614-1.509c-.417-.241-.365-.663.118-.942l2.354-1.358a1.812,1.812,0,0,1,1.631-.068" transform="translate(63.404 60.923)" fill="#eaf5fe"/><path d="M140.834,132.5l2.613,1.509c.419.241.366.663-.118.942l-2.354,1.36a1.812,1.812,0,0,1-1.631.067l-2.614-1.509c-.417-.241-.365-.663.118-.942l2.354-1.358a1.815,1.815,0,0,1,1.633-.068" transform="translate(61.953 60.085)" fill="#eaf5fe"/><path d="M137.636,130.65l2.614,1.509c.419.241.365.663-.118.942l-2.354,1.36a1.817,1.817,0,0,1-1.631.067l-2.614-1.509c-.417-.241-.365-.663.118-.942L136,130.718a1.812,1.812,0,0,1,1.631-.068" transform="translate(60.502 59.247)" fill="#eaf5fe"/><path d="M132.33,131.868l2.614,1.509c.419.241.366.663-.118.942l-2.354,1.36a1.812,1.812,0,0,1-1.631.067l-2.614-1.509c-.417-.241-.365-.663.118-.942l2.354-1.358a1.812,1.812,0,0,1,1.631-.068" transform="translate(58.093 59.8)" fill="#eaf5fe"/><path d="M122.9,130.7l2.614,1.509c.419.241.366.663-.118.942l-2.354,1.36a1.816,1.816,0,0,1-1.631.067l-2.614-1.509c-.417-.241-.365-.663.118-.942l2.354-1.358a1.812,1.812,0,0,1,1.631-.068" transform="translate(53.811 59.272)" fill="#eaf5fe"/><path d="M161.157,148.512l5.363,3.1c.417.241.365.663-.118.942l-2.354,1.36a1.817,1.817,0,0,1-1.631.067l-5.363-3.1c-.417-.241-.365-.663.118-.942l2.354-1.358a1.812,1.812,0,0,1,1.631-.068" transform="translate(71.181 67.357)" fill="#eaf5fe"/><path d="M130.314,126.423l8.321,4.8c.417.241.365.663-.118.942l-2.354,1.36a1.817,1.817,0,0,1-1.631.067l-8.321-4.8c-.417-.241-.365-.663.118-.942l2.354-1.358a1.812,1.812,0,0,1,1.631-.068" transform="translate(57.177 57.327)" fill="#eaf5fe"/><path d="M143.9,129.987l27.052,15.619c.419.241.366.663-.118.941l-2.354,1.36a1.812,1.812,0,0,1-1.631.068L139.8,132.355c-.417-.241-.365-.663.118-.942l2.354-1.358a1.812,1.812,0,0,1,1.631-.068" transform="translate(63.347 58.946)" fill="#eaf5fe"/><path d="M163.684,145.69l7.078,4.086c.417.241.365.663-.118.942l-2.354,1.36a1.812,1.812,0,0,1-1.631.068l-7.078-4.087c-.417-.241-.365-.663.118-.942l2.354-1.358a1.812,1.812,0,0,1,1.631-.068" transform="translate(72.329 66.075)" fill="#eaf5fe"/><path d="M126.607,128.564l6.257,3.612c.417.241.365.663-.118.942l-2.354,1.36a1.812,1.812,0,0,1-1.631.067l-6.257-3.612c-.417-.241-.365-.663.118-.942l2.354-1.358a1.812,1.812,0,0,1,1.631-.068" transform="translate(55.494 58.3)" fill="#eaf5fe"/><path d="M170.638,184.432l-61.544-37.149a2.354,2.354,0,0,1-1.069-1.844l-1.312-37.9c0-.678,1.79-1.563,2.38-1.223l62.49,36.179a2.354,2.354,0,0,1,1.069,1.844v38.51c0,.676-1.425,1.919-2.015,1.579" transform="translate(48.453 48.239)" fill="#ddedf9"/><path d="M170.26,184.056l-62.49-36.179a2.354,2.354,0,0,1-1.069-1.844v-38.51c0-.676.478-.949,1.069-.609l62.49,36.179a2.354,2.354,0,0,1,1.069,1.844v38.51c0,.678-.478.949-1.069.609" transform="translate(48.447 48.477)" fill="#b5d3ea"/><path d="M160.808,111.667l-23.555,13.6V106.272l23.555-13.6Z" transform="translate(62.318 42.077)" fill="#f16988"/><path d="M137.134,102.448l-9.024,5.21c-2.771,1.6-5.018-.1-5.018-3.792s2.246-7.987,5.018-9.587l9.024-5.21c2.771-1.6,5.016.1,5.016,3.792s-2.245,7.987-5.016,9.587" transform="translate(55.889 40.168)" fill="#ec4b75"/><path d="M125.567,100.828l-1.466,7.817,4.691-8.6Z" transform="translate(56.347 45.426)" fill="#ec4b75"/><path d="M147.951,76.767,135,84.245c-3.978,2.3-7.2-.141-7.2-5.444s3.224-11.462,7.2-13.758l12.951-7.478c3.977-2.3,7.2.141,7.2,5.444s-3.224,11.462-7.2,13.758" transform="translate(58.026 25.745)" fill="#ec4b75"/><path d="M131.349,74.441l-2.1,11.219,6.734-12.338Z" transform="translate(58.683 33.292)" fill="#ec4b75"/><path d="M183.2,69.665l-7.7,4.445c-2.364,1.364-4.279-.084-4.279-3.237s1.915-6.812,4.279-8.176l7.7-4.445c2.364-1.364,4.279.084,4.279,3.235s-1.915,6.814-4.279,8.178" transform="translate(77.745 26.216)" fill="#ec4b75"/><path d="M173.338,68.283l-1.25,6.668,4-7.333Z" transform="translate(78.135 30.702)" fill="#ec4b75"/><path d="M165.728,47.453c-3.49,2.012-7.15,8.714-7.15,13.2,0,1.807.646,3.208,2.675,2.037,1.492-.861,3.8-3.58,4.952-6.6,0,.161-.083.856-.083,1.048,0,1.131.366,2.472,1.549,1.786a13.513,13.513,0,0,0,3.744-4.225c-1.771,4.7-5.323,9.3-9.235,11.563-4.281,2.472-6.982.964-6.982-4.266,0-7.042,4.926-15.214,10.616-18.5,4.416-2.55,7.01-.851,7.01,4.153a19.2,19.2,0,0,1-.705,4.931,10.063,10.063,0,0,1-3.465,4.095c-1.012.587-1.04-.526-1.04-1.108,0-1.777.816-4.41,1.55-8.384-.705-.435-1.831-.659-3.437.272m1.55,1.786c-.537,3.762-3.322,9.762-5.21,10.854-.871.5-1.236-.256-1.236-1.352,0-3.651,3.1-8.278,4.926-9.338.448-.257,1.293-.746,1.519-.164" transform="translate(70.467 19.215)" fill="#ec4b75"/><path d="M116.913,97.171c-1.707.986-3.5,4.263-3.5,6.462,0,.886.316,1.57,1.306,1a7.131,7.131,0,0,0,2.425-3.235c0,.08-.042.42-.042.516,0,.55.18,1.207.758.874a6.6,6.6,0,0,0,1.831-2.071,11.453,11.453,0,0,1-4.516,5.659c-2.092,1.207-3.417.47-3.417-2.089a11.536,11.536,0,0,1,5.194-9.057c2.162-1.248,3.429-.41,3.429,2.039a9.485,9.485,0,0,1-.343,2.412,4.944,4.944,0,0,1-1.694,2.007c-.5.286-.51-.26-.51-.544a35.523,35.523,0,0,1,.758-4.1,1.562,1.562,0,0,0-1.681.131m.758.872c-.262,1.845-1.624,4.785-2.547,5.317-.427.244-.606-.126-.606-.663a6.613,6.613,0,0,1,2.411-4.57c.221-.126.634-.365.743-.084" transform="translate(50.744 42.979)" fill="#ec4b75"/><path d="M164.472,87.531c-2.262,1.307-4.63,5.639-4.63,8.547,0,1.168.42,2.081,1.733,1.322a9.391,9.391,0,0,0,3.2-4.278c0,.1-.054.555-.054.68,0,.731.236,1.6,1,1.156a8.725,8.725,0,0,0,2.424-2.735,15.139,15.139,0,0,1-5.975,7.484c-2.773,1.6-4.519.624-4.519-2.764a15.253,15.253,0,0,1,6.869-11.971c2.86-1.65,4.535-.55,4.535,2.69a12.5,12.5,0,0,1-.454,3.189,6.521,6.521,0,0,1-2.239,2.654c-.66.38-.678-.34-.678-.72a47.159,47.159,0,0,1,1-5.425,2.062,2.062,0,0,0-2.222.172m1,1.157c-.346,2.434-2.149,6.321-3.37,7.027-.564.323-.8-.164-.8-.877a8.758,8.758,0,0,1,3.19-6.04c.291-.17.839-.487.983-.111" transform="translate(71.583 38.236)" fill="#ec4b75"/><path d="M149.593,108.97l11.215-16.3v18.994l-23.556,13.6V106.272Z" transform="translate(62.318 42.077)" fill="#ec4b75"/><path d="M162.824,81.638l-15.238,8.8V78.149l15.238-8.8Z" transform="translate(67.01 31.488)" fill="#f16988"/><path d="M155.57,79.893l7.256-10.543V81.638l-15.24,8.8V78.149Z" transform="translate(67.01 31.488)" fill="#ec4b75"/><path d="M128.075,85.959l-15.238,8.8V82.469l15.238-8.8Z" transform="translate(51.233 33.45)" fill="#f16988"/><path d="M120.821,84.214l7.256-10.543V85.959l-15.24,8.8V82.469Z" transform="translate(51.233 33.45)" fill="#ec4b75"/><path d="M137.78,92.614,125.7,99.586V97.679l12.076-6.972Z" transform="translate(57.075 41.185)" fill="#ffc0d1"/><path d="M137.78,95.291,125.7,102.263v-1.906l12.076-6.972Z" transform="translate(57.075 42.401)" fill="#ffc0d1"/><path d="M148.142,62.8,132.4,71.893V69.408l15.74-9.088Z" transform="translate(60.116 27.388)" fill="#ffc0d1"/><path d="M148.142,66.295,132.4,75.382V72.9l15.74-9.088Z" transform="translate(60.116 28.972)" fill="#ffc0d1"/><path d="M183.756,61.633l-10.574,6.106V66.07l10.574-6.106Z" transform="translate(78.632 27.226)" fill="#ffc0d1"/><path d="M183.756,63.978l-10.574,6.1V68.413l10.574-6.1Z" transform="translate(78.632 28.291)" fill="#ffc0d1"/></g></g></svg>