<svg xmlns="http://www.w3.org/2000/svg" xmlns:xlink="http://www.w3.org/1999/xlink" width="60" height="60" viewBox="0 0 60 60"><defs><clipPath id="a"><rect width="60" height="60" fill="none"/></clipPath></defs><g transform="translate(-200.582 -6412.204)"><g transform="translate(200.582 6412.204)"><g clip-path="url(#a)"><path d="M29.208,0h1.873a1.229,1.229,0,0,0,.82,0h.585c.843.136,1.7.1,2.545.21A26.831,26.831,0,0,1,42.3,2.362a28.792,28.792,0,0,1,7.52,4.795,30.061,30.061,0,0,1,7.258,9.384,29.484,29.484,0,0,1,2.6,7.681,20.876,20.876,0,0,1,.257,3.257c-.183.252-.346.054-.49-.04a3.587,3.587,0,0,1-.555-.516c-3.686-3.7-7.389-7.376-11.058-11.09a.691.691,0,0,0-.567-.227l-16.127,0c-.37,0-.74,0-1.109-.032-1.287.065-2.574.028-3.861.029q-6.2.009-12.4,0c-1.012,0-1.043.031-1.043,1.062q0,10.249,0,20.5a11.066,11.066,0,0,1-.033,1.111c.068,1.776.014,3.553.032,5.329a4.839,4.839,0,0,0,.039.758c.074.5.512.72.818,1.026q6.872,6.861,13.695,13.77c.221.225.541.437.3.838h-.117c-.8-.149-1.622-.1-2.428-.21a27.239,27.239,0,0,1-7.581-2.3,29.618,29.618,0,0,1-9.989-7.4A29.182,29.182,0,0,1,.3,35.329a42.72,42.72,0,0,1-.266-7.523A25.108,25.108,0,0,1,2.081,18.5,29.627,29.627,0,0,1,8.1,9.225,30.241,30.241,0,0,1,23.07.556a22.316,22.316,0,0,1,4.107-.5C27.308.05,27.45.1,27.569,0h.82a1.229,1.229,0,0,0,.82,0" transform="translate(0)" fill="#fedc55"/><path d="M115.344,98.394c.174.154.358.3.522.462q5.623,5.623,11.244,11.248a1.453,1.453,0,0,0,.531.445q.059-.113.111,0v1.055a.923.923,0,0,0,0,.7v1.758a.923.923,0,0,0,0,.7v.82c-.136.843-.093,1.7-.211,2.546a26.823,26.823,0,0,1-2.064,6.992A30.5,30.5,0,0,1,103.651,142.7a23.44,23.44,0,0,1-2.961.259c-.151.011-.312-.05-.451.058h-.82a.648.648,0,0,0-.585,0H97.194a1.228,1.228,0,0,0-.819,0H95.321a.733.733,0,0,0-.3-.545q-4.785-4.8-9.568-9.6-2.575-2.588-5.139-5.188c.242-.366.626-.265.96-.266q4.588-.018,9.176,0c2.435.007,4.87-.043,7.3.03,1.638-.067,3.276-.026,4.915-.029,3.8-.007,7.608,0,11.412,0,.947,0,.994-.054,1-.988.017-1.7-.038-3.4.031-5.1-.017-.273-.032-.545-.032-.819q0-10.509.006-21.018c0-.375-.116-.795.252-1.093" transform="translate(-67.752 -83.014)" fill="#ecbd00"/><path d="M182.287,0a.712.712,0,0,1-.82,0Z" transform="translate(-153.078)" fill="#fee57f"/><path d="M199.5,0a.7.7,0,0,1-.82,0Z" transform="translate(-167.599)" fill="#fee686"/><path d="M182.964,383.154a.71.71,0,0,1,.82,0Z" transform="translate(-154.341 -323.154)" fill="#efc312"/><path d="M382.859,183.635a.556.556,0,0,1,0-.7Z" transform="translate(-322.859 -154.338)" fill="#efc417"/><path d="M382.853,199.379a.552.552,0,0,1,0-.7Z" transform="translate(-322.853 -167.621)" fill="#f1c928"/><path d="M198.68,383.208a.417.417,0,0,1,.585,0Z" transform="translate(-167.599 -323.208)" fill="#f1c928"/><path d="M208.131,98.248q0,11.093,0,22.187c0,.253-.012.507-.019.76-.266.324-.64.244-.981.244q-5.763.012-11.526,0c-1.365,0-2.73,0-4.1,0a1.767,1.767,0,0,1-.861-.107.526.526,0,0,1-.181-.144.97.97,0,0,1-.144-.554c-.015-2.018-.012-4.036,0-6.055a1.666,1.666,0,0,1,.07-.457c.082-.451.465-.6.807-.772,1.721-.87,3.451-1.722,5.172-2.591.185-.093.405-.143.525-.35-.109-.216-.334-.259-.518-.351-1.723-.866-3.452-1.721-5.173-2.591-.344-.173-.721-.326-.817-.772a1.974,1.974,0,0,1-.073-.7q-.006-3.424,0-6.847c0-.324-.059-.676.257-.916q8.282-.008,16.565-.015c.331,0,.662.018.993.027" transform="translate(-160.539 -82.868)" fill="#c7001c"/><path d="M97.188,113.875q0,3.613-.008,7.226c-.222.351-.584.265-.9.267-2.434.013-4.869.006-7.3.006-2.8,0-5.609,0-8.413,0-.323,0-.674.061-.921-.245-.006-1.014-.017-2.029-.018-3.043,0-6.419.005-12.839-.012-19.258,0-.534.14-.687.68-.685,5.633.025,11.267.023,16.9.028l-.005,8.644-.065.067a.967.967,0,0,1-.829-.166c-.928-.454-1.845-.93-2.774-1.38-.467-.226-.535-.185-.536.345q-.011,4.712,0,9.424c0,.532.036.549.53.306.927-.455,1.847-.926,2.774-1.383a1.148,1.148,0,0,1,.829-.209l.072.06" transform="translate(-67.158 -82.798)" fill="#fe5b5b"/><path d="M79.7,245.066l16.779,0c.253,0,.506-.014.759-.021l.018.038a2.6,2.6,0,0,1,.04,2.254.882.882,0,0,1-.612.125c-2.715,0-5.43.013-8.143-.005a.917.917,0,0,1-.627-.381,1.925,1.925,0,0,0-2.973-.033,1.159,1.159,0,0,1-.614.419,4.353,4.353,0,0,1-1.214.075c-.341.009-.472.163-.494.5-.058.9.015.989.942,1a2.205,2.205,0,0,1,.749.07,1.092,1.092,0,0,1,.618.409,1.924,1.924,0,0,0,2.972-.005.972.972,0,0,1,.624-.4c2.713-.02,5.424-.005,8.135-.007a.992.992,0,0,1,.622.115,2.264,2.264,0,0,1-.037,2.148l-8.294.019-9.17.017c-.118-.079-.1-.2-.1-.317q.007-3.012.017-6.023" transform="translate(-67.22 -206.74)" fill="#6c67d1"/><path d="M191.957,247.4q0-1.1.007-2.191l17.53-.014c.007,1.97,0,3.941.03,5.911.006.418-.192.415-.494.415-2.885-.006-5.771,0-8.656,0q-4.21,0-8.421-.019,0-1.04,0-2.079c.266-.378.671-.257,1.023-.259,4.114-.011,8.227-.006,12.341-.007.234,0,.468,0,.7-.01.489-.018.542-.349.542-.732s-.056-.713-.544-.73c-.234-.008-.468-.01-.7-.01-4.114,0-8.228,0-12.341-.007-.351,0-.757.121-1.019-.264" transform="translate(-161.924 -206.871)" fill="#534dc9"/><path d="M190.565,153.618l7,3.539-7,3.526.019-.028-.018-.029c-.258-.16-.247-.424-.249-.675q-.02-2.8,0-5.6c0-.252,0-.514.25-.676l.019-.031Z" transform="translate(-160.535 -129.606)" fill="#e5e5fe"/><path d="M167.885,142.521q0,3.473,0,6.947c-1.354.683-2.713,1.357-4.059,2.056-.388.2-.4.035-.4-.286q.009-5.233,0-10.465c0-.421.109-.458.457-.279,1.331.685,2.672,1.353,4.009,2.028" transform="translate(-137.854 -118.447)" fill="#fefefe"/><path d="M144.03,259.3l10.827.018c1.151,0,2.3.02,3.453-.01.46-.012.6.125.595.591-.014,1.4.005,1.4-1.415,1.4l-13.461.018-8.885-.023c-.024-.138.067-.2.168-.251a2.087,2.087,0,0,1,.92-.105c2.259,0,4.519,0,6.778,0,.362,0,.718,0,.754-.51.04-.559-.114-.732-.761-.735-2.259-.01-4.519,0-6.778-.005a2.089,2.089,0,0,1-.921-.107c-.1-.056-.191-.118-.159-.256l8.886-.022" transform="translate(-113.997 -218.77)" fill="#b6b4e8"/><path d="M111.564,253.007l.088.118a1.173,1.173,0,0,1,0,1.74l-.092.117c-1.124,1.626-2.579,1.608-3.975-.048a1.3,1.3,0,0,1,0-1.888,2.739,2.739,0,0,1,1.47-1.155,2.231,2.231,0,0,1,2.5,1.116" transform="translate(-90.417 -212.454)" fill="#9bd199"/><path d="M98.737,259.615a3.385,3.385,0,0,0,0,1.888l-1.516.015c-.078,0-.178.024-.229-.015-.558-.426-.142-1.025-.259-1.533-.064-.277.111-.374.374-.368.544.012,1.089.01,1.633.014" transform="translate(-81.563 -219.024)" fill="#e3e3fd"/><path d="M135.744,261.863a3.093,3.093,0,0,0,0-1.74c2.73,0,5.461,0,8.191-.013.446,0,.626.112.611.591-.043,1.374.147,1.16-1.135,1.165-2.555.01-5.11,0-7.664,0" transform="translate(-114.507 -219.452)" fill="#e5e5fe"/></g></g></g></svg>